M48
;GenerationSoftware,Autodesk,EAGLE,9.6.2*%
;CreationDate,2021-11-05T19:27:47Z*%
FMAT,2
ICI,OFF
METRIC,TZ,000.000
T7C0.200
T6C0.508
T5C0.650
T4C1.000
T3C1.016
T2C1.400
T1C3.302
%
G90
M71
T1
X2540Y91440
X27940Y91440
X27940Y2540
X2540Y2540
T2
X3199Y63246
X26399Y63246
T3
X25400Y13970
X25400Y44450
X25400Y46990
X25400Y41910
X5080Y49530
X5080Y52070
X25400Y49530
X25400Y16510
X25400Y19050
X25400Y21590
X25400Y24130
X25400Y26670
X25400Y29210
X25400Y31750
X25400Y34290
X25400Y36830
X25400Y39370
X25400Y52070
X5080Y24130
X5080Y26670
X5080Y29210
X5080Y31750
X5080Y34290
X5080Y36830
X5080Y39370
X5080Y41910
X5080Y44450
X5080Y46990
T4
X18544Y89662
X10544Y89662
T5
X12350Y4905
X18130Y4905
T6
X9525Y31750
X10795Y33020
X10795Y34290
X10795Y35560
X10795Y36830
X10795Y31750
X9525Y33020
X9525Y34290
X9525Y35560
X9525Y36830
T7
X3556Y10947
X2667Y10947
X3556Y11836
X4064Y17043
X4064Y17805
X4064Y16281
X11303Y6883
X18415Y7264
X8763Y4089
X21717Y3962
X20701Y4978
X9779Y5232
X13208Y28194
X14605Y42037
X14605Y44450
X17145Y43942
X17145Y42037
X15748Y42037
X15748Y43434
X15748Y44577
X13335Y27178
X17653Y7239
X17526Y13335
X12827Y7239
X28884Y22822
X22705Y67310
X17018Y27432
X9398Y26543
X16764Y19370
X19471Y48641
X18161Y36068
X21378Y48727
X22352Y32258
X11811Y32258
X20828Y49149
X22352Y31115
X11811Y31496
X21844Y49149
X22444Y33528
X11811Y33528
X19939Y49149
X20828Y32893
X18923Y32893
X20413Y48641
X20955Y31623
X18923Y31623
X12700Y13970
X13610Y41616
X13335Y42291
X13335Y45466
X12446Y47498
X13335Y44818
X12500Y51997
X17099Y52070
X19431Y39243
X29816Y24230
X11611Y48406
X12908Y51235
X17469Y51435
X16510Y8983
X15902Y7718
X18415Y41819
X18415Y42396
X18415Y43053
X13335Y42926
X23990Y42736
X18288Y45881
X23746Y74900
X18288Y45304
X23476Y77500
X29573Y47087
X17815Y43715
X17018Y45339
X16383Y45720
X28083Y44550
X3556Y8890
X9906Y29672
X15402Y48279
X10582Y60021
X10600Y52070
X3556Y7874
X10668Y29972
X16129Y41021
X15661Y45807
X10228Y72527
X11430Y39878
X6985Y31750
X7731Y81915
X7685Y39578
X12065Y40190
X6674Y78829
X7182Y40076
X14097Y38354
X14097Y38989
X14059Y40656
X6350Y40640
X14859Y40860
X15494Y41275
X17000Y54000
X14961Y8382
X19812Y9398
X18644Y28600
X5939Y80010
X7239Y64135
X18588Y57649
X14884Y47879
X19558Y57658
X20955Y6350
X18475Y47879
X14875Y38481
X3556Y9906
X13462Y9525
X14325Y53213
X21196Y42532
X20447Y39871
X12700Y36195
X18644Y29540
X16548Y50533
X10490Y41021
X21590Y20320
X20209Y42494
X22352Y46981
X4445Y67310
X14500Y77700
X23381Y7620
X22479Y56515
X10414Y42291
X17018Y41021
X13335Y43561
X11430Y46482
X24130Y82850
X22860Y49530
X24384Y45720
X22860Y39370
X13868Y36779
X27353Y38241
X24357Y43559
X16488Y52451
X16196Y56169
X3810Y40157
X11405Y44755
X27842Y27023
X18161Y24790
X26324Y35512
X18161Y36982
X8636Y34950
X11811Y24917
X11176Y27940
X18923Y20345
X16764Y20345
X18542Y18567
X6604Y46609
X9271Y28367
X16891Y22631
X18542Y13360
X18588Y73279
M30