G04 EAGLE Gerber RS-274X export*
G75*
%MOMM*%
%FSLAX34Y34*%
%LPD*%
%INSoldermask Bottom*%
%IPPOS*%
%AMOC8*
5,1,8,0,0,1.08239X$1,22.5*%
G01*
%ADD10C,0.762000*%
%ADD11C,0.228344*%
%ADD12C,3.429000*%
%ADD13C,0.225369*%
%ADD14C,0.225719*%
%ADD15C,0.777000*%
%ADD16C,0.231559*%
%ADD17C,1.127000*%
%ADD18C,0.225588*%
%ADD19C,0.229050*%
%ADD20C,2.006600*%
%ADD21C,1.143000*%
%ADD22C,1.526997*%

G36*
X158986Y307686D02*
X158986Y307686D01*
X159003Y307683D01*
X159053Y307705D01*
X159104Y307720D01*
X159115Y307733D01*
X159131Y307740D01*
X159161Y307785D01*
X159196Y307825D01*
X159199Y307842D01*
X159208Y307857D01*
X159219Y307930D01*
X159219Y343680D01*
X159202Y343738D01*
X159190Y343796D01*
X159182Y343808D01*
X159180Y343814D01*
X159172Y343821D01*
X159146Y343856D01*
X152646Y350356D01*
X152594Y350385D01*
X152544Y350418D01*
X152529Y350420D01*
X152524Y350423D01*
X152513Y350423D01*
X152470Y350429D01*
X148370Y350429D01*
X148354Y350424D01*
X148337Y350427D01*
X148287Y350405D01*
X148236Y350390D01*
X148225Y350377D01*
X148209Y350370D01*
X148179Y350325D01*
X148144Y350285D01*
X148141Y350268D01*
X148132Y350254D01*
X148121Y350180D01*
X148121Y307930D01*
X148126Y307914D01*
X148123Y307897D01*
X148145Y307847D01*
X148160Y307796D01*
X148173Y307785D01*
X148180Y307769D01*
X148225Y307739D01*
X148265Y307704D01*
X148282Y307701D01*
X148297Y307692D01*
X148370Y307681D01*
X158970Y307681D01*
X158986Y307686D01*
G37*
G36*
X121985Y97802D02*
X121985Y97802D01*
X122051Y97804D01*
X122094Y97822D01*
X122141Y97830D01*
X122198Y97864D01*
X122258Y97889D01*
X122293Y97920D01*
X122334Y97945D01*
X122376Y97996D01*
X122424Y98040D01*
X122446Y98082D01*
X122475Y98119D01*
X122496Y98181D01*
X122527Y98240D01*
X122535Y98294D01*
X122547Y98331D01*
X122546Y98371D01*
X122554Y98425D01*
X122554Y102235D01*
X122543Y102300D01*
X122541Y102366D01*
X122523Y102409D01*
X122515Y102456D01*
X122481Y102513D01*
X122456Y102573D01*
X122425Y102608D01*
X122400Y102649D01*
X122349Y102691D01*
X122305Y102739D01*
X122263Y102761D01*
X122226Y102790D01*
X122164Y102811D01*
X122105Y102842D01*
X122051Y102850D01*
X122014Y102862D01*
X121974Y102861D01*
X121920Y102869D01*
X119380Y102869D01*
X119315Y102858D01*
X119249Y102856D01*
X119206Y102838D01*
X119159Y102830D01*
X119102Y102796D01*
X119042Y102771D01*
X119007Y102740D01*
X118966Y102715D01*
X118925Y102664D01*
X118876Y102620D01*
X118854Y102578D01*
X118825Y102541D01*
X118804Y102479D01*
X118773Y102420D01*
X118765Y102366D01*
X118753Y102329D01*
X118753Y102325D01*
X118753Y102324D01*
X118754Y102289D01*
X118746Y102235D01*
X118746Y98425D01*
X118757Y98360D01*
X118759Y98294D01*
X118777Y98251D01*
X118785Y98204D01*
X118819Y98147D01*
X118844Y98087D01*
X118875Y98052D01*
X118900Y98011D01*
X118951Y97970D01*
X118995Y97921D01*
X119037Y97899D01*
X119074Y97870D01*
X119136Y97849D01*
X119195Y97818D01*
X119249Y97810D01*
X119286Y97798D01*
X119326Y97799D01*
X119380Y97791D01*
X121920Y97791D01*
X121985Y97802D01*
G37*
G36*
X121985Y87642D02*
X121985Y87642D01*
X122051Y87644D01*
X122094Y87662D01*
X122141Y87670D01*
X122198Y87704D01*
X122258Y87729D01*
X122293Y87760D01*
X122334Y87785D01*
X122376Y87836D01*
X122424Y87880D01*
X122446Y87922D01*
X122475Y87959D01*
X122496Y88021D01*
X122527Y88080D01*
X122535Y88134D01*
X122547Y88171D01*
X122546Y88211D01*
X122554Y88265D01*
X122554Y92075D01*
X122543Y92140D01*
X122541Y92206D01*
X122523Y92249D01*
X122515Y92296D01*
X122481Y92353D01*
X122456Y92413D01*
X122425Y92448D01*
X122400Y92489D01*
X122349Y92531D01*
X122305Y92579D01*
X122263Y92601D01*
X122226Y92630D01*
X122164Y92651D01*
X122105Y92682D01*
X122051Y92690D01*
X122014Y92702D01*
X121974Y92701D01*
X121920Y92709D01*
X119380Y92709D01*
X119315Y92698D01*
X119249Y92696D01*
X119206Y92678D01*
X119159Y92670D01*
X119102Y92636D01*
X119042Y92611D01*
X119007Y92580D01*
X118966Y92555D01*
X118925Y92504D01*
X118876Y92460D01*
X118854Y92418D01*
X118825Y92381D01*
X118804Y92319D01*
X118773Y92260D01*
X118765Y92206D01*
X118753Y92169D01*
X118753Y92165D01*
X118753Y92164D01*
X118754Y92129D01*
X118746Y92075D01*
X118746Y88265D01*
X118757Y88200D01*
X118759Y88134D01*
X118777Y88091D01*
X118785Y88044D01*
X118819Y87987D01*
X118844Y87927D01*
X118875Y87892D01*
X118900Y87851D01*
X118951Y87810D01*
X118995Y87761D01*
X119037Y87739D01*
X119074Y87710D01*
X119136Y87689D01*
X119195Y87658D01*
X119249Y87650D01*
X119286Y87638D01*
X119326Y87639D01*
X119380Y87631D01*
X121920Y87631D01*
X121985Y87642D01*
G37*
G36*
X192470Y633107D02*
X192470Y633107D01*
X192536Y633109D01*
X192579Y633127D01*
X192626Y633135D01*
X192683Y633169D01*
X192743Y633194D01*
X192778Y633225D01*
X192819Y633250D01*
X192861Y633301D01*
X192909Y633345D01*
X192931Y633387D01*
X192960Y633424D01*
X192981Y633486D01*
X193012Y633545D01*
X193020Y633599D01*
X193032Y633636D01*
X193031Y633676D01*
X193039Y633730D01*
X193039Y636270D01*
X193028Y636335D01*
X193026Y636401D01*
X193008Y636444D01*
X193000Y636491D01*
X192966Y636548D01*
X192941Y636608D01*
X192910Y636643D01*
X192885Y636684D01*
X192834Y636726D01*
X192790Y636774D01*
X192748Y636796D01*
X192711Y636825D01*
X192649Y636846D01*
X192590Y636877D01*
X192536Y636885D01*
X192499Y636897D01*
X192459Y636896D01*
X192405Y636904D01*
X188595Y636904D01*
X188530Y636893D01*
X188464Y636891D01*
X188421Y636873D01*
X188374Y636865D01*
X188317Y636831D01*
X188257Y636806D01*
X188222Y636775D01*
X188181Y636750D01*
X188140Y636699D01*
X188091Y636655D01*
X188069Y636613D01*
X188040Y636576D01*
X188019Y636514D01*
X187988Y636455D01*
X187980Y636401D01*
X187968Y636364D01*
X187968Y636361D01*
X187969Y636324D01*
X187961Y636270D01*
X187961Y633730D01*
X187972Y633665D01*
X187974Y633599D01*
X187992Y633556D01*
X188000Y633509D01*
X188034Y633452D01*
X188059Y633392D01*
X188090Y633357D01*
X188115Y633316D01*
X188166Y633275D01*
X188210Y633226D01*
X188252Y633204D01*
X188289Y633175D01*
X188351Y633154D01*
X188410Y633123D01*
X188464Y633115D01*
X188501Y633103D01*
X188541Y633104D01*
X188595Y633096D01*
X192405Y633096D01*
X192470Y633107D01*
G37*
G36*
X230570Y61607D02*
X230570Y61607D01*
X230636Y61609D01*
X230679Y61627D01*
X230726Y61635D01*
X230783Y61669D01*
X230843Y61694D01*
X230878Y61725D01*
X230919Y61750D01*
X230961Y61801D01*
X231009Y61845D01*
X231031Y61887D01*
X231060Y61924D01*
X231081Y61986D01*
X231112Y62045D01*
X231120Y62099D01*
X231132Y62136D01*
X231131Y62176D01*
X231139Y62230D01*
X231139Y64770D01*
X231128Y64835D01*
X231126Y64901D01*
X231108Y64944D01*
X231100Y64991D01*
X231066Y65048D01*
X231041Y65108D01*
X231010Y65143D01*
X230985Y65184D01*
X230934Y65226D01*
X230890Y65274D01*
X230848Y65296D01*
X230811Y65325D01*
X230749Y65346D01*
X230690Y65377D01*
X230636Y65385D01*
X230599Y65397D01*
X230559Y65396D01*
X230505Y65404D01*
X226695Y65404D01*
X226630Y65393D01*
X226564Y65391D01*
X226521Y65373D01*
X226474Y65365D01*
X226417Y65331D01*
X226357Y65306D01*
X226322Y65275D01*
X226281Y65250D01*
X226240Y65199D01*
X226191Y65155D01*
X226169Y65113D01*
X226140Y65076D01*
X226119Y65014D01*
X226088Y64955D01*
X226080Y64901D01*
X226068Y64864D01*
X226068Y64861D01*
X226069Y64824D01*
X226061Y64770D01*
X226061Y62230D01*
X226072Y62165D01*
X226074Y62099D01*
X226092Y62056D01*
X226100Y62009D01*
X226134Y61952D01*
X226159Y61892D01*
X226190Y61857D01*
X226215Y61816D01*
X226266Y61775D01*
X226310Y61726D01*
X226352Y61704D01*
X226389Y61675D01*
X226451Y61654D01*
X226510Y61623D01*
X226564Y61615D01*
X226601Y61603D01*
X226641Y61604D01*
X226695Y61596D01*
X230505Y61596D01*
X230570Y61607D01*
G37*
D10*
X49530Y8890D03*
X295910Y883920D03*
D11*
X114806Y108460D02*
X114806Y102868D01*
X114806Y108460D02*
X126494Y108460D01*
X126494Y102868D01*
X114806Y102868D01*
X114806Y105037D02*
X126494Y105037D01*
X126494Y107206D02*
X114806Y107206D01*
X114806Y98046D02*
X114806Y92454D01*
X114806Y98046D02*
X126494Y98046D01*
X126494Y92454D01*
X114806Y92454D01*
X114806Y94623D02*
X126494Y94623D01*
X126494Y96792D02*
X114806Y96792D01*
X114806Y87632D02*
X114806Y82040D01*
X114806Y87632D02*
X126494Y87632D01*
X126494Y82040D01*
X114806Y82040D01*
X114806Y84209D02*
X126494Y84209D01*
X126494Y86378D02*
X114806Y86378D01*
D12*
X25400Y914400D03*
X279400Y914400D03*
X279400Y25400D03*
X25400Y25400D03*
D13*
X144892Y369602D02*
X149908Y369602D01*
X144892Y369602D02*
X144892Y374618D01*
X149908Y374618D01*
X149908Y369602D01*
X149908Y371743D02*
X144892Y371743D01*
X144892Y373884D02*
X149908Y373884D01*
X154892Y369602D02*
X159908Y369602D01*
X154892Y369602D02*
X154892Y374618D01*
X159908Y374618D01*
X159908Y369602D01*
X159908Y371743D02*
X154892Y371743D01*
X154892Y373884D02*
X159908Y373884D01*
D14*
X185177Y349987D02*
X185177Y345973D01*
X177663Y345973D01*
X177663Y349987D01*
X185177Y349987D01*
X185177Y348117D02*
X177663Y348117D01*
X185177Y337287D02*
X185177Y333273D01*
X177663Y333273D01*
X177663Y337287D01*
X185177Y337287D01*
X185177Y335417D02*
X177663Y335417D01*
X185177Y324587D02*
X185177Y320573D01*
X177663Y320573D01*
X177663Y324587D01*
X185177Y324587D01*
X185177Y322717D02*
X177663Y322717D01*
X185177Y311887D02*
X185177Y307873D01*
X177663Y307873D01*
X177663Y311887D01*
X185177Y311887D01*
X185177Y310017D02*
X177663Y310017D01*
X129677Y320573D02*
X129677Y324587D01*
X129677Y320573D02*
X122163Y320573D01*
X122163Y324587D01*
X129677Y324587D01*
X129677Y322717D02*
X122163Y322717D01*
X129677Y311887D02*
X129677Y307873D01*
X122163Y307873D01*
X122163Y311887D01*
X129677Y311887D01*
X129677Y310017D02*
X122163Y310017D01*
X129677Y333273D02*
X129677Y337287D01*
X129677Y333273D02*
X122163Y333273D01*
X122163Y337287D01*
X129677Y337287D01*
X129677Y335417D02*
X122163Y335417D01*
X129677Y345973D02*
X129677Y349987D01*
X129677Y345973D02*
X122163Y345973D01*
X122163Y349987D01*
X129677Y349987D01*
X129677Y348117D02*
X122163Y348117D01*
D13*
X144892Y359442D02*
X149908Y359442D01*
X144892Y359442D02*
X144892Y364458D01*
X149908Y364458D01*
X149908Y359442D01*
X149908Y361583D02*
X144892Y361583D01*
X144892Y363724D02*
X149908Y363724D01*
X154892Y359442D02*
X159908Y359442D01*
X154892Y359442D02*
X154892Y364458D01*
X159908Y364458D01*
X159908Y359442D01*
X159908Y361583D02*
X154892Y361583D01*
X154892Y363724D02*
X159908Y363724D01*
X197326Y362062D02*
X197326Y367078D01*
X197326Y362062D02*
X192310Y362062D01*
X192310Y367078D01*
X197326Y367078D01*
X197326Y364203D02*
X192310Y364203D01*
X192310Y366344D02*
X197326Y366344D01*
X197326Y372062D02*
X197326Y377078D01*
X197326Y372062D02*
X192310Y372062D01*
X192310Y377078D01*
X197326Y377078D01*
X197326Y374203D02*
X192310Y374203D01*
X192310Y376344D02*
X197326Y376344D01*
X206724Y367078D02*
X206724Y362062D01*
X201708Y362062D01*
X201708Y367078D01*
X206724Y367078D01*
X206724Y364203D02*
X201708Y364203D01*
X201708Y366344D02*
X206724Y366344D01*
X206724Y372062D02*
X206724Y377078D01*
X206724Y372062D02*
X201708Y372062D01*
X201708Y377078D01*
X206724Y377078D01*
X206724Y374203D02*
X201708Y374203D01*
X201708Y376344D02*
X206724Y376344D01*
D15*
X123500Y49050D03*
X181300Y49050D03*
D16*
X152463Y784143D02*
X152463Y799097D01*
X158417Y799097D01*
X158417Y784143D01*
X152463Y784143D01*
X152463Y786343D02*
X158417Y786343D01*
X158417Y788543D02*
X152463Y788543D01*
X152463Y790743D02*
X158417Y790743D01*
X158417Y792943D02*
X152463Y792943D01*
X152463Y795143D02*
X158417Y795143D01*
X158417Y797343D02*
X152463Y797343D01*
X163463Y799097D02*
X163463Y784143D01*
X163463Y799097D02*
X169417Y799097D01*
X169417Y784143D01*
X163463Y784143D01*
X163463Y786343D02*
X169417Y786343D01*
X169417Y788543D02*
X163463Y788543D01*
X163463Y790743D02*
X169417Y790743D01*
X169417Y792943D02*
X163463Y792943D01*
X163463Y795143D02*
X169417Y795143D01*
X169417Y797343D02*
X163463Y797343D01*
X174463Y799097D02*
X174463Y784143D01*
X174463Y799097D02*
X180417Y799097D01*
X180417Y784143D01*
X174463Y784143D01*
X174463Y786343D02*
X180417Y786343D01*
X180417Y788543D02*
X174463Y788543D01*
X174463Y790743D02*
X180417Y790743D01*
X180417Y792943D02*
X174463Y792943D01*
X174463Y795143D02*
X180417Y795143D01*
X180417Y797343D02*
X174463Y797343D01*
X141463Y799097D02*
X141463Y784143D01*
X141463Y799097D02*
X147417Y799097D01*
X147417Y784143D01*
X141463Y784143D01*
X141463Y786343D02*
X147417Y786343D01*
X147417Y788543D02*
X141463Y788543D01*
X141463Y790743D02*
X147417Y790743D01*
X147417Y792943D02*
X141463Y792943D01*
X141463Y795143D02*
X147417Y795143D01*
X147417Y797343D02*
X141463Y797343D01*
X130463Y799097D02*
X130463Y784143D01*
X130463Y799097D02*
X136417Y799097D01*
X136417Y784143D01*
X130463Y784143D01*
X130463Y786343D02*
X136417Y786343D01*
X136417Y788543D02*
X130463Y788543D01*
X130463Y790743D02*
X136417Y790743D01*
X136417Y792943D02*
X130463Y792943D01*
X130463Y795143D02*
X136417Y795143D01*
X136417Y797343D02*
X130463Y797343D01*
X119463Y799097D02*
X119463Y784143D01*
X119463Y799097D02*
X125417Y799097D01*
X125417Y784143D01*
X119463Y784143D01*
X119463Y786343D02*
X125417Y786343D01*
X125417Y788543D02*
X119463Y788543D01*
X119463Y790743D02*
X125417Y790743D01*
X125417Y792943D02*
X119463Y792943D01*
X119463Y795143D02*
X125417Y795143D01*
X125417Y797343D02*
X119463Y797343D01*
X108463Y799097D02*
X108463Y784143D01*
X108463Y799097D02*
X114417Y799097D01*
X114417Y784143D01*
X108463Y784143D01*
X108463Y786343D02*
X114417Y786343D01*
X114417Y788543D02*
X108463Y788543D01*
X108463Y790743D02*
X114417Y790743D01*
X114417Y792943D02*
X108463Y792943D01*
X108463Y795143D02*
X114417Y795143D01*
X114417Y797343D02*
X108463Y797343D01*
X97463Y799097D02*
X97463Y784143D01*
X97463Y799097D02*
X103417Y799097D01*
X103417Y784143D01*
X97463Y784143D01*
X97463Y786343D02*
X103417Y786343D01*
X103417Y788543D02*
X97463Y788543D01*
X97463Y790743D02*
X103417Y790743D01*
X103417Y792943D02*
X97463Y792943D01*
X97463Y795143D02*
X103417Y795143D01*
X103417Y797343D02*
X97463Y797343D01*
X86463Y799097D02*
X86463Y784143D01*
X86463Y799097D02*
X92417Y799097D01*
X92417Y784143D01*
X86463Y784143D01*
X86463Y786343D02*
X92417Y786343D01*
X92417Y788543D02*
X86463Y788543D01*
X86463Y790743D02*
X92417Y790743D01*
X92417Y792943D02*
X86463Y792943D01*
X86463Y795143D02*
X92417Y795143D01*
X92417Y797343D02*
X86463Y797343D01*
D17*
X185440Y896620D03*
X105440Y896620D03*
D18*
X226933Y882113D02*
X237947Y882113D01*
X226933Y882113D02*
X226933Y903127D01*
X237947Y903127D01*
X237947Y882113D01*
X237947Y884256D02*
X226933Y884256D01*
X226933Y886399D02*
X237947Y886399D01*
X237947Y888542D02*
X226933Y888542D01*
X226933Y890685D02*
X237947Y890685D01*
X237947Y892828D02*
X226933Y892828D01*
X226933Y894971D02*
X237947Y894971D01*
X237947Y897114D02*
X226933Y897114D01*
X226933Y899257D02*
X237947Y899257D01*
X237947Y901400D02*
X226933Y901400D01*
X82947Y882113D02*
X71933Y882113D01*
X71933Y903127D01*
X82947Y903127D01*
X82947Y882113D01*
X82947Y884256D02*
X71933Y884256D01*
X71933Y886399D02*
X82947Y886399D01*
X82947Y888542D02*
X71933Y888542D01*
X71933Y890685D02*
X82947Y890685D01*
X82947Y892828D02*
X71933Y892828D01*
X71933Y894971D02*
X82947Y894971D01*
X82947Y897114D02*
X71933Y897114D01*
X71933Y899257D02*
X82947Y899257D01*
X82947Y901400D02*
X71933Y901400D01*
D19*
X215950Y790130D02*
X230930Y790130D01*
X215950Y790130D02*
X215950Y803110D01*
X230930Y803110D01*
X230930Y790130D01*
X230930Y792306D02*
X215950Y792306D01*
X215950Y794482D02*
X230930Y794482D01*
X230930Y796658D02*
X215950Y796658D01*
X215950Y798834D02*
X230930Y798834D01*
X230930Y801010D02*
X215950Y801010D01*
D18*
X82947Y790113D02*
X71933Y790113D01*
X71933Y805127D01*
X82947Y805127D01*
X82947Y790113D01*
X82947Y792256D02*
X71933Y792256D01*
X71933Y794399D02*
X82947Y794399D01*
X82947Y796542D02*
X71933Y796542D01*
X71933Y798685D02*
X82947Y798685D01*
X82947Y800828D02*
X71933Y800828D01*
X71933Y802971D02*
X82947Y802971D01*
X82947Y805114D02*
X71933Y805114D01*
D20*
X254000Y139700D03*
X254000Y165100D03*
X254000Y190500D03*
X254000Y215900D03*
X254000Y241300D03*
X254000Y266700D03*
X254000Y292100D03*
X254000Y317500D03*
X254000Y342900D03*
X254000Y368300D03*
X254000Y393700D03*
X254000Y419100D03*
X254000Y444500D03*
X254000Y469900D03*
X254000Y495300D03*
X254000Y520700D03*
X50800Y241300D03*
X50800Y266700D03*
X50800Y292100D03*
X50800Y317500D03*
X50800Y342900D03*
X50800Y368300D03*
X50800Y393700D03*
X50800Y419100D03*
X50800Y444500D03*
X50800Y469900D03*
X50800Y495300D03*
X50800Y520700D03*
D13*
X142208Y73708D02*
X142208Y68692D01*
X137192Y68692D01*
X137192Y73708D01*
X142208Y73708D01*
X142208Y70833D02*
X137192Y70833D01*
X137192Y72974D02*
X142208Y72974D01*
X142208Y78692D02*
X142208Y83708D01*
X142208Y78692D02*
X137192Y78692D01*
X137192Y83708D01*
X142208Y83708D01*
X142208Y80833D02*
X137192Y80833D01*
X137192Y82974D02*
X142208Y82974D01*
X137192Y116792D02*
X137192Y121808D01*
X142208Y121808D01*
X142208Y116792D01*
X137192Y116792D01*
X137192Y118933D02*
X142208Y118933D01*
X142208Y121074D02*
X137192Y121074D01*
X137192Y111808D02*
X137192Y106792D01*
X137192Y111808D02*
X142208Y111808D01*
X142208Y106792D01*
X137192Y106792D01*
X137192Y108933D02*
X142208Y108933D01*
X142208Y111074D02*
X137192Y111074D01*
X167498Y283623D02*
X172514Y283623D01*
X167498Y283623D02*
X167498Y288639D01*
X172514Y288639D01*
X172514Y283623D01*
X172514Y285764D02*
X167498Y285764D01*
X167498Y287905D02*
X172514Y287905D01*
X177498Y283623D02*
X182514Y283623D01*
X177498Y283623D02*
X177498Y288639D01*
X182514Y288639D01*
X182514Y283623D01*
X182514Y285764D02*
X177498Y285764D01*
X177498Y287905D02*
X182514Y287905D01*
X172514Y292894D02*
X167498Y292894D01*
X167498Y297910D01*
X172514Y297910D01*
X172514Y292894D01*
X172514Y295035D02*
X167498Y295035D01*
X167498Y297176D02*
X172514Y297176D01*
X177498Y292894D02*
X182514Y292894D01*
X177498Y292894D02*
X177498Y297910D01*
X182514Y297910D01*
X182514Y292894D01*
X182514Y295035D02*
X177498Y295035D01*
X177498Y297176D02*
X182514Y297176D01*
D17*
X107950Y330200D03*
X107950Y342900D03*
X107950Y355600D03*
X107950Y368300D03*
X107950Y317500D03*
X95250Y330200D03*
X95250Y342900D03*
X95250Y355600D03*
X95250Y368300D03*
X95250Y317500D03*
D21*
X63500Y304800D03*
X88900Y304800D03*
X114300Y304800D03*
D22*
X31986Y632460D03*
X263986Y632460D03*
D11*
X188089Y629156D02*
X182497Y629156D01*
X182497Y640844D01*
X188089Y640844D01*
X188089Y629156D01*
X188089Y631325D02*
X182497Y631325D01*
X182497Y633494D02*
X188089Y633494D01*
X188089Y635663D02*
X182497Y635663D01*
X182497Y637832D02*
X188089Y637832D01*
X188089Y640001D02*
X182497Y640001D01*
X192911Y629156D02*
X198503Y629156D01*
X192911Y629156D02*
X192911Y640844D01*
X198503Y640844D01*
X198503Y629156D01*
X198503Y631325D02*
X192911Y631325D01*
X192911Y633494D02*
X198503Y633494D01*
X198503Y635663D02*
X192911Y635663D01*
X192911Y637832D02*
X198503Y637832D01*
X198503Y640001D02*
X192911Y640001D01*
X220597Y57656D02*
X226189Y57656D01*
X220597Y57656D02*
X220597Y69344D01*
X226189Y69344D01*
X226189Y57656D01*
X226189Y59825D02*
X220597Y59825D01*
X220597Y61994D02*
X226189Y61994D01*
X226189Y64163D02*
X220597Y64163D01*
X220597Y66332D02*
X226189Y66332D01*
X226189Y68501D02*
X220597Y68501D01*
X231011Y57656D02*
X236603Y57656D01*
X231011Y57656D02*
X231011Y69344D01*
X236603Y69344D01*
X236603Y57656D01*
X236603Y59825D02*
X231011Y59825D01*
X231011Y61994D02*
X236603Y61994D01*
X236603Y64163D02*
X231011Y64163D01*
X231011Y66332D02*
X236603Y66332D01*
X236603Y68501D02*
X231011Y68501D01*
M02*
