G04 EAGLE Gerber RS-274X export*
G75*
%MOMM*%
%FSLAX34Y34*%
%LPD*%
%INSoldermask Top*%
%IPPOS*%
%AMOC8*
5,1,8,0,0,1.08239X$1,22.5*%
G01*
%ADD10C,0.227100*%
%ADD11C,0.428259*%
%ADD12C,0.231750*%
%ADD13C,0.762000*%
%ADD14C,0.225588*%
%ADD15C,0.225369*%
%ADD16C,0.225400*%
%ADD17C,0.224509*%
%ADD18C,3.429000*%
%ADD19C,0.228900*%
%ADD20C,0.232887*%
%ADD21C,0.220859*%
%ADD22C,0.230578*%
%ADD23C,0.777000*%
%ADD24C,0.222250*%
%ADD25C,1.127000*%
%ADD26R,0.440000X0.840000*%
%ADD27R,1.520000X0.940000*%
%ADD28C,2.006600*%
%ADD29C,0.223409*%
%ADD30C,0.228319*%
%ADD31C,1.526997*%
%ADD32C,0.231559*%

G36*
X196884Y42883D02*
X196884Y42883D01*
X196890Y42889D01*
X196895Y42885D01*
X198125Y43250D01*
X198130Y43257D01*
X198135Y43255D01*
X199254Y43885D01*
X199257Y43892D01*
X199263Y43891D01*
X200213Y44754D01*
X200214Y44762D01*
X200220Y44762D01*
X200954Y45815D01*
X200954Y45823D01*
X200959Y45825D01*
X201441Y47015D01*
X201439Y47020D01*
X201443Y47023D01*
X201442Y47024D01*
X201444Y47025D01*
X201649Y48292D01*
X201646Y48297D01*
X201649Y48300D01*
X201649Y60300D01*
X201646Y60304D01*
X201649Y60307D01*
X201494Y61429D01*
X201489Y61434D01*
X201492Y61438D01*
X201121Y62509D01*
X201115Y62513D01*
X201117Y62518D01*
X200544Y63495D01*
X200538Y63498D01*
X200539Y63503D01*
X199786Y64350D01*
X199779Y64352D01*
X199779Y64357D01*
X198876Y65041D01*
X198869Y65041D01*
X198868Y65046D01*
X197849Y65541D01*
X197842Y65539D01*
X197840Y65544D01*
X196743Y65831D01*
X196737Y65828D01*
X196734Y65832D01*
X195603Y65899D01*
X195597Y65899D01*
X194466Y65832D01*
X194461Y65827D01*
X194457Y65831D01*
X193360Y65544D01*
X193356Y65538D01*
X193351Y65541D01*
X192332Y65046D01*
X192329Y65040D01*
X192324Y65041D01*
X191421Y64357D01*
X191419Y64350D01*
X191414Y64350D01*
X190661Y63503D01*
X190661Y63496D01*
X190656Y63495D01*
X190083Y62518D01*
X190084Y62515D01*
X190083Y62514D01*
X190084Y62513D01*
X190084Y62511D01*
X190079Y62509D01*
X189708Y61438D01*
X189710Y61433D01*
X189707Y61431D01*
X189707Y61430D01*
X189706Y61429D01*
X189551Y60307D01*
X189554Y60302D01*
X189551Y60300D01*
X189551Y48300D01*
X189554Y48295D01*
X189551Y48292D01*
X189756Y47025D01*
X189762Y47019D01*
X189759Y47015D01*
X190241Y45825D01*
X190248Y45821D01*
X190246Y45815D01*
X190980Y44762D01*
X190988Y44760D01*
X190987Y44754D01*
X191937Y43891D01*
X191946Y43890D01*
X191946Y43885D01*
X193065Y43255D01*
X193073Y43256D01*
X193075Y43250D01*
X194305Y42885D01*
X194313Y42888D01*
X194316Y42883D01*
X195597Y42801D01*
X195601Y42804D01*
X195603Y42801D01*
X196884Y42883D01*
G37*
G36*
X110484Y42883D02*
X110484Y42883D01*
X110490Y42889D01*
X110495Y42885D01*
X111725Y43250D01*
X111730Y43257D01*
X111735Y43255D01*
X112854Y43885D01*
X112857Y43892D01*
X112863Y43891D01*
X113813Y44754D01*
X113814Y44762D01*
X113820Y44762D01*
X114554Y45815D01*
X114554Y45823D01*
X114559Y45825D01*
X115041Y47015D01*
X115039Y47020D01*
X115043Y47023D01*
X115042Y47024D01*
X115044Y47025D01*
X115249Y48292D01*
X115246Y48297D01*
X115249Y48300D01*
X115249Y60300D01*
X115246Y60304D01*
X115249Y60307D01*
X115094Y61429D01*
X115089Y61434D01*
X115092Y61438D01*
X114721Y62509D01*
X114715Y62513D01*
X114717Y62518D01*
X114144Y63495D01*
X114138Y63498D01*
X114139Y63503D01*
X113386Y64350D01*
X113379Y64352D01*
X113379Y64357D01*
X112476Y65041D01*
X112469Y65041D01*
X112468Y65046D01*
X111449Y65541D01*
X111442Y65539D01*
X111440Y65544D01*
X110343Y65831D01*
X110337Y65828D01*
X110334Y65832D01*
X109203Y65899D01*
X109197Y65899D01*
X108066Y65832D01*
X108061Y65827D01*
X108057Y65831D01*
X106960Y65544D01*
X106956Y65538D01*
X106951Y65541D01*
X105932Y65046D01*
X105929Y65040D01*
X105924Y65041D01*
X105021Y64357D01*
X105019Y64350D01*
X105014Y64350D01*
X104261Y63503D01*
X104261Y63496D01*
X104256Y63495D01*
X103683Y62518D01*
X103684Y62515D01*
X103683Y62514D01*
X103684Y62513D01*
X103684Y62511D01*
X103679Y62509D01*
X103308Y61438D01*
X103310Y61433D01*
X103307Y61431D01*
X103307Y61430D01*
X103306Y61429D01*
X103151Y60307D01*
X103154Y60302D01*
X103151Y60300D01*
X103151Y48300D01*
X103154Y48295D01*
X103151Y48292D01*
X103356Y47025D01*
X103362Y47019D01*
X103359Y47015D01*
X103841Y45825D01*
X103848Y45821D01*
X103846Y45815D01*
X104580Y44762D01*
X104588Y44760D01*
X104587Y44754D01*
X105537Y43891D01*
X105546Y43890D01*
X105546Y43885D01*
X106665Y43255D01*
X106673Y43256D01*
X106675Y43250D01*
X107905Y42885D01*
X107913Y42888D01*
X107916Y42883D01*
X109197Y42801D01*
X109201Y42804D01*
X109203Y42801D01*
X110484Y42883D01*
G37*
G36*
X196771Y3611D02*
X196771Y3611D01*
X196776Y3616D01*
X196780Y3613D01*
X197903Y3948D01*
X197907Y3954D01*
X197911Y3952D01*
X198947Y4500D01*
X198950Y4506D01*
X198955Y4505D01*
X199863Y5244D01*
X199865Y5251D01*
X199870Y5251D01*
X200617Y6153D01*
X200617Y6161D01*
X200623Y6161D01*
X201179Y7192D01*
X201178Y7199D01*
X201183Y7201D01*
X201527Y8320D01*
X201525Y8327D01*
X201529Y8330D01*
X201649Y9495D01*
X201647Y9498D01*
X201649Y9500D01*
X201649Y15500D01*
X201647Y15503D01*
X201649Y15505D01*
X201538Y16681D01*
X201533Y16686D01*
X201536Y16690D01*
X201198Y17822D01*
X201192Y17826D01*
X201194Y17831D01*
X200642Y18875D01*
X200635Y18878D01*
X200637Y18883D01*
X199891Y19799D01*
X199884Y19800D01*
X199884Y19806D01*
X198975Y20559D01*
X198967Y20559D01*
X198967Y20564D01*
X197927Y21125D01*
X197920Y21124D01*
X197918Y21129D01*
X196789Y21476D01*
X196783Y21474D01*
X196780Y21478D01*
X195605Y21599D01*
X195598Y21595D01*
X195594Y21599D01*
X194254Y21442D01*
X194248Y21437D01*
X194243Y21440D01*
X192972Y20989D01*
X192967Y20982D01*
X192962Y20984D01*
X191823Y20262D01*
X191820Y20254D01*
X191814Y20255D01*
X190864Y19297D01*
X190863Y19289D01*
X190857Y19288D01*
X190144Y18143D01*
X190145Y18135D01*
X190139Y18133D01*
X189699Y16857D01*
X189701Y16850D01*
X189697Y16847D01*
X189551Y15505D01*
X189553Y15502D01*
X189551Y15500D01*
X189551Y9500D01*
X189553Y9497D01*
X189551Y9494D01*
X189706Y8165D01*
X189712Y8159D01*
X189709Y8155D01*
X190156Y6894D01*
X190163Y6889D01*
X190161Y6884D01*
X190878Y5754D01*
X190885Y5751D01*
X190884Y5745D01*
X191835Y4803D01*
X191843Y4802D01*
X191843Y4796D01*
X192979Y4089D01*
X192987Y4090D01*
X192989Y4084D01*
X194254Y3648D01*
X194259Y3649D01*
X194260Y3649D01*
X194263Y3649D01*
X194265Y3645D01*
X195595Y3501D01*
X195601Y3505D01*
X195605Y3501D01*
X196771Y3611D01*
G37*
G36*
X110371Y3611D02*
X110371Y3611D01*
X110376Y3616D01*
X110380Y3613D01*
X111503Y3948D01*
X111507Y3954D01*
X111511Y3952D01*
X112547Y4500D01*
X112550Y4506D01*
X112555Y4505D01*
X113463Y5244D01*
X113465Y5251D01*
X113470Y5251D01*
X114217Y6153D01*
X114217Y6161D01*
X114223Y6161D01*
X114779Y7192D01*
X114778Y7199D01*
X114783Y7201D01*
X115127Y8320D01*
X115125Y8327D01*
X115129Y8330D01*
X115249Y9495D01*
X115247Y9498D01*
X115249Y9500D01*
X115249Y15500D01*
X115247Y15503D01*
X115249Y15505D01*
X115138Y16681D01*
X115133Y16686D01*
X115136Y16690D01*
X114798Y17822D01*
X114792Y17826D01*
X114794Y17831D01*
X114242Y18875D01*
X114235Y18878D01*
X114237Y18883D01*
X113491Y19799D01*
X113484Y19800D01*
X113484Y19806D01*
X112575Y20559D01*
X112567Y20559D01*
X112567Y20564D01*
X111527Y21125D01*
X111520Y21124D01*
X111518Y21129D01*
X110389Y21476D01*
X110383Y21474D01*
X110380Y21478D01*
X109205Y21599D01*
X109198Y21595D01*
X109194Y21599D01*
X107854Y21442D01*
X107848Y21437D01*
X107843Y21440D01*
X106572Y20989D01*
X106567Y20982D01*
X106562Y20984D01*
X105423Y20262D01*
X105420Y20254D01*
X105414Y20255D01*
X104464Y19297D01*
X104463Y19289D01*
X104457Y19288D01*
X103744Y18143D01*
X103745Y18135D01*
X103739Y18133D01*
X103299Y16857D01*
X103301Y16850D01*
X103297Y16847D01*
X103151Y15505D01*
X103153Y15502D01*
X103151Y15500D01*
X103151Y9500D01*
X103153Y9497D01*
X103151Y9494D01*
X103306Y8165D01*
X103312Y8159D01*
X103309Y8155D01*
X103756Y6894D01*
X103763Y6889D01*
X103761Y6884D01*
X104478Y5754D01*
X104485Y5751D01*
X104484Y5745D01*
X105435Y4803D01*
X105443Y4802D01*
X105443Y4796D01*
X106579Y4089D01*
X106587Y4090D01*
X106589Y4084D01*
X107854Y3648D01*
X107859Y3649D01*
X107860Y3649D01*
X107863Y3649D01*
X107865Y3645D01*
X109195Y3501D01*
X109201Y3505D01*
X109205Y3501D01*
X110371Y3611D01*
G37*
D10*
X186850Y173950D02*
X186850Y179250D01*
X194150Y179250D01*
X194150Y173950D01*
X186850Y173950D01*
X186850Y176107D02*
X194150Y176107D01*
X194150Y178264D02*
X186850Y178264D01*
X186850Y156250D02*
X186850Y150950D01*
X186850Y156250D02*
X194150Y156250D01*
X194150Y150950D01*
X186850Y150950D01*
X186850Y153107D02*
X194150Y153107D01*
X194150Y155264D02*
X186850Y155264D01*
D11*
X157676Y301306D02*
X157676Y308294D01*
X164664Y308294D01*
X164664Y301306D01*
X157676Y301306D01*
X157676Y305375D02*
X164664Y305375D01*
X140136Y308294D02*
X140136Y301306D01*
X140136Y308294D02*
X147124Y308294D01*
X147124Y301306D01*
X140136Y301306D01*
X140136Y305375D02*
X147124Y305375D01*
D12*
X175266Y159076D02*
X175266Y152124D01*
X167314Y152124D01*
X167314Y159076D01*
X175266Y159076D01*
X175266Y154326D02*
X167314Y154326D01*
X167314Y156528D02*
X175266Y156528D01*
X175266Y158730D02*
X167314Y158730D01*
X175266Y171124D02*
X175266Y178076D01*
X175266Y171124D02*
X167314Y171124D01*
X167314Y178076D01*
X175266Y178076D01*
X175266Y173326D02*
X167314Y173326D01*
X167314Y175528D02*
X175266Y175528D01*
X175266Y177730D02*
X167314Y177730D01*
X154266Y168576D02*
X154266Y161624D01*
X146314Y161624D01*
X146314Y168576D01*
X154266Y168576D01*
X154266Y163826D02*
X146314Y163826D01*
X146314Y166028D02*
X154266Y166028D01*
X154266Y168230D02*
X146314Y168230D01*
D11*
X148394Y326706D02*
X148394Y333694D01*
X148394Y326706D02*
X141406Y326706D01*
X141406Y333694D01*
X148394Y333694D01*
X148394Y330775D02*
X141406Y330775D01*
X165934Y333694D02*
X165934Y326706D01*
X158946Y326706D01*
X158946Y333694D01*
X165934Y333694D01*
X165934Y330775D02*
X158946Y330775D01*
D13*
X49530Y8890D03*
X295910Y883920D03*
D14*
X4543Y127487D02*
X4543Y116473D01*
X4543Y127487D02*
X23557Y127487D01*
X23557Y116473D01*
X4543Y116473D01*
X4543Y118616D02*
X23557Y118616D01*
X23557Y120759D02*
X4543Y120759D01*
X4543Y122902D02*
X23557Y122902D01*
X23557Y125045D02*
X4543Y125045D01*
X4543Y127188D02*
X23557Y127188D01*
X4543Y71487D02*
X4543Y60473D01*
X4543Y71487D02*
X23557Y71487D01*
X23557Y60473D01*
X4543Y60473D01*
X4543Y62616D02*
X23557Y62616D01*
X23557Y64759D02*
X4543Y64759D01*
X4543Y66902D02*
X23557Y66902D01*
X23557Y69045D02*
X4543Y69045D01*
X4543Y71188D02*
X23557Y71188D01*
D15*
X44542Y106472D02*
X44542Y111488D01*
X57058Y111488D01*
X57058Y106472D01*
X44542Y106472D01*
X44542Y108613D02*
X57058Y108613D01*
X57058Y110754D02*
X44542Y110754D01*
X44542Y101488D02*
X44542Y96472D01*
X44542Y101488D02*
X57058Y101488D01*
X57058Y96472D01*
X44542Y96472D01*
X44542Y98613D02*
X57058Y98613D01*
X57058Y100754D02*
X44542Y100754D01*
X44542Y91488D02*
X44542Y86472D01*
X44542Y91488D02*
X57058Y91488D01*
X57058Y86472D01*
X44542Y86472D01*
X44542Y88613D02*
X57058Y88613D01*
X57058Y90754D02*
X44542Y90754D01*
X44542Y81488D02*
X44542Y76472D01*
X44542Y81488D02*
X57058Y81488D01*
X57058Y76472D01*
X44542Y76472D01*
X44542Y78613D02*
X57058Y78613D01*
X57058Y80754D02*
X44542Y80754D01*
D16*
X95068Y165832D02*
X95068Y174848D01*
X95068Y165832D02*
X50052Y165832D01*
X50052Y174848D01*
X95068Y174848D01*
X95068Y167973D02*
X50052Y167973D01*
X50052Y170114D02*
X95068Y170114D01*
X95068Y172255D02*
X50052Y172255D01*
X50052Y174396D02*
X95068Y174396D01*
X95068Y185832D02*
X95068Y194848D01*
X95068Y185832D02*
X50052Y185832D01*
X50052Y194848D01*
X95068Y194848D01*
X95068Y187973D02*
X50052Y187973D01*
X50052Y190114D02*
X95068Y190114D01*
X95068Y192255D02*
X50052Y192255D01*
X50052Y194396D02*
X95068Y194396D01*
D17*
X37073Y153853D02*
X4047Y153853D01*
X37073Y153853D02*
X37073Y138827D01*
X4047Y138827D01*
X4047Y153853D01*
X4047Y140960D02*
X37073Y140960D01*
X37073Y143093D02*
X4047Y143093D01*
X4047Y145226D02*
X37073Y145226D01*
X37073Y147359D02*
X4047Y147359D01*
X4047Y149492D02*
X37073Y149492D01*
X37073Y151625D02*
X4047Y151625D01*
X4047Y153758D02*
X37073Y153758D01*
X37073Y221853D02*
X4047Y221853D01*
X37073Y221853D02*
X37073Y206827D01*
X4047Y206827D01*
X4047Y221853D01*
X4047Y208960D02*
X37073Y208960D01*
X37073Y211093D02*
X4047Y211093D01*
X4047Y213226D02*
X37073Y213226D01*
X37073Y215359D02*
X4047Y215359D01*
X4047Y217492D02*
X37073Y217492D01*
X37073Y219625D02*
X4047Y219625D01*
X4047Y221758D02*
X37073Y221758D01*
D18*
X25400Y914400D03*
X279400Y914400D03*
X279400Y25400D03*
X25400Y25400D03*
D15*
X95202Y425418D02*
X100218Y425418D01*
X100218Y420402D01*
X95202Y420402D01*
X95202Y425418D01*
X95202Y422543D02*
X100218Y422543D01*
X100218Y424684D02*
X95202Y424684D01*
X90218Y425418D02*
X85202Y425418D01*
X90218Y425418D02*
X90218Y420402D01*
X85202Y420402D01*
X85202Y425418D01*
X85202Y422543D02*
X90218Y422543D01*
X90218Y424684D02*
X85202Y424684D01*
X85202Y463582D02*
X90218Y463582D01*
X85202Y463582D02*
X85202Y468598D01*
X90218Y468598D01*
X90218Y463582D01*
X90218Y465723D02*
X85202Y465723D01*
X85202Y467864D02*
X90218Y467864D01*
X95202Y463582D02*
X100218Y463582D01*
X95202Y463582D02*
X95202Y468598D01*
X100218Y468598D01*
X100218Y463582D01*
X100218Y465723D02*
X95202Y465723D01*
X95202Y467864D02*
X100218Y467864D01*
D19*
X185241Y471301D02*
X185241Y463569D01*
X184259Y463569D01*
X184259Y471301D01*
X185241Y471301D01*
X185241Y465744D02*
X184259Y465744D01*
X184259Y467919D02*
X185241Y467919D01*
X185241Y470094D02*
X184259Y470094D01*
X181241Y471301D02*
X181241Y463569D01*
X180259Y463569D01*
X180259Y471301D01*
X181241Y471301D01*
X181241Y465744D02*
X180259Y465744D01*
X180259Y467919D02*
X181241Y467919D01*
X181241Y470094D02*
X180259Y470094D01*
X177241Y471301D02*
X177241Y463569D01*
X176259Y463569D01*
X176259Y471301D01*
X177241Y471301D01*
X177241Y465744D02*
X176259Y465744D01*
X176259Y467919D02*
X177241Y467919D01*
X177241Y470094D02*
X176259Y470094D01*
X173241Y471301D02*
X173241Y463569D01*
X172259Y463569D01*
X172259Y471301D01*
X173241Y471301D01*
X173241Y465744D02*
X172259Y465744D01*
X172259Y467919D02*
X173241Y467919D01*
X173241Y470094D02*
X172259Y470094D01*
X169241Y471301D02*
X169241Y463569D01*
X168259Y463569D01*
X168259Y471301D01*
X169241Y471301D01*
X169241Y465744D02*
X168259Y465744D01*
X168259Y467919D02*
X169241Y467919D01*
X169241Y470094D02*
X168259Y470094D01*
X165241Y471301D02*
X165241Y463569D01*
X164259Y463569D01*
X164259Y471301D01*
X165241Y471301D01*
X165241Y465744D02*
X164259Y465744D01*
X164259Y467919D02*
X165241Y467919D01*
X165241Y470094D02*
X164259Y470094D01*
X160259Y471301D02*
X160259Y463569D01*
X160259Y471301D02*
X161241Y471301D01*
X161241Y463569D01*
X160259Y463569D01*
X160259Y465744D02*
X161241Y465744D01*
X161241Y467919D02*
X160259Y467919D01*
X160259Y470094D02*
X161241Y470094D01*
D20*
X143279Y448541D02*
X143279Y417599D01*
X143279Y448541D02*
X174221Y448541D01*
X174221Y417599D01*
X143279Y417599D01*
X143279Y419812D02*
X174221Y419812D01*
X174221Y422025D02*
X143279Y422025D01*
X143279Y424238D02*
X174221Y424238D01*
X174221Y426451D02*
X143279Y426451D01*
X143279Y428664D02*
X174221Y428664D01*
X174221Y430877D02*
X143279Y430877D01*
X143279Y433090D02*
X174221Y433090D01*
X174221Y435303D02*
X143279Y435303D01*
X143279Y437516D02*
X174221Y437516D01*
X174221Y439729D02*
X143279Y439729D01*
X143279Y441942D02*
X174221Y441942D01*
X174221Y444155D02*
X143279Y444155D01*
X143279Y446368D02*
X174221Y446368D01*
D19*
X157241Y463569D02*
X157241Y471301D01*
X157241Y463569D02*
X156259Y463569D01*
X156259Y471301D01*
X157241Y471301D01*
X157241Y465744D02*
X156259Y465744D01*
X156259Y467919D02*
X157241Y467919D01*
X157241Y470094D02*
X156259Y470094D01*
X153241Y471301D02*
X153241Y463569D01*
X152259Y463569D01*
X152259Y471301D01*
X153241Y471301D01*
X153241Y465744D02*
X152259Y465744D01*
X152259Y467919D02*
X153241Y467919D01*
X153241Y470094D02*
X152259Y470094D01*
X149241Y471301D02*
X149241Y463569D01*
X148259Y463569D01*
X148259Y471301D01*
X149241Y471301D01*
X149241Y465744D02*
X148259Y465744D01*
X148259Y467919D02*
X149241Y467919D01*
X149241Y470094D02*
X148259Y470094D01*
X145241Y471301D02*
X145241Y463569D01*
X144259Y463569D01*
X144259Y471301D01*
X145241Y471301D01*
X145241Y465744D02*
X144259Y465744D01*
X144259Y467919D02*
X145241Y467919D01*
X145241Y470094D02*
X144259Y470094D01*
X141241Y471301D02*
X141241Y463569D01*
X140259Y463569D01*
X140259Y471301D01*
X141241Y471301D01*
X141241Y465744D02*
X140259Y465744D01*
X140259Y467919D02*
X141241Y467919D01*
X141241Y470094D02*
X140259Y470094D01*
X137241Y471301D02*
X137241Y463569D01*
X136259Y463569D01*
X136259Y471301D01*
X137241Y471301D01*
X137241Y465744D02*
X136259Y465744D01*
X136259Y467919D02*
X137241Y467919D01*
X137241Y470094D02*
X136259Y470094D01*
X132259Y471301D02*
X132259Y463569D01*
X132259Y471301D02*
X133241Y471301D01*
X133241Y463569D01*
X132259Y463569D01*
X132259Y465744D02*
X133241Y465744D01*
X133241Y467919D02*
X132259Y467919D01*
X132259Y470094D02*
X133241Y470094D01*
X128251Y459561D02*
X120519Y459561D01*
X128251Y459561D02*
X128251Y458579D01*
X120519Y458579D01*
X120519Y459561D01*
X120519Y455561D02*
X128251Y455561D01*
X128251Y454579D01*
X120519Y454579D01*
X120519Y455561D01*
X120519Y451561D02*
X128251Y451561D01*
X128251Y450579D01*
X120519Y450579D01*
X120519Y451561D01*
X120519Y447561D02*
X128251Y447561D01*
X128251Y446579D01*
X120519Y446579D01*
X120519Y447561D01*
X120519Y443561D02*
X128251Y443561D01*
X128251Y442579D01*
X120519Y442579D01*
X120519Y443561D01*
X120519Y439561D02*
X128251Y439561D01*
X128251Y438579D01*
X120519Y438579D01*
X120519Y439561D01*
X120519Y434579D02*
X128251Y434579D01*
X120519Y434579D02*
X120519Y435561D01*
X128251Y435561D01*
X128251Y434579D01*
X128251Y431561D02*
X120519Y431561D01*
X128251Y431561D02*
X128251Y430579D01*
X120519Y430579D01*
X120519Y431561D01*
X120519Y427561D02*
X128251Y427561D01*
X128251Y426579D01*
X120519Y426579D01*
X120519Y427561D01*
X120519Y423561D02*
X128251Y423561D01*
X128251Y422579D01*
X120519Y422579D01*
X120519Y423561D01*
X120519Y419561D02*
X128251Y419561D01*
X128251Y418579D01*
X120519Y418579D01*
X120519Y419561D01*
X120519Y415561D02*
X128251Y415561D01*
X128251Y414579D01*
X120519Y414579D01*
X120519Y415561D01*
X120519Y411561D02*
X128251Y411561D01*
X128251Y410579D01*
X120519Y410579D01*
X120519Y411561D01*
X120519Y406579D02*
X128251Y406579D01*
X120519Y406579D02*
X120519Y407561D01*
X128251Y407561D01*
X128251Y406579D01*
X132259Y402571D02*
X132259Y394839D01*
X132259Y402571D02*
X133241Y402571D01*
X133241Y394839D01*
X132259Y394839D01*
X132259Y397014D02*
X133241Y397014D01*
X133241Y399189D02*
X132259Y399189D01*
X132259Y401364D02*
X133241Y401364D01*
X136259Y402571D02*
X136259Y394839D01*
X136259Y402571D02*
X137241Y402571D01*
X137241Y394839D01*
X136259Y394839D01*
X136259Y397014D02*
X137241Y397014D01*
X137241Y399189D02*
X136259Y399189D01*
X136259Y401364D02*
X137241Y401364D01*
X140259Y402571D02*
X140259Y394839D01*
X140259Y402571D02*
X141241Y402571D01*
X141241Y394839D01*
X140259Y394839D01*
X140259Y397014D02*
X141241Y397014D01*
X141241Y399189D02*
X140259Y399189D01*
X140259Y401364D02*
X141241Y401364D01*
X144259Y402571D02*
X144259Y394839D01*
X144259Y402571D02*
X145241Y402571D01*
X145241Y394839D01*
X144259Y394839D01*
X144259Y397014D02*
X145241Y397014D01*
X145241Y399189D02*
X144259Y399189D01*
X144259Y401364D02*
X145241Y401364D01*
X148259Y402571D02*
X148259Y394839D01*
X148259Y402571D02*
X149241Y402571D01*
X149241Y394839D01*
X148259Y394839D01*
X148259Y397014D02*
X149241Y397014D01*
X149241Y399189D02*
X148259Y399189D01*
X148259Y401364D02*
X149241Y401364D01*
X152259Y402571D02*
X152259Y394839D01*
X152259Y402571D02*
X153241Y402571D01*
X153241Y394839D01*
X152259Y394839D01*
X152259Y397014D02*
X153241Y397014D01*
X153241Y399189D02*
X152259Y399189D01*
X152259Y401364D02*
X153241Y401364D01*
X157241Y402571D02*
X157241Y394839D01*
X156259Y394839D01*
X156259Y402571D01*
X157241Y402571D01*
X157241Y397014D02*
X156259Y397014D01*
X156259Y399189D02*
X157241Y399189D01*
X157241Y401364D02*
X156259Y401364D01*
X160259Y402571D02*
X160259Y394839D01*
X160259Y402571D02*
X161241Y402571D01*
X161241Y394839D01*
X160259Y394839D01*
X160259Y397014D02*
X161241Y397014D01*
X161241Y399189D02*
X160259Y399189D01*
X160259Y401364D02*
X161241Y401364D01*
X164259Y402571D02*
X164259Y394839D01*
X164259Y402571D02*
X165241Y402571D01*
X165241Y394839D01*
X164259Y394839D01*
X164259Y397014D02*
X165241Y397014D01*
X165241Y399189D02*
X164259Y399189D01*
X164259Y401364D02*
X165241Y401364D01*
X168259Y402571D02*
X168259Y394839D01*
X168259Y402571D02*
X169241Y402571D01*
X169241Y394839D01*
X168259Y394839D01*
X168259Y397014D02*
X169241Y397014D01*
X169241Y399189D02*
X168259Y399189D01*
X168259Y401364D02*
X169241Y401364D01*
X172259Y402571D02*
X172259Y394839D01*
X172259Y402571D02*
X173241Y402571D01*
X173241Y394839D01*
X172259Y394839D01*
X172259Y397014D02*
X173241Y397014D01*
X173241Y399189D02*
X172259Y399189D01*
X172259Y401364D02*
X173241Y401364D01*
X176259Y402571D02*
X176259Y394839D01*
X176259Y402571D02*
X177241Y402571D01*
X177241Y394839D01*
X176259Y394839D01*
X176259Y397014D02*
X177241Y397014D01*
X177241Y399189D02*
X176259Y399189D01*
X176259Y401364D02*
X177241Y401364D01*
X180259Y402571D02*
X180259Y394839D01*
X180259Y402571D02*
X181241Y402571D01*
X181241Y394839D01*
X180259Y394839D01*
X180259Y397014D02*
X181241Y397014D01*
X181241Y399189D02*
X180259Y399189D01*
X180259Y401364D02*
X181241Y401364D01*
X185241Y402571D02*
X185241Y394839D01*
X184259Y394839D01*
X184259Y402571D01*
X185241Y402571D01*
X185241Y397014D02*
X184259Y397014D01*
X184259Y399189D02*
X185241Y399189D01*
X185241Y401364D02*
X184259Y401364D01*
X189249Y406579D02*
X196981Y406579D01*
X189249Y406579D02*
X189249Y407561D01*
X196981Y407561D01*
X196981Y406579D01*
X196981Y410579D02*
X189249Y410579D01*
X189249Y411561D01*
X196981Y411561D01*
X196981Y410579D01*
X196981Y414579D02*
X189249Y414579D01*
X189249Y415561D01*
X196981Y415561D01*
X196981Y414579D01*
X196981Y418579D02*
X189249Y418579D01*
X189249Y419561D01*
X196981Y419561D01*
X196981Y418579D01*
X196981Y422579D02*
X189249Y422579D01*
X189249Y423561D01*
X196981Y423561D01*
X196981Y422579D01*
X196981Y426579D02*
X189249Y426579D01*
X189249Y427561D01*
X196981Y427561D01*
X196981Y426579D01*
X196981Y431561D02*
X189249Y431561D01*
X196981Y431561D02*
X196981Y430579D01*
X189249Y430579D01*
X189249Y431561D01*
X189249Y434579D02*
X196981Y434579D01*
X189249Y434579D02*
X189249Y435561D01*
X196981Y435561D01*
X196981Y434579D01*
X196981Y438579D02*
X189249Y438579D01*
X189249Y439561D01*
X196981Y439561D01*
X196981Y438579D01*
X196981Y442579D02*
X189249Y442579D01*
X189249Y443561D01*
X196981Y443561D01*
X196981Y442579D01*
X196981Y446579D02*
X189249Y446579D01*
X189249Y447561D01*
X196981Y447561D01*
X196981Y446579D01*
X196981Y450579D02*
X189249Y450579D01*
X189249Y451561D01*
X196981Y451561D01*
X196981Y450579D01*
X196981Y454579D02*
X189249Y454579D01*
X189249Y455561D01*
X196981Y455561D01*
X196981Y454579D01*
X196981Y459561D02*
X189249Y459561D01*
X196981Y459561D02*
X196981Y458579D01*
X189249Y458579D01*
X189249Y459561D01*
D15*
X90218Y411131D02*
X85202Y411131D01*
X85202Y416147D01*
X90218Y416147D01*
X90218Y411131D01*
X90218Y413272D02*
X85202Y413272D01*
X85202Y415413D02*
X90218Y415413D01*
X95202Y411131D02*
X100218Y411131D01*
X95202Y411131D02*
X95202Y416147D01*
X100218Y416147D01*
X100218Y411131D01*
X100218Y413272D02*
X95202Y413272D01*
X95202Y415413D02*
X100218Y415413D01*
X100218Y406749D02*
X95202Y406749D01*
X100218Y406749D02*
X100218Y401733D01*
X95202Y401733D01*
X95202Y406749D01*
X95202Y403874D02*
X100218Y403874D01*
X100218Y406015D02*
X95202Y406015D01*
X90218Y406749D02*
X85202Y406749D01*
X90218Y406749D02*
X90218Y401733D01*
X85202Y401733D01*
X85202Y406749D01*
X85202Y403874D02*
X90218Y403874D01*
X90218Y406015D02*
X85202Y406015D01*
X221092Y433737D02*
X226108Y433737D01*
X221092Y433737D02*
X221092Y438753D01*
X226108Y438753D01*
X226108Y433737D01*
X226108Y435878D02*
X221092Y435878D01*
X221092Y438019D02*
X226108Y438019D01*
X231092Y433737D02*
X236108Y433737D01*
X231092Y433737D02*
X231092Y438753D01*
X236108Y438753D01*
X236108Y433737D01*
X236108Y435878D02*
X231092Y435878D01*
X231092Y438019D02*
X236108Y438019D01*
X226108Y399320D02*
X221092Y399320D01*
X221092Y404336D01*
X226108Y404336D01*
X226108Y399320D01*
X226108Y401461D02*
X221092Y401461D01*
X221092Y403602D02*
X226108Y403602D01*
X231092Y399320D02*
X236108Y399320D01*
X231092Y399320D02*
X231092Y404336D01*
X236108Y404336D01*
X236108Y399320D01*
X236108Y401461D02*
X231092Y401461D01*
X231092Y403602D02*
X236108Y403602D01*
X226108Y459391D02*
X221092Y459391D01*
X221092Y464407D01*
X226108Y464407D01*
X226108Y459391D01*
X226108Y461532D02*
X221092Y461532D01*
X221092Y463673D02*
X226108Y463673D01*
X231092Y459391D02*
X236108Y459391D01*
X231092Y459391D02*
X231092Y464407D01*
X236108Y464407D01*
X236108Y459391D01*
X236108Y461532D02*
X231092Y461532D01*
X231092Y463673D02*
X236108Y463673D01*
X187928Y491602D02*
X187928Y496618D01*
X187928Y491602D02*
X182912Y491602D01*
X182912Y496618D01*
X187928Y496618D01*
X187928Y493743D02*
X182912Y493743D01*
X182912Y495884D02*
X187928Y495884D01*
X187928Y501602D02*
X187928Y506618D01*
X187928Y501602D02*
X182912Y501602D01*
X182912Y506618D01*
X187928Y506618D01*
X187928Y503743D02*
X182912Y503743D01*
X182912Y505884D02*
X187928Y505884D01*
X151098Y497888D02*
X151098Y492872D01*
X146082Y492872D01*
X146082Y497888D01*
X151098Y497888D01*
X151098Y495013D02*
X146082Y495013D01*
X146082Y497154D02*
X151098Y497154D01*
X151098Y502872D02*
X151098Y507888D01*
X151098Y502872D02*
X146082Y502872D01*
X146082Y507888D01*
X151098Y507888D01*
X151098Y505013D02*
X146082Y505013D01*
X146082Y507154D02*
X151098Y507154D01*
X221092Y476282D02*
X226108Y476282D01*
X221092Y476282D02*
X221092Y481298D01*
X226108Y481298D01*
X226108Y476282D01*
X226108Y478423D02*
X221092Y478423D01*
X221092Y480564D02*
X226108Y480564D01*
X231092Y476282D02*
X236108Y476282D01*
X231092Y476282D02*
X231092Y481298D01*
X236108Y481298D01*
X236108Y476282D01*
X236108Y478423D02*
X231092Y478423D01*
X231092Y480564D02*
X236108Y480564D01*
X226108Y450247D02*
X221092Y450247D01*
X221092Y455263D01*
X226108Y455263D01*
X226108Y450247D01*
X226108Y452388D02*
X221092Y452388D01*
X221092Y454529D02*
X226108Y454529D01*
X231092Y450247D02*
X236108Y450247D01*
X231092Y450247D02*
X231092Y455263D01*
X236108Y455263D01*
X236108Y450247D01*
X236108Y452388D02*
X231092Y452388D01*
X231092Y454529D02*
X236108Y454529D01*
X100218Y397478D02*
X95202Y397478D01*
X100218Y397478D02*
X100218Y392462D01*
X95202Y392462D01*
X95202Y397478D01*
X95202Y394603D02*
X100218Y394603D01*
X100218Y396744D02*
X95202Y396744D01*
X90218Y397478D02*
X85202Y397478D01*
X90218Y397478D02*
X90218Y392462D01*
X85202Y392462D01*
X85202Y397478D01*
X85202Y394603D02*
X90218Y394603D01*
X90218Y396744D02*
X85202Y396744D01*
X153194Y392318D02*
X153194Y387302D01*
X153194Y392318D02*
X158210Y392318D01*
X158210Y387302D01*
X153194Y387302D01*
X153194Y389443D02*
X158210Y389443D01*
X158210Y391584D02*
X153194Y391584D01*
X153194Y382318D02*
X153194Y377302D01*
X153194Y382318D02*
X158210Y382318D01*
X158210Y377302D01*
X153194Y377302D01*
X153194Y379443D02*
X158210Y379443D01*
X158210Y381584D02*
X153194Y381584D01*
X221092Y408464D02*
X226108Y408464D01*
X221092Y408464D02*
X221092Y413480D01*
X226108Y413480D01*
X226108Y408464D01*
X226108Y410605D02*
X221092Y410605D01*
X221092Y412746D02*
X226108Y412746D01*
X231092Y408464D02*
X236108Y408464D01*
X231092Y408464D02*
X231092Y413480D01*
X236108Y413480D01*
X236108Y408464D01*
X236108Y410605D02*
X231092Y410605D01*
X231092Y412746D02*
X236108Y412746D01*
D21*
X80579Y447509D02*
X80579Y458571D01*
X90641Y458571D01*
X90641Y447509D01*
X80579Y447509D01*
X80579Y449608D02*
X90641Y449608D01*
X90641Y451707D02*
X80579Y451707D01*
X80579Y453806D02*
X90641Y453806D01*
X90641Y455905D02*
X80579Y455905D01*
X80579Y458004D02*
X90641Y458004D01*
X80579Y441571D02*
X80579Y430509D01*
X80579Y441571D02*
X90641Y441571D01*
X90641Y430509D01*
X80579Y430509D01*
X80579Y432608D02*
X90641Y432608D01*
X90641Y434707D02*
X80579Y434707D01*
X80579Y436806D02*
X90641Y436806D01*
X90641Y438905D02*
X80579Y438905D01*
X80579Y441004D02*
X90641Y441004D01*
X94579Y441571D02*
X94579Y430509D01*
X94579Y441571D02*
X104641Y441571D01*
X104641Y430509D01*
X94579Y430509D01*
X94579Y432608D02*
X104641Y432608D01*
X104641Y434707D02*
X94579Y434707D01*
X94579Y436806D02*
X104641Y436806D01*
X104641Y438905D02*
X94579Y438905D01*
X94579Y441004D02*
X104641Y441004D01*
X94579Y447509D02*
X94579Y458571D01*
X104641Y458571D01*
X104641Y447509D01*
X94579Y447509D01*
X94579Y449608D02*
X104641Y449608D01*
X104641Y451707D02*
X94579Y451707D01*
X94579Y453806D02*
X104641Y453806D01*
X104641Y455905D02*
X94579Y455905D01*
X94579Y458004D02*
X104641Y458004D01*
D22*
X158918Y55618D02*
X160882Y55618D01*
X158918Y55618D02*
X158918Y64582D01*
X160882Y64582D01*
X160882Y55618D01*
X160882Y57809D02*
X158918Y57809D01*
X158918Y60000D02*
X160882Y60000D01*
X160882Y62191D02*
X158918Y62191D01*
X158918Y64382D02*
X160882Y64382D01*
X155882Y55618D02*
X153918Y55618D01*
X153918Y64582D01*
X155882Y64582D01*
X155882Y55618D01*
X155882Y57809D02*
X153918Y57809D01*
X153918Y60000D02*
X155882Y60000D01*
X155882Y62191D02*
X153918Y62191D01*
X153918Y64382D02*
X155882Y64382D01*
D15*
X182142Y55592D02*
X187158Y55592D01*
X182142Y55592D02*
X182142Y64608D01*
X187158Y64608D01*
X187158Y55592D01*
X187158Y57733D02*
X182142Y57733D01*
X182142Y59874D02*
X187158Y59874D01*
X187158Y62015D02*
X182142Y62015D01*
X182142Y64156D02*
X187158Y64156D01*
X179408Y55592D02*
X174392Y55592D01*
X174392Y64608D01*
X179408Y64608D01*
X179408Y55592D01*
X179408Y57733D02*
X174392Y57733D01*
X174392Y59874D02*
X179408Y59874D01*
X179408Y62015D02*
X174392Y62015D01*
X174392Y64156D02*
X179408Y64156D01*
D22*
X170882Y55618D02*
X168918Y55618D01*
X168918Y64582D01*
X170882Y64582D01*
X170882Y55618D01*
X170882Y57809D02*
X168918Y57809D01*
X168918Y60000D02*
X170882Y60000D01*
X170882Y62191D02*
X168918Y62191D01*
X168918Y64382D02*
X170882Y64382D01*
X165882Y55618D02*
X163918Y55618D01*
X163918Y64582D01*
X165882Y64582D01*
X165882Y55618D01*
X165882Y57809D02*
X163918Y57809D01*
X163918Y60000D02*
X165882Y60000D01*
X165882Y62191D02*
X163918Y62191D01*
X163918Y64382D02*
X165882Y64382D01*
X145882Y64582D02*
X143918Y64582D01*
X145882Y64582D02*
X145882Y55618D01*
X143918Y55618D01*
X143918Y64582D01*
X143918Y57809D02*
X145882Y57809D01*
X145882Y60000D02*
X143918Y60000D01*
X143918Y62191D02*
X145882Y62191D01*
X145882Y64382D02*
X143918Y64382D01*
X148918Y64582D02*
X150882Y64582D01*
X150882Y55618D01*
X148918Y55618D01*
X148918Y64582D01*
X148918Y57809D02*
X150882Y57809D01*
X150882Y60000D02*
X148918Y60000D01*
X148918Y62191D02*
X150882Y62191D01*
X150882Y64382D02*
X148918Y64382D01*
D15*
X122658Y64608D02*
X117642Y64608D01*
X122658Y64608D02*
X122658Y55592D01*
X117642Y55592D01*
X117642Y64608D01*
X117642Y57733D02*
X122658Y57733D01*
X122658Y59874D02*
X117642Y59874D01*
X117642Y62015D02*
X122658Y62015D01*
X122658Y64156D02*
X117642Y64156D01*
X125392Y64608D02*
X130408Y64608D01*
X130408Y55592D01*
X125392Y55592D01*
X125392Y64608D01*
X125392Y57733D02*
X130408Y57733D01*
X130408Y59874D02*
X125392Y59874D01*
X125392Y62015D02*
X130408Y62015D01*
X130408Y64156D02*
X125392Y64156D01*
D22*
X133918Y64582D02*
X135882Y64582D01*
X135882Y55618D01*
X133918Y55618D01*
X133918Y64582D01*
X133918Y57809D02*
X135882Y57809D01*
X135882Y60000D02*
X133918Y60000D01*
X133918Y62191D02*
X135882Y62191D01*
X135882Y64382D02*
X133918Y64382D01*
X138918Y64582D02*
X140882Y64582D01*
X140882Y55618D01*
X138918Y55618D01*
X138918Y64582D01*
X138918Y57809D02*
X140882Y57809D01*
X140882Y60000D02*
X138918Y60000D01*
X138918Y62191D02*
X140882Y62191D01*
X140882Y64382D02*
X138918Y64382D01*
D23*
X123500Y49050D03*
X181300Y49050D03*
D24*
X249396Y79216D02*
X249396Y85884D01*
X263684Y85884D01*
X263684Y79216D01*
X249396Y79216D01*
X249396Y81328D02*
X263684Y81328D01*
X263684Y83440D02*
X249396Y83440D01*
X249396Y85552D02*
X263684Y85552D01*
X193516Y85884D02*
X193516Y79216D01*
X193516Y85884D02*
X207804Y85884D01*
X207804Y79216D01*
X193516Y79216D01*
X193516Y81328D02*
X207804Y81328D01*
X207804Y83440D02*
X193516Y83440D01*
X193516Y85552D02*
X207804Y85552D01*
X249396Y117316D02*
X249396Y123984D01*
X263684Y123984D01*
X263684Y117316D01*
X249396Y117316D01*
X249396Y119428D02*
X263684Y119428D01*
X263684Y121540D02*
X249396Y121540D01*
X249396Y123652D02*
X263684Y123652D01*
X193516Y123984D02*
X193516Y117316D01*
X193516Y123984D02*
X207804Y123984D01*
X207804Y117316D01*
X193516Y117316D01*
X193516Y119428D02*
X207804Y119428D01*
X207804Y121540D02*
X193516Y121540D01*
X193516Y123652D02*
X207804Y123652D01*
D25*
X185440Y896620D03*
X105440Y896620D03*
D26*
X104260Y289300D03*
X109260Y289300D03*
X114260Y289300D03*
X119260Y289300D03*
X119260Y269300D03*
X114260Y269300D03*
X109260Y269300D03*
X104260Y269300D03*
D27*
X111760Y279400D03*
D15*
X109268Y254032D02*
X104252Y254032D01*
X104252Y259048D01*
X109268Y259048D01*
X109268Y254032D01*
X109268Y256173D02*
X104252Y256173D01*
X104252Y258314D02*
X109268Y258314D01*
X114252Y254032D02*
X119268Y254032D01*
X114252Y254032D02*
X114252Y259048D01*
X119268Y259048D01*
X119268Y254032D01*
X119268Y256173D02*
X114252Y256173D01*
X114252Y258314D02*
X119268Y258314D01*
D28*
X254000Y139700D03*
X254000Y165100D03*
X254000Y190500D03*
X254000Y215900D03*
X254000Y241300D03*
X254000Y266700D03*
X254000Y292100D03*
X254000Y317500D03*
X254000Y342900D03*
X254000Y368300D03*
X254000Y393700D03*
X254000Y419100D03*
X254000Y444500D03*
X254000Y469900D03*
X254000Y495300D03*
X254000Y520700D03*
X50800Y241300D03*
X50800Y266700D03*
X50800Y292100D03*
X50800Y317500D03*
X50800Y342900D03*
X50800Y368300D03*
X50800Y393700D03*
X50800Y419100D03*
X50800Y444500D03*
X50800Y469900D03*
X50800Y495300D03*
X50800Y520700D03*
D15*
X155353Y507888D02*
X155353Y502872D01*
X155353Y507888D02*
X160369Y507888D01*
X160369Y502872D01*
X155353Y502872D01*
X155353Y505013D02*
X160369Y505013D01*
X160369Y507154D02*
X155353Y507154D01*
X155353Y497888D02*
X155353Y492872D01*
X155353Y497888D02*
X160369Y497888D01*
X160369Y492872D01*
X155353Y492872D01*
X155353Y495013D02*
X160369Y495013D01*
X160369Y497154D02*
X155353Y497154D01*
X149908Y522002D02*
X144892Y522002D01*
X144892Y527018D01*
X149908Y527018D01*
X149908Y522002D01*
X149908Y524143D02*
X144892Y524143D01*
X144892Y526284D02*
X149908Y526284D01*
X154892Y522002D02*
X159908Y522002D01*
X154892Y522002D02*
X154892Y527018D01*
X159908Y527018D01*
X159908Y522002D01*
X159908Y524143D02*
X154892Y524143D01*
X154892Y526284D02*
X159908Y526284D01*
D24*
X131604Y123984D02*
X131604Y117316D01*
X117316Y117316D01*
X117316Y123984D01*
X131604Y123984D01*
X131604Y119428D02*
X117316Y119428D01*
X117316Y121540D02*
X131604Y121540D01*
X131604Y123652D02*
X117316Y123652D01*
X187484Y123984D02*
X187484Y117316D01*
X173196Y117316D01*
X173196Y123984D01*
X187484Y123984D01*
X187484Y119428D02*
X173196Y119428D01*
X173196Y121540D02*
X187484Y121540D01*
X187484Y123652D02*
X173196Y123652D01*
X131604Y85884D02*
X131604Y79216D01*
X117316Y79216D01*
X117316Y85884D01*
X131604Y85884D01*
X131604Y81328D02*
X117316Y81328D01*
X117316Y83440D02*
X131604Y83440D01*
X131604Y85552D02*
X117316Y85552D01*
X187484Y85884D02*
X187484Y79216D01*
X173196Y79216D01*
X173196Y85884D01*
X187484Y85884D01*
X187484Y81328D02*
X173196Y81328D01*
X173196Y83440D02*
X187484Y83440D01*
X187484Y85552D02*
X173196Y85552D01*
D29*
X171981Y210432D02*
X171981Y214968D01*
X183017Y214968D01*
X183017Y210432D01*
X171981Y210432D01*
X171981Y212554D02*
X183017Y212554D01*
X183017Y214676D02*
X171981Y214676D01*
X171981Y205468D02*
X171981Y200932D01*
X171981Y205468D02*
X183017Y205468D01*
X183017Y200932D01*
X171981Y200932D01*
X171981Y203054D02*
X183017Y203054D01*
X183017Y205176D02*
X171981Y205176D01*
X171981Y195968D02*
X171981Y191432D01*
X171981Y195968D02*
X183017Y195968D01*
X183017Y191432D01*
X171981Y191432D01*
X171981Y193554D02*
X183017Y193554D01*
X183017Y195676D02*
X171981Y195676D01*
X197983Y195968D02*
X197983Y191432D01*
X197983Y195968D02*
X209019Y195968D01*
X209019Y191432D01*
X197983Y191432D01*
X197983Y193554D02*
X209019Y193554D01*
X209019Y195676D02*
X197983Y195676D01*
X197983Y210432D02*
X197983Y214968D01*
X209019Y214968D01*
X209019Y210432D01*
X197983Y210432D01*
X197983Y212554D02*
X209019Y212554D01*
X209019Y214676D02*
X197983Y214676D01*
X175999Y244772D02*
X175999Y249308D01*
X175999Y244772D02*
X164963Y244772D01*
X164963Y249308D01*
X175999Y249308D01*
X175999Y246894D02*
X164963Y246894D01*
X164963Y249016D02*
X175999Y249016D01*
X175999Y254272D02*
X175999Y258808D01*
X175999Y254272D02*
X164963Y254272D01*
X164963Y258808D01*
X175999Y258808D01*
X175999Y256394D02*
X164963Y256394D01*
X164963Y258516D02*
X175999Y258516D01*
X175999Y263772D02*
X175999Y268308D01*
X175999Y263772D02*
X164963Y263772D01*
X164963Y268308D01*
X175999Y268308D01*
X175999Y265894D02*
X164963Y265894D01*
X164963Y268016D02*
X175999Y268016D01*
X149997Y268308D02*
X149997Y263772D01*
X138961Y263772D01*
X138961Y268308D01*
X149997Y268308D01*
X149997Y265894D02*
X138961Y265894D01*
X138961Y268016D02*
X149997Y268016D01*
X149997Y249308D02*
X149997Y244772D01*
X138961Y244772D01*
X138961Y249308D01*
X149997Y249308D01*
X149997Y246894D02*
X138961Y246894D01*
X138961Y249016D02*
X149997Y249016D01*
D15*
X100298Y31798D02*
X100298Y26782D01*
X95282Y26782D01*
X95282Y31798D01*
X100298Y31798D01*
X100298Y28923D02*
X95282Y28923D01*
X95282Y31064D02*
X100298Y31064D01*
X100298Y36782D02*
X100298Y41798D01*
X100298Y36782D02*
X95282Y36782D01*
X95282Y41798D01*
X100298Y41798D01*
X100298Y38923D02*
X95282Y38923D01*
X95282Y41064D02*
X100298Y41064D01*
X209518Y31798D02*
X209518Y26782D01*
X204502Y26782D01*
X204502Y31798D01*
X209518Y31798D01*
X209518Y28923D02*
X204502Y28923D01*
X204502Y31064D02*
X209518Y31064D01*
X209518Y36782D02*
X209518Y41798D01*
X209518Y36782D02*
X204502Y36782D01*
X204502Y41798D01*
X209518Y41798D01*
X209518Y38923D02*
X204502Y38923D01*
X204502Y41064D02*
X209518Y41064D01*
X187848Y144748D02*
X182832Y144748D01*
X187848Y144748D02*
X187848Y139732D01*
X182832Y139732D01*
X182832Y144748D01*
X182832Y141873D02*
X187848Y141873D01*
X187848Y144014D02*
X182832Y144014D01*
X177848Y144748D02*
X172832Y144748D01*
X177848Y144748D02*
X177848Y139732D01*
X172832Y139732D01*
X172832Y144748D01*
X172832Y141873D02*
X177848Y141873D01*
X177848Y144014D02*
X172832Y144014D01*
X163798Y193152D02*
X163798Y198168D01*
X163798Y193152D02*
X158782Y193152D01*
X158782Y198168D01*
X163798Y198168D01*
X163798Y195293D02*
X158782Y195293D01*
X158782Y197434D02*
X163798Y197434D01*
X163798Y203152D02*
X163798Y208168D01*
X163798Y203152D02*
X158782Y203152D01*
X158782Y208168D01*
X163798Y208168D01*
X163798Y205293D02*
X158782Y205293D01*
X158782Y207434D02*
X163798Y207434D01*
X163798Y213472D02*
X163798Y218488D01*
X163798Y213472D02*
X158782Y213472D01*
X158782Y218488D01*
X163798Y218488D01*
X163798Y215613D02*
X158782Y215613D01*
X158782Y217754D02*
X163798Y217754D01*
X163798Y223472D02*
X163798Y228488D01*
X163798Y223472D02*
X158782Y223472D01*
X158782Y228488D01*
X163798Y228488D01*
X163798Y225613D02*
X158782Y225613D01*
X158782Y227754D02*
X163798Y227754D01*
X192992Y228568D02*
X198008Y228568D01*
X198008Y223552D01*
X192992Y223552D01*
X192992Y228568D01*
X192992Y225693D02*
X198008Y225693D01*
X198008Y227834D02*
X192992Y227834D01*
X188008Y228568D02*
X182992Y228568D01*
X188008Y228568D02*
X188008Y223552D01*
X182992Y223552D01*
X182992Y228568D01*
X182992Y225693D02*
X188008Y225693D01*
X188008Y227834D02*
X182992Y227834D01*
X143558Y287306D02*
X138542Y287306D01*
X138542Y292322D01*
X143558Y292322D01*
X143558Y287306D01*
X143558Y289447D02*
X138542Y289447D01*
X138542Y291588D02*
X143558Y291588D01*
X148542Y287306D02*
X153558Y287306D01*
X148542Y287306D02*
X148542Y292322D01*
X153558Y292322D01*
X153558Y287306D01*
X153558Y289447D02*
X148542Y289447D01*
X148542Y291588D02*
X153558Y291588D01*
X125762Y337772D02*
X125762Y342788D01*
X130778Y342788D01*
X130778Y337772D01*
X125762Y337772D01*
X125762Y339913D02*
X130778Y339913D01*
X130778Y342054D02*
X125762Y342054D01*
X125762Y332788D02*
X125762Y327772D01*
X125762Y332788D02*
X130778Y332788D01*
X130778Y327772D01*
X125762Y327772D01*
X125762Y329913D02*
X130778Y329913D01*
X130778Y332054D02*
X125762Y332054D01*
D25*
X107950Y330200D03*
X107950Y342900D03*
X107950Y355600D03*
X107950Y368300D03*
X107950Y317500D03*
X95250Y330200D03*
X95250Y342900D03*
X95250Y355600D03*
X95250Y368300D03*
X95250Y317500D03*
D15*
X231092Y429609D02*
X236108Y429609D01*
X236108Y424593D01*
X231092Y424593D01*
X231092Y429609D01*
X231092Y426734D02*
X236108Y426734D01*
X236108Y428875D02*
X231092Y428875D01*
X226108Y429609D02*
X221092Y429609D01*
X226108Y429609D02*
X226108Y424593D01*
X221092Y424593D01*
X221092Y429609D01*
X221092Y426734D02*
X226108Y426734D01*
X226108Y428875D02*
X221092Y428875D01*
X153558Y283178D02*
X148542Y283178D01*
X153558Y283178D02*
X153558Y278162D01*
X148542Y278162D01*
X148542Y283178D01*
X148542Y280303D02*
X153558Y280303D01*
X153558Y282444D02*
X148542Y282444D01*
X143558Y283178D02*
X138542Y283178D01*
X143558Y283178D02*
X143558Y278162D01*
X138542Y278162D01*
X138542Y283178D01*
X138542Y280303D02*
X143558Y280303D01*
X143558Y282444D02*
X138542Y282444D01*
X184182Y269128D02*
X184182Y264112D01*
X184182Y269128D02*
X189198Y269128D01*
X189198Y264112D01*
X184182Y264112D01*
X184182Y266253D02*
X189198Y266253D01*
X189198Y268394D02*
X184182Y268394D01*
X184182Y259128D02*
X184182Y254112D01*
X184182Y259128D02*
X189198Y259128D01*
X189198Y254112D01*
X184182Y254112D01*
X184182Y256253D02*
X189198Y256253D01*
X189198Y258394D02*
X184182Y258394D01*
D16*
X125032Y253682D02*
X125032Y263698D01*
X134048Y263698D01*
X134048Y253682D01*
X125032Y253682D01*
X125032Y255823D02*
X134048Y255823D01*
X134048Y257964D02*
X125032Y257964D01*
X125032Y260105D02*
X134048Y260105D01*
X134048Y262246D02*
X125032Y262246D01*
X125032Y246698D02*
X125032Y236682D01*
X125032Y246698D02*
X134048Y246698D01*
X134048Y236682D01*
X125032Y236682D01*
X125032Y238823D02*
X134048Y238823D01*
X134048Y240964D02*
X125032Y240964D01*
X125032Y243105D02*
X134048Y243105D01*
X134048Y245246D02*
X125032Y245246D01*
D15*
X251492Y71008D02*
X251492Y65992D01*
X251492Y71008D02*
X256508Y71008D01*
X256508Y65992D01*
X251492Y65992D01*
X251492Y68133D02*
X256508Y68133D01*
X256508Y70274D02*
X251492Y70274D01*
X251492Y61008D02*
X251492Y55992D01*
X251492Y61008D02*
X256508Y61008D01*
X256508Y55992D01*
X251492Y55992D01*
X251492Y58133D02*
X256508Y58133D01*
X256508Y60274D02*
X251492Y60274D01*
D11*
X233876Y60006D02*
X233876Y66994D01*
X240864Y66994D01*
X240864Y60006D01*
X233876Y60006D01*
X233876Y64075D02*
X240864Y64075D01*
X216336Y66994D02*
X216336Y60006D01*
X216336Y66994D02*
X223324Y66994D01*
X223324Y60006D01*
X216336Y60006D01*
X216336Y64075D02*
X223324Y64075D01*
D30*
X37124Y832764D02*
X11136Y832764D01*
X37124Y832764D02*
X37124Y820776D01*
X11136Y820776D01*
X11136Y832764D01*
X11136Y822945D02*
X37124Y822945D01*
X37124Y825114D02*
X11136Y825114D01*
X11136Y827283D02*
X37124Y827283D01*
X37124Y829452D02*
X11136Y829452D01*
X11136Y831621D02*
X37124Y831621D01*
X37124Y807364D02*
X11136Y807364D01*
X37124Y807364D02*
X37124Y795376D01*
X11136Y795376D01*
X11136Y807364D01*
X11136Y797545D02*
X37124Y797545D01*
X37124Y799714D02*
X11136Y799714D01*
X11136Y801883D02*
X37124Y801883D01*
X37124Y804052D02*
X11136Y804052D01*
X11136Y806221D02*
X37124Y806221D01*
X37124Y781964D02*
X11136Y781964D01*
X37124Y781964D02*
X37124Y769976D01*
X11136Y769976D01*
X11136Y781964D01*
X11136Y772145D02*
X37124Y772145D01*
X37124Y774314D02*
X11136Y774314D01*
X11136Y776483D02*
X37124Y776483D01*
X37124Y778652D02*
X11136Y778652D01*
X11136Y780821D02*
X37124Y780821D01*
X37124Y756564D02*
X11136Y756564D01*
X37124Y756564D02*
X37124Y744576D01*
X11136Y744576D01*
X11136Y756564D01*
X11136Y746745D02*
X37124Y746745D01*
X37124Y748914D02*
X11136Y748914D01*
X11136Y751083D02*
X37124Y751083D01*
X37124Y753252D02*
X11136Y753252D01*
X11136Y755421D02*
X37124Y755421D01*
X37124Y731164D02*
X11136Y731164D01*
X37124Y731164D02*
X37124Y719176D01*
X11136Y719176D01*
X11136Y731164D01*
X11136Y721345D02*
X37124Y721345D01*
X37124Y723514D02*
X11136Y723514D01*
X11136Y725683D02*
X37124Y725683D01*
X37124Y727852D02*
X11136Y727852D01*
X11136Y730021D02*
X37124Y730021D01*
X37124Y705764D02*
X11136Y705764D01*
X37124Y705764D02*
X37124Y693776D01*
X11136Y693776D01*
X11136Y705764D01*
X11136Y695945D02*
X37124Y695945D01*
X37124Y698114D02*
X11136Y698114D01*
X11136Y700283D02*
X37124Y700283D01*
X37124Y702452D02*
X11136Y702452D01*
X11136Y704621D02*
X37124Y704621D01*
X37124Y680364D02*
X11136Y680364D01*
X37124Y680364D02*
X37124Y668376D01*
X11136Y668376D01*
X11136Y680364D01*
X11136Y670545D02*
X37124Y670545D01*
X37124Y672714D02*
X11136Y672714D01*
X11136Y674883D02*
X37124Y674883D01*
X37124Y677052D02*
X11136Y677052D01*
X11136Y679221D02*
X37124Y679221D01*
X37124Y654964D02*
X11136Y654964D01*
X37124Y654964D02*
X37124Y642976D01*
X11136Y642976D01*
X11136Y654964D01*
X11136Y645145D02*
X37124Y645145D01*
X37124Y647314D02*
X11136Y647314D01*
X11136Y649483D02*
X37124Y649483D01*
X37124Y651652D02*
X11136Y651652D01*
X11136Y653821D02*
X37124Y653821D01*
X268336Y832764D02*
X294324Y832764D01*
X294324Y820776D01*
X268336Y820776D01*
X268336Y832764D01*
X268336Y822945D02*
X294324Y822945D01*
X294324Y825114D02*
X268336Y825114D01*
X268336Y827283D02*
X294324Y827283D01*
X294324Y829452D02*
X268336Y829452D01*
X268336Y831621D02*
X294324Y831621D01*
X294324Y807364D02*
X268336Y807364D01*
X294324Y807364D02*
X294324Y795376D01*
X268336Y795376D01*
X268336Y807364D01*
X268336Y797545D02*
X294324Y797545D01*
X294324Y799714D02*
X268336Y799714D01*
X268336Y801883D02*
X294324Y801883D01*
X294324Y804052D02*
X268336Y804052D01*
X268336Y806221D02*
X294324Y806221D01*
X294324Y781964D02*
X268336Y781964D01*
X294324Y781964D02*
X294324Y769976D01*
X268336Y769976D01*
X268336Y781964D01*
X268336Y772145D02*
X294324Y772145D01*
X294324Y774314D02*
X268336Y774314D01*
X268336Y776483D02*
X294324Y776483D01*
X294324Y778652D02*
X268336Y778652D01*
X268336Y780821D02*
X294324Y780821D01*
X294324Y756564D02*
X268336Y756564D01*
X294324Y756564D02*
X294324Y744576D01*
X268336Y744576D01*
X268336Y756564D01*
X268336Y746745D02*
X294324Y746745D01*
X294324Y748914D02*
X268336Y748914D01*
X268336Y751083D02*
X294324Y751083D01*
X294324Y753252D02*
X268336Y753252D01*
X268336Y755421D02*
X294324Y755421D01*
X294324Y731164D02*
X268336Y731164D01*
X294324Y731164D02*
X294324Y719176D01*
X268336Y719176D01*
X268336Y731164D01*
X268336Y721345D02*
X294324Y721345D01*
X294324Y723514D02*
X268336Y723514D01*
X268336Y725683D02*
X294324Y725683D01*
X294324Y727852D02*
X268336Y727852D01*
X268336Y730021D02*
X294324Y730021D01*
X294324Y705764D02*
X268336Y705764D01*
X294324Y705764D02*
X294324Y693776D01*
X268336Y693776D01*
X268336Y705764D01*
X268336Y695945D02*
X294324Y695945D01*
X294324Y698114D02*
X268336Y698114D01*
X268336Y700283D02*
X294324Y700283D01*
X294324Y702452D02*
X268336Y702452D01*
X268336Y704621D02*
X294324Y704621D01*
X294324Y680364D02*
X268336Y680364D01*
X294324Y680364D02*
X294324Y668376D01*
X268336Y668376D01*
X268336Y680364D01*
X268336Y670545D02*
X294324Y670545D01*
X294324Y672714D02*
X268336Y672714D01*
X268336Y674883D02*
X294324Y674883D01*
X294324Y677052D02*
X268336Y677052D01*
X268336Y679221D02*
X294324Y679221D01*
X294324Y654964D02*
X268336Y654964D01*
X294324Y654964D02*
X294324Y642976D01*
X268336Y642976D01*
X268336Y654964D01*
X268336Y645145D02*
X294324Y645145D01*
X294324Y647314D02*
X268336Y647314D01*
X268336Y649483D02*
X294324Y649483D01*
X294324Y651652D02*
X268336Y651652D01*
X268336Y653821D02*
X294324Y653821D01*
D31*
X31986Y632460D03*
X263986Y632460D03*
D24*
X65246Y548164D02*
X65246Y541496D01*
X65246Y548164D02*
X79534Y548164D01*
X79534Y541496D01*
X65246Y541496D01*
X65246Y543608D02*
X79534Y543608D01*
X79534Y545720D02*
X65246Y545720D01*
X65246Y547832D02*
X79534Y547832D01*
X9366Y548164D02*
X9366Y541496D01*
X9366Y548164D02*
X23654Y548164D01*
X23654Y541496D01*
X9366Y541496D01*
X9366Y543608D02*
X23654Y543608D01*
X23654Y545720D02*
X9366Y545720D01*
X9366Y547832D02*
X23654Y547832D01*
X65246Y579596D02*
X65246Y586264D01*
X79534Y586264D01*
X79534Y579596D01*
X65246Y579596D01*
X65246Y581708D02*
X79534Y581708D01*
X79534Y583820D02*
X65246Y583820D01*
X65246Y585932D02*
X79534Y585932D01*
X9366Y586264D02*
X9366Y579596D01*
X9366Y586264D02*
X23654Y586264D01*
X23654Y579596D01*
X9366Y579596D01*
X9366Y581708D02*
X23654Y581708D01*
X23654Y583820D02*
X9366Y583820D01*
X9366Y585932D02*
X23654Y585932D01*
D32*
X158573Y548623D02*
X164527Y548623D01*
X158573Y548623D02*
X158573Y554577D01*
X164527Y554577D01*
X164527Y548623D01*
X164527Y550823D02*
X158573Y550823D01*
X158573Y553023D02*
X164527Y553023D01*
X164527Y537623D02*
X158573Y537623D01*
X158573Y543577D01*
X164527Y543577D01*
X164527Y537623D01*
X164527Y539823D02*
X158573Y539823D01*
X158573Y542023D02*
X164527Y542023D01*
X146227Y537623D02*
X140273Y537623D01*
X140273Y543577D01*
X146227Y543577D01*
X146227Y537623D01*
X146227Y539823D02*
X140273Y539823D01*
X140273Y542023D02*
X146227Y542023D01*
X146227Y548623D02*
X140273Y548623D01*
X140273Y554577D01*
X146227Y554577D01*
X146227Y548623D01*
X146227Y550823D02*
X140273Y550823D01*
X140273Y553023D02*
X146227Y553023D01*
D16*
X192232Y560642D02*
X202248Y560642D01*
X192232Y560642D02*
X192232Y569658D01*
X202248Y569658D01*
X202248Y560642D01*
X202248Y562783D02*
X192232Y562783D01*
X192232Y564924D02*
X202248Y564924D01*
X202248Y567065D02*
X192232Y567065D01*
X192232Y569206D02*
X202248Y569206D01*
X209232Y560642D02*
X219248Y560642D01*
X209232Y560642D02*
X209232Y569658D01*
X219248Y569658D01*
X219248Y560642D01*
X219248Y562783D02*
X209232Y562783D01*
X209232Y564924D02*
X219248Y564924D01*
X219248Y567065D02*
X209232Y567065D01*
X209232Y569206D02*
X219248Y569206D01*
M02*
