G04 EAGLE Gerber RS-274X export*
G75*
%MOMM*%
%FSLAX34Y34*%
%LPD*%
%INInner Layer 15*%
%IPPOS*%
%AMOC8*
5,1,8,0,0,1.08239X$1,22.5*%
G01*
%ADD10C,0.203200*%
%ADD11C,1.524000*%
%ADD12C,0.762000*%
%ADD13C,0.352400*%
%ADD14C,0.304800*%
%ADD15C,0.127000*%

G36*
X103757Y2545D02*
X103757Y2545D01*
X103786Y2542D01*
X103897Y2565D01*
X104009Y2581D01*
X104036Y2593D01*
X104065Y2598D01*
X104165Y2651D01*
X104269Y2697D01*
X104291Y2716D01*
X104317Y2729D01*
X104399Y2807D01*
X104486Y2880D01*
X104502Y2905D01*
X104523Y2925D01*
X104580Y3023D01*
X104643Y3117D01*
X104652Y3145D01*
X104667Y3170D01*
X104695Y3280D01*
X104729Y3388D01*
X104730Y3418D01*
X104737Y3446D01*
X104733Y3559D01*
X104736Y3672D01*
X104729Y3701D01*
X104728Y3730D01*
X104693Y3838D01*
X104664Y3947D01*
X104649Y3973D01*
X104640Y4001D01*
X104595Y4065D01*
X104519Y4192D01*
X104473Y4235D01*
X104445Y4274D01*
X104272Y4447D01*
X104272Y20553D01*
X104347Y20628D01*
X114453Y20628D01*
X114528Y20553D01*
X114528Y4447D01*
X114355Y4274D01*
X114337Y4250D01*
X114314Y4231D01*
X114252Y4137D01*
X114184Y4047D01*
X114173Y4019D01*
X114157Y3995D01*
X114123Y3887D01*
X114082Y3781D01*
X114080Y3752D01*
X114071Y3724D01*
X114068Y3611D01*
X114059Y3498D01*
X114065Y3469D01*
X114064Y3440D01*
X114092Y3330D01*
X114115Y3219D01*
X114128Y3193D01*
X114136Y3165D01*
X114193Y3067D01*
X114246Y2967D01*
X114266Y2945D01*
X114281Y2920D01*
X114364Y2843D01*
X114441Y2761D01*
X114467Y2746D01*
X114488Y2726D01*
X114589Y2674D01*
X114687Y2617D01*
X114715Y2610D01*
X114741Y2596D01*
X114819Y2583D01*
X114962Y2547D01*
X115025Y2549D01*
X115072Y2541D01*
X189728Y2541D01*
X189757Y2545D01*
X189786Y2542D01*
X189897Y2565D01*
X190009Y2581D01*
X190036Y2593D01*
X190065Y2598D01*
X190165Y2651D01*
X190269Y2697D01*
X190291Y2716D01*
X190317Y2729D01*
X190399Y2807D01*
X190486Y2880D01*
X190502Y2905D01*
X190523Y2925D01*
X190580Y3023D01*
X190643Y3117D01*
X190652Y3145D01*
X190667Y3170D01*
X190695Y3280D01*
X190729Y3388D01*
X190730Y3418D01*
X190737Y3446D01*
X190733Y3559D01*
X190736Y3672D01*
X190729Y3701D01*
X190728Y3730D01*
X190693Y3838D01*
X190664Y3947D01*
X190649Y3973D01*
X190640Y4001D01*
X190595Y4065D01*
X190519Y4192D01*
X190473Y4235D01*
X190445Y4274D01*
X190272Y4447D01*
X190272Y20553D01*
X190347Y20628D01*
X200453Y20628D01*
X200528Y20553D01*
X200528Y4447D01*
X200355Y4274D01*
X200337Y4250D01*
X200314Y4231D01*
X200252Y4137D01*
X200184Y4047D01*
X200173Y4019D01*
X200157Y3995D01*
X200123Y3887D01*
X200082Y3781D01*
X200080Y3752D01*
X200071Y3724D01*
X200068Y3611D01*
X200059Y3498D01*
X200065Y3469D01*
X200064Y3440D01*
X200092Y3330D01*
X200115Y3219D01*
X200128Y3193D01*
X200136Y3165D01*
X200193Y3067D01*
X200246Y2967D01*
X200266Y2945D01*
X200281Y2920D01*
X200364Y2843D01*
X200441Y2761D01*
X200467Y2746D01*
X200488Y2726D01*
X200589Y2674D01*
X200687Y2617D01*
X200715Y2610D01*
X200741Y2596D01*
X200819Y2583D01*
X200962Y2547D01*
X201025Y2549D01*
X201072Y2541D01*
X279400Y2541D01*
X279444Y2547D01*
X279480Y2544D01*
X282897Y2813D01*
X283055Y2848D01*
X283131Y2859D01*
X289631Y4971D01*
X289886Y5096D01*
X289900Y5109D01*
X289914Y5115D01*
X295443Y9133D01*
X295647Y9330D01*
X295656Y9346D01*
X295667Y9357D01*
X299685Y14886D01*
X299818Y15137D01*
X299822Y15156D01*
X299829Y15169D01*
X301941Y21669D01*
X301969Y21829D01*
X301987Y21903D01*
X302256Y25320D01*
X302253Y25365D01*
X302259Y25400D01*
X302259Y240019D01*
X302255Y240048D01*
X302258Y240077D01*
X302235Y240188D01*
X302219Y240300D01*
X302207Y240327D01*
X302202Y240356D01*
X302149Y240456D01*
X302103Y240559D01*
X302084Y240582D01*
X302071Y240608D01*
X301993Y240690D01*
X301920Y240776D01*
X301895Y240793D01*
X301875Y240814D01*
X301777Y240871D01*
X301683Y240934D01*
X301655Y240943D01*
X301630Y240958D01*
X301520Y240986D01*
X301412Y241020D01*
X301382Y241021D01*
X301354Y241028D01*
X301241Y241024D01*
X301128Y241027D01*
X301099Y241020D01*
X301070Y241019D01*
X300962Y240984D01*
X300853Y240955D01*
X300827Y240940D01*
X300799Y240931D01*
X300735Y240886D01*
X300608Y240810D01*
X300565Y240764D01*
X300526Y240736D01*
X299311Y239521D01*
X297009Y239521D01*
X295381Y241149D01*
X295381Y243451D01*
X297009Y245079D01*
X299311Y245079D01*
X300526Y243864D01*
X300550Y243846D01*
X300569Y243824D01*
X300663Y243761D01*
X300753Y243693D01*
X300781Y243682D01*
X300805Y243666D01*
X300913Y243632D01*
X301019Y243591D01*
X301048Y243589D01*
X301076Y243580D01*
X301190Y243577D01*
X301302Y243568D01*
X301331Y243574D01*
X301360Y243573D01*
X301470Y243602D01*
X301581Y243624D01*
X301607Y243637D01*
X301635Y243645D01*
X301733Y243702D01*
X301833Y243755D01*
X301855Y243775D01*
X301880Y243790D01*
X301957Y243872D01*
X302039Y243951D01*
X302054Y243976D01*
X302074Y243997D01*
X302126Y244098D01*
X302183Y244196D01*
X302190Y244224D01*
X302204Y244250D01*
X302217Y244328D01*
X302253Y244471D01*
X302251Y244534D01*
X302259Y244581D01*
X302259Y914400D01*
X302253Y914444D01*
X302256Y914480D01*
X301987Y917897D01*
X301952Y918055D01*
X301941Y918131D01*
X299829Y924631D01*
X299704Y924886D01*
X299691Y924900D01*
X299685Y924914D01*
X295667Y930443D01*
X295470Y930647D01*
X295454Y930656D01*
X295443Y930667D01*
X289914Y934685D01*
X289663Y934818D01*
X289644Y934822D01*
X289631Y934829D01*
X283131Y936941D01*
X282971Y936969D01*
X282897Y936987D01*
X279480Y937256D01*
X279435Y937253D01*
X279400Y937259D01*
X25400Y937259D01*
X25356Y937253D01*
X25320Y937256D01*
X21903Y936987D01*
X21745Y936952D01*
X21669Y936941D01*
X15169Y934829D01*
X14914Y934704D01*
X14900Y934691D01*
X14886Y934685D01*
X9357Y930667D01*
X9153Y930470D01*
X9144Y930454D01*
X9133Y930443D01*
X5115Y924914D01*
X4982Y924663D01*
X4978Y924644D01*
X4971Y924631D01*
X2859Y918131D01*
X2831Y917971D01*
X2813Y917897D01*
X2544Y914480D01*
X2547Y914435D01*
X2541Y914400D01*
X2541Y25400D01*
X2547Y25356D01*
X2544Y25320D01*
X2813Y21903D01*
X2848Y21745D01*
X2859Y21669D01*
X4971Y15169D01*
X5096Y14914D01*
X5109Y14900D01*
X5115Y14886D01*
X9133Y9357D01*
X9330Y9153D01*
X9346Y9144D01*
X9357Y9133D01*
X14886Y5115D01*
X15137Y4982D01*
X15156Y4978D01*
X15169Y4971D01*
X21669Y2859D01*
X21829Y2831D01*
X21903Y2813D01*
X25320Y2544D01*
X25365Y2547D01*
X25400Y2541D01*
X103728Y2541D01*
X103757Y2545D01*
G37*
%LPC*%
G36*
X49082Y359663D02*
X49082Y359663D01*
X45908Y360978D01*
X43478Y363408D01*
X42163Y366582D01*
X42163Y370018D01*
X43478Y373192D01*
X45908Y375622D01*
X49082Y376937D01*
X52518Y376937D01*
X55132Y375854D01*
X55133Y375854D01*
X55135Y375853D01*
X55268Y375819D01*
X55407Y375783D01*
X55409Y375783D01*
X55410Y375783D01*
X55551Y375787D01*
X55691Y375791D01*
X55693Y375792D01*
X55694Y375792D01*
X55827Y375835D01*
X55962Y375878D01*
X55963Y375879D01*
X55965Y375879D01*
X55977Y375888D01*
X56198Y376036D01*
X56218Y376060D01*
X56238Y376074D01*
X66669Y386505D01*
X66687Y386529D01*
X66709Y386548D01*
X66772Y386642D01*
X66840Y386732D01*
X66851Y386760D01*
X66867Y386784D01*
X66901Y386892D01*
X66941Y386998D01*
X66944Y387027D01*
X66953Y387055D01*
X66956Y387169D01*
X66965Y387281D01*
X66959Y387310D01*
X66960Y387339D01*
X66931Y387449D01*
X66909Y387560D01*
X66896Y387586D01*
X66888Y387614D01*
X66830Y387712D01*
X66778Y387812D01*
X66758Y387834D01*
X66743Y387859D01*
X66660Y387936D01*
X66582Y388018D01*
X66557Y388033D01*
X66536Y388053D01*
X66435Y388105D01*
X66337Y388162D01*
X66309Y388169D01*
X66282Y388183D01*
X66205Y388196D01*
X66061Y388232D01*
X65999Y388230D01*
X65951Y388238D01*
X57973Y388238D01*
X57886Y388226D01*
X57799Y388223D01*
X57746Y388206D01*
X57691Y388198D01*
X57612Y388163D01*
X57528Y388136D01*
X57489Y388108D01*
X57432Y388082D01*
X57319Y387986D01*
X57255Y387941D01*
X55692Y386378D01*
X52518Y385063D01*
X49082Y385063D01*
X45908Y386378D01*
X43478Y388808D01*
X42163Y391982D01*
X42163Y395418D01*
X43478Y398592D01*
X45908Y401022D01*
X49082Y402337D01*
X52518Y402337D01*
X55692Y401022D01*
X58122Y398592D01*
X59437Y395418D01*
X59437Y392557D01*
X59445Y392499D01*
X59443Y392441D01*
X59465Y392359D01*
X59477Y392275D01*
X59500Y392222D01*
X59515Y392166D01*
X59558Y392093D01*
X59593Y392016D01*
X59631Y391971D01*
X59660Y391921D01*
X59722Y391863D01*
X59776Y391799D01*
X59825Y391767D01*
X59868Y391727D01*
X59943Y391688D01*
X60013Y391641D01*
X60069Y391624D01*
X60121Y391597D01*
X60189Y391586D01*
X60284Y391556D01*
X60384Y391553D01*
X60452Y391542D01*
X74708Y391542D01*
X74737Y391546D01*
X74766Y391543D01*
X74877Y391566D01*
X74989Y391582D01*
X75016Y391594D01*
X75045Y391599D01*
X75145Y391652D01*
X75248Y391698D01*
X75271Y391717D01*
X75297Y391730D01*
X75379Y391808D01*
X75465Y391881D01*
X75482Y391906D01*
X75503Y391926D01*
X75560Y392024D01*
X75623Y392118D01*
X75632Y392146D01*
X75647Y392171D01*
X75674Y392280D01*
X75709Y392389D01*
X75710Y392419D01*
X75717Y392447D01*
X75713Y392560D01*
X75716Y392673D01*
X75709Y392702D01*
X75708Y392731D01*
X75673Y392839D01*
X75644Y392948D01*
X75629Y392974D01*
X75620Y393002D01*
X75575Y393066D01*
X75499Y393193D01*
X75453Y393236D01*
X75425Y393275D01*
X74071Y394629D01*
X74071Y396965D01*
X74063Y397023D01*
X74065Y397081D01*
X74043Y397163D01*
X74031Y397247D01*
X74008Y397300D01*
X73993Y397356D01*
X73950Y397429D01*
X73915Y397506D01*
X73877Y397551D01*
X73848Y397601D01*
X73786Y397659D01*
X73732Y397723D01*
X73683Y397755D01*
X73640Y397795D01*
X73565Y397834D01*
X73495Y397881D01*
X73439Y397898D01*
X73387Y397925D01*
X73319Y397936D01*
X73224Y397966D01*
X73124Y397969D01*
X73056Y397980D01*
X70673Y397980D01*
X69045Y399608D01*
X69045Y401910D01*
X70229Y403094D01*
X70247Y403118D01*
X70269Y403137D01*
X70332Y403231D01*
X70400Y403321D01*
X70411Y403349D01*
X70427Y403373D01*
X70461Y403481D01*
X70502Y403587D01*
X70504Y403616D01*
X70513Y403644D01*
X70516Y403758D01*
X70525Y403870D01*
X70519Y403899D01*
X70520Y403928D01*
X70491Y404038D01*
X70469Y404149D01*
X70456Y404175D01*
X70448Y404203D01*
X70391Y404301D01*
X70338Y404401D01*
X70318Y404423D01*
X70303Y404448D01*
X70221Y404525D01*
X70142Y404607D01*
X70117Y404622D01*
X70096Y404642D01*
X69995Y404694D01*
X69897Y404751D01*
X69869Y404758D01*
X69843Y404772D01*
X69765Y404785D01*
X69622Y404821D01*
X69559Y404819D01*
X69512Y404827D01*
X66277Y404827D01*
X66191Y404815D01*
X66103Y404812D01*
X66051Y404795D01*
X65996Y404787D01*
X65916Y404752D01*
X65833Y404725D01*
X65794Y404697D01*
X65737Y404671D01*
X65623Y404575D01*
X65560Y404530D01*
X64651Y403621D01*
X62349Y403621D01*
X60721Y405249D01*
X60721Y407551D01*
X62349Y409179D01*
X64651Y409179D01*
X65402Y408428D01*
X65471Y408376D01*
X65535Y408316D01*
X65585Y408290D01*
X65629Y408257D01*
X65711Y408226D01*
X65788Y408186D01*
X65836Y408178D01*
X65894Y408156D01*
X66042Y408144D01*
X66119Y408131D01*
X125780Y408131D01*
X125809Y408135D01*
X125839Y408132D01*
X125950Y408155D01*
X126062Y408171D01*
X126088Y408183D01*
X126117Y408188D01*
X126218Y408240D01*
X126321Y408287D01*
X126344Y408306D01*
X126370Y408319D01*
X126452Y408397D01*
X126538Y408470D01*
X126554Y408495D01*
X126576Y408515D01*
X126633Y408613D01*
X126696Y408707D01*
X126705Y408735D01*
X126719Y408760D01*
X126747Y408870D01*
X126782Y408978D01*
X126782Y409008D01*
X126789Y409036D01*
X126786Y409149D01*
X126789Y409262D01*
X126781Y409291D01*
X126780Y409320D01*
X126746Y409428D01*
X126717Y409537D01*
X126702Y409563D01*
X126693Y409591D01*
X126647Y409654D01*
X126572Y409782D01*
X126526Y409825D01*
X126498Y409864D01*
X110321Y426041D01*
X110251Y426093D01*
X110187Y426153D01*
X110138Y426179D01*
X110094Y426212D01*
X110012Y426243D01*
X109934Y426283D01*
X109887Y426291D01*
X109828Y426313D01*
X109681Y426325D01*
X109603Y426338D01*
X107092Y426338D01*
X107063Y426334D01*
X107034Y426337D01*
X106923Y426314D01*
X106811Y426298D01*
X106784Y426286D01*
X106755Y426281D01*
X106655Y426228D01*
X106552Y426182D01*
X106529Y426163D01*
X106503Y426150D01*
X106421Y426072D01*
X106335Y425999D01*
X106318Y425974D01*
X106297Y425954D01*
X106240Y425856D01*
X106177Y425762D01*
X106168Y425734D01*
X106153Y425709D01*
X106125Y425599D01*
X106091Y425491D01*
X106090Y425461D01*
X106083Y425433D01*
X106087Y425320D01*
X106084Y425207D01*
X106091Y425178D01*
X106092Y425149D01*
X106127Y425041D01*
X106156Y424932D01*
X106171Y424906D01*
X106180Y424878D01*
X106225Y424814D01*
X106301Y424687D01*
X106347Y424644D01*
X106375Y424605D01*
X106919Y424061D01*
X106919Y421759D01*
X105291Y420131D01*
X102989Y420131D01*
X101361Y421759D01*
X101361Y424061D01*
X101905Y424605D01*
X101923Y424629D01*
X101945Y424648D01*
X102008Y424742D01*
X102076Y424832D01*
X102087Y424860D01*
X102103Y424884D01*
X102137Y424992D01*
X102178Y425098D01*
X102180Y425127D01*
X102189Y425155D01*
X102192Y425269D01*
X102201Y425381D01*
X102195Y425410D01*
X102196Y425439D01*
X102167Y425549D01*
X102145Y425660D01*
X102132Y425686D01*
X102124Y425714D01*
X102067Y425812D01*
X102014Y425912D01*
X101994Y425934D01*
X101979Y425959D01*
X101896Y426036D01*
X101818Y426118D01*
X101793Y426133D01*
X101772Y426153D01*
X101671Y426205D01*
X101573Y426262D01*
X101545Y426269D01*
X101519Y426283D01*
X101441Y426296D01*
X101298Y426332D01*
X101235Y426330D01*
X101188Y426338D01*
X66626Y426338D01*
X65361Y427603D01*
X56238Y436726D01*
X56237Y436727D01*
X56236Y436728D01*
X56122Y436813D01*
X56011Y436897D01*
X56010Y436897D01*
X56008Y436898D01*
X55876Y436948D01*
X55745Y436998D01*
X55744Y436998D01*
X55742Y436999D01*
X55598Y437010D01*
X55462Y437022D01*
X55461Y437021D01*
X55459Y437021D01*
X55443Y437018D01*
X55183Y436966D01*
X55156Y436952D01*
X55132Y436946D01*
X52518Y435863D01*
X49082Y435863D01*
X45908Y437178D01*
X43478Y439608D01*
X42163Y442782D01*
X42163Y446218D01*
X43478Y449392D01*
X45908Y451822D01*
X49082Y453137D01*
X52518Y453137D01*
X55692Y451822D01*
X58122Y449392D01*
X59437Y446218D01*
X59437Y442782D01*
X58354Y440168D01*
X58354Y440167D01*
X58353Y440165D01*
X58319Y440031D01*
X58283Y439893D01*
X58283Y439891D01*
X58283Y439890D01*
X58287Y439741D01*
X58291Y439609D01*
X58292Y439607D01*
X58292Y439606D01*
X58335Y439473D01*
X58378Y439338D01*
X58379Y439337D01*
X58379Y439335D01*
X58388Y439323D01*
X58536Y439102D01*
X58560Y439082D01*
X58574Y439062D01*
X62655Y434981D01*
X62679Y434963D01*
X62698Y434941D01*
X62792Y434878D01*
X62882Y434810D01*
X62910Y434799D01*
X62934Y434783D01*
X63042Y434749D01*
X63148Y434709D01*
X63177Y434706D01*
X63205Y434697D01*
X63319Y434694D01*
X63431Y434685D01*
X63460Y434691D01*
X63489Y434690D01*
X63599Y434719D01*
X63710Y434741D01*
X63736Y434754D01*
X63764Y434762D01*
X63862Y434820D01*
X63962Y434872D01*
X63984Y434892D01*
X64009Y434907D01*
X64086Y434990D01*
X64168Y435068D01*
X64183Y435093D01*
X64203Y435114D01*
X64255Y435215D01*
X64312Y435313D01*
X64319Y435341D01*
X64333Y435368D01*
X64346Y435445D01*
X64382Y435589D01*
X64380Y435651D01*
X64388Y435699D01*
X64388Y453555D01*
X64376Y453642D01*
X64373Y453729D01*
X64356Y453782D01*
X64348Y453837D01*
X64313Y453917D01*
X64286Y454000D01*
X64258Y454039D01*
X64232Y454096D01*
X64136Y454209D01*
X64091Y454273D01*
X56238Y462126D01*
X56237Y462127D01*
X56236Y462128D01*
X56122Y462213D01*
X56011Y462297D01*
X56010Y462297D01*
X56008Y462298D01*
X55876Y462348D01*
X55745Y462398D01*
X55744Y462398D01*
X55742Y462399D01*
X55598Y462410D01*
X55462Y462422D01*
X55461Y462421D01*
X55459Y462421D01*
X55443Y462418D01*
X55183Y462366D01*
X55156Y462352D01*
X55132Y462346D01*
X52518Y461263D01*
X49082Y461263D01*
X45908Y462578D01*
X43478Y465008D01*
X42163Y468182D01*
X42163Y471618D01*
X43478Y474792D01*
X45908Y477222D01*
X49082Y478537D01*
X52518Y478537D01*
X55692Y477222D01*
X58122Y474792D01*
X59437Y471618D01*
X59437Y468182D01*
X58354Y465568D01*
X58354Y465567D01*
X58353Y465565D01*
X58319Y465431D01*
X58283Y465293D01*
X58283Y465291D01*
X58283Y465290D01*
X58287Y465149D01*
X58291Y465009D01*
X58292Y465007D01*
X58292Y465006D01*
X58335Y464871D01*
X58378Y464738D01*
X58379Y464737D01*
X58379Y464735D01*
X58388Y464723D01*
X58536Y464502D01*
X58560Y464482D01*
X58574Y464462D01*
X67692Y455344D01*
X67692Y434175D01*
X67704Y434088D01*
X67707Y434001D01*
X67724Y433948D01*
X67732Y433893D01*
X67767Y433813D01*
X67794Y433730D01*
X67822Y433691D01*
X67848Y433634D01*
X67944Y433521D01*
X67989Y433457D01*
X68967Y432479D01*
X69037Y432427D01*
X69101Y432367D01*
X69150Y432341D01*
X69194Y432308D01*
X69276Y432277D01*
X69354Y432237D01*
X69401Y432229D01*
X69460Y432207D01*
X69607Y432195D01*
X69685Y432182D01*
X112444Y432182D01*
X129927Y414699D01*
X129997Y414647D01*
X130061Y414587D01*
X130110Y414561D01*
X130154Y414528D01*
X130236Y414497D01*
X130314Y414457D01*
X130361Y414449D01*
X130420Y414427D01*
X130567Y414415D01*
X130645Y414402D01*
X132306Y414402D01*
X132364Y414410D01*
X132422Y414408D01*
X132504Y414430D01*
X132588Y414442D01*
X132641Y414465D01*
X132697Y414480D01*
X132770Y414523D01*
X132847Y414558D01*
X132892Y414596D01*
X132942Y414625D01*
X133000Y414687D01*
X133064Y414741D01*
X133096Y414790D01*
X133136Y414833D01*
X133175Y414908D01*
X133222Y414978D01*
X133239Y415034D01*
X133266Y415086D01*
X133277Y415154D01*
X133307Y415249D01*
X133310Y415349D01*
X133321Y415417D01*
X133321Y417314D01*
X134405Y418398D01*
X134423Y418422D01*
X134445Y418441D01*
X134508Y418535D01*
X134576Y418625D01*
X134587Y418653D01*
X134603Y418677D01*
X134637Y418785D01*
X134678Y418891D01*
X134680Y418920D01*
X134689Y418948D01*
X134692Y419062D01*
X134701Y419174D01*
X134695Y419203D01*
X134696Y419232D01*
X134667Y419342D01*
X134645Y419453D01*
X134632Y419479D01*
X134624Y419507D01*
X134567Y419605D01*
X134514Y419705D01*
X134494Y419727D01*
X134479Y419752D01*
X134397Y419829D01*
X134318Y419911D01*
X134293Y419926D01*
X134272Y419946D01*
X134171Y419998D01*
X134073Y420055D01*
X134045Y420062D01*
X134019Y420076D01*
X133941Y420089D01*
X133798Y420125D01*
X133735Y420123D01*
X133688Y420131D01*
X132199Y420131D01*
X130571Y421759D01*
X130571Y424061D01*
X131877Y425367D01*
X131912Y425414D01*
X131955Y425454D01*
X131998Y425527D01*
X132048Y425594D01*
X132069Y425649D01*
X132099Y425699D01*
X132119Y425781D01*
X132150Y425860D01*
X132154Y425918D01*
X132169Y425975D01*
X132166Y426059D01*
X132173Y426143D01*
X132162Y426201D01*
X132160Y426259D01*
X132134Y426339D01*
X132117Y426422D01*
X132090Y426474D01*
X132072Y426530D01*
X132032Y426586D01*
X131986Y426674D01*
X131918Y426747D01*
X131877Y426803D01*
X130571Y428109D01*
X130571Y430411D01*
X131877Y431717D01*
X131912Y431764D01*
X131955Y431804D01*
X131998Y431877D01*
X132048Y431944D01*
X132069Y431999D01*
X132099Y432049D01*
X132119Y432131D01*
X132150Y432210D01*
X132154Y432268D01*
X132169Y432325D01*
X132166Y432409D01*
X132173Y432493D01*
X132162Y432551D01*
X132160Y432609D01*
X132134Y432689D01*
X132117Y432772D01*
X132090Y432824D01*
X132072Y432880D01*
X132032Y432936D01*
X131986Y433024D01*
X131918Y433097D01*
X131877Y433153D01*
X130571Y434459D01*
X130571Y436761D01*
X132199Y438389D01*
X134501Y438389D01*
X136129Y436761D01*
X136129Y434459D01*
X134823Y433153D01*
X134787Y433106D01*
X134745Y433066D01*
X134702Y432993D01*
X134652Y432926D01*
X134631Y432871D01*
X134601Y432821D01*
X134581Y432739D01*
X134550Y432660D01*
X134546Y432602D01*
X134531Y432545D01*
X134534Y432461D01*
X134527Y432377D01*
X134538Y432319D01*
X134540Y432261D01*
X134566Y432181D01*
X134583Y432098D01*
X134610Y432046D01*
X134628Y431990D01*
X134668Y431934D01*
X134714Y431846D01*
X134783Y431773D01*
X134823Y431717D01*
X134950Y431590D01*
X135019Y431538D01*
X135083Y431478D01*
X135133Y431452D01*
X135177Y431419D01*
X135259Y431388D01*
X135336Y431348D01*
X135384Y431340D01*
X135442Y431318D01*
X135590Y431306D01*
X135668Y431293D01*
X154147Y431293D01*
X154176Y431297D01*
X154205Y431294D01*
X154316Y431317D01*
X154428Y431333D01*
X154455Y431345D01*
X154484Y431350D01*
X154584Y431402D01*
X154687Y431449D01*
X154710Y431468D01*
X154736Y431481D01*
X154818Y431559D01*
X154904Y431632D01*
X154921Y431657D01*
X154942Y431677D01*
X154999Y431775D01*
X155062Y431869D01*
X155071Y431897D01*
X155086Y431922D01*
X155114Y432032D01*
X155148Y432140D01*
X155149Y432169D01*
X155156Y432198D01*
X155152Y432311D01*
X155155Y432424D01*
X155148Y432453D01*
X155147Y432482D01*
X155112Y432590D01*
X155083Y432699D01*
X155068Y432725D01*
X155059Y432753D01*
X155014Y432817D01*
X154938Y432944D01*
X154892Y432987D01*
X154864Y433026D01*
X154701Y433189D01*
X154701Y435491D01*
X156329Y437119D01*
X158631Y437119D01*
X160259Y435491D01*
X160259Y433189D01*
X160096Y433026D01*
X160078Y433002D01*
X160056Y432983D01*
X159993Y432889D01*
X159925Y432799D01*
X159914Y432771D01*
X159898Y432747D01*
X159864Y432639D01*
X159823Y432533D01*
X159821Y432504D01*
X159812Y432476D01*
X159809Y432363D01*
X159800Y432250D01*
X159806Y432221D01*
X159805Y432192D01*
X159833Y432082D01*
X159856Y431971D01*
X159869Y431945D01*
X159877Y431917D01*
X159935Y431819D01*
X159987Y431719D01*
X160007Y431697D01*
X160022Y431672D01*
X160105Y431595D01*
X160183Y431513D01*
X160208Y431498D01*
X160229Y431478D01*
X160330Y431426D01*
X160428Y431369D01*
X160456Y431362D01*
X160482Y431348D01*
X160560Y431335D01*
X160703Y431299D01*
X160766Y431301D01*
X160813Y431293D01*
X180562Y431293D01*
X180649Y431305D01*
X180737Y431308D01*
X180789Y431325D01*
X180844Y431333D01*
X180924Y431368D01*
X181007Y431395D01*
X181046Y431423D01*
X181103Y431449D01*
X181217Y431545D01*
X181280Y431590D01*
X182999Y433309D01*
X184204Y433309D01*
X184233Y433313D01*
X184263Y433310D01*
X184374Y433333D01*
X184486Y433349D01*
X184513Y433361D01*
X184541Y433366D01*
X184642Y433419D01*
X184745Y433465D01*
X184768Y433484D01*
X184794Y433497D01*
X184876Y433575D01*
X184962Y433648D01*
X184979Y433673D01*
X185000Y433693D01*
X185057Y433791D01*
X185120Y433885D01*
X185129Y433913D01*
X185144Y433938D01*
X185172Y434048D01*
X185206Y434156D01*
X185206Y434185D01*
X185214Y434214D01*
X185210Y434327D01*
X185213Y434440D01*
X185206Y434469D01*
X185205Y434498D01*
X185170Y434606D01*
X185141Y434715D01*
X185126Y434741D01*
X185117Y434769D01*
X185071Y434833D01*
X184996Y434960D01*
X184950Y435003D01*
X184922Y435042D01*
X184763Y435201D01*
X184693Y435254D01*
X184629Y435313D01*
X184580Y435339D01*
X184536Y435372D01*
X184454Y435403D01*
X184376Y435443D01*
X184329Y435451D01*
X184270Y435473D01*
X184123Y435485D01*
X184045Y435498D01*
X180849Y435498D01*
X180762Y435486D01*
X180674Y435483D01*
X180622Y435466D01*
X180567Y435458D01*
X180487Y435423D01*
X180404Y435396D01*
X180365Y435368D01*
X180308Y435342D01*
X180194Y435246D01*
X180131Y435201D01*
X179301Y434371D01*
X176999Y434371D01*
X175371Y435999D01*
X175371Y436961D01*
X175367Y436990D01*
X175370Y437019D01*
X175347Y437130D01*
X175331Y437242D01*
X175319Y437269D01*
X175314Y437298D01*
X175261Y437398D01*
X175215Y437501D01*
X175196Y437524D01*
X175183Y437550D01*
X175105Y437632D01*
X175032Y437718D01*
X175007Y437735D01*
X174987Y437756D01*
X174889Y437813D01*
X174795Y437876D01*
X174767Y437885D01*
X174742Y437900D01*
X174632Y437928D01*
X174524Y437962D01*
X174494Y437963D01*
X174466Y437970D01*
X174353Y437966D01*
X174240Y437969D01*
X174211Y437962D01*
X174182Y437961D01*
X174074Y437926D01*
X173965Y437897D01*
X173939Y437882D01*
X173911Y437873D01*
X173847Y437828D01*
X173720Y437752D01*
X173677Y437706D01*
X173638Y437678D01*
X172601Y436641D01*
X170299Y436641D01*
X168671Y438269D01*
X168671Y440571D01*
X170299Y442199D01*
X172601Y442199D01*
X174229Y440571D01*
X174229Y439609D01*
X174233Y439580D01*
X174230Y439551D01*
X174253Y439440D01*
X174269Y439328D01*
X174281Y439301D01*
X174286Y439272D01*
X174339Y439172D01*
X174385Y439069D01*
X174404Y439046D01*
X174417Y439020D01*
X174495Y438938D01*
X174568Y438852D01*
X174593Y438835D01*
X174613Y438814D01*
X174711Y438757D01*
X174805Y438694D01*
X174833Y438685D01*
X174858Y438670D01*
X174968Y438642D01*
X175076Y438608D01*
X175106Y438607D01*
X175134Y438600D01*
X175247Y438604D01*
X175360Y438601D01*
X175389Y438608D01*
X175418Y438609D01*
X175526Y438644D01*
X175635Y438673D01*
X175661Y438688D01*
X175689Y438697D01*
X175753Y438742D01*
X175880Y438818D01*
X175923Y438864D01*
X175962Y438892D01*
X176999Y439929D01*
X179301Y439929D01*
X180131Y439099D01*
X180200Y439047D01*
X180264Y438987D01*
X180314Y438961D01*
X180358Y438928D01*
X180440Y438897D01*
X180517Y438857D01*
X180565Y438849D01*
X180623Y438827D01*
X180771Y438815D01*
X180849Y438802D01*
X183521Y438802D01*
X183550Y438806D01*
X183580Y438803D01*
X183691Y438826D01*
X183803Y438842D01*
X183830Y438854D01*
X183858Y438859D01*
X183959Y438911D01*
X184062Y438958D01*
X184085Y438977D01*
X184111Y438990D01*
X184193Y439068D01*
X184279Y439141D01*
X184296Y439166D01*
X184317Y439186D01*
X184374Y439284D01*
X184437Y439378D01*
X184446Y439406D01*
X184461Y439431D01*
X184488Y439541D01*
X184523Y439649D01*
X184523Y439679D01*
X184531Y439707D01*
X184527Y439820D01*
X184530Y439933D01*
X184523Y439962D01*
X184522Y439991D01*
X184487Y440099D01*
X184458Y440208D01*
X184443Y440234D01*
X184434Y440262D01*
X184389Y440325D01*
X184313Y440453D01*
X184267Y440496D01*
X184239Y440535D01*
X173465Y451309D01*
X173418Y451344D01*
X173378Y451387D01*
X173305Y451430D01*
X173238Y451480D01*
X173183Y451501D01*
X173132Y451531D01*
X173051Y451551D01*
X172972Y451581D01*
X172914Y451586D01*
X172857Y451601D01*
X172773Y451598D01*
X172689Y451605D01*
X172631Y451593D01*
X172573Y451592D01*
X172493Y451566D01*
X172410Y451549D01*
X172358Y451522D01*
X172302Y451504D01*
X172246Y451464D01*
X172158Y451418D01*
X172085Y451349D01*
X172029Y451309D01*
X171331Y450611D01*
X169029Y450611D01*
X167401Y452239D01*
X167401Y454391D01*
X167397Y454420D01*
X167400Y454449D01*
X167377Y454560D01*
X167361Y454672D01*
X167349Y454699D01*
X167344Y454728D01*
X167291Y454828D01*
X167245Y454931D01*
X167226Y454954D01*
X167213Y454980D01*
X167135Y455062D01*
X167062Y455148D01*
X167037Y455165D01*
X167017Y455186D01*
X166919Y455243D01*
X166825Y455306D01*
X166797Y455315D01*
X166772Y455330D01*
X166662Y455358D01*
X166554Y455392D01*
X166524Y455393D01*
X166496Y455400D01*
X166383Y455396D01*
X166270Y455399D01*
X166241Y455392D01*
X166212Y455391D01*
X166104Y455356D01*
X165995Y455327D01*
X165969Y455312D01*
X165941Y455303D01*
X165877Y455258D01*
X165750Y455182D01*
X165707Y455136D01*
X165668Y455108D01*
X164981Y454421D01*
X162679Y454421D01*
X161051Y456049D01*
X161051Y456134D01*
X161047Y456164D01*
X161050Y456193D01*
X161027Y456304D01*
X161011Y456416D01*
X160999Y456443D01*
X160994Y456472D01*
X160941Y456572D01*
X160895Y456675D01*
X160876Y456698D01*
X160863Y456724D01*
X160785Y456806D01*
X160712Y456892D01*
X160687Y456909D01*
X160667Y456930D01*
X160569Y456987D01*
X160475Y457050D01*
X160447Y457059D01*
X160422Y457074D01*
X160312Y457101D01*
X160204Y457136D01*
X160174Y457137D01*
X160146Y457144D01*
X160033Y457140D01*
X159920Y457143D01*
X159891Y457136D01*
X159862Y457135D01*
X159754Y457100D01*
X159645Y457071D01*
X159619Y457056D01*
X159591Y457047D01*
X159528Y457002D01*
X159400Y456926D01*
X159357Y456880D01*
X159318Y456852D01*
X157759Y455293D01*
X155457Y455293D01*
X153786Y456964D01*
X153766Y457010D01*
X153751Y457066D01*
X153708Y457139D01*
X153673Y457216D01*
X153635Y457261D01*
X153606Y457311D01*
X153544Y457369D01*
X153490Y457433D01*
X153441Y457465D01*
X153398Y457505D01*
X153323Y457544D01*
X153253Y457590D01*
X153197Y457608D01*
X153145Y457635D01*
X153077Y457646D01*
X152982Y457676D01*
X152882Y457679D01*
X152814Y457690D01*
X136700Y457690D01*
X136671Y457686D01*
X136642Y457689D01*
X136531Y457666D01*
X136419Y457650D01*
X136392Y457638D01*
X136363Y457633D01*
X136263Y457581D01*
X136160Y457534D01*
X136137Y457515D01*
X136111Y457502D01*
X136029Y457424D01*
X135943Y457350D01*
X135926Y457326D01*
X135905Y457306D01*
X135848Y457208D01*
X135785Y457114D01*
X135776Y457086D01*
X135761Y457061D01*
X135733Y456951D01*
X135699Y456843D01*
X135698Y456814D01*
X135691Y456785D01*
X135695Y456672D01*
X135692Y456559D01*
X135699Y456530D01*
X135700Y456501D01*
X135735Y456393D01*
X135764Y456284D01*
X135779Y456258D01*
X135788Y456230D01*
X135833Y456166D01*
X135909Y456039D01*
X135955Y455996D01*
X135983Y455957D01*
X136129Y455811D01*
X136129Y453509D01*
X134760Y452140D01*
X134725Y452094D01*
X134683Y452053D01*
X134640Y451981D01*
X134589Y451913D01*
X134568Y451859D01*
X134539Y451808D01*
X134518Y451727D01*
X134488Y451648D01*
X134483Y451589D01*
X134469Y451533D01*
X134471Y451448D01*
X134464Y451364D01*
X134476Y451307D01*
X134478Y451248D01*
X134504Y451168D01*
X134520Y451086D01*
X134547Y451034D01*
X134565Y450978D01*
X134605Y450922D01*
X134651Y450833D01*
X134720Y450761D01*
X134760Y450705D01*
X136129Y449336D01*
X136129Y447034D01*
X134501Y445406D01*
X132199Y445406D01*
X130571Y447034D01*
X130571Y449336D01*
X131940Y450705D01*
X131975Y450751D01*
X132017Y450792D01*
X132060Y450864D01*
X132111Y450932D01*
X132132Y450986D01*
X132161Y451037D01*
X132182Y451119D01*
X132212Y451197D01*
X132217Y451256D01*
X132231Y451312D01*
X132229Y451397D01*
X132236Y451481D01*
X132224Y451538D01*
X132222Y451597D01*
X132196Y451677D01*
X132180Y451760D01*
X132153Y451811D01*
X132135Y451867D01*
X132095Y451923D01*
X132049Y452012D01*
X131980Y452084D01*
X131940Y452140D01*
X130571Y453509D01*
X130571Y455811D01*
X130717Y455957D01*
X130735Y455981D01*
X130757Y455999D01*
X130820Y456094D01*
X130888Y456184D01*
X130899Y456212D01*
X130915Y456236D01*
X130949Y456344D01*
X130990Y456450D01*
X130992Y456479D01*
X131001Y456507D01*
X131004Y456620D01*
X131013Y456733D01*
X131007Y456762D01*
X131008Y456791D01*
X130979Y456901D01*
X130957Y457012D01*
X130944Y457038D01*
X130936Y457066D01*
X130878Y457164D01*
X130826Y457264D01*
X130806Y457286D01*
X130791Y457311D01*
X130708Y457388D01*
X130630Y457470D01*
X130605Y457485D01*
X130584Y457505D01*
X130483Y457557D01*
X130385Y457614D01*
X130357Y457621D01*
X130331Y457635D01*
X130253Y457648D01*
X130110Y457684D01*
X130047Y457682D01*
X130000Y457690D01*
X97344Y457690D01*
X61683Y493351D01*
X61613Y493403D01*
X61549Y493463D01*
X61500Y493489D01*
X61456Y493522D01*
X61374Y493553D01*
X61296Y493593D01*
X61249Y493601D01*
X61190Y493623D01*
X61043Y493635D01*
X60965Y493648D01*
X60143Y493648D01*
X60141Y493648D01*
X60139Y493648D01*
X59999Y493628D01*
X59861Y493608D01*
X59860Y493608D01*
X59858Y493608D01*
X59732Y493551D01*
X59602Y493492D01*
X59600Y493491D01*
X59599Y493490D01*
X59490Y493397D01*
X59385Y493309D01*
X59384Y493307D01*
X59383Y493306D01*
X59374Y493293D01*
X59227Y493072D01*
X59218Y493043D01*
X59205Y493022D01*
X58122Y490408D01*
X55692Y487978D01*
X52518Y486663D01*
X49082Y486663D01*
X45908Y487978D01*
X43478Y490408D01*
X42163Y493582D01*
X42163Y497018D01*
X43478Y500192D01*
X45908Y502622D01*
X49082Y503937D01*
X52518Y503937D01*
X55692Y502622D01*
X58122Y500192D01*
X59205Y497578D01*
X59205Y497577D01*
X59206Y497576D01*
X59276Y497457D01*
X59349Y497334D01*
X59350Y497333D01*
X59351Y497331D01*
X59455Y497234D01*
X59556Y497138D01*
X59557Y497138D01*
X59558Y497137D01*
X59684Y497072D01*
X59808Y497008D01*
X59810Y497008D01*
X59811Y497007D01*
X59826Y497005D01*
X60087Y496953D01*
X60118Y496956D01*
X60143Y496952D01*
X62754Y496952D01*
X98415Y461291D01*
X98485Y461239D01*
X98549Y461179D01*
X98598Y461153D01*
X98642Y461120D01*
X98724Y461089D01*
X98802Y461049D01*
X98849Y461041D01*
X98908Y461019D01*
X99055Y461007D01*
X99133Y460994D01*
X111746Y460994D01*
X111775Y460998D01*
X111804Y460995D01*
X111915Y461018D01*
X112027Y461034D01*
X112054Y461045D01*
X112083Y461051D01*
X112183Y461104D01*
X112286Y461150D01*
X112309Y461169D01*
X112335Y461182D01*
X112417Y461260D01*
X112503Y461333D01*
X112520Y461358D01*
X112541Y461378D01*
X112598Y461476D01*
X112661Y461570D01*
X112670Y461598D01*
X112685Y461623D01*
X112713Y461733D01*
X112747Y461841D01*
X112748Y461870D01*
X112755Y461899D01*
X112751Y462012D01*
X112754Y462125D01*
X112747Y462154D01*
X112746Y462183D01*
X112711Y462291D01*
X112682Y462400D01*
X112667Y462425D01*
X112658Y462454D01*
X112613Y462517D01*
X112537Y462645D01*
X112491Y462688D01*
X112463Y462727D01*
X111521Y463669D01*
X111521Y465971D01*
X113149Y467599D01*
X115451Y467599D01*
X117079Y465971D01*
X117079Y463669D01*
X116137Y462727D01*
X116119Y462703D01*
X116097Y462684D01*
X116034Y462590D01*
X115966Y462500D01*
X115955Y462472D01*
X115939Y462448D01*
X115905Y462340D01*
X115864Y462234D01*
X115862Y462205D01*
X115853Y462177D01*
X115850Y462063D01*
X115841Y461951D01*
X115847Y461922D01*
X115846Y461893D01*
X115874Y461783D01*
X115897Y461672D01*
X115910Y461646D01*
X115918Y461618D01*
X115975Y461520D01*
X116028Y461420D01*
X116048Y461398D01*
X116063Y461373D01*
X116145Y461296D01*
X116224Y461214D01*
X116249Y461199D01*
X116270Y461179D01*
X116371Y461127D01*
X116469Y461070D01*
X116497Y461063D01*
X116523Y461049D01*
X116601Y461036D01*
X116744Y461000D01*
X116807Y461002D01*
X116854Y460994D01*
X156073Y460994D01*
X156095Y460977D01*
X156177Y460946D01*
X156255Y460906D01*
X156302Y460898D01*
X156361Y460876D01*
X156508Y460864D01*
X156586Y460851D01*
X157759Y460851D01*
X159387Y459223D01*
X159387Y459137D01*
X159391Y459108D01*
X159388Y459079D01*
X159411Y458968D01*
X159427Y458856D01*
X159439Y458829D01*
X159444Y458800D01*
X159497Y458700D01*
X159543Y458597D01*
X159562Y458574D01*
X159575Y458548D01*
X159653Y458466D01*
X159727Y458380D01*
X159751Y458363D01*
X159771Y458342D01*
X159869Y458285D01*
X159963Y458222D01*
X159991Y458213D01*
X160016Y458198D01*
X160126Y458170D01*
X160234Y458136D01*
X160264Y458135D01*
X160292Y458128D01*
X160405Y458132D01*
X160518Y458129D01*
X160547Y458136D01*
X160576Y458137D01*
X160684Y458172D01*
X160793Y458201D01*
X160819Y458216D01*
X160847Y458225D01*
X160910Y458270D01*
X161038Y458346D01*
X161081Y458392D01*
X161120Y458420D01*
X162679Y459979D01*
X164981Y459979D01*
X166609Y458351D01*
X166609Y456199D01*
X166613Y456170D01*
X166610Y456141D01*
X166633Y456030D01*
X166649Y455918D01*
X166661Y455891D01*
X166666Y455862D01*
X166719Y455762D01*
X166765Y455659D01*
X166784Y455636D01*
X166797Y455610D01*
X166875Y455528D01*
X166948Y455442D01*
X166973Y455425D01*
X166993Y455404D01*
X167091Y455347D01*
X167185Y455284D01*
X167213Y455275D01*
X167238Y455260D01*
X167348Y455232D01*
X167456Y455198D01*
X167486Y455197D01*
X167514Y455190D01*
X167627Y455194D01*
X167740Y455191D01*
X167769Y455198D01*
X167798Y455199D01*
X167906Y455234D01*
X168015Y455263D01*
X168041Y455278D01*
X168069Y455287D01*
X168133Y455332D01*
X168260Y455408D01*
X168303Y455454D01*
X168342Y455482D01*
X169029Y456169D01*
X171331Y456169D01*
X172161Y455339D01*
X172230Y455287D01*
X172294Y455227D01*
X172344Y455201D01*
X172388Y455168D01*
X172470Y455137D01*
X172547Y455097D01*
X172595Y455089D01*
X172653Y455067D01*
X172801Y455055D01*
X172879Y455042D01*
X174404Y455042D01*
X178368Y451078D01*
X178392Y451060D01*
X178411Y451038D01*
X178505Y450975D01*
X178595Y450907D01*
X178623Y450896D01*
X178647Y450880D01*
X178755Y450846D01*
X178861Y450806D01*
X178890Y450803D01*
X178918Y450794D01*
X179032Y450791D01*
X179144Y450782D01*
X179173Y450788D01*
X179202Y450787D01*
X179312Y450816D01*
X179423Y450838D01*
X179449Y450851D01*
X179477Y450859D01*
X179575Y450917D01*
X179675Y450969D01*
X179697Y450989D01*
X179722Y451004D01*
X179799Y451087D01*
X179881Y451165D01*
X179896Y451190D01*
X179916Y451211D01*
X179968Y451312D01*
X180025Y451410D01*
X180032Y451438D01*
X180046Y451465D01*
X180059Y451542D01*
X180095Y451686D01*
X180093Y451748D01*
X180101Y451796D01*
X180101Y454196D01*
X181117Y455212D01*
X181152Y455259D01*
X181195Y455299D01*
X181238Y455372D01*
X181288Y455439D01*
X181309Y455494D01*
X181339Y455544D01*
X181359Y455626D01*
X181390Y455705D01*
X181394Y455763D01*
X181409Y455820D01*
X181406Y455904D01*
X181413Y455988D01*
X181402Y456046D01*
X181400Y456104D01*
X181374Y456184D01*
X181357Y456267D01*
X181330Y456319D01*
X181312Y456375D01*
X181272Y456431D01*
X181226Y456519D01*
X181158Y456592D01*
X181117Y456648D01*
X180101Y457664D01*
X180101Y459966D01*
X181729Y461594D01*
X184031Y461594D01*
X185659Y459966D01*
X185659Y457664D01*
X184643Y456648D01*
X184607Y456601D01*
X184565Y456561D01*
X184522Y456488D01*
X184472Y456421D01*
X184451Y456366D01*
X184421Y456316D01*
X184401Y456234D01*
X184370Y456155D01*
X184366Y456097D01*
X184351Y456040D01*
X184354Y455956D01*
X184347Y455872D01*
X184358Y455814D01*
X184360Y455756D01*
X184386Y455676D01*
X184403Y455593D01*
X184430Y455541D01*
X184448Y455485D01*
X184488Y455429D01*
X184534Y455341D01*
X184603Y455268D01*
X184643Y455212D01*
X185659Y454196D01*
X185659Y451894D01*
X184031Y450266D01*
X181631Y450266D01*
X181602Y450262D01*
X181572Y450265D01*
X181461Y450242D01*
X181349Y450226D01*
X181322Y450214D01*
X181294Y450209D01*
X181193Y450157D01*
X181090Y450110D01*
X181067Y450091D01*
X181041Y450078D01*
X180959Y450000D01*
X180873Y449927D01*
X180856Y449902D01*
X180835Y449882D01*
X180778Y449784D01*
X180715Y449690D01*
X180706Y449662D01*
X180691Y449637D01*
X180664Y449527D01*
X180629Y449419D01*
X180629Y449389D01*
X180621Y449361D01*
X180625Y449248D01*
X180622Y449135D01*
X180629Y449106D01*
X180630Y449077D01*
X180665Y448969D01*
X180694Y448860D01*
X180709Y448834D01*
X180718Y448806D01*
X180763Y448743D01*
X180839Y448615D01*
X180885Y448572D01*
X180913Y448533D01*
X186680Y442766D01*
X186750Y442714D01*
X186814Y442654D01*
X186863Y442628D01*
X186907Y442595D01*
X186989Y442564D01*
X187067Y442524D01*
X187114Y442516D01*
X187173Y442494D01*
X187320Y442482D01*
X187398Y442469D01*
X233159Y442469D01*
X239119Y436509D01*
X239166Y436474D01*
X239206Y436431D01*
X239279Y436389D01*
X239346Y436338D01*
X239401Y436317D01*
X239452Y436287D01*
X239533Y436267D01*
X239612Y436237D01*
X239670Y436232D01*
X239727Y436217D01*
X239811Y436220D01*
X239895Y436213D01*
X239953Y436225D01*
X240011Y436226D01*
X240092Y436252D01*
X240174Y436269D01*
X240226Y436296D01*
X240282Y436314D01*
X240338Y436354D01*
X240426Y436400D01*
X240499Y436469D01*
X240555Y436509D01*
X242419Y438373D01*
X244721Y438373D01*
X246349Y436745D01*
X246349Y434443D01*
X244485Y432579D01*
X244450Y432532D01*
X244407Y432492D01*
X244365Y432419D01*
X244314Y432352D01*
X244293Y432297D01*
X244263Y432247D01*
X244243Y432165D01*
X244213Y432086D01*
X244208Y432028D01*
X244193Y431971D01*
X244196Y431887D01*
X244189Y431803D01*
X244201Y431746D01*
X244202Y431687D01*
X244228Y431607D01*
X244245Y431524D01*
X244272Y431472D01*
X244290Y431417D01*
X244330Y431360D01*
X244376Y431272D01*
X244445Y431200D01*
X244485Y431143D01*
X248698Y426930D01*
X248699Y426929D01*
X248700Y426928D01*
X248813Y426843D01*
X248925Y426759D01*
X248926Y426759D01*
X248928Y426758D01*
X249060Y426708D01*
X249190Y426658D01*
X249192Y426658D01*
X249194Y426658D01*
X249338Y426646D01*
X249474Y426635D01*
X249475Y426635D01*
X249477Y426635D01*
X249493Y426638D01*
X249753Y426691D01*
X249780Y426705D01*
X249804Y426710D01*
X252282Y427737D01*
X255718Y427737D01*
X258892Y426422D01*
X261322Y423992D01*
X262637Y420818D01*
X262637Y417382D01*
X261322Y414208D01*
X258892Y411778D01*
X255718Y410463D01*
X252282Y410463D01*
X249108Y411778D01*
X246678Y414208D01*
X245363Y417382D01*
X245363Y420818D01*
X246502Y423568D01*
X246503Y423569D01*
X246503Y423571D01*
X246537Y423702D01*
X246573Y423843D01*
X246573Y423845D01*
X246574Y423846D01*
X246569Y423986D01*
X246565Y424127D01*
X246565Y424129D01*
X246564Y424130D01*
X246522Y424263D01*
X246478Y424398D01*
X246477Y424399D01*
X246477Y424401D01*
X246468Y424413D01*
X246320Y424634D01*
X246297Y424654D01*
X246282Y424674D01*
X244415Y426541D01*
X244391Y426559D01*
X244372Y426581D01*
X244278Y426644D01*
X244188Y426712D01*
X244160Y426723D01*
X244136Y426739D01*
X244028Y426773D01*
X243922Y426813D01*
X243893Y426816D01*
X243865Y426825D01*
X243751Y426828D01*
X243639Y426837D01*
X243610Y426831D01*
X243581Y426832D01*
X243471Y426803D01*
X243360Y426781D01*
X243334Y426768D01*
X243306Y426760D01*
X243208Y426702D01*
X243108Y426650D01*
X243086Y426630D01*
X243061Y426615D01*
X242984Y426532D01*
X242902Y426454D01*
X242887Y426429D01*
X242867Y426408D01*
X242847Y426369D01*
X241054Y424576D01*
X238752Y424576D01*
X237124Y426204D01*
X237124Y428506D01*
X238905Y430286D01*
X238912Y430290D01*
X238935Y430309D01*
X238961Y430322D01*
X239043Y430400D01*
X239129Y430473D01*
X239146Y430498D01*
X239167Y430518D01*
X239224Y430616D01*
X239287Y430710D01*
X239296Y430738D01*
X239311Y430763D01*
X239339Y430873D01*
X239373Y430981D01*
X239374Y431011D01*
X239381Y431039D01*
X239377Y431152D01*
X239380Y431265D01*
X239373Y431294D01*
X239372Y431323D01*
X239337Y431431D01*
X239308Y431540D01*
X239293Y431566D01*
X239284Y431594D01*
X239239Y431657D01*
X239163Y431785D01*
X239117Y431828D01*
X239089Y431867D01*
X232088Y438868D01*
X232018Y438920D01*
X231955Y438980D01*
X231905Y439006D01*
X231861Y439039D01*
X231779Y439070D01*
X231701Y439110D01*
X231654Y439118D01*
X231595Y439140D01*
X231448Y439152D01*
X231370Y439165D01*
X187922Y439165D01*
X187893Y439161D01*
X187863Y439164D01*
X187752Y439141D01*
X187640Y439125D01*
X187613Y439113D01*
X187585Y439108D01*
X187484Y439056D01*
X187381Y439009D01*
X187358Y438990D01*
X187332Y438977D01*
X187250Y438899D01*
X187164Y438826D01*
X187147Y438801D01*
X187126Y438781D01*
X187069Y438683D01*
X187006Y438589D01*
X186997Y438561D01*
X186982Y438536D01*
X186955Y438426D01*
X186920Y438318D01*
X186920Y438288D01*
X186912Y438260D01*
X186916Y438147D01*
X186913Y438034D01*
X186920Y438005D01*
X186921Y437976D01*
X186956Y437868D01*
X186985Y437759D01*
X187000Y437733D01*
X187009Y437705D01*
X187054Y437642D01*
X187130Y437514D01*
X187176Y437471D01*
X187204Y437432D01*
X191537Y433099D01*
X191607Y433047D01*
X191671Y432987D01*
X191720Y432961D01*
X191764Y432928D01*
X191846Y432897D01*
X191924Y432857D01*
X191971Y432849D01*
X192030Y432827D01*
X192177Y432815D01*
X192255Y432802D01*
X217234Y432802D01*
X218499Y431537D01*
X248562Y401474D01*
X248563Y401473D01*
X248564Y401472D01*
X248680Y401385D01*
X248789Y401303D01*
X248790Y401303D01*
X248792Y401302D01*
X248924Y401252D01*
X249055Y401202D01*
X249056Y401202D01*
X249058Y401201D01*
X249202Y401190D01*
X249338Y401178D01*
X249339Y401179D01*
X249341Y401179D01*
X249357Y401182D01*
X249617Y401234D01*
X249644Y401248D01*
X249668Y401254D01*
X252282Y402337D01*
X255718Y402337D01*
X258892Y401022D01*
X261322Y398592D01*
X262637Y395418D01*
X262637Y391982D01*
X261322Y388808D01*
X258892Y386378D01*
X255718Y385063D01*
X252282Y385063D01*
X249108Y386378D01*
X246678Y388808D01*
X245363Y391982D01*
X245363Y395418D01*
X246446Y398032D01*
X246446Y398033D01*
X246447Y398035D01*
X246481Y398167D01*
X246517Y398307D01*
X246517Y398309D01*
X246517Y398310D01*
X246513Y398448D01*
X246509Y398591D01*
X246508Y398593D01*
X246508Y398594D01*
X246465Y398727D01*
X246422Y398862D01*
X246421Y398863D01*
X246421Y398865D01*
X246412Y398877D01*
X246264Y399098D01*
X246240Y399118D01*
X246226Y399138D01*
X216163Y429201D01*
X216093Y429253D01*
X216029Y429313D01*
X215980Y429339D01*
X215936Y429372D01*
X215854Y429403D01*
X215776Y429443D01*
X215729Y429451D01*
X215670Y429473D01*
X215523Y429485D01*
X215445Y429498D01*
X190466Y429498D01*
X188662Y431302D01*
X188638Y431320D01*
X188619Y431342D01*
X188525Y431405D01*
X188435Y431473D01*
X188407Y431484D01*
X188383Y431500D01*
X188275Y431534D01*
X188169Y431574D01*
X188140Y431577D01*
X188112Y431586D01*
X187998Y431589D01*
X187886Y431598D01*
X187857Y431592D01*
X187828Y431593D01*
X187718Y431564D01*
X187607Y431542D01*
X187581Y431529D01*
X187553Y431521D01*
X187455Y431463D01*
X187355Y431411D01*
X187333Y431391D01*
X187308Y431376D01*
X187231Y431293D01*
X187149Y431215D01*
X187134Y431190D01*
X187114Y431169D01*
X187062Y431068D01*
X187005Y430970D01*
X186998Y430942D01*
X186984Y430915D01*
X186971Y430838D01*
X186935Y430694D01*
X186937Y430632D01*
X186929Y430584D01*
X186929Y429379D01*
X185510Y427960D01*
X185475Y427914D01*
X185433Y427873D01*
X185390Y427801D01*
X185339Y427733D01*
X185318Y427679D01*
X185289Y427628D01*
X185268Y427546D01*
X185238Y427468D01*
X185233Y427409D01*
X185219Y427353D01*
X185221Y427268D01*
X185214Y427184D01*
X185226Y427127D01*
X185228Y427068D01*
X185254Y426988D01*
X185270Y426905D01*
X185297Y426854D01*
X185315Y426798D01*
X185355Y426742D01*
X185401Y426653D01*
X185470Y426581D01*
X185510Y426525D01*
X186929Y425106D01*
X186929Y422804D01*
X185913Y421788D01*
X185878Y421741D01*
X185835Y421701D01*
X185792Y421628D01*
X185742Y421561D01*
X185721Y421506D01*
X185691Y421456D01*
X185671Y421374D01*
X185640Y421295D01*
X185636Y421237D01*
X185621Y421180D01*
X185624Y421096D01*
X185617Y421012D01*
X185628Y420954D01*
X185630Y420896D01*
X185656Y420816D01*
X185673Y420733D01*
X185700Y420681D01*
X185718Y420625D01*
X185758Y420569D01*
X185804Y420481D01*
X185872Y420408D01*
X185913Y420352D01*
X186929Y419336D01*
X186929Y417034D01*
X185301Y415406D01*
X182999Y415406D01*
X181371Y417034D01*
X181371Y419336D01*
X182387Y420352D01*
X182423Y420399D01*
X182465Y420439D01*
X182508Y420512D01*
X182558Y420579D01*
X182579Y420634D01*
X182609Y420684D01*
X182629Y420766D01*
X182660Y420845D01*
X182664Y420903D01*
X182679Y420960D01*
X182676Y421044D01*
X182683Y421128D01*
X182672Y421186D01*
X182670Y421244D01*
X182644Y421324D01*
X182627Y421407D01*
X182600Y421459D01*
X182582Y421515D01*
X182542Y421571D01*
X182496Y421659D01*
X182427Y421732D01*
X182387Y421788D01*
X181371Y422804D01*
X181371Y425106D01*
X181759Y425494D01*
X181777Y425518D01*
X181799Y425537D01*
X181862Y425631D01*
X181930Y425721D01*
X181941Y425749D01*
X181957Y425773D01*
X181991Y425881D01*
X182032Y425987D01*
X182034Y426016D01*
X182043Y426044D01*
X182046Y426158D01*
X182055Y426270D01*
X182049Y426299D01*
X182050Y426328D01*
X182021Y426438D01*
X181999Y426549D01*
X181986Y426575D01*
X181978Y426603D01*
X181921Y426701D01*
X181868Y426801D01*
X181848Y426823D01*
X181833Y426848D01*
X181750Y426925D01*
X181672Y427007D01*
X181647Y427022D01*
X181626Y427042D01*
X181525Y427094D01*
X181427Y427151D01*
X181399Y427158D01*
X181373Y427172D01*
X181295Y427185D01*
X181152Y427221D01*
X181089Y427219D01*
X181042Y427227D01*
X135668Y427227D01*
X135581Y427215D01*
X135494Y427212D01*
X135441Y427195D01*
X135386Y427187D01*
X135306Y427152D01*
X135223Y427125D01*
X135184Y427097D01*
X135127Y427071D01*
X135014Y426976D01*
X134950Y426930D01*
X134823Y426803D01*
X134788Y426756D01*
X134745Y426716D01*
X134702Y426643D01*
X134652Y426576D01*
X134631Y426521D01*
X134601Y426471D01*
X134581Y426389D01*
X134551Y426310D01*
X134546Y426252D01*
X134531Y426195D01*
X134534Y426111D01*
X134527Y426027D01*
X134538Y425969D01*
X134540Y425911D01*
X134566Y425831D01*
X134583Y425748D01*
X134610Y425696D01*
X134628Y425640D01*
X134668Y425584D01*
X134714Y425496D01*
X134783Y425423D01*
X134823Y425367D01*
X136129Y424061D01*
X136129Y421759D01*
X135045Y420675D01*
X135027Y420651D01*
X135005Y420632D01*
X134942Y420538D01*
X134874Y420448D01*
X134863Y420420D01*
X134847Y420396D01*
X134813Y420288D01*
X134772Y420182D01*
X134770Y420153D01*
X134761Y420125D01*
X134758Y420011D01*
X134749Y419899D01*
X134755Y419870D01*
X134754Y419841D01*
X134783Y419731D01*
X134805Y419620D01*
X134818Y419594D01*
X134826Y419566D01*
X134883Y419468D01*
X134936Y419368D01*
X134956Y419346D01*
X134971Y419321D01*
X135053Y419244D01*
X135132Y419162D01*
X135157Y419147D01*
X135178Y419127D01*
X135279Y419075D01*
X135377Y419018D01*
X135405Y419011D01*
X135431Y418997D01*
X135509Y418984D01*
X135652Y418948D01*
X135715Y418950D01*
X135762Y418942D01*
X137251Y418942D01*
X138879Y417314D01*
X138879Y415417D01*
X138887Y415359D01*
X138885Y415301D01*
X138907Y415219D01*
X138919Y415135D01*
X138942Y415082D01*
X138957Y415026D01*
X139000Y414953D01*
X139035Y414876D01*
X139073Y414831D01*
X139102Y414781D01*
X139164Y414723D01*
X139218Y414659D01*
X139267Y414627D01*
X139310Y414587D01*
X139385Y414548D01*
X139455Y414501D01*
X139511Y414484D01*
X139563Y414457D01*
X139631Y414446D01*
X139726Y414416D01*
X139826Y414413D01*
X139894Y414402D01*
X152241Y414402D01*
X152328Y414414D01*
X152416Y414417D01*
X152468Y414434D01*
X152523Y414442D01*
X152603Y414477D01*
X152686Y414504D01*
X152725Y414532D01*
X152782Y414558D01*
X152896Y414654D01*
X152959Y414699D01*
X153789Y415529D01*
X156091Y415529D01*
X157719Y413901D01*
X157719Y413019D01*
X157723Y412990D01*
X157720Y412961D01*
X157743Y412850D01*
X157759Y412738D01*
X157771Y412711D01*
X157776Y412682D01*
X157829Y412582D01*
X157875Y412479D01*
X157894Y412456D01*
X157907Y412430D01*
X157985Y412348D01*
X158058Y412262D01*
X158083Y412245D01*
X158103Y412224D01*
X158201Y412167D01*
X158295Y412104D01*
X158323Y412095D01*
X158348Y412080D01*
X158458Y412052D01*
X158566Y412018D01*
X158596Y412017D01*
X158624Y412010D01*
X158737Y412014D01*
X158850Y412011D01*
X158879Y412018D01*
X158908Y412019D01*
X159016Y412054D01*
X159125Y412083D01*
X159151Y412098D01*
X159179Y412107D01*
X159243Y412152D01*
X159370Y412228D01*
X159413Y412274D01*
X159452Y412302D01*
X160139Y412989D01*
X162441Y412989D01*
X164069Y411361D01*
X164069Y409059D01*
X162441Y407431D01*
X160139Y407431D01*
X158511Y409059D01*
X158511Y409941D01*
X158507Y409970D01*
X158510Y409999D01*
X158487Y410110D01*
X158471Y410222D01*
X158459Y410249D01*
X158454Y410278D01*
X158401Y410378D01*
X158355Y410481D01*
X158336Y410504D01*
X158323Y410530D01*
X158245Y410612D01*
X158172Y410698D01*
X158147Y410715D01*
X158127Y410736D01*
X158029Y410793D01*
X157935Y410856D01*
X157907Y410865D01*
X157882Y410880D01*
X157772Y410908D01*
X157664Y410942D01*
X157634Y410943D01*
X157606Y410950D01*
X157493Y410946D01*
X157380Y410949D01*
X157351Y410942D01*
X157322Y410941D01*
X157214Y410906D01*
X157105Y410877D01*
X157079Y410862D01*
X157051Y410853D01*
X156987Y410808D01*
X156860Y410732D01*
X156817Y410686D01*
X156778Y410658D01*
X156091Y409971D01*
X153789Y409971D01*
X153102Y410658D01*
X153078Y410676D01*
X153059Y410698D01*
X152965Y410761D01*
X152875Y410829D01*
X152847Y410840D01*
X152823Y410856D01*
X152715Y410890D01*
X152609Y410931D01*
X152580Y410933D01*
X152552Y410942D01*
X152438Y410945D01*
X152326Y410954D01*
X152297Y410948D01*
X152268Y410949D01*
X152158Y410920D01*
X152047Y410898D01*
X152021Y410885D01*
X151993Y410877D01*
X151895Y410820D01*
X151795Y410767D01*
X151773Y410747D01*
X151748Y410732D01*
X151671Y410649D01*
X151589Y410571D01*
X151574Y410546D01*
X151554Y410525D01*
X151502Y410424D01*
X151445Y410326D01*
X151438Y410298D01*
X151424Y410272D01*
X151411Y410194D01*
X151375Y410051D01*
X151377Y409988D01*
X151369Y409941D01*
X151369Y407444D01*
X149741Y405816D01*
X147439Y405816D01*
X145811Y407444D01*
X145811Y407543D01*
X145803Y407601D01*
X145805Y407659D01*
X145783Y407741D01*
X145771Y407825D01*
X145748Y407878D01*
X145733Y407934D01*
X145690Y408007D01*
X145655Y408084D01*
X145617Y408129D01*
X145588Y408179D01*
X145526Y408237D01*
X145472Y408301D01*
X145423Y408333D01*
X145380Y408373D01*
X145305Y408412D01*
X145235Y408459D01*
X145179Y408476D01*
X145127Y408503D01*
X145059Y408514D01*
X144964Y408544D01*
X144864Y408547D01*
X144796Y408558D01*
X144389Y408558D01*
X144331Y408550D01*
X144273Y408552D01*
X144191Y408530D01*
X144107Y408518D01*
X144054Y408495D01*
X143998Y408480D01*
X143925Y408437D01*
X143848Y408402D01*
X143803Y408364D01*
X143753Y408335D01*
X143695Y408273D01*
X143631Y408219D01*
X143599Y408170D01*
X143559Y408127D01*
X143520Y408052D01*
X143473Y407982D01*
X143456Y407926D01*
X143429Y407874D01*
X143418Y407806D01*
X143388Y407711D01*
X143385Y407611D01*
X143374Y407543D01*
X143374Y405412D01*
X141746Y403784D01*
X139444Y403784D01*
X138698Y404530D01*
X138629Y404582D01*
X138565Y404642D01*
X138515Y404668D01*
X138471Y404701D01*
X138389Y404732D01*
X138312Y404772D01*
X138264Y404780D01*
X138206Y404802D01*
X138058Y404814D01*
X137981Y404827D01*
X124103Y404827D01*
X124074Y404823D01*
X124045Y404826D01*
X123934Y404803D01*
X123822Y404787D01*
X123795Y404775D01*
X123766Y404770D01*
X123666Y404718D01*
X123563Y404671D01*
X123540Y404652D01*
X123514Y404639D01*
X123432Y404561D01*
X123346Y404488D01*
X123329Y404463D01*
X123308Y404443D01*
X123251Y404345D01*
X123188Y404251D01*
X123179Y404223D01*
X123164Y404198D01*
X123136Y404088D01*
X123102Y403980D01*
X123101Y403951D01*
X123094Y403922D01*
X123098Y403809D01*
X123095Y403696D01*
X123102Y403667D01*
X123103Y403638D01*
X123138Y403530D01*
X123167Y403421D01*
X123182Y403395D01*
X123191Y403367D01*
X123236Y403304D01*
X123312Y403176D01*
X123358Y403133D01*
X123386Y403094D01*
X123429Y403051D01*
X123429Y400749D01*
X121801Y399121D01*
X119499Y399121D01*
X118812Y399808D01*
X118788Y399826D01*
X118769Y399848D01*
X118675Y399911D01*
X118585Y399979D01*
X118557Y399990D01*
X118533Y400006D01*
X118425Y400040D01*
X118319Y400081D01*
X118290Y400083D01*
X118262Y400092D01*
X118148Y400095D01*
X118036Y400104D01*
X118007Y400098D01*
X117978Y400099D01*
X117868Y400070D01*
X117757Y400048D01*
X117731Y400035D01*
X117703Y400027D01*
X117605Y399970D01*
X117505Y399917D01*
X117483Y399897D01*
X117458Y399882D01*
X117381Y399799D01*
X117299Y399721D01*
X117284Y399696D01*
X117264Y399675D01*
X117212Y399574D01*
X117155Y399476D01*
X117148Y399448D01*
X117134Y399422D01*
X117121Y399344D01*
X117085Y399201D01*
X117087Y399138D01*
X117079Y399091D01*
X117079Y397629D01*
X115451Y396001D01*
X114278Y396001D01*
X114191Y395989D01*
X114104Y395986D01*
X114051Y395969D01*
X113996Y395961D01*
X113916Y395926D01*
X113833Y395899D01*
X113794Y395871D01*
X113737Y395845D01*
X113624Y395749D01*
X113560Y395704D01*
X111984Y394128D01*
X79549Y394128D01*
X79462Y394116D01*
X79375Y394113D01*
X79322Y394096D01*
X79267Y394088D01*
X79187Y394053D01*
X79104Y394026D01*
X79065Y393998D01*
X79008Y393972D01*
X78894Y393876D01*
X78831Y393831D01*
X78275Y393275D01*
X78257Y393251D01*
X78235Y393232D01*
X78172Y393138D01*
X78104Y393048D01*
X78093Y393020D01*
X78077Y392996D01*
X78043Y392888D01*
X78002Y392782D01*
X78000Y392753D01*
X77991Y392725D01*
X77988Y392611D01*
X77979Y392499D01*
X77985Y392470D01*
X77984Y392441D01*
X78013Y392331D01*
X78035Y392220D01*
X78048Y392194D01*
X78056Y392166D01*
X78113Y392068D01*
X78166Y391968D01*
X78186Y391946D01*
X78201Y391921D01*
X78284Y391844D01*
X78362Y391762D01*
X78387Y391747D01*
X78408Y391727D01*
X78509Y391675D01*
X78607Y391618D01*
X78635Y391611D01*
X78661Y391597D01*
X78739Y391584D01*
X78882Y391548D01*
X78945Y391550D01*
X78992Y391542D01*
X138271Y391542D01*
X138358Y391554D01*
X138446Y391557D01*
X138498Y391574D01*
X138553Y391582D01*
X138633Y391617D01*
X138716Y391644D01*
X138755Y391672D01*
X138812Y391698D01*
X138926Y391794D01*
X138989Y391839D01*
X139819Y392669D01*
X142121Y392669D01*
X143749Y391041D01*
X143749Y388739D01*
X142443Y387433D01*
X142408Y387386D01*
X142365Y387346D01*
X142322Y387273D01*
X142272Y387206D01*
X142251Y387151D01*
X142221Y387101D01*
X142201Y387019D01*
X142170Y386940D01*
X142166Y386882D01*
X142151Y386825D01*
X142154Y386741D01*
X142147Y386657D01*
X142158Y386599D01*
X142160Y386541D01*
X142186Y386461D01*
X142203Y386378D01*
X142230Y386326D01*
X142248Y386270D01*
X142288Y386214D01*
X142334Y386126D01*
X142402Y386053D01*
X142443Y385997D01*
X143749Y384691D01*
X143749Y382389D01*
X142121Y380761D01*
X139819Y380761D01*
X138191Y382389D01*
X138191Y383562D01*
X138179Y383649D01*
X138176Y383736D01*
X138159Y383789D01*
X138151Y383844D01*
X138116Y383924D01*
X138089Y384007D01*
X138061Y384046D01*
X138035Y384103D01*
X137939Y384216D01*
X137894Y384280D01*
X136773Y385401D01*
X136703Y385453D01*
X136639Y385513D01*
X136590Y385539D01*
X136546Y385572D01*
X136464Y385603D01*
X136386Y385643D01*
X136339Y385651D01*
X136280Y385673D01*
X136133Y385685D01*
X136055Y385698D01*
X70955Y385698D01*
X70868Y385686D01*
X70781Y385683D01*
X70728Y385666D01*
X70673Y385658D01*
X70593Y385623D01*
X70510Y385596D01*
X70471Y385568D01*
X70414Y385542D01*
X70301Y385446D01*
X70237Y385401D01*
X58574Y373738D01*
X58573Y373737D01*
X58572Y373736D01*
X58487Y373622D01*
X58403Y373511D01*
X58403Y373510D01*
X58402Y373508D01*
X58352Y373376D01*
X58302Y373245D01*
X58302Y373244D01*
X58301Y373242D01*
X58290Y373098D01*
X58278Y372962D01*
X58279Y372961D01*
X58279Y372959D01*
X58282Y372943D01*
X58334Y372683D01*
X58348Y372656D01*
X58354Y372632D01*
X59437Y370018D01*
X59437Y366582D01*
X58122Y363408D01*
X55692Y360978D01*
X52518Y359663D01*
X49082Y359663D01*
G37*
%LPD*%
%LPC*%
G36*
X222369Y308371D02*
X222369Y308371D01*
X221539Y309201D01*
X221470Y309253D01*
X221406Y309313D01*
X221356Y309339D01*
X221312Y309372D01*
X221230Y309403D01*
X221153Y309443D01*
X221105Y309451D01*
X221047Y309473D01*
X220899Y309485D01*
X220821Y309498D01*
X121236Y309498D01*
X118850Y311884D01*
X118780Y311936D01*
X118716Y311996D01*
X118667Y312022D01*
X118623Y312055D01*
X118541Y312086D01*
X118463Y312126D01*
X118416Y312134D01*
X118357Y312156D01*
X118210Y312168D01*
X118132Y312181D01*
X116959Y312181D01*
X115331Y313809D01*
X115331Y316111D01*
X116734Y317513D01*
X116769Y317560D01*
X116811Y317600D01*
X116854Y317673D01*
X116904Y317740D01*
X116925Y317795D01*
X116955Y317846D01*
X116976Y317927D01*
X117006Y318006D01*
X117011Y318064D01*
X117025Y318121D01*
X117022Y318205D01*
X117029Y318289D01*
X117018Y318347D01*
X117016Y318405D01*
X116990Y318486D01*
X116973Y318568D01*
X116946Y318620D01*
X116928Y318676D01*
X116888Y318732D01*
X116842Y318820D01*
X116774Y318893D01*
X116755Y318919D01*
X116734Y318949D01*
X114569Y321113D01*
X114569Y324047D01*
X116643Y326121D01*
X119577Y326121D01*
X120406Y325291D01*
X120476Y325239D01*
X120540Y325179D01*
X120589Y325153D01*
X120633Y325120D01*
X120715Y325089D01*
X120793Y325049D01*
X120841Y325041D01*
X120899Y325019D01*
X121047Y325007D01*
X121124Y324994D01*
X186786Y324994D01*
X186815Y324998D01*
X186844Y324995D01*
X186955Y325018D01*
X187067Y325034D01*
X187094Y325046D01*
X187123Y325051D01*
X187223Y325104D01*
X187326Y325150D01*
X187349Y325169D01*
X187375Y325182D01*
X187457Y325260D01*
X187543Y325333D01*
X187560Y325358D01*
X187581Y325378D01*
X187638Y325476D01*
X187701Y325570D01*
X187710Y325598D01*
X187725Y325623D01*
X187753Y325733D01*
X187787Y325841D01*
X187788Y325871D01*
X187795Y325899D01*
X187791Y326012D01*
X187794Y326125D01*
X187787Y326154D01*
X187786Y326183D01*
X187751Y326291D01*
X187722Y326400D01*
X187707Y326426D01*
X187698Y326454D01*
X187653Y326518D01*
X187577Y326645D01*
X187531Y326688D01*
X187503Y326727D01*
X186451Y327779D01*
X186451Y330081D01*
X188265Y331895D01*
X188283Y331919D01*
X188305Y331938D01*
X188368Y332032D01*
X188436Y332122D01*
X188447Y332150D01*
X188463Y332174D01*
X188497Y332282D01*
X188538Y332388D01*
X188540Y332417D01*
X188549Y332445D01*
X188552Y332559D01*
X188561Y332671D01*
X188555Y332700D01*
X188556Y332729D01*
X188527Y332839D01*
X188505Y332950D01*
X188492Y332976D01*
X188484Y333004D01*
X188426Y333102D01*
X188374Y333202D01*
X188354Y333224D01*
X188339Y333249D01*
X188256Y333326D01*
X188178Y333408D01*
X188153Y333423D01*
X188132Y333443D01*
X188031Y333495D01*
X187933Y333552D01*
X187905Y333559D01*
X187879Y333573D01*
X187801Y333586D01*
X187658Y333622D01*
X187595Y333620D01*
X187548Y333628D01*
X120809Y333628D01*
X120722Y333616D01*
X120634Y333613D01*
X120582Y333596D01*
X120527Y333588D01*
X120447Y333553D01*
X120364Y333526D01*
X120325Y333498D01*
X120268Y333472D01*
X120154Y333376D01*
X120091Y333331D01*
X119261Y332501D01*
X116959Y332501D01*
X115331Y334129D01*
X115331Y336431D01*
X116959Y338059D01*
X119261Y338059D01*
X120091Y337229D01*
X120160Y337177D01*
X120224Y337117D01*
X120274Y337091D01*
X120318Y337058D01*
X120400Y337027D01*
X120477Y336987D01*
X120525Y336979D01*
X120583Y336957D01*
X120731Y336945D01*
X120809Y336932D01*
X221746Y336932D01*
X221833Y336944D01*
X221921Y336947D01*
X221973Y336964D01*
X222028Y336972D01*
X222108Y337007D01*
X222191Y337034D01*
X222230Y337062D01*
X222287Y337088D01*
X222401Y337184D01*
X222464Y337229D01*
X223294Y338059D01*
X225596Y338059D01*
X227224Y336431D01*
X227224Y334129D01*
X225596Y332501D01*
X223294Y332501D01*
X222464Y333331D01*
X222395Y333383D01*
X222331Y333443D01*
X222281Y333469D01*
X222237Y333502D01*
X222155Y333533D01*
X222078Y333573D01*
X222030Y333581D01*
X221972Y333603D01*
X221824Y333615D01*
X221746Y333628D01*
X209962Y333628D01*
X209933Y333624D01*
X209904Y333627D01*
X209793Y333604D01*
X209681Y333588D01*
X209654Y333576D01*
X209625Y333571D01*
X209525Y333518D01*
X209422Y333472D01*
X209399Y333453D01*
X209373Y333440D01*
X209291Y333362D01*
X209205Y333289D01*
X209188Y333264D01*
X209167Y333244D01*
X209110Y333146D01*
X209047Y333052D01*
X209038Y333024D01*
X209023Y332999D01*
X208995Y332889D01*
X208961Y332781D01*
X208960Y332751D01*
X208953Y332723D01*
X208957Y332610D01*
X208954Y332497D01*
X208961Y332468D01*
X208962Y332439D01*
X208997Y332331D01*
X209026Y332222D01*
X209041Y332196D01*
X209050Y332168D01*
X209095Y332105D01*
X209171Y331977D01*
X209217Y331934D01*
X209245Y331895D01*
X211059Y330081D01*
X211059Y327779D01*
X210007Y326727D01*
X209989Y326703D01*
X209967Y326684D01*
X209904Y326590D01*
X209836Y326500D01*
X209825Y326472D01*
X209809Y326448D01*
X209775Y326340D01*
X209734Y326234D01*
X209732Y326205D01*
X209723Y326177D01*
X209720Y326063D01*
X209711Y325951D01*
X209717Y325922D01*
X209716Y325893D01*
X209745Y325783D01*
X209767Y325672D01*
X209780Y325646D01*
X209788Y325618D01*
X209845Y325520D01*
X209898Y325420D01*
X209918Y325398D01*
X209933Y325373D01*
X210015Y325296D01*
X210094Y325214D01*
X210119Y325199D01*
X210140Y325179D01*
X210241Y325127D01*
X210339Y325070D01*
X210367Y325063D01*
X210393Y325049D01*
X210471Y325036D01*
X210614Y325000D01*
X210677Y325002D01*
X210724Y324994D01*
X220506Y324994D01*
X220592Y325006D01*
X220680Y325009D01*
X220733Y325026D01*
X220787Y325034D01*
X220867Y325069D01*
X220950Y325096D01*
X220990Y325124D01*
X221047Y325150D01*
X221160Y325246D01*
X221224Y325291D01*
X222053Y326121D01*
X224987Y326121D01*
X227061Y324047D01*
X227061Y321113D01*
X224987Y319039D01*
X222053Y319039D01*
X221224Y319869D01*
X221154Y319921D01*
X221090Y319981D01*
X221041Y320007D01*
X220997Y320040D01*
X220915Y320071D01*
X220837Y320111D01*
X220789Y320119D01*
X220731Y320141D01*
X220583Y320153D01*
X220506Y320166D01*
X211994Y320166D01*
X211965Y320162D01*
X211936Y320165D01*
X211825Y320142D01*
X211713Y320126D01*
X211686Y320114D01*
X211657Y320109D01*
X211557Y320056D01*
X211454Y320010D01*
X211431Y319991D01*
X211405Y319978D01*
X211323Y319900D01*
X211237Y319827D01*
X211220Y319802D01*
X211199Y319782D01*
X211142Y319684D01*
X211079Y319590D01*
X211070Y319562D01*
X211055Y319537D01*
X211027Y319427D01*
X210993Y319319D01*
X210992Y319289D01*
X210985Y319261D01*
X210989Y319148D01*
X210986Y319035D01*
X210993Y319006D01*
X210994Y318977D01*
X211029Y318869D01*
X211058Y318760D01*
X211073Y318734D01*
X211082Y318706D01*
X211127Y318642D01*
X211203Y318515D01*
X211249Y318472D01*
X211277Y318433D01*
X212329Y317381D01*
X212329Y315079D01*
X211785Y314535D01*
X211767Y314511D01*
X211745Y314492D01*
X211682Y314398D01*
X211614Y314308D01*
X211603Y314280D01*
X211587Y314256D01*
X211553Y314148D01*
X211512Y314042D01*
X211510Y314013D01*
X211501Y313985D01*
X211498Y313871D01*
X211489Y313759D01*
X211495Y313730D01*
X211494Y313701D01*
X211523Y313591D01*
X211545Y313480D01*
X211558Y313454D01*
X211566Y313426D01*
X211623Y313328D01*
X211676Y313228D01*
X211696Y313206D01*
X211711Y313181D01*
X211794Y313104D01*
X211872Y313022D01*
X211897Y313007D01*
X211918Y312987D01*
X212019Y312935D01*
X212117Y312878D01*
X212145Y312871D01*
X212171Y312857D01*
X212249Y312844D01*
X212392Y312808D01*
X212455Y312810D01*
X212502Y312802D01*
X220821Y312802D01*
X220908Y312814D01*
X220996Y312817D01*
X221048Y312834D01*
X221103Y312842D01*
X221183Y312877D01*
X221266Y312904D01*
X221305Y312932D01*
X221362Y312958D01*
X221476Y313054D01*
X221539Y313099D01*
X222369Y313929D01*
X224671Y313929D01*
X226299Y312301D01*
X226299Y309999D01*
X224671Y308371D01*
X222369Y308371D01*
G37*
%LPD*%
%LPC*%
G36*
X21813Y896365D02*
X21813Y896365D01*
X15184Y899111D01*
X10111Y904184D01*
X7365Y910813D01*
X7365Y917987D01*
X10111Y924616D01*
X15184Y929689D01*
X21813Y932435D01*
X28987Y932435D01*
X35616Y929689D01*
X40689Y924616D01*
X43435Y917987D01*
X43435Y910813D01*
X40689Y904184D01*
X35616Y899111D01*
X28987Y896365D01*
X21813Y896365D01*
G37*
%LPD*%
%LPC*%
G36*
X275813Y896365D02*
X275813Y896365D01*
X269184Y899111D01*
X264111Y904184D01*
X261365Y910813D01*
X261365Y917987D01*
X264111Y924616D01*
X269184Y929689D01*
X275813Y932435D01*
X282987Y932435D01*
X289616Y929689D01*
X294689Y924616D01*
X297435Y917987D01*
X297435Y910813D01*
X294689Y904184D01*
X289616Y899111D01*
X282987Y896365D01*
X275813Y896365D01*
G37*
%LPD*%
%LPC*%
G36*
X21813Y7365D02*
X21813Y7365D01*
X15184Y10111D01*
X10111Y15184D01*
X7365Y21813D01*
X7365Y28987D01*
X10111Y35616D01*
X15184Y40689D01*
X21813Y43435D01*
X28987Y43435D01*
X35616Y40689D01*
X40689Y35616D01*
X43435Y28987D01*
X43435Y21813D01*
X40689Y15184D01*
X35616Y10111D01*
X28987Y7365D01*
X21813Y7365D01*
G37*
%LPD*%
%LPC*%
G36*
X275813Y7365D02*
X275813Y7365D01*
X269184Y10111D01*
X264111Y15184D01*
X261365Y21813D01*
X261365Y28987D01*
X264111Y35616D01*
X269184Y40689D01*
X275813Y43435D01*
X282987Y43435D01*
X289616Y40689D01*
X294689Y35616D01*
X297435Y28987D01*
X297435Y21813D01*
X294689Y15184D01*
X289616Y10111D01*
X282987Y7365D01*
X275813Y7365D01*
G37*
%LPD*%
%LPC*%
G36*
X174109Y130571D02*
X174109Y130571D01*
X172481Y132199D01*
X172481Y134501D01*
X174295Y136315D01*
X174313Y136339D01*
X174335Y136358D01*
X174398Y136452D01*
X174466Y136542D01*
X174477Y136570D01*
X174493Y136594D01*
X174527Y136702D01*
X174568Y136808D01*
X174570Y136837D01*
X174579Y136865D01*
X174582Y136979D01*
X174591Y137091D01*
X174585Y137120D01*
X174586Y137149D01*
X174557Y137259D01*
X174535Y137370D01*
X174522Y137396D01*
X174514Y137424D01*
X174456Y137522D01*
X174404Y137622D01*
X174384Y137644D01*
X174369Y137669D01*
X174286Y137746D01*
X174208Y137828D01*
X174183Y137843D01*
X174162Y137863D01*
X174061Y137915D01*
X173963Y137972D01*
X173935Y137979D01*
X173909Y137993D01*
X173831Y138006D01*
X173688Y138042D01*
X173625Y138040D01*
X173578Y138048D01*
X129699Y138048D01*
X129612Y138036D01*
X129524Y138033D01*
X129472Y138016D01*
X129417Y138008D01*
X129337Y137973D01*
X129254Y137946D01*
X129215Y137918D01*
X129158Y137892D01*
X129044Y137796D01*
X128981Y137751D01*
X128151Y136921D01*
X125849Y136921D01*
X124221Y138549D01*
X124221Y140851D01*
X125849Y142479D01*
X128151Y142479D01*
X128981Y141649D01*
X129050Y141597D01*
X129114Y141537D01*
X129164Y141511D01*
X129208Y141478D01*
X129290Y141447D01*
X129367Y141407D01*
X129415Y141399D01*
X129473Y141377D01*
X129621Y141365D01*
X129699Y141352D01*
X244657Y141352D01*
X244659Y141352D01*
X244661Y141352D01*
X244800Y141372D01*
X244939Y141392D01*
X244940Y141392D01*
X244942Y141392D01*
X245072Y141451D01*
X245198Y141508D01*
X245200Y141509D01*
X245201Y141509D01*
X245311Y141603D01*
X245415Y141691D01*
X245416Y141693D01*
X245417Y141694D01*
X245426Y141707D01*
X245573Y141928D01*
X245582Y141957D01*
X245595Y141978D01*
X246678Y144592D01*
X249108Y147022D01*
X252282Y148337D01*
X255718Y148337D01*
X258892Y147022D01*
X261322Y144592D01*
X262637Y141418D01*
X262637Y137982D01*
X261322Y134808D01*
X258892Y132378D01*
X255718Y131063D01*
X252282Y131063D01*
X249108Y132378D01*
X246678Y134808D01*
X245595Y137422D01*
X245595Y137423D01*
X245594Y137424D01*
X245524Y137543D01*
X245451Y137666D01*
X245450Y137667D01*
X245449Y137669D01*
X245345Y137766D01*
X245244Y137862D01*
X245243Y137862D01*
X245242Y137863D01*
X245116Y137928D01*
X244991Y137992D01*
X244990Y137992D01*
X244989Y137993D01*
X244974Y137995D01*
X244713Y138047D01*
X244682Y138044D01*
X244657Y138048D01*
X187356Y138048D01*
X187327Y138044D01*
X187298Y138047D01*
X187187Y138024D01*
X187075Y138008D01*
X187048Y137996D01*
X187019Y137991D01*
X186919Y137938D01*
X186816Y137892D01*
X186793Y137873D01*
X186767Y137860D01*
X186685Y137782D01*
X186599Y137709D01*
X186582Y137684D01*
X186561Y137664D01*
X186504Y137566D01*
X186441Y137472D01*
X186432Y137444D01*
X186417Y137419D01*
X186389Y137309D01*
X186355Y137201D01*
X186354Y137171D01*
X186347Y137143D01*
X186351Y137030D01*
X186348Y136917D01*
X186355Y136888D01*
X186356Y136859D01*
X186391Y136751D01*
X186420Y136642D01*
X186435Y136616D01*
X186444Y136588D01*
X186489Y136525D01*
X186565Y136397D01*
X186611Y136354D01*
X186639Y136315D01*
X188199Y134755D01*
X188199Y132453D01*
X186571Y130825D01*
X184269Y130825D01*
X182641Y132453D01*
X182641Y134755D01*
X184201Y136315D01*
X184219Y136339D01*
X184241Y136358D01*
X184304Y136452D01*
X184372Y136542D01*
X184383Y136570D01*
X184399Y136594D01*
X184433Y136702D01*
X184474Y136808D01*
X184476Y136837D01*
X184485Y136865D01*
X184488Y136979D01*
X184497Y137091D01*
X184491Y137120D01*
X184492Y137149D01*
X184463Y137259D01*
X184441Y137370D01*
X184428Y137396D01*
X184420Y137424D01*
X184362Y137522D01*
X184310Y137622D01*
X184290Y137644D01*
X184275Y137669D01*
X184192Y137746D01*
X184114Y137828D01*
X184089Y137843D01*
X184068Y137863D01*
X183967Y137915D01*
X183869Y137972D01*
X183841Y137979D01*
X183815Y137993D01*
X183737Y138006D01*
X183594Y138042D01*
X183531Y138040D01*
X183484Y138048D01*
X176942Y138048D01*
X176913Y138044D01*
X176884Y138047D01*
X176773Y138024D01*
X176661Y138008D01*
X176634Y137996D01*
X176605Y137991D01*
X176505Y137938D01*
X176402Y137892D01*
X176379Y137873D01*
X176353Y137860D01*
X176271Y137782D01*
X176185Y137709D01*
X176168Y137684D01*
X176147Y137664D01*
X176090Y137566D01*
X176027Y137472D01*
X176018Y137444D01*
X176003Y137419D01*
X175975Y137309D01*
X175941Y137201D01*
X175940Y137171D01*
X175933Y137143D01*
X175937Y137030D01*
X175934Y136917D01*
X175941Y136888D01*
X175942Y136859D01*
X175977Y136751D01*
X176006Y136642D01*
X176021Y136616D01*
X176030Y136588D01*
X176075Y136525D01*
X176151Y136397D01*
X176197Y136354D01*
X176225Y136315D01*
X178039Y134501D01*
X178039Y132199D01*
X176411Y130571D01*
X174109Y130571D01*
G37*
%LPD*%
%LPC*%
G36*
X152869Y480011D02*
X152869Y480011D01*
X152039Y480841D01*
X151970Y480893D01*
X151906Y480953D01*
X151856Y480979D01*
X151812Y481012D01*
X151730Y481043D01*
X151653Y481083D01*
X151605Y481091D01*
X151547Y481113D01*
X151399Y481125D01*
X151322Y481138D01*
X143176Y481138D01*
X106690Y517624D01*
X106620Y517676D01*
X106557Y517736D01*
X106507Y517762D01*
X106463Y517795D01*
X106381Y517826D01*
X106303Y517866D01*
X106256Y517874D01*
X106197Y517896D01*
X106050Y517908D01*
X105972Y517921D01*
X104849Y517921D01*
X104019Y518751D01*
X103950Y518803D01*
X103886Y518863D01*
X103836Y518889D01*
X103792Y518922D01*
X103710Y518953D01*
X103633Y518993D01*
X103585Y519001D01*
X103527Y519023D01*
X103379Y519035D01*
X103301Y519048D01*
X60143Y519048D01*
X60141Y519048D01*
X60139Y519048D01*
X60000Y519028D01*
X59861Y519008D01*
X59860Y519008D01*
X59858Y519008D01*
X59728Y518949D01*
X59602Y518892D01*
X59600Y518891D01*
X59599Y518891D01*
X59489Y518797D01*
X59385Y518709D01*
X59384Y518707D01*
X59383Y518706D01*
X59374Y518693D01*
X59227Y518472D01*
X59218Y518443D01*
X59205Y518422D01*
X58122Y515808D01*
X55692Y513378D01*
X52518Y512063D01*
X49082Y512063D01*
X45908Y513378D01*
X43478Y515808D01*
X42163Y518982D01*
X42163Y522418D01*
X43478Y525592D01*
X45908Y528022D01*
X49082Y529337D01*
X52518Y529337D01*
X55692Y528022D01*
X58122Y525592D01*
X59205Y522978D01*
X59205Y522977D01*
X59206Y522976D01*
X59276Y522857D01*
X59349Y522734D01*
X59350Y522733D01*
X59351Y522731D01*
X59455Y522634D01*
X59556Y522538D01*
X59557Y522538D01*
X59558Y522537D01*
X59684Y522472D01*
X59809Y522408D01*
X59810Y522408D01*
X59811Y522407D01*
X59826Y522405D01*
X60087Y522353D01*
X60118Y522356D01*
X60143Y522352D01*
X103301Y522352D01*
X103388Y522364D01*
X103476Y522367D01*
X103528Y522384D01*
X103583Y522392D01*
X103663Y522427D01*
X103746Y522454D01*
X103785Y522482D01*
X103842Y522508D01*
X103956Y522604D01*
X104019Y522649D01*
X104849Y523479D01*
X107151Y523479D01*
X108779Y521851D01*
X108779Y520628D01*
X108791Y520541D01*
X108794Y520454D01*
X108811Y520401D01*
X108819Y520346D01*
X108854Y520266D01*
X108881Y520183D01*
X108909Y520144D01*
X108935Y520087D01*
X109031Y519973D01*
X109076Y519910D01*
X144247Y484739D01*
X144317Y484687D01*
X144381Y484627D01*
X144430Y484601D01*
X144474Y484568D01*
X144556Y484537D01*
X144634Y484497D01*
X144681Y484489D01*
X144740Y484467D01*
X144887Y484455D01*
X144965Y484442D01*
X151322Y484442D01*
X151408Y484454D01*
X151496Y484457D01*
X151548Y484474D01*
X151603Y484482D01*
X151683Y484517D01*
X151766Y484544D01*
X151805Y484572D01*
X151862Y484598D01*
X151976Y484694D01*
X152039Y484739D01*
X152869Y485569D01*
X155171Y485569D01*
X156799Y483941D01*
X156799Y481639D01*
X155171Y480011D01*
X152869Y480011D01*
G37*
%LPD*%
%LPC*%
G36*
X252282Y512063D02*
X252282Y512063D01*
X249108Y513378D01*
X246678Y515808D01*
X245363Y518982D01*
X245363Y522418D01*
X246446Y525032D01*
X246446Y525033D01*
X246447Y525035D01*
X246481Y525167D01*
X246486Y525186D01*
X246499Y525227D01*
X246499Y525237D01*
X246517Y525307D01*
X246517Y525309D01*
X246517Y525310D01*
X246513Y525450D01*
X246509Y525591D01*
X246508Y525593D01*
X246508Y525594D01*
X246465Y525727D01*
X246422Y525862D01*
X246421Y525863D01*
X246421Y525865D01*
X246412Y525877D01*
X246264Y526098D01*
X246240Y526118D01*
X246226Y526138D01*
X234313Y538051D01*
X234243Y538103D01*
X234179Y538163D01*
X234130Y538189D01*
X234086Y538222D01*
X234004Y538253D01*
X233926Y538293D01*
X233879Y538301D01*
X233820Y538323D01*
X233673Y538335D01*
X233595Y538348D01*
X172699Y538348D01*
X172612Y538336D01*
X172524Y538333D01*
X172472Y538316D01*
X172417Y538308D01*
X172337Y538273D01*
X172254Y538246D01*
X172215Y538218D01*
X172158Y538192D01*
X172044Y538096D01*
X171981Y538051D01*
X171151Y537221D01*
X168849Y537221D01*
X167221Y538849D01*
X167221Y541151D01*
X168849Y542779D01*
X171151Y542779D01*
X171981Y541949D01*
X172050Y541897D01*
X172114Y541837D01*
X172164Y541811D01*
X172208Y541778D01*
X172290Y541747D01*
X172367Y541707D01*
X172415Y541699D01*
X172473Y541677D01*
X172621Y541665D01*
X172699Y541652D01*
X235384Y541652D01*
X248562Y528474D01*
X248563Y528473D01*
X248564Y528472D01*
X248681Y528385D01*
X248789Y528303D01*
X248790Y528303D01*
X248792Y528302D01*
X248924Y528252D01*
X249055Y528202D01*
X249056Y528202D01*
X249058Y528201D01*
X249202Y528190D01*
X249338Y528178D01*
X249339Y528179D01*
X249341Y528179D01*
X249357Y528182D01*
X249617Y528234D01*
X249644Y528248D01*
X249668Y528254D01*
X252282Y529337D01*
X255718Y529337D01*
X258892Y528022D01*
X261322Y525592D01*
X262637Y522418D01*
X262637Y518982D01*
X261322Y515808D01*
X258892Y513378D01*
X255718Y512063D01*
X252282Y512063D01*
G37*
%LPD*%
%LPC*%
G36*
X92829Y262651D02*
X92829Y262651D01*
X91201Y264279D01*
X91201Y266581D01*
X92829Y268209D01*
X95149Y268209D01*
X95205Y268156D01*
X95255Y268130D01*
X95299Y268097D01*
X95380Y268066D01*
X95458Y268026D01*
X95506Y268018D01*
X95564Y267996D01*
X95712Y267984D01*
X95789Y267971D01*
X107617Y267971D01*
X107704Y267983D01*
X107791Y267986D01*
X107844Y268003D01*
X107899Y268011D01*
X107978Y268046D01*
X108062Y268073D01*
X108101Y268101D01*
X108158Y268127D01*
X108271Y268223D01*
X108335Y268268D01*
X117682Y277615D01*
X119468Y279401D01*
X128286Y279401D01*
X128344Y279409D01*
X128402Y279407D01*
X128484Y279429D01*
X128568Y279441D01*
X128621Y279464D01*
X128677Y279479D01*
X128750Y279522D01*
X128827Y279557D01*
X128872Y279595D01*
X128922Y279624D01*
X128980Y279686D01*
X129044Y279740D01*
X129076Y279789D01*
X129116Y279832D01*
X129155Y279907D01*
X129202Y279977D01*
X129219Y280033D01*
X129246Y280085D01*
X129257Y280153D01*
X129287Y280248D01*
X129290Y280348D01*
X129301Y280416D01*
X129301Y283091D01*
X130929Y284719D01*
X133231Y284719D01*
X134859Y283091D01*
X134859Y280416D01*
X134867Y280358D01*
X134865Y280300D01*
X134887Y280218D01*
X134899Y280134D01*
X134922Y280081D01*
X134937Y280025D01*
X134980Y279952D01*
X135015Y279875D01*
X135053Y279830D01*
X135082Y279780D01*
X135144Y279722D01*
X135198Y279658D01*
X135247Y279626D01*
X135290Y279586D01*
X135365Y279547D01*
X135435Y279500D01*
X135491Y279483D01*
X135543Y279456D01*
X135611Y279445D01*
X135706Y279415D01*
X135806Y279412D01*
X135874Y279401D01*
X168692Y279401D01*
X170697Y277396D01*
X170767Y277344D01*
X170831Y277284D01*
X170880Y277258D01*
X170924Y277225D01*
X171006Y277194D01*
X171084Y277154D01*
X171131Y277146D01*
X171190Y277124D01*
X171316Y277113D01*
X172959Y275471D01*
X172959Y273169D01*
X171331Y271541D01*
X169029Y271541D01*
X167389Y273182D01*
X167386Y273259D01*
X167369Y273312D01*
X167361Y273367D01*
X167326Y273446D01*
X167299Y273530D01*
X167271Y273569D01*
X167245Y273626D01*
X167149Y273739D01*
X167104Y273803D01*
X166885Y274022D01*
X166815Y274074D01*
X166751Y274134D01*
X166702Y274160D01*
X166658Y274193D01*
X166576Y274224D01*
X166498Y274264D01*
X166451Y274272D01*
X166392Y274294D01*
X166244Y274306D01*
X166167Y274319D01*
X137144Y274319D01*
X137086Y274311D01*
X137028Y274313D01*
X136946Y274291D01*
X136862Y274279D01*
X136809Y274256D01*
X136753Y274241D01*
X136680Y274198D01*
X136603Y274163D01*
X136558Y274125D01*
X136508Y274096D01*
X136450Y274034D01*
X136386Y273980D01*
X136354Y273931D01*
X136314Y273888D01*
X136275Y273813D01*
X136228Y273743D01*
X136211Y273687D01*
X136184Y273635D01*
X136173Y273567D01*
X136143Y273472D01*
X136140Y273372D01*
X136129Y273304D01*
X136129Y270629D01*
X134501Y269001D01*
X132199Y269001D01*
X130571Y270629D01*
X130571Y273304D01*
X130563Y273362D01*
X130565Y273420D01*
X130543Y273502D01*
X130531Y273586D01*
X130508Y273639D01*
X130493Y273695D01*
X130450Y273768D01*
X130415Y273845D01*
X130377Y273890D01*
X130348Y273940D01*
X130286Y273998D01*
X130232Y274062D01*
X130183Y274094D01*
X130140Y274134D01*
X130065Y274173D01*
X129995Y274220D01*
X129939Y274237D01*
X129887Y274264D01*
X129819Y274275D01*
X129724Y274305D01*
X129624Y274308D01*
X129556Y274319D01*
X121993Y274319D01*
X121906Y274307D01*
X121819Y274304D01*
X121766Y274287D01*
X121711Y274279D01*
X121632Y274244D01*
X121548Y274217D01*
X121509Y274189D01*
X121452Y274163D01*
X121339Y274067D01*
X121275Y274022D01*
X111928Y264675D01*
X110142Y262889D01*
X95789Y262889D01*
X95703Y262877D01*
X95615Y262874D01*
X95563Y262857D01*
X95508Y262849D01*
X95428Y262814D01*
X95345Y262787D01*
X95306Y262759D01*
X95249Y262733D01*
X95152Y262651D01*
X92829Y262651D01*
G37*
%LPD*%
%LPC*%
G36*
X127929Y509571D02*
X127929Y509571D01*
X126301Y511199D01*
X126301Y513501D01*
X127929Y515129D01*
X130231Y515129D01*
X131061Y514299D01*
X131130Y514247D01*
X131194Y514187D01*
X131244Y514161D01*
X131288Y514128D01*
X131370Y514097D01*
X131447Y514057D01*
X131495Y514049D01*
X131553Y514027D01*
X131701Y514015D01*
X131779Y514002D01*
X170896Y514002D01*
X170954Y514010D01*
X171012Y514008D01*
X171094Y514030D01*
X171178Y514042D01*
X171231Y514065D01*
X171287Y514080D01*
X171360Y514123D01*
X171437Y514158D01*
X171482Y514196D01*
X171532Y514225D01*
X171590Y514287D01*
X171654Y514341D01*
X171686Y514390D01*
X171726Y514433D01*
X171765Y514508D01*
X171812Y514578D01*
X171829Y514634D01*
X171856Y514686D01*
X171867Y514754D01*
X171897Y514849D01*
X171900Y514949D01*
X171911Y515017D01*
X171911Y515501D01*
X172598Y516188D01*
X172616Y516212D01*
X172638Y516231D01*
X172701Y516325D01*
X172769Y516415D01*
X172780Y516443D01*
X172796Y516467D01*
X172830Y516575D01*
X172871Y516681D01*
X172873Y516710D01*
X172882Y516738D01*
X172885Y516852D01*
X172894Y516964D01*
X172888Y516993D01*
X172889Y517022D01*
X172860Y517132D01*
X172838Y517243D01*
X172825Y517269D01*
X172817Y517297D01*
X172760Y517395D01*
X172707Y517495D01*
X172687Y517517D01*
X172672Y517542D01*
X172589Y517619D01*
X172511Y517701D01*
X172486Y517716D01*
X172465Y517736D01*
X172364Y517788D01*
X172266Y517845D01*
X172238Y517852D01*
X172212Y517866D01*
X172134Y517879D01*
X171991Y517915D01*
X171928Y517913D01*
X171881Y517921D01*
X169839Y517921D01*
X169739Y518021D01*
X169669Y518074D01*
X169606Y518133D01*
X169557Y518159D01*
X169512Y518192D01*
X169430Y518223D01*
X169353Y518263D01*
X169305Y518271D01*
X169247Y518293D01*
X169099Y518305D01*
X169022Y518318D01*
X127699Y518318D01*
X127612Y518306D01*
X127524Y518303D01*
X127472Y518286D01*
X127417Y518278D01*
X127337Y518243D01*
X127254Y518216D01*
X127215Y518188D01*
X127158Y518162D01*
X127044Y518066D01*
X126981Y518021D01*
X126151Y517191D01*
X123849Y517191D01*
X122221Y518819D01*
X122221Y521121D01*
X123849Y522749D01*
X126151Y522749D01*
X126981Y521919D01*
X127050Y521867D01*
X127114Y521807D01*
X127164Y521781D01*
X127208Y521748D01*
X127290Y521717D01*
X127367Y521677D01*
X127415Y521669D01*
X127473Y521647D01*
X127621Y521635D01*
X127699Y521622D01*
X161386Y521622D01*
X161415Y521626D01*
X161444Y521623D01*
X161555Y521646D01*
X161667Y521662D01*
X161694Y521674D01*
X161723Y521679D01*
X161823Y521731D01*
X161926Y521778D01*
X161949Y521797D01*
X161975Y521810D01*
X162057Y521888D01*
X162143Y521961D01*
X162160Y521986D01*
X162181Y522006D01*
X162238Y522104D01*
X162301Y522198D01*
X162310Y522226D01*
X162325Y522251D01*
X162353Y522361D01*
X162387Y522469D01*
X162388Y522498D01*
X162395Y522527D01*
X162391Y522640D01*
X162394Y522753D01*
X162387Y522782D01*
X162386Y522811D01*
X162351Y522919D01*
X162322Y523028D01*
X162307Y523054D01*
X162298Y523082D01*
X162253Y523145D01*
X162177Y523273D01*
X162131Y523316D01*
X162103Y523355D01*
X162099Y523359D01*
X162099Y525661D01*
X163727Y527289D01*
X166029Y527289D01*
X167657Y525661D01*
X167657Y523747D01*
X167661Y523718D01*
X167658Y523689D01*
X167681Y523578D01*
X167697Y523466D01*
X167709Y523439D01*
X167714Y523410D01*
X167767Y523310D01*
X167813Y523207D01*
X167832Y523184D01*
X167845Y523158D01*
X167923Y523076D01*
X167996Y522990D01*
X168021Y522973D01*
X168041Y522952D01*
X168139Y522895D01*
X168233Y522832D01*
X168261Y522823D01*
X168286Y522808D01*
X168396Y522780D01*
X168504Y522746D01*
X168534Y522745D01*
X168562Y522738D01*
X168675Y522742D01*
X168788Y522739D01*
X168817Y522746D01*
X168846Y522747D01*
X168954Y522782D01*
X169063Y522811D01*
X169089Y522826D01*
X169117Y522835D01*
X169181Y522880D01*
X169308Y522956D01*
X169351Y523002D01*
X169390Y523030D01*
X169839Y523479D01*
X172141Y523479D01*
X173769Y521851D01*
X173769Y519549D01*
X173082Y518862D01*
X173064Y518838D01*
X173042Y518819D01*
X172979Y518725D01*
X172911Y518635D01*
X172900Y518607D01*
X172884Y518583D01*
X172850Y518475D01*
X172809Y518369D01*
X172807Y518340D01*
X172798Y518312D01*
X172795Y518198D01*
X172786Y518086D01*
X172792Y518057D01*
X172791Y518028D01*
X172820Y517918D01*
X172842Y517807D01*
X172855Y517781D01*
X172863Y517753D01*
X172920Y517655D01*
X172973Y517555D01*
X172993Y517533D01*
X173008Y517508D01*
X173091Y517431D01*
X173169Y517349D01*
X173194Y517334D01*
X173215Y517314D01*
X173316Y517262D01*
X173414Y517205D01*
X173442Y517198D01*
X173468Y517184D01*
X173546Y517171D01*
X173689Y517135D01*
X173752Y517137D01*
X173799Y517129D01*
X175841Y517129D01*
X177469Y515501D01*
X177469Y513199D01*
X175841Y511571D01*
X174668Y511571D01*
X174581Y511559D01*
X174494Y511556D01*
X174441Y511539D01*
X174386Y511531D01*
X174306Y511496D01*
X174223Y511469D01*
X174184Y511441D01*
X174127Y511415D01*
X174014Y511319D01*
X173950Y511274D01*
X173374Y510698D01*
X131779Y510698D01*
X131692Y510686D01*
X131604Y510683D01*
X131552Y510666D01*
X131497Y510658D01*
X131417Y510623D01*
X131334Y510596D01*
X131295Y510568D01*
X131238Y510542D01*
X131124Y510446D01*
X131061Y510401D01*
X130231Y509571D01*
X127929Y509571D01*
G37*
%LPD*%
%LPC*%
G36*
X127218Y68579D02*
X127218Y68579D01*
X125729Y70068D01*
X125729Y70580D01*
X125721Y70636D01*
X125723Y70679D01*
X125716Y70705D01*
X125714Y70755D01*
X125697Y70807D01*
X125689Y70862D01*
X125654Y70940D01*
X125651Y70954D01*
X125649Y70958D01*
X125627Y71025D01*
X125599Y71064D01*
X125573Y71121D01*
X125491Y71218D01*
X125491Y73541D01*
X127119Y75169D01*
X129421Y75169D01*
X130632Y73958D01*
X130701Y73906D01*
X130765Y73846D01*
X130815Y73820D01*
X130859Y73787D01*
X130941Y73756D01*
X131018Y73716D01*
X131066Y73708D01*
X131124Y73686D01*
X131272Y73674D01*
X131350Y73661D01*
X156159Y73661D01*
X156188Y73665D01*
X156217Y73662D01*
X156328Y73685D01*
X156440Y73701D01*
X156467Y73713D01*
X156496Y73718D01*
X156596Y73771D01*
X156700Y73817D01*
X156722Y73836D01*
X156748Y73849D01*
X156830Y73927D01*
X156917Y74000D01*
X156933Y74025D01*
X156954Y74045D01*
X157011Y74143D01*
X157074Y74237D01*
X157083Y74265D01*
X157098Y74290D01*
X157126Y74400D01*
X157160Y74508D01*
X157161Y74538D01*
X157168Y74566D01*
X157164Y74679D01*
X157167Y74792D01*
X157160Y74821D01*
X157159Y74850D01*
X157124Y74958D01*
X157095Y75067D01*
X157080Y75093D01*
X157071Y75121D01*
X157026Y75185D01*
X156950Y75312D01*
X156904Y75355D01*
X156876Y75394D01*
X156241Y76029D01*
X156241Y78331D01*
X157869Y79959D01*
X160171Y79959D01*
X161799Y78331D01*
X161799Y76029D01*
X161164Y75394D01*
X161146Y75370D01*
X161124Y75351D01*
X161061Y75257D01*
X160993Y75167D01*
X160982Y75139D01*
X160966Y75115D01*
X160932Y75007D01*
X160892Y74901D01*
X160889Y74872D01*
X160880Y74844D01*
X160877Y74730D01*
X160868Y74618D01*
X160874Y74589D01*
X160873Y74560D01*
X160902Y74450D01*
X160924Y74339D01*
X160937Y74313D01*
X160945Y74285D01*
X161002Y74187D01*
X161055Y74087D01*
X161075Y74065D01*
X161090Y74040D01*
X161173Y73963D01*
X161251Y73881D01*
X161276Y73866D01*
X161297Y73846D01*
X161398Y73794D01*
X161496Y73737D01*
X161524Y73730D01*
X161550Y73716D01*
X161628Y73703D01*
X161771Y73667D01*
X161834Y73669D01*
X161882Y73661D01*
X173450Y73661D01*
X173537Y73673D01*
X173625Y73676D01*
X173677Y73693D01*
X173732Y73701D01*
X173812Y73736D01*
X173895Y73763D01*
X173934Y73791D01*
X173991Y73817D01*
X174105Y73913D01*
X174168Y73958D01*
X175379Y75169D01*
X177681Y75169D01*
X179309Y73541D01*
X179309Y71239D01*
X177668Y69599D01*
X177591Y69596D01*
X177538Y69579D01*
X177483Y69571D01*
X177404Y69536D01*
X177320Y69509D01*
X177281Y69481D01*
X177224Y69455D01*
X177111Y69359D01*
X177047Y69314D01*
X176312Y68579D01*
X127218Y68579D01*
G37*
%LPD*%
%LPC*%
G36*
X104347Y43372D02*
X104347Y43372D01*
X104272Y43447D01*
X104272Y64553D01*
X104347Y64628D01*
X110856Y64628D01*
X110885Y64632D01*
X110914Y64629D01*
X111025Y64652D01*
X111137Y64668D01*
X111164Y64680D01*
X111193Y64685D01*
X111293Y64738D01*
X111396Y64784D01*
X111419Y64803D01*
X111445Y64816D01*
X111527Y64894D01*
X111613Y64967D01*
X111630Y64992D01*
X111651Y65012D01*
X111708Y65110D01*
X111771Y65204D01*
X111780Y65232D01*
X111795Y65257D01*
X111823Y65367D01*
X111857Y65475D01*
X111858Y65505D01*
X111865Y65533D01*
X111861Y65646D01*
X111864Y65759D01*
X111857Y65788D01*
X111856Y65817D01*
X111821Y65925D01*
X111792Y66034D01*
X111777Y66060D01*
X111768Y66088D01*
X111723Y66152D01*
X111647Y66279D01*
X111601Y66322D01*
X111573Y66361D01*
X110251Y67683D01*
X110251Y69985D01*
X111879Y71613D01*
X114181Y71613D01*
X115809Y69985D01*
X115809Y67683D01*
X114321Y66195D01*
X114306Y66176D01*
X114290Y66162D01*
X114273Y66136D01*
X114244Y66108D01*
X114201Y66036D01*
X114150Y65968D01*
X114136Y65931D01*
X114132Y65925D01*
X114128Y65911D01*
X114100Y65863D01*
X114079Y65782D01*
X114049Y65703D01*
X114044Y65644D01*
X114030Y65588D01*
X114032Y65503D01*
X114025Y65419D01*
X114037Y65362D01*
X114039Y65303D01*
X114065Y65223D01*
X114081Y65140D01*
X114108Y65089D01*
X114126Y65033D01*
X114166Y64977D01*
X114212Y64888D01*
X114281Y64816D01*
X114321Y64760D01*
X114528Y64553D01*
X114528Y43447D01*
X114453Y43372D01*
X104347Y43372D01*
G37*
%LPD*%
%LPC*%
G36*
X93251Y350773D02*
X93251Y350773D01*
X90423Y353601D01*
X90423Y357599D01*
X93468Y360645D01*
X93537Y360736D01*
X93611Y360824D01*
X93623Y360850D01*
X93639Y360872D01*
X93680Y360979D01*
X93727Y361084D01*
X93731Y361111D01*
X93741Y361137D01*
X93750Y361252D01*
X93766Y361366D01*
X93762Y361393D01*
X93764Y361421D01*
X93742Y361533D01*
X93725Y361647D01*
X93714Y361672D01*
X93708Y361699D01*
X93655Y361801D01*
X93608Y361906D01*
X93590Y361927D01*
X93577Y361952D01*
X93498Y362035D01*
X93424Y362122D01*
X93403Y362136D01*
X93382Y362158D01*
X93152Y362292D01*
X93139Y362300D01*
X92242Y362672D01*
X91202Y363367D01*
X90317Y364252D01*
X89622Y365292D01*
X89143Y366448D01*
X89027Y367031D01*
X94996Y367031D01*
X95054Y367039D01*
X95112Y367037D01*
X95194Y367059D01*
X95277Y367071D01*
X95331Y367094D01*
X95387Y367109D01*
X95460Y367152D01*
X95537Y367187D01*
X95581Y367225D01*
X95632Y367254D01*
X95689Y367316D01*
X95754Y367370D01*
X95786Y367419D01*
X95826Y367462D01*
X95865Y367537D01*
X95911Y367607D01*
X95919Y367631D01*
X95968Y367661D01*
X96045Y367695D01*
X96090Y367733D01*
X96140Y367763D01*
X96198Y367824D01*
X96262Y367879D01*
X96294Y367927D01*
X96334Y367970D01*
X96373Y368045D01*
X96420Y368115D01*
X96437Y368171D01*
X96464Y368223D01*
X96475Y368291D01*
X96505Y368386D01*
X96508Y368486D01*
X96519Y368554D01*
X96519Y374523D01*
X97102Y374407D01*
X98258Y373928D01*
X99298Y373233D01*
X100183Y372348D01*
X100878Y371308D01*
X101250Y370411D01*
X101308Y370312D01*
X101361Y370210D01*
X101380Y370190D01*
X101394Y370166D01*
X101477Y370087D01*
X101557Y370004D01*
X101581Y369990D01*
X101601Y369971D01*
X101703Y369918D01*
X101802Y369860D01*
X101829Y369853D01*
X101854Y369841D01*
X101966Y369818D01*
X102077Y369790D01*
X102105Y369791D01*
X102132Y369786D01*
X102247Y369796D01*
X102362Y369799D01*
X102388Y369808D01*
X102416Y369810D01*
X102523Y369851D01*
X102632Y369887D01*
X102652Y369901D01*
X102681Y369912D01*
X102894Y370073D01*
X102905Y370082D01*
X102908Y370084D01*
X105951Y373127D01*
X109949Y373127D01*
X112777Y370299D01*
X112777Y366301D01*
X109949Y363473D01*
X105951Y363473D01*
X102905Y366518D01*
X102814Y366587D01*
X102726Y366661D01*
X102700Y366673D01*
X102678Y366689D01*
X102571Y366730D01*
X102466Y366777D01*
X102439Y366781D01*
X102413Y366791D01*
X102298Y366800D01*
X102184Y366816D01*
X102157Y366812D01*
X102129Y366814D01*
X102017Y366792D01*
X101903Y366775D01*
X101878Y366764D01*
X101851Y366758D01*
X101749Y366705D01*
X101644Y366658D01*
X101623Y366640D01*
X101598Y366627D01*
X101515Y366548D01*
X101428Y366474D01*
X101414Y366453D01*
X101392Y366432D01*
X101258Y366202D01*
X101250Y366189D01*
X100878Y365292D01*
X100183Y364252D01*
X99298Y363367D01*
X98258Y362672D01*
X97361Y362300D01*
X97262Y362242D01*
X97160Y362189D01*
X97140Y362170D01*
X97116Y362156D01*
X97037Y362072D01*
X96954Y361993D01*
X96940Y361969D01*
X96921Y361949D01*
X96868Y361847D01*
X96810Y361748D01*
X96803Y361721D01*
X96791Y361696D01*
X96768Y361584D01*
X96740Y361473D01*
X96741Y361445D01*
X96736Y361418D01*
X96746Y361303D01*
X96749Y361188D01*
X96758Y361162D01*
X96760Y361134D01*
X96801Y361027D01*
X96837Y360918D01*
X96851Y360898D01*
X96862Y360869D01*
X97023Y360656D01*
X97032Y360645D01*
X97034Y360642D01*
X100077Y357599D01*
X100077Y353601D01*
X97249Y350773D01*
X93251Y350773D01*
G37*
%LPD*%
%LPC*%
G36*
X49082Y258063D02*
X49082Y258063D01*
X45908Y259378D01*
X43478Y261808D01*
X42163Y264982D01*
X42163Y268418D01*
X43478Y271592D01*
X45908Y274022D01*
X49082Y275337D01*
X52518Y275337D01*
X55692Y274022D01*
X58122Y271592D01*
X59437Y268418D01*
X59437Y264982D01*
X58122Y261808D01*
X55692Y259378D01*
X52518Y258063D01*
X49082Y258063D01*
G37*
%LPD*%
%LPC*%
G36*
X252282Y359663D02*
X252282Y359663D01*
X249108Y360978D01*
X246678Y363408D01*
X245363Y366582D01*
X245363Y370018D01*
X246678Y373192D01*
X249108Y375622D01*
X252282Y376937D01*
X255718Y376937D01*
X258892Y375622D01*
X261322Y373192D01*
X262637Y370018D01*
X262637Y366582D01*
X261322Y363408D01*
X258892Y360978D01*
X255718Y359663D01*
X252282Y359663D01*
G37*
%LPD*%
%LPC*%
G36*
X252282Y258063D02*
X252282Y258063D01*
X249108Y259378D01*
X246678Y261808D01*
X245363Y264982D01*
X245363Y268418D01*
X246678Y271592D01*
X249108Y274022D01*
X252282Y275337D01*
X255718Y275337D01*
X258892Y274022D01*
X261322Y271592D01*
X262637Y268418D01*
X262637Y264982D01*
X261322Y261808D01*
X258892Y259378D01*
X255718Y258063D01*
X252282Y258063D01*
G37*
%LPD*%
%LPC*%
G36*
X252282Y283463D02*
X252282Y283463D01*
X249108Y284778D01*
X246678Y287208D01*
X245363Y290382D01*
X245363Y293818D01*
X246678Y296992D01*
X249108Y299422D01*
X252282Y300737D01*
X255718Y300737D01*
X258892Y299422D01*
X261322Y296992D01*
X262637Y293818D01*
X262637Y290382D01*
X261322Y287208D01*
X258892Y284778D01*
X255718Y283463D01*
X252282Y283463D01*
G37*
%LPD*%
%LPC*%
G36*
X49082Y283463D02*
X49082Y283463D01*
X45908Y284778D01*
X43478Y287208D01*
X42163Y290382D01*
X42163Y293818D01*
X43478Y296992D01*
X45908Y299422D01*
X49082Y300737D01*
X52518Y300737D01*
X55692Y299422D01*
X58122Y296992D01*
X59437Y293818D01*
X59437Y290382D01*
X58122Y287208D01*
X55692Y284778D01*
X52518Y283463D01*
X49082Y283463D01*
G37*
%LPD*%
%LPC*%
G36*
X49082Y308863D02*
X49082Y308863D01*
X45908Y310178D01*
X43478Y312608D01*
X42163Y315782D01*
X42163Y319218D01*
X43478Y322392D01*
X45908Y324822D01*
X49082Y326137D01*
X52518Y326137D01*
X55692Y324822D01*
X58122Y322392D01*
X59437Y319218D01*
X59437Y315782D01*
X58122Y312608D01*
X55692Y310178D01*
X52518Y308863D01*
X49082Y308863D01*
G37*
%LPD*%
%LPC*%
G36*
X252282Y486663D02*
X252282Y486663D01*
X249108Y487978D01*
X246678Y490408D01*
X245363Y493582D01*
X245363Y497018D01*
X246678Y500192D01*
X249108Y502622D01*
X252282Y503937D01*
X255718Y503937D01*
X258892Y502622D01*
X261322Y500192D01*
X262637Y497018D01*
X262637Y493582D01*
X261322Y490408D01*
X258892Y487978D01*
X255718Y486663D01*
X252282Y486663D01*
G37*
%LPD*%
%LPC*%
G36*
X252282Y334263D02*
X252282Y334263D01*
X249108Y335578D01*
X246678Y338008D01*
X245363Y341182D01*
X245363Y344618D01*
X246678Y347792D01*
X249108Y350222D01*
X252282Y351537D01*
X255718Y351537D01*
X258892Y350222D01*
X261322Y347792D01*
X262637Y344618D01*
X262637Y341182D01*
X261322Y338008D01*
X258892Y335578D01*
X255718Y334263D01*
X252282Y334263D01*
G37*
%LPD*%
%LPC*%
G36*
X252282Y308863D02*
X252282Y308863D01*
X249108Y310178D01*
X246678Y312608D01*
X245363Y315782D01*
X245363Y319218D01*
X246678Y322392D01*
X249108Y324822D01*
X252282Y326137D01*
X255718Y326137D01*
X258892Y324822D01*
X261322Y322392D01*
X262637Y319218D01*
X262637Y315782D01*
X261322Y312608D01*
X258892Y310178D01*
X255718Y308863D01*
X252282Y308863D01*
G37*
%LPD*%
%LPC*%
G36*
X252282Y461263D02*
X252282Y461263D01*
X249108Y462578D01*
X246678Y465008D01*
X245363Y468182D01*
X245363Y471618D01*
X246678Y474792D01*
X249108Y477222D01*
X252282Y478537D01*
X255718Y478537D01*
X258892Y477222D01*
X261322Y474792D01*
X262637Y471618D01*
X262637Y468182D01*
X261322Y465008D01*
X258892Y462578D01*
X255718Y461263D01*
X252282Y461263D01*
G37*
%LPD*%
%LPC*%
G36*
X49082Y334263D02*
X49082Y334263D01*
X45908Y335578D01*
X43478Y338008D01*
X42163Y341182D01*
X42163Y344618D01*
X43478Y347792D01*
X45908Y350222D01*
X49082Y351537D01*
X52518Y351537D01*
X55692Y350222D01*
X58122Y347792D01*
X59437Y344618D01*
X59437Y341182D01*
X58122Y338008D01*
X55692Y335578D01*
X52518Y334263D01*
X49082Y334263D01*
G37*
%LPD*%
%LPC*%
G36*
X252282Y181863D02*
X252282Y181863D01*
X249108Y183178D01*
X246678Y185608D01*
X245363Y188782D01*
X245363Y192218D01*
X246678Y195392D01*
X249108Y197822D01*
X252282Y199137D01*
X255718Y199137D01*
X258892Y197822D01*
X261322Y195392D01*
X262637Y192218D01*
X262637Y188782D01*
X261322Y185608D01*
X258892Y183178D01*
X255718Y181863D01*
X252282Y181863D01*
G37*
%LPD*%
%LPC*%
G36*
X252282Y207263D02*
X252282Y207263D01*
X249108Y208578D01*
X246678Y211008D01*
X245363Y214182D01*
X245363Y217618D01*
X246678Y220792D01*
X249108Y223222D01*
X252282Y224537D01*
X255718Y224537D01*
X258892Y223222D01*
X261322Y220792D01*
X262637Y217618D01*
X262637Y214182D01*
X261322Y211008D01*
X258892Y208578D01*
X255718Y207263D01*
X252282Y207263D01*
G37*
%LPD*%
%LPC*%
G36*
X252282Y435863D02*
X252282Y435863D01*
X249108Y437178D01*
X246678Y439608D01*
X245363Y442782D01*
X245363Y446218D01*
X246678Y449392D01*
X249108Y451822D01*
X252282Y453137D01*
X255718Y453137D01*
X258892Y451822D01*
X261322Y449392D01*
X262637Y446218D01*
X262637Y442782D01*
X261322Y439608D01*
X258892Y437178D01*
X255718Y435863D01*
X252282Y435863D01*
G37*
%LPD*%
%LPC*%
G36*
X252282Y232663D02*
X252282Y232663D01*
X249108Y233978D01*
X246678Y236408D01*
X245363Y239582D01*
X245363Y243018D01*
X246678Y246192D01*
X249108Y248622D01*
X252282Y249937D01*
X255718Y249937D01*
X258892Y248622D01*
X261322Y246192D01*
X262637Y243018D01*
X262637Y239582D01*
X261322Y236408D01*
X258892Y233978D01*
X255718Y232663D01*
X252282Y232663D01*
G37*
%LPD*%
%LPC*%
G36*
X49082Y232663D02*
X49082Y232663D01*
X45908Y233978D01*
X43478Y236408D01*
X42163Y239582D01*
X42163Y243018D01*
X43478Y246192D01*
X45908Y248622D01*
X49082Y249937D01*
X52518Y249937D01*
X55692Y248622D01*
X58122Y246192D01*
X59437Y243018D01*
X59437Y239582D01*
X58122Y236408D01*
X55692Y233978D01*
X52518Y232663D01*
X49082Y232663D01*
G37*
%LPD*%
%LPC*%
G36*
X49082Y410463D02*
X49082Y410463D01*
X45908Y411778D01*
X43478Y414208D01*
X42163Y417382D01*
X42163Y420818D01*
X43478Y423992D01*
X45908Y426422D01*
X49082Y427737D01*
X52518Y427737D01*
X55692Y426422D01*
X58122Y423992D01*
X59437Y420818D01*
X59437Y417382D01*
X58122Y414208D01*
X55692Y411778D01*
X52518Y410463D01*
X49082Y410463D01*
G37*
%LPD*%
%LPC*%
G36*
X148455Y81041D02*
X148455Y81041D01*
X146827Y82669D01*
X146827Y84971D01*
X148455Y86599D01*
X150757Y86599D01*
X151587Y85769D01*
X151656Y85717D01*
X151720Y85657D01*
X151770Y85631D01*
X151814Y85598D01*
X151896Y85567D01*
X151973Y85527D01*
X152021Y85519D01*
X152079Y85497D01*
X152227Y85485D01*
X152305Y85472D01*
X163073Y85472D01*
X163102Y85476D01*
X163131Y85473D01*
X163242Y85496D01*
X163354Y85512D01*
X163381Y85524D01*
X163410Y85529D01*
X163510Y85582D01*
X163613Y85628D01*
X163636Y85647D01*
X163662Y85660D01*
X163744Y85738D01*
X163830Y85811D01*
X163847Y85836D01*
X163868Y85856D01*
X163925Y85954D01*
X163988Y86048D01*
X163997Y86076D01*
X164012Y86101D01*
X164040Y86211D01*
X164074Y86319D01*
X164075Y86349D01*
X164082Y86377D01*
X164078Y86490D01*
X164081Y86603D01*
X164074Y86632D01*
X164073Y86661D01*
X164038Y86769D01*
X164009Y86878D01*
X163994Y86904D01*
X163985Y86932D01*
X163940Y86996D01*
X163864Y87123D01*
X163818Y87166D01*
X163790Y87205D01*
X162321Y88674D01*
X162321Y90976D01*
X163949Y92604D01*
X166251Y92604D01*
X167879Y90976D01*
X167879Y88674D01*
X166410Y87205D01*
X166392Y87181D01*
X166370Y87162D01*
X166307Y87068D01*
X166239Y86978D01*
X166228Y86950D01*
X166212Y86926D01*
X166178Y86818D01*
X166137Y86712D01*
X166135Y86683D01*
X166126Y86655D01*
X166123Y86541D01*
X166114Y86429D01*
X166120Y86400D01*
X166119Y86371D01*
X166148Y86261D01*
X166170Y86150D01*
X166183Y86124D01*
X166191Y86096D01*
X166249Y85998D01*
X166301Y85898D01*
X166321Y85876D01*
X166336Y85851D01*
X166419Y85774D01*
X166497Y85692D01*
X166522Y85677D01*
X166543Y85657D01*
X166644Y85605D01*
X166742Y85548D01*
X166770Y85541D01*
X166796Y85527D01*
X166874Y85514D01*
X167017Y85478D01*
X167080Y85480D01*
X167127Y85472D01*
X186855Y85472D01*
X186942Y85484D01*
X187029Y85487D01*
X187082Y85504D01*
X187137Y85512D01*
X187217Y85547D01*
X187300Y85574D01*
X187339Y85602D01*
X187396Y85628D01*
X187509Y85724D01*
X187573Y85769D01*
X195044Y93240D01*
X195096Y93310D01*
X195156Y93374D01*
X195182Y93423D01*
X195215Y93467D01*
X195246Y93549D01*
X195286Y93627D01*
X195294Y93674D01*
X195316Y93733D01*
X195328Y93880D01*
X195341Y93958D01*
X195341Y95131D01*
X196969Y96759D01*
X199271Y96759D01*
X200899Y95131D01*
X200899Y92829D01*
X199271Y91201D01*
X198098Y91201D01*
X198011Y91189D01*
X197924Y91186D01*
X197871Y91169D01*
X197816Y91161D01*
X197736Y91126D01*
X197653Y91099D01*
X197614Y91071D01*
X197557Y91045D01*
X197444Y90949D01*
X197380Y90904D01*
X188644Y82168D01*
X152305Y82168D01*
X152218Y82156D01*
X152130Y82153D01*
X152078Y82136D01*
X152023Y82128D01*
X151943Y82093D01*
X151860Y82066D01*
X151821Y82038D01*
X151764Y82012D01*
X151650Y81916D01*
X151587Y81871D01*
X150757Y81041D01*
X148455Y81041D01*
G37*
%LPD*%
%LPC*%
G36*
X30290Y623935D02*
X30290Y623935D01*
X27157Y625233D01*
X24759Y627631D01*
X23461Y630764D01*
X23461Y634156D01*
X24759Y637289D01*
X27157Y639687D01*
X30290Y640985D01*
X33682Y640985D01*
X36815Y639687D01*
X39213Y637289D01*
X40511Y634156D01*
X40511Y630764D01*
X39213Y627631D01*
X36815Y625233D01*
X33682Y623935D01*
X30290Y623935D01*
G37*
%LPD*%
%LPC*%
G36*
X262290Y623935D02*
X262290Y623935D01*
X259157Y625233D01*
X256759Y627631D01*
X255461Y630764D01*
X255461Y634156D01*
X256759Y637289D01*
X259157Y639687D01*
X262290Y640985D01*
X265682Y640985D01*
X268815Y639687D01*
X271213Y637289D01*
X272511Y634156D01*
X272511Y630764D01*
X271213Y627631D01*
X268815Y625233D01*
X265682Y623935D01*
X262290Y623935D01*
G37*
%LPD*%
%LPC*%
G36*
X190347Y43372D02*
X190347Y43372D01*
X190272Y43447D01*
X190272Y64553D01*
X190347Y64628D01*
X200453Y64628D01*
X200528Y64553D01*
X200528Y43447D01*
X200453Y43372D01*
X190347Y43372D01*
G37*
%LPD*%
%LPC*%
G36*
X193559Y483631D02*
X193559Y483631D01*
X191931Y485259D01*
X191931Y487561D01*
X193559Y489189D01*
X195596Y489189D01*
X195654Y489197D01*
X195712Y489195D01*
X195794Y489217D01*
X195878Y489229D01*
X195931Y489252D01*
X195987Y489267D01*
X196060Y489310D01*
X196137Y489345D01*
X196182Y489383D01*
X196232Y489412D01*
X196290Y489474D01*
X196354Y489528D01*
X196386Y489577D01*
X196426Y489620D01*
X196465Y489695D01*
X196512Y489765D01*
X196529Y489821D01*
X196556Y489873D01*
X196567Y489941D01*
X196597Y490036D01*
X196600Y490136D01*
X196611Y490204D01*
X196611Y492641D01*
X198239Y494269D01*
X200541Y494269D01*
X202169Y492641D01*
X202169Y490204D01*
X202177Y490146D01*
X202175Y490088D01*
X202197Y490006D01*
X202209Y489922D01*
X202232Y489869D01*
X202247Y489813D01*
X202290Y489740D01*
X202325Y489663D01*
X202363Y489618D01*
X202392Y489568D01*
X202454Y489510D01*
X202508Y489446D01*
X202557Y489414D01*
X202600Y489374D01*
X202675Y489335D01*
X202745Y489288D01*
X202801Y489271D01*
X202853Y489244D01*
X202921Y489233D01*
X203016Y489203D01*
X203116Y489200D01*
X203184Y489189D01*
X204486Y489189D01*
X204544Y489197D01*
X204602Y489195D01*
X204684Y489217D01*
X204768Y489229D01*
X204821Y489252D01*
X204877Y489267D01*
X204950Y489310D01*
X205027Y489345D01*
X205072Y489383D01*
X205122Y489412D01*
X205180Y489474D01*
X205244Y489528D01*
X205276Y489577D01*
X205316Y489620D01*
X205355Y489695D01*
X205402Y489765D01*
X205419Y489821D01*
X205446Y489873D01*
X205457Y489941D01*
X205487Y490036D01*
X205490Y490136D01*
X205501Y490204D01*
X205501Y492641D01*
X207129Y494269D01*
X209431Y494269D01*
X211059Y492641D01*
X211059Y491831D01*
X211066Y491782D01*
X211065Y491775D01*
X211067Y491769D01*
X211065Y491714D01*
X211087Y491633D01*
X211099Y491549D01*
X211122Y491496D01*
X211137Y491439D01*
X211180Y491367D01*
X211215Y491290D01*
X211253Y491245D01*
X211282Y491195D01*
X211344Y491137D01*
X211398Y491073D01*
X211447Y491040D01*
X211490Y491000D01*
X211565Y490962D01*
X211635Y490915D01*
X211691Y490897D01*
X211743Y490871D01*
X211811Y490859D01*
X211906Y490829D01*
X212006Y490827D01*
X212074Y490815D01*
X214646Y490815D01*
X214704Y490823D01*
X214762Y490822D01*
X214844Y490843D01*
X214928Y490855D01*
X214981Y490879D01*
X215037Y490894D01*
X215110Y490937D01*
X215187Y490971D01*
X215232Y491009D01*
X215282Y491039D01*
X215340Y491101D01*
X215404Y491155D01*
X215436Y491204D01*
X215476Y491246D01*
X215515Y491321D01*
X215562Y491392D01*
X215579Y491447D01*
X215606Y491499D01*
X215617Y491568D01*
X215647Y491663D01*
X215650Y491762D01*
X215661Y491831D01*
X215661Y492641D01*
X217289Y494269D01*
X219591Y494269D01*
X221219Y492641D01*
X221219Y490339D01*
X219591Y488711D01*
X218333Y488711D01*
X218275Y488703D01*
X218217Y488705D01*
X218135Y488683D01*
X218051Y488671D01*
X217998Y488648D01*
X217942Y488633D01*
X217869Y488590D01*
X217792Y488555D01*
X217747Y488517D01*
X217697Y488488D01*
X217639Y488426D01*
X217575Y488372D01*
X217543Y488323D01*
X217503Y488280D01*
X217464Y488205D01*
X217417Y488135D01*
X217400Y488079D01*
X217373Y488027D01*
X217362Y487959D01*
X217332Y487864D01*
X217329Y487764D01*
X217318Y487696D01*
X217318Y485808D01*
X215244Y483734D01*
X212310Y483734D01*
X210236Y485808D01*
X210236Y487696D01*
X210228Y487754D01*
X210230Y487812D01*
X210208Y487894D01*
X210196Y487978D01*
X210173Y488031D01*
X210158Y488087D01*
X210115Y488160D01*
X210080Y488237D01*
X210042Y488282D01*
X210013Y488332D01*
X209951Y488390D01*
X209897Y488454D01*
X209848Y488486D01*
X209805Y488526D01*
X209730Y488565D01*
X209660Y488612D01*
X209604Y488629D01*
X209552Y488656D01*
X209484Y488667D01*
X209389Y488697D01*
X209289Y488700D01*
X209221Y488711D01*
X207919Y488711D01*
X207861Y488703D01*
X207803Y488705D01*
X207721Y488683D01*
X207637Y488671D01*
X207584Y488648D01*
X207528Y488633D01*
X207455Y488590D01*
X207378Y488555D01*
X207333Y488517D01*
X207283Y488488D01*
X207225Y488426D01*
X207161Y488372D01*
X207129Y488323D01*
X207089Y488280D01*
X207050Y488205D01*
X207003Y488135D01*
X206986Y488079D01*
X206959Y488027D01*
X206948Y487959D01*
X206918Y487864D01*
X206915Y487764D01*
X206904Y487696D01*
X206904Y485259D01*
X205276Y483631D01*
X202974Y483631D01*
X201346Y485259D01*
X201346Y487696D01*
X201338Y487754D01*
X201340Y487812D01*
X201318Y487894D01*
X201306Y487978D01*
X201283Y488031D01*
X201268Y488087D01*
X201225Y488160D01*
X201190Y488237D01*
X201152Y488282D01*
X201123Y488332D01*
X201061Y488390D01*
X201007Y488454D01*
X200958Y488486D01*
X200915Y488526D01*
X200840Y488565D01*
X200770Y488612D01*
X200714Y488629D01*
X200662Y488656D01*
X200594Y488667D01*
X200499Y488697D01*
X200399Y488700D01*
X200331Y488711D01*
X198504Y488711D01*
X198446Y488703D01*
X198388Y488705D01*
X198306Y488683D01*
X198222Y488671D01*
X198169Y488648D01*
X198113Y488633D01*
X198040Y488590D01*
X197963Y488555D01*
X197918Y488517D01*
X197868Y488488D01*
X197810Y488426D01*
X197746Y488372D01*
X197714Y488323D01*
X197674Y488280D01*
X197635Y488205D01*
X197588Y488135D01*
X197571Y488079D01*
X197544Y488027D01*
X197533Y487959D01*
X197503Y487864D01*
X197500Y487764D01*
X197489Y487696D01*
X197489Y485259D01*
X195861Y483631D01*
X193559Y483631D01*
G37*
%LPD*%
%LPC*%
G36*
X104142Y890095D02*
X104142Y890095D01*
X101744Y891089D01*
X99909Y892924D01*
X98915Y895322D01*
X98915Y897918D01*
X99909Y900316D01*
X101744Y902151D01*
X104142Y903145D01*
X106738Y903145D01*
X109136Y902151D01*
X110971Y900316D01*
X111965Y897918D01*
X111965Y895322D01*
X110971Y892924D01*
X109136Y891089D01*
X106738Y890095D01*
X104142Y890095D01*
G37*
%LPD*%
%LPC*%
G36*
X184142Y890095D02*
X184142Y890095D01*
X181744Y891089D01*
X179909Y892924D01*
X178915Y895322D01*
X178915Y897918D01*
X179909Y900316D01*
X181744Y902151D01*
X184142Y903145D01*
X186738Y903145D01*
X189136Y902151D01*
X190971Y900316D01*
X191965Y897918D01*
X191965Y895322D01*
X190971Y892924D01*
X189136Y891089D01*
X186738Y890095D01*
X184142Y890095D01*
G37*
%LPD*%
%LPC*%
G36*
X59103Y20573D02*
X59103Y20573D01*
X56133Y23543D01*
X56133Y25228D01*
X57324Y26418D01*
X58677Y26418D01*
X58735Y26426D01*
X58793Y26425D01*
X58875Y26446D01*
X58959Y26458D01*
X59012Y26482D01*
X59068Y26497D01*
X59141Y26540D01*
X59218Y26574D01*
X59263Y26612D01*
X59313Y26642D01*
X59371Y26704D01*
X59435Y26758D01*
X59467Y26807D01*
X59507Y26849D01*
X59546Y26924D01*
X59593Y26995D01*
X59610Y27050D01*
X59637Y27102D01*
X59648Y27170D01*
X59678Y27266D01*
X59681Y27365D01*
X59692Y27433D01*
X59692Y28456D01*
X59684Y28513D01*
X59686Y28572D01*
X59664Y28654D01*
X59652Y28737D01*
X59629Y28790D01*
X59614Y28847D01*
X59571Y28919D01*
X59536Y28997D01*
X59498Y29041D01*
X59469Y29091D01*
X59407Y29149D01*
X59353Y29214D01*
X59304Y29246D01*
X59261Y29286D01*
X59186Y29324D01*
X59116Y29371D01*
X59060Y29389D01*
X59008Y29415D01*
X58940Y29427D01*
X58845Y29457D01*
X58745Y29459D01*
X58677Y29471D01*
X57324Y29471D01*
X56133Y30662D01*
X56133Y32346D01*
X59103Y35316D01*
X64347Y35316D01*
X65255Y34408D01*
X65835Y33828D01*
X67317Y32346D01*
X67317Y28882D01*
X67097Y28662D01*
X67062Y28616D01*
X67020Y28575D01*
X66977Y28503D01*
X66926Y28435D01*
X66905Y28381D01*
X66876Y28330D01*
X66855Y28248D01*
X66825Y28170D01*
X66820Y28111D01*
X66806Y28055D01*
X66808Y27971D01*
X66801Y27886D01*
X66813Y27829D01*
X66815Y27770D01*
X66841Y27690D01*
X66857Y27608D01*
X66884Y27556D01*
X66902Y27500D01*
X66942Y27444D01*
X66988Y27355D01*
X67033Y27308D01*
X67046Y27286D01*
X67072Y27262D01*
X67097Y27227D01*
X67317Y27007D01*
X67317Y23543D01*
X64347Y20573D01*
X59103Y20573D01*
G37*
%LPD*%
%LPC*%
G36*
X105951Y325373D02*
X105951Y325373D01*
X103123Y328201D01*
X103123Y332199D01*
X105951Y335027D01*
X109949Y335027D01*
X112777Y332199D01*
X112777Y328201D01*
X109949Y325373D01*
X105951Y325373D01*
G37*
%LPD*%
%LPC*%
G36*
X93251Y325373D02*
X93251Y325373D01*
X90423Y328201D01*
X90423Y332199D01*
X93251Y335027D01*
X97249Y335027D01*
X100077Y332199D01*
X100077Y328201D01*
X97249Y325373D01*
X93251Y325373D01*
G37*
%LPD*%
%LPC*%
G36*
X105951Y312673D02*
X105951Y312673D01*
X103123Y315501D01*
X103123Y319499D01*
X105951Y322327D01*
X109949Y322327D01*
X112777Y319499D01*
X112777Y315501D01*
X109949Y312673D01*
X105951Y312673D01*
G37*
%LPD*%
%LPC*%
G36*
X93251Y312673D02*
X93251Y312673D01*
X90423Y315501D01*
X90423Y319499D01*
X93251Y322327D01*
X97249Y322327D01*
X100077Y319499D01*
X100077Y315501D01*
X97249Y312673D01*
X93251Y312673D01*
G37*
%LPD*%
%LPC*%
G36*
X105951Y350773D02*
X105951Y350773D01*
X103123Y353601D01*
X103123Y357599D01*
X105951Y360427D01*
X109949Y360427D01*
X112777Y357599D01*
X112777Y353601D01*
X109949Y350773D01*
X105951Y350773D01*
G37*
%LPD*%
%LPC*%
G36*
X93251Y338073D02*
X93251Y338073D01*
X90423Y340901D01*
X90423Y344899D01*
X93251Y347727D01*
X97249Y347727D01*
X100077Y344899D01*
X100077Y340901D01*
X97249Y338073D01*
X93251Y338073D01*
G37*
%LPD*%
%LPC*%
G36*
X105951Y338073D02*
X105951Y338073D01*
X103123Y340901D01*
X103123Y344899D01*
X105951Y347727D01*
X109949Y347727D01*
X112777Y344899D01*
X112777Y340901D01*
X109949Y338073D01*
X105951Y338073D01*
G37*
%LPD*%
%LPC*%
G36*
X121522Y44275D02*
X121522Y44275D01*
X118725Y47072D01*
X118725Y51028D01*
X121522Y53825D01*
X125478Y53825D01*
X128275Y51028D01*
X128275Y47072D01*
X125478Y44275D01*
X121522Y44275D01*
G37*
%LPD*%
%LPC*%
G36*
X179322Y44275D02*
X179322Y44275D01*
X176525Y47072D01*
X176525Y51028D01*
X179322Y53825D01*
X183278Y53825D01*
X186075Y51028D01*
X186075Y47072D01*
X183278Y44275D01*
X179322Y44275D01*
G37*
%LPD*%
%LPC*%
G36*
X256031Y167131D02*
X256031Y167131D01*
X256031Y175066D01*
X256379Y175011D01*
X257900Y174516D01*
X259325Y173790D01*
X260619Y172850D01*
X261750Y171719D01*
X262690Y170425D01*
X263416Y169000D01*
X263911Y167479D01*
X263966Y167131D01*
X256031Y167131D01*
G37*
%LPD*%
%LPC*%
G36*
X244034Y167131D02*
X244034Y167131D01*
X244089Y167479D01*
X244584Y169000D01*
X245310Y170425D01*
X246250Y171719D01*
X247381Y172850D01*
X248675Y173790D01*
X250100Y174516D01*
X251621Y175011D01*
X251969Y175066D01*
X251969Y167131D01*
X244034Y167131D01*
G37*
%LPD*%
%LPC*%
G36*
X256031Y163069D02*
X256031Y163069D01*
X263966Y163069D01*
X263911Y162721D01*
X263416Y161200D01*
X262690Y159775D01*
X261750Y158481D01*
X260619Y157350D01*
X259325Y156410D01*
X257900Y155684D01*
X256379Y155189D01*
X256031Y155134D01*
X256031Y163069D01*
G37*
%LPD*%
%LPC*%
G36*
X251621Y155189D02*
X251621Y155189D01*
X250100Y155684D01*
X248675Y156410D01*
X247381Y157350D01*
X246250Y158481D01*
X245310Y159775D01*
X244584Y161200D01*
X244089Y162721D01*
X244034Y163069D01*
X251969Y163069D01*
X251969Y155134D01*
X251621Y155189D01*
G37*
%LPD*%
%LPC*%
G36*
X233609Y772221D02*
X233609Y772221D01*
X231981Y773849D01*
X231981Y776151D01*
X233609Y777779D01*
X235911Y777779D01*
X237539Y776151D01*
X237539Y773849D01*
X235911Y772221D01*
X233609Y772221D01*
G37*
%LPD*%
%LPC*%
G36*
X236309Y746221D02*
X236309Y746221D01*
X234681Y747849D01*
X234681Y750151D01*
X236309Y751779D01*
X238611Y751779D01*
X240239Y750151D01*
X240239Y747849D01*
X238611Y746221D01*
X236309Y746221D01*
G37*
%LPD*%
%LPC*%
G36*
X184729Y730011D02*
X184729Y730011D01*
X183101Y731639D01*
X183101Y733941D01*
X184729Y735569D01*
X187031Y735569D01*
X188659Y733941D01*
X188659Y731639D01*
X187031Y730011D01*
X184729Y730011D01*
G37*
%LPD*%
%LPC*%
G36*
X101129Y722491D02*
X101129Y722491D01*
X99501Y724119D01*
X99501Y726421D01*
X101129Y728049D01*
X103431Y728049D01*
X105059Y726421D01*
X105059Y724119D01*
X103431Y722491D01*
X101129Y722491D01*
G37*
%LPD*%
%LPC*%
G36*
X225898Y670321D02*
X225898Y670321D01*
X224270Y671949D01*
X224270Y674251D01*
X225898Y675879D01*
X228200Y675879D01*
X229828Y674251D01*
X229828Y671949D01*
X228200Y670321D01*
X225898Y670321D01*
G37*
%LPD*%
%LPC*%
G36*
X71239Y638571D02*
X71239Y638571D01*
X69611Y640199D01*
X69611Y642501D01*
X71239Y644129D01*
X73541Y644129D01*
X75169Y642501D01*
X75169Y640199D01*
X73541Y638571D01*
X71239Y638571D01*
G37*
%LPD*%
%LPC*%
G36*
X104669Y597431D02*
X104669Y597431D01*
X103041Y599059D01*
X103041Y601361D01*
X104669Y602989D01*
X106971Y602989D01*
X108599Y601361D01*
X108599Y599059D01*
X106971Y597431D01*
X104669Y597431D01*
G37*
%LPD*%
%LPC*%
G36*
X194429Y573801D02*
X194429Y573801D01*
X192801Y575429D01*
X192801Y577731D01*
X194429Y579359D01*
X196731Y579359D01*
X198359Y577731D01*
X198359Y575429D01*
X196731Y573801D01*
X194429Y573801D01*
G37*
%LPD*%
%LPC*%
G36*
X184729Y573710D02*
X184729Y573710D01*
X183101Y575338D01*
X183101Y577640D01*
X184729Y579268D01*
X187031Y579268D01*
X188659Y577640D01*
X188659Y575338D01*
X187031Y573710D01*
X184729Y573710D01*
G37*
%LPD*%
%LPC*%
G36*
X160807Y558909D02*
X160807Y558909D01*
X159179Y560537D01*
X159179Y562839D01*
X160807Y564467D01*
X163109Y564467D01*
X164737Y562839D01*
X164737Y560537D01*
X163109Y558909D01*
X160807Y558909D01*
G37*
%LPD*%
%LPC*%
G36*
X227449Y492521D02*
X227449Y492521D01*
X225821Y494149D01*
X225821Y496451D01*
X227449Y498079D01*
X229751Y498079D01*
X231379Y496451D01*
X231379Y494149D01*
X229751Y492521D01*
X227449Y492521D01*
G37*
%LPD*%
%LPC*%
G36*
X114959Y481281D02*
X114959Y481281D01*
X113331Y482909D01*
X113331Y485211D01*
X114959Y486839D01*
X117261Y486839D01*
X118889Y485211D01*
X118889Y482909D01*
X117261Y481281D01*
X114959Y481281D01*
G37*
%LPD*%
%LPC*%
G36*
X123309Y472201D02*
X123309Y472201D01*
X121681Y473829D01*
X121681Y476131D01*
X123309Y477759D01*
X125611Y477759D01*
X127239Y476131D01*
X127239Y473829D01*
X125611Y472201D01*
X123309Y472201D01*
G37*
%LPD*%
%LPC*%
G36*
X294579Y468091D02*
X294579Y468091D01*
X292951Y469719D01*
X292951Y472021D01*
X294579Y473649D01*
X296881Y473649D01*
X298509Y472021D01*
X298509Y469719D01*
X296881Y468091D01*
X294579Y468091D01*
G37*
%LPD*%
%LPC*%
G36*
X180459Y357901D02*
X180459Y357901D01*
X178831Y359529D01*
X178831Y361831D01*
X180459Y363459D01*
X182761Y363459D01*
X184389Y361831D01*
X184389Y359529D01*
X182761Y357901D01*
X180459Y357901D01*
G37*
%LPD*%
%LPC*%
G36*
X85209Y346725D02*
X85209Y346725D01*
X83581Y348353D01*
X83581Y350655D01*
X85209Y352283D01*
X87511Y352283D01*
X89139Y350655D01*
X89139Y348353D01*
X87511Y346725D01*
X85209Y346725D01*
G37*
%LPD*%
%LPC*%
G36*
X262089Y352345D02*
X262089Y352345D01*
X260461Y353973D01*
X260461Y356275D01*
X262089Y357903D01*
X264391Y357903D01*
X266019Y356275D01*
X266019Y353973D01*
X264391Y352345D01*
X262089Y352345D01*
G37*
%LPD*%
%LPC*%
G36*
X68699Y314721D02*
X68699Y314721D01*
X67071Y316349D01*
X67071Y318651D01*
X68699Y320279D01*
X71001Y320279D01*
X72629Y318651D01*
X72629Y316349D01*
X71001Y314721D01*
X68699Y314721D01*
G37*
%LPD*%
%LPC*%
G36*
X105529Y296941D02*
X105529Y296941D01*
X103901Y298569D01*
X103901Y300871D01*
X105529Y302499D01*
X107831Y302499D01*
X109459Y300871D01*
X109459Y298569D01*
X107831Y296941D01*
X105529Y296941D01*
G37*
%LPD*%
%LPC*%
G36*
X137533Y365013D02*
X137533Y365013D01*
X135905Y366641D01*
X135905Y368943D01*
X137533Y370571D01*
X139835Y370571D01*
X141463Y368943D01*
X141463Y366641D01*
X139835Y365013D01*
X137533Y365013D01*
G37*
%LPD*%
%LPC*%
G36*
X180459Y367045D02*
X180459Y367045D01*
X178831Y368673D01*
X178831Y370975D01*
X180459Y372603D01*
X182761Y372603D01*
X184389Y370975D01*
X184389Y368673D01*
X182761Y367045D01*
X180459Y367045D01*
G37*
%LPD*%
%LPC*%
G36*
X97909Y293941D02*
X97909Y293941D01*
X96281Y295569D01*
X96281Y297871D01*
X97909Y299499D01*
X100211Y299499D01*
X101839Y297871D01*
X101839Y295569D01*
X100211Y293941D01*
X97909Y293941D01*
G37*
%LPD*%
%LPC*%
G36*
X185285Y283225D02*
X185285Y283225D01*
X183657Y284853D01*
X183657Y287155D01*
X185285Y288783D01*
X187587Y288783D01*
X189215Y287155D01*
X189215Y284853D01*
X187587Y283225D01*
X185285Y283225D01*
G37*
%LPD*%
%LPC*%
G36*
X91559Y280891D02*
X91559Y280891D01*
X89931Y282519D01*
X89931Y284821D01*
X91559Y286449D01*
X93861Y286449D01*
X95489Y284821D01*
X95489Y282519D01*
X93861Y280891D01*
X91559Y280891D01*
G37*
%LPD*%
%LPC*%
G36*
X110609Y276621D02*
X110609Y276621D01*
X108981Y278249D01*
X108981Y280551D01*
X110609Y282179D01*
X112911Y282179D01*
X114539Y280551D01*
X114539Y278249D01*
X112911Y276621D01*
X110609Y276621D01*
G37*
%LPD*%
%LPC*%
G36*
X272375Y379629D02*
X272375Y379629D01*
X270747Y381257D01*
X270747Y383559D01*
X272375Y385187D01*
X274677Y385187D01*
X276305Y383559D01*
X276305Y381257D01*
X274677Y379629D01*
X272375Y379629D01*
G37*
%LPD*%
%LPC*%
G36*
X277265Y267447D02*
X277265Y267447D01*
X275637Y269075D01*
X275637Y271377D01*
X277265Y273005D01*
X279567Y273005D01*
X281195Y271377D01*
X281195Y269075D01*
X279567Y267447D01*
X277265Y267447D01*
G37*
%LPD*%
%LPC*%
G36*
X116959Y246395D02*
X116959Y246395D01*
X115331Y248023D01*
X115331Y250325D01*
X116959Y251953D01*
X119261Y251953D01*
X120889Y250325D01*
X120889Y248023D01*
X119261Y246395D01*
X116959Y246395D01*
G37*
%LPD*%
%LPC*%
G36*
X180459Y245125D02*
X180459Y245125D01*
X178831Y246753D01*
X178831Y249055D01*
X180459Y250683D01*
X182761Y250683D01*
X184389Y249055D01*
X184389Y246753D01*
X182761Y245125D01*
X180459Y245125D01*
G37*
%LPD*%
%LPC*%
G36*
X193159Y389651D02*
X193159Y389651D01*
X191531Y391279D01*
X191531Y393581D01*
X193159Y395209D01*
X195461Y395209D01*
X197089Y393581D01*
X197089Y391279D01*
X195461Y389651D01*
X193159Y389651D01*
G37*
%LPD*%
%LPC*%
G36*
X36949Y398795D02*
X36949Y398795D01*
X35321Y400423D01*
X35321Y402725D01*
X36949Y404353D01*
X39251Y404353D01*
X40879Y402725D01*
X40879Y400423D01*
X39251Y398795D01*
X36949Y398795D01*
G37*
%LPD*%
%LPC*%
G36*
X227449Y390921D02*
X227449Y390921D01*
X225821Y392549D01*
X225821Y394851D01*
X227449Y396479D01*
X229751Y396479D01*
X231379Y394851D01*
X231379Y392549D01*
X229751Y390921D01*
X227449Y390921D01*
G37*
%LPD*%
%LPC*%
G36*
X167759Y223535D02*
X167759Y223535D01*
X166131Y225163D01*
X166131Y227465D01*
X167759Y229093D01*
X170061Y229093D01*
X171689Y227465D01*
X171689Y225163D01*
X170061Y223535D01*
X167759Y223535D01*
G37*
%LPD*%
%LPC*%
G36*
X169029Y407431D02*
X169029Y407431D01*
X167401Y409059D01*
X167401Y411361D01*
X169029Y412989D01*
X171331Y412989D01*
X172959Y411361D01*
X172959Y409059D01*
X171331Y407431D01*
X169029Y407431D01*
G37*
%LPD*%
%LPC*%
G36*
X188079Y200675D02*
X188079Y200675D01*
X186451Y202303D01*
X186451Y204605D01*
X188079Y206233D01*
X190381Y206233D01*
X192009Y204605D01*
X192009Y202303D01*
X190381Y200675D01*
X188079Y200675D01*
G37*
%LPD*%
%LPC*%
G36*
X166489Y200675D02*
X166489Y200675D01*
X164861Y202303D01*
X164861Y204605D01*
X166489Y206233D01*
X168791Y206233D01*
X170419Y204605D01*
X170419Y202303D01*
X168791Y200675D01*
X166489Y200675D01*
G37*
%LPD*%
%LPC*%
G36*
X156329Y417591D02*
X156329Y417591D01*
X154701Y419219D01*
X154701Y421521D01*
X156329Y423149D01*
X158631Y423149D01*
X160259Y421521D01*
X160259Y419219D01*
X158631Y417591D01*
X156329Y417591D01*
G37*
%LPD*%
%LPC*%
G36*
X170299Y417591D02*
X170299Y417591D01*
X168671Y419219D01*
X168671Y421521D01*
X170299Y423149D01*
X172601Y423149D01*
X174229Y421521D01*
X174229Y419219D01*
X172601Y417591D01*
X170299Y417591D01*
G37*
%LPD*%
%LPC*%
G36*
X184269Y182895D02*
X184269Y182895D01*
X182641Y184523D01*
X182641Y186825D01*
X184269Y188453D01*
X186571Y188453D01*
X188199Y186825D01*
X188199Y184523D01*
X186571Y182895D01*
X184269Y182895D01*
G37*
%LPD*%
%LPC*%
G36*
X39489Y175275D02*
X39489Y175275D01*
X37861Y176903D01*
X37861Y179205D01*
X39489Y180833D01*
X41791Y180833D01*
X43419Y179205D01*
X43419Y176903D01*
X41791Y175275D01*
X39489Y175275D01*
G37*
%LPD*%
%LPC*%
G36*
X287689Y225441D02*
X287689Y225441D01*
X286061Y227069D01*
X286061Y229371D01*
X287689Y230999D01*
X289991Y230999D01*
X291619Y229371D01*
X291619Y227069D01*
X289991Y225441D01*
X287689Y225441D01*
G37*
%LPD*%
%LPC*%
G36*
X39489Y167655D02*
X39489Y167655D01*
X37861Y169283D01*
X37861Y171585D01*
X39489Y173213D01*
X41791Y173213D01*
X43419Y171585D01*
X43419Y169283D01*
X41791Y167655D01*
X39489Y167655D01*
G37*
%LPD*%
%LPC*%
G36*
X39489Y160035D02*
X39489Y160035D01*
X37861Y161663D01*
X37861Y163965D01*
X39489Y165593D01*
X41791Y165593D01*
X43419Y163965D01*
X43419Y161663D01*
X41791Y160035D01*
X39489Y160035D01*
G37*
%LPD*%
%LPC*%
G36*
X240149Y825721D02*
X240149Y825721D01*
X238521Y827349D01*
X238521Y829651D01*
X240149Y831279D01*
X242451Y831279D01*
X244079Y829651D01*
X244079Y827349D01*
X242451Y825721D01*
X240149Y825721D01*
G37*
%LPD*%
%LPC*%
G36*
X76159Y816371D02*
X76159Y816371D01*
X74531Y817999D01*
X74531Y820301D01*
X76159Y821929D01*
X78461Y821929D01*
X80089Y820301D01*
X80089Y817999D01*
X78461Y816371D01*
X76159Y816371D01*
G37*
%LPD*%
%LPC*%
G36*
X144899Y417591D02*
X144899Y417591D01*
X143271Y419219D01*
X143271Y421521D01*
X144899Y423149D01*
X147201Y423149D01*
X148829Y421521D01*
X148829Y419219D01*
X147201Y417591D01*
X144899Y417591D01*
G37*
%LPD*%
%LPC*%
G36*
X34409Y115585D02*
X34409Y115585D01*
X32781Y117213D01*
X32781Y119515D01*
X34409Y121143D01*
X36711Y121143D01*
X38339Y119515D01*
X38339Y117213D01*
X36711Y115585D01*
X34409Y115585D01*
G37*
%LPD*%
%LPC*%
G36*
X25519Y106695D02*
X25519Y106695D01*
X23891Y108323D01*
X23891Y110625D01*
X25519Y112253D01*
X27821Y112253D01*
X29449Y110625D01*
X29449Y108323D01*
X27821Y106695D01*
X25519Y106695D01*
G37*
%LPD*%
%LPC*%
G36*
X34409Y106695D02*
X34409Y106695D01*
X32781Y108323D01*
X32781Y110625D01*
X34409Y112253D01*
X36711Y112253D01*
X38339Y110625D01*
X38339Y108323D01*
X36711Y106695D01*
X34409Y106695D01*
G37*
%LPD*%
%LPC*%
G36*
X144899Y441721D02*
X144899Y441721D01*
X143271Y443349D01*
X143271Y445651D01*
X144899Y447279D01*
X147201Y447279D01*
X148829Y445651D01*
X148829Y443349D01*
X147201Y441721D01*
X144899Y441721D01*
G37*
%LPD*%
%LPC*%
G36*
X166489Y190921D02*
X166489Y190921D01*
X164861Y192549D01*
X164861Y194851D01*
X166489Y196479D01*
X168791Y196479D01*
X170419Y194851D01*
X170419Y192549D01*
X168791Y190921D01*
X166489Y190921D01*
G37*
%LPD*%
%LPC*%
G36*
X34409Y75961D02*
X34409Y75961D01*
X32781Y77589D01*
X32781Y79891D01*
X34409Y81519D01*
X36711Y81519D01*
X38339Y79891D01*
X38339Y77589D01*
X36711Y75961D01*
X34409Y75961D01*
G37*
%LPD*%
%LPC*%
G36*
X279678Y442721D02*
X279678Y442721D01*
X278050Y444349D01*
X278050Y446651D01*
X279678Y448279D01*
X281980Y448279D01*
X283608Y446651D01*
X283608Y444349D01*
X281980Y442721D01*
X279678Y442721D01*
G37*
%LPD*%
%LPC*%
G36*
X182999Y69865D02*
X182999Y69865D01*
X181371Y71493D01*
X181371Y73795D01*
X182999Y75423D01*
X185301Y75423D01*
X186929Y73795D01*
X186929Y71493D01*
X185301Y69865D01*
X182999Y69865D01*
G37*
%LPD*%
%LPC*%
G36*
X156329Y442991D02*
X156329Y442991D01*
X154701Y444619D01*
X154701Y446921D01*
X156329Y448549D01*
X158631Y448549D01*
X160259Y446921D01*
X160259Y444619D01*
X158631Y442991D01*
X156329Y442991D01*
G37*
%LPD*%
%LPC*%
G36*
X208399Y60721D02*
X208399Y60721D01*
X206771Y62349D01*
X206771Y64651D01*
X208399Y66279D01*
X210701Y66279D01*
X212329Y64651D01*
X212329Y62349D01*
X210701Y60721D01*
X208399Y60721D01*
G37*
%LPD*%
%LPC*%
G36*
X112895Y444769D02*
X112895Y444769D01*
X111267Y446397D01*
X111267Y448699D01*
X112895Y450327D01*
X115197Y450327D01*
X116825Y448699D01*
X116825Y446397D01*
X115197Y444769D01*
X112895Y444769D01*
G37*
%LPD*%
%LPC*%
G36*
X96639Y49545D02*
X96639Y49545D01*
X95011Y51173D01*
X95011Y53475D01*
X96639Y55103D01*
X98941Y55103D01*
X100569Y53475D01*
X100569Y51173D01*
X98941Y49545D01*
X96639Y49545D01*
G37*
%LPD*%
%LPC*%
G36*
X58239Y797321D02*
X58239Y797321D01*
X56611Y798949D01*
X56611Y801251D01*
X58239Y802879D01*
X60541Y802879D01*
X62169Y801251D01*
X62169Y798949D01*
X60541Y797321D01*
X58239Y797321D01*
G37*
%LPD*%
%LPC*%
G36*
X65589Y785511D02*
X65589Y785511D01*
X63961Y787139D01*
X63961Y789441D01*
X65589Y791069D01*
X67891Y791069D01*
X69519Y789441D01*
X69519Y787139D01*
X67891Y785511D01*
X65589Y785511D01*
G37*
%LPD*%
%LPC*%
G36*
X205859Y47005D02*
X205859Y47005D01*
X204231Y48633D01*
X204231Y50935D01*
X205859Y52563D01*
X208161Y52563D01*
X209789Y50935D01*
X209789Y48633D01*
X208161Y47005D01*
X205859Y47005D01*
G37*
%LPD*%
%LPC*%
G36*
X86479Y38115D02*
X86479Y38115D01*
X84851Y39743D01*
X84851Y42045D01*
X86479Y43673D01*
X88781Y43673D01*
X90409Y42045D01*
X90409Y39743D01*
X88781Y38115D01*
X86479Y38115D01*
G37*
%LPD*%
%LPC*%
G36*
X242689Y454421D02*
X242689Y454421D01*
X241061Y456049D01*
X241061Y458351D01*
X242689Y459979D01*
X244991Y459979D01*
X246619Y458351D01*
X246619Y456049D01*
X244991Y454421D01*
X242689Y454421D01*
G37*
%LPD*%
%LPC*%
G36*
X64889Y463311D02*
X64889Y463311D01*
X63261Y464939D01*
X63261Y467241D01*
X64889Y468869D01*
X67191Y468869D01*
X68819Y467241D01*
X68819Y464939D01*
X67191Y463311D01*
X64889Y463311D01*
G37*
%LPD*%
%LPC*%
G36*
X216019Y36845D02*
X216019Y36845D01*
X214391Y38473D01*
X214391Y40775D01*
X216019Y42403D01*
X218321Y42403D01*
X219949Y40775D01*
X219949Y38473D01*
X218321Y36845D01*
X216019Y36845D01*
G37*
%LPD*%
%LPC*%
G36*
X34409Y86121D02*
X34409Y86121D01*
X32781Y87749D01*
X32781Y90051D01*
X34409Y91679D01*
X36711Y91679D01*
X38339Y90051D01*
X38339Y87749D01*
X36711Y86121D01*
X34409Y86121D01*
G37*
%LPD*%
%LPC*%
G36*
X89027Y369569D02*
X89027Y369569D01*
X89143Y370152D01*
X89622Y371308D01*
X90317Y372348D01*
X91202Y373233D01*
X92242Y373928D01*
X93398Y374407D01*
X93981Y374523D01*
X93981Y369569D01*
X89027Y369569D01*
G37*
%LPD*%
%LPC*%
G36*
X253999Y165099D02*
X253999Y165099D01*
X253999Y165101D01*
X254001Y165101D01*
X254001Y165099D01*
X253999Y165099D01*
G37*
%LPD*%
D10*
X58166Y31504D02*
X59946Y33283D01*
X63505Y33283D01*
X65284Y31504D01*
X65284Y29724D01*
X63505Y27945D01*
X61725Y27945D01*
X63505Y27945D02*
X65284Y26165D01*
X65284Y24386D01*
X63505Y22606D01*
X59946Y22606D01*
X58166Y24386D01*
D11*
X254000Y139700D03*
X254000Y165100D03*
X254000Y190500D03*
X254000Y215900D03*
X254000Y241300D03*
X254000Y266700D03*
X254000Y292100D03*
X254000Y317500D03*
X254000Y342900D03*
X254000Y368300D03*
X254000Y393700D03*
X254000Y419100D03*
X254000Y444500D03*
X254000Y469900D03*
X254000Y495300D03*
X254000Y520700D03*
X50800Y241300D03*
X50800Y266700D03*
X50800Y292100D03*
X50800Y317500D03*
X50800Y342900D03*
X50800Y368300D03*
X50800Y393700D03*
X50800Y419100D03*
X50800Y444500D03*
X50800Y469900D03*
X50800Y495300D03*
X50800Y520700D03*
D12*
X107950Y330200D03*
X107950Y342900D03*
X107950Y355600D03*
X107950Y368300D03*
X107950Y317500D03*
X95250Y330200D03*
X95250Y342900D03*
X95250Y355600D03*
X95250Y368300D03*
X95250Y317500D03*
D13*
X148844Y478790D03*
X184750Y478790D03*
X148750Y384810D03*
X35560Y99060D03*
X134620Y95250D03*
X143250Y532130D03*
X211963Y425323D03*
X204470Y398705D03*
X127000Y361950D03*
X186436Y295402D03*
X165481Y505333D03*
X104902Y410210D03*
X215900Y203200D03*
X202093Y424942D03*
X223520Y469809D03*
X44450Y673100D03*
X145000Y777000D03*
X233807Y76200D03*
X224790Y565150D03*
X104140Y422910D03*
X170180Y410210D03*
X133350Y435610D03*
X114300Y464820D03*
X228600Y495300D03*
X243840Y457200D03*
X194310Y392430D03*
X228600Y393700D03*
X138684Y367792D03*
X273526Y382408D03*
X243570Y435594D03*
X164878Y524510D03*
X161958Y561688D03*
X38100Y401574D03*
X114046Y447548D03*
X278416Y270226D03*
X181610Y247904D03*
X263240Y355124D03*
X181610Y369824D03*
X86360Y349504D03*
X118110Y249174D03*
X111760Y279400D03*
X189230Y203454D03*
X167640Y203454D03*
X185420Y185674D03*
X66040Y466090D03*
X92710Y283670D03*
X168910Y226314D03*
X185420Y133604D03*
X35560Y109474D03*
X26670Y109474D03*
X35560Y118364D03*
X40640Y170434D03*
X40640Y178054D03*
X40640Y162814D03*
X113030Y68834D03*
X184150Y72644D03*
X87630Y40894D03*
X217170Y39624D03*
X207010Y49784D03*
X97790Y52324D03*
X132080Y281940D03*
X146050Y420370D03*
X146050Y444500D03*
X171450Y439420D03*
X171450Y420370D03*
X157480Y420370D03*
X157480Y434340D03*
X157480Y445770D03*
X133350Y271780D03*
X176530Y72390D03*
X175260Y133350D03*
X128270Y72390D03*
D14*
X128270Y71120D01*
X175260Y71120D01*
X176530Y72390D01*
D13*
X288840Y228220D03*
X227049Y673100D03*
X170180Y274320D03*
D14*
X167640Y276860D01*
X120520Y276860D01*
X109090Y265430D02*
X93980Y265430D01*
X109090Y265430D02*
X120520Y276860D01*
D13*
X93980Y265430D03*
X167640Y193700D03*
X194710Y486410D03*
X181610Y360680D03*
X213777Y487275D03*
X223520Y322580D03*
D15*
X118110Y322580D01*
D13*
X118110Y322580D03*
X208280Y491490D03*
X223520Y311150D03*
D15*
X121920Y311150D01*
X118110Y314960D01*
D13*
X118110Y314960D03*
X218440Y491490D03*
X224445Y335280D03*
D15*
X118110Y335280D01*
D13*
X118110Y335280D03*
X199390Y491490D03*
X208280Y328930D03*
D15*
X189230Y328930D01*
D13*
X189230Y328930D03*
X204125Y486410D03*
X209550Y316230D03*
D15*
X189230Y316230D01*
D13*
X189230Y316230D03*
D15*
X127000Y139700D02*
X254000Y139700D01*
D13*
X127000Y139700D03*
X136100Y416163D03*
X133350Y422910D03*
X133350Y454660D03*
X124460Y474980D03*
X133350Y448185D03*
X125000Y519970D03*
D15*
X170260Y519970D02*
X170990Y520700D01*
X170260Y519970D02*
X125000Y519970D01*
D13*
X170990Y520700D03*
X241300Y828500D03*
X298160Y242300D03*
X116110Y484060D03*
X129080Y512350D03*
D15*
X172690Y512350D02*
X174690Y514350D01*
X172690Y512350D02*
X129080Y512350D01*
D13*
X174690Y514350D03*
X165100Y89825D03*
X159020Y77180D03*
X184150Y418185D03*
X184150Y423955D03*
X184150Y430530D03*
D10*
X182880Y429260D01*
X133350Y429260D01*
D13*
X133350Y429260D03*
X239903Y427355D03*
X182880Y458815D03*
X237460Y749000D03*
X182880Y453045D03*
X234760Y775000D03*
X295730Y470870D03*
D15*
X254000Y393700D02*
X216550Y431150D01*
X191150Y431150D01*
X185150Y437150D01*
X178150Y437150D01*
D13*
X178150Y437150D03*
X170180Y453390D03*
D15*
X173720Y453390D01*
X186293Y440817D02*
X232475Y440817D01*
X254000Y419292D02*
X254000Y419100D01*
X254000Y419292D02*
X232475Y440817D01*
X186293Y440817D02*
X173720Y453390D01*
D13*
X163830Y457200D03*
X280829Y445500D03*
X35560Y88900D03*
X99060Y296720D03*
X154020Y482790D03*
D15*
X143860Y482790D01*
X106000Y520650D01*
X106000Y520700D01*
X50800Y520700D01*
D13*
X105820Y600210D03*
X106000Y520700D03*
X35560Y78740D03*
X106680Y299720D03*
X161290Y410210D03*
X156608Y458072D03*
D15*
X155338Y459342D01*
X98028Y459342D01*
X62070Y495300D01*
X50800Y495300D01*
D13*
X102280Y725270D03*
X114300Y398780D03*
X69850Y317500D03*
X77310Y819150D03*
D15*
X114300Y398780D02*
X111300Y395780D01*
X76850Y395780D01*
D13*
X76850Y395780D03*
X120650Y401900D03*
X66740Y788290D03*
D15*
X118357Y404193D02*
X120650Y401900D01*
X118357Y404193D02*
X85258Y404193D01*
D13*
X71824Y400759D03*
D15*
X81824Y400759D02*
X85258Y404193D01*
X81824Y400759D02*
X71824Y400759D01*
D13*
X140970Y383540D03*
D15*
X137160Y387350D01*
X69850Y387350D01*
X50800Y368300D01*
D13*
X140970Y389890D03*
D15*
X54610Y389890D01*
X50800Y393700D01*
D13*
X140595Y406563D03*
X63500Y406400D03*
D15*
X140511Y406479D02*
X140595Y406563D01*
X140511Y406479D02*
X63579Y406479D01*
X63500Y406400D01*
D13*
X148590Y408595D03*
D15*
X146975Y410210D01*
X128488Y410210D02*
X110708Y427990D01*
X128488Y410210D02*
X146975Y410210D01*
X67310Y427990D02*
X50800Y444500D01*
X67310Y427990D02*
X110708Y427990D01*
D13*
X154940Y412750D03*
D15*
X129540Y412750D01*
X68580Y430530D02*
X66040Y433070D01*
X66040Y454660D01*
X50800Y469900D01*
X111760Y430530D02*
X129540Y412750D01*
X111760Y430530D02*
X68580Y430530D01*
D13*
X170000Y540000D03*
D15*
X234700Y540000D01*
X254000Y520700D01*
D13*
X149606Y83820D03*
D15*
X187960Y83820D01*
X198120Y93980D01*
D13*
X198120Y93980D03*
X186436Y286004D03*
X59390Y800100D03*
X72390Y641350D03*
X185880Y576489D03*
X185880Y732790D03*
X195580Y576580D03*
X209550Y63500D03*
M02*
