M48
;GenerationSoftware,Autodesk,EAGLE,9.6.2*%
;CreationDate,2021-12-15T14:59:41Z*%
FMAT,2
ICI,OFF
METRIC,TZ,000.000
T7C0.200
T6C0.508
T5C0.650
T4C1.000
T3C1.016
T2C1.400
T1C3.302
%
G90
M71
T1
X151892Y91440
X2540Y91440
X27940Y91440
X27940Y2540
X2540Y2540
X95504Y91440
X120904Y91440
X120904Y2540
X33528Y91440
X58928Y91440
X58928Y2540
X33528Y2540
X95504Y2540
X151892Y2540
X126492Y2540
X64516Y91440
X89916Y91440
X89916Y2540
X64516Y2540
X126492Y91440
T2
X65175Y63246
X88375Y63246
X3199Y63246
X26399Y63246
X127151Y63246
X34187Y63246
X57387Y63246
X150351Y63246
X96163Y63246
X119363Y63246
T3
X36068Y46990
X98044Y39370
X98044Y41910
X98044Y44450
X98044Y46990
X98044Y49530
X98044Y52070
X149352Y13970
X149352Y16510
X149352Y19050
X149352Y21590
X149352Y24130
X149352Y26670
X25400Y34290
X149352Y29210
X149352Y31750
X149352Y34290
X149352Y36830
X149352Y39370
X149352Y41910
X149352Y44450
X149352Y46990
X25400Y13970
X25400Y16510
X25400Y19050
X25400Y21590
X25400Y24130
X25400Y26670
X25400Y29210
X25400Y31750
X149352Y49530
X25400Y36830
X25400Y39370
X25400Y41910
X25400Y44450
X25400Y46990
X25400Y49530
X25400Y52070
X5080Y24130
X5080Y26670
X5080Y29210
X5080Y31750
X5080Y34290
X5080Y36830
X5080Y39370
X5080Y41910
X5080Y44450
X5080Y46990
X5080Y49530
X5080Y52070
X149352Y52070
X129032Y24130
X129032Y26670
X129032Y29210
X129032Y31750
X129032Y34290
X129032Y36830
X129032Y39370
X129032Y41910
X129032Y44450
X56388Y13970
X56388Y16510
X56388Y19050
X56388Y21590
X56388Y24130
X56388Y26670
X56388Y29210
X56388Y31750
X56388Y34290
X56388Y36830
X56388Y39370
X56388Y41910
X56388Y44450
X56388Y46990
X56388Y49530
X56388Y52070
X36068Y24130
X36068Y26670
X36068Y29210
X36068Y31750
X36068Y34290
X36068Y36830
X36068Y39370
X36068Y41910
X36068Y44450
X36068Y49530
X36068Y52070
X129032Y46990
X129032Y49530
X129032Y52070
X67056Y41910
X87376Y13970
X87376Y16510
X87376Y19050
X87376Y21590
X87376Y24130
X87376Y26670
X87376Y29210
X87376Y31750
X87376Y34290
X87376Y36830
X87376Y39370
X87376Y41910
X87376Y44450
X87376Y46990
X87376Y49530
X87376Y52070
X67056Y24130
X67056Y26670
X67056Y29210
X67056Y31750
X67056Y34290
X67056Y36830
X67056Y39370
X67056Y44450
X67056Y46990
X67056Y49530
X67056Y52070
X118364Y13970
X118364Y16510
X118364Y19050
X118364Y21590
X118364Y24130
X118364Y26670
X118364Y29210
X118364Y31750
X118364Y34290
X118364Y36830
X118364Y39370
X118364Y41910
X118364Y44450
X118364Y46990
X118364Y49530
X118364Y52070
X98044Y24130
X98044Y26670
X98044Y29210
X98044Y31750
X98044Y34290
X98044Y36830
T4
X18544Y89662
X10544Y89662
X49532Y89662
X41532Y89662
X80520Y89662
X72520Y89662
X111508Y89662
X103508Y89662
X142496Y89662
X134496Y89662
T5
X12350Y4905
X18130Y4905
X43338Y4905
X49118Y4905
X74326Y4905
X80106Y4905
X105314Y4905
X111094Y4905
X136302Y4905
X142082Y4905
T6
X133477Y31750
X10795Y33020
X10795Y34290
X10795Y35560
X10795Y36830
X10795Y31750
X9525Y33020
X9525Y34290
X9525Y35560
X9525Y36830
X9525Y31750
X41783Y33020
X41783Y34290
X41783Y35560
X71501Y33020
X71501Y34290
X71501Y35560
X71501Y36830
X71501Y31750
X40513Y35560
X40513Y36830
X41783Y36830
X40513Y31750
X41783Y31750
X40513Y33020
X40513Y34290
X72771Y33020
X72771Y34290
X72771Y35560
X72771Y36830
X103759Y33020
X103759Y34290
X103759Y35560
X103759Y36830
X103759Y31750
X102489Y33020
X102489Y34290
X102489Y35560
X102489Y36830
X102489Y31750
X72771Y31750
X134747Y33020
X134747Y34290
X134747Y35560
X134747Y36830
X134747Y31750
X133477Y33020
X133477Y34290
X133477Y35560
X133477Y36830
T7
X42799Y33528
X50927Y49149
X51816Y32893
X49911Y32893
X51400Y48641
X51943Y31623
X49911Y31623
X43688Y13970
X44598Y41616
X44323Y42291
X44323Y45466
X43434Y47498
X44323Y44818
X43488Y51997
X48087Y52070
X55118Y82850
X60804Y24230
X42599Y48406
X43896Y51235
X48457Y51435
X47498Y8983
X46890Y7718
X49403Y41819
X49403Y42396
X49403Y43053
X44323Y42926
X54978Y42736
X49276Y45881
X54734Y74900
X49276Y45304
X54464Y77500
X60561Y47087
X48803Y43715
X48006Y45339
X47371Y45720
X59071Y44550
X34544Y8890
X40894Y29672
X46390Y48279
X41570Y60021
X41588Y52070
X34544Y7874
X41656Y29972
X47117Y41021
X46649Y45807
X41216Y72527
X42418Y39878
X37973Y32639
X38719Y81915
X38673Y39578
X43053Y40190
X37662Y78829
X38170Y40076
X45085Y38354
X45085Y38989
X45047Y40656
X37338Y40640
X45847Y40860
X46482Y41275
X47988Y54000
X45949Y8382
X50800Y9398
X49632Y28600
X49576Y57014
X49576Y73279
X51943Y6350
X36927Y80010
X38227Y64135
X76860Y47879
X80451Y47879
X76851Y38481
X65532Y9906
X75438Y9525
X76301Y53213
X83172Y42532
X82423Y39871
X74676Y36195
X80620Y29540
X78524Y50533
X72466Y41021
X83566Y20320
X82185Y42494
X84328Y46981
X66421Y67310
X76476Y77700
X85357Y7620
X72390Y42291
X78994Y41021
X75311Y43561
X72898Y46990
X84836Y49530
X86360Y45720
X81407Y39243
X84836Y39370
X75844Y36779
X89329Y38241
X86333Y43559
X78464Y52451
X78172Y56169
X65786Y40157
X73381Y44755
X89818Y27023
X80137Y24790
X88300Y35512
X80137Y36982
X70612Y34950
X73787Y24917
X73152Y27940
X80899Y20345
X78740Y20345
X80518Y18567
X68580Y46609
X71247Y28367
X78867Y22631
X80518Y13360
X65532Y10947
X64643Y10947
X65532Y11836
X66040Y17043
X66040Y17805
X66040Y16281
X73279Y6883
X80391Y7264
X70739Y4089
X83693Y3962
X82677Y4978
X71755Y5232
X75184Y28194
X76581Y42037
X76581Y44450
X79121Y43942
X79121Y42037
X77724Y42037
X77724Y43434
X77724Y44577
X75311Y27178
X79629Y7239
X79502Y13335
X74803Y7239
X90860Y22822
X84681Y67310
X78994Y27432
X71374Y26289
X78740Y19370
X81447Y48641
X80137Y36068
X83354Y48727
X84328Y32258
X73787Y32258
X82804Y49149
X84328Y31115
X73787Y31496
X83820Y49149
X84421Y33528
X73787Y33528
X81915Y49149
X82804Y32893
X80899Y32893
X82389Y48641
X82931Y31623
X80899Y31623
X74676Y13970
X75586Y41616
X75311Y42291
X75311Y45466
X74422Y47498
X75311Y44818
X74476Y51997
X79075Y52070
X86106Y82850
X91792Y24230
X73587Y48406
X74884Y51235
X79445Y51435
X78486Y8983
X77878Y7718
X80391Y41819
X80391Y42396
X80391Y43053
X75311Y42926
X85966Y42736
X80264Y45881
X85722Y74900
X80264Y45304
X85452Y77500
X91549Y47087
X79791Y43715
X78994Y45339
X78359Y45720
X90059Y44550
X65532Y8890
X71882Y29672
X77378Y48279
X72558Y60021
X72576Y52070
X65532Y7874
X72644Y29972
X78105Y41021
X77637Y45807
X72204Y72527
X73406Y39878
X68961Y32639
X69707Y81915
X69661Y39578
X74041Y40190
X68650Y78829
X69158Y40076
X76073Y38354
X76073Y38989
X76036Y40656
X68326Y40640
X76835Y40860
X77470Y41275
X78976Y54000
X76937Y8382
X81788Y9398
X80620Y28600
X80564Y57014
X80564Y73279
X82931Y6350
X67915Y80010
X69215Y64135
X107848Y47879
X111439Y47879
X107839Y38481
X96520Y9906
X106426Y9525
X107289Y53213
X114160Y42532
X113411Y39871
X105664Y36195
X111608Y29540
X109512Y50533
X103454Y41021
X114554Y20320
X113173Y42494
X115316Y46981
X97409Y67310
X107464Y77700
X116345Y7620
X103378Y42291
X109982Y41021
X106299Y43561
X103886Y46990
X115824Y49530
X117348Y45720
X112395Y39243
X115824Y39370
X106832Y36779
X120317Y38241
X117321Y43559
X109452Y52451
X109160Y56169
X96774Y40157
X104369Y44755
X120806Y27023
X111125Y24790
X119288Y35512
X111125Y36982
X101600Y34950
X104775Y24917
X104140Y27940
X111887Y20345
X109728Y20345
X111506Y18567
X10600Y52070
X102235Y28367
X109855Y22631
X111506Y13360
X96520Y10947
X95631Y10947
X96520Y11836
X97028Y17043
X97028Y17805
X97028Y16281
X104267Y6883
X111379Y7264
X101727Y4089
X114681Y3962
X113665Y4978
X102743Y5232
X106172Y28194
X107569Y42037
X107569Y44450
X110109Y43942
X110109Y42037
X108712Y42037
X108712Y43434
X108712Y44577
X106299Y27178
X110617Y7239
X110490Y13335
X105791Y7239
X121848Y22822
X115669Y67310
X109982Y27432
X102362Y26289
X109728Y19370
X112435Y48641
X111125Y36068
X114342Y48727
X115316Y32258
X104775Y32258
X113792Y49149
X115316Y31115
X104775Y31496
X114808Y49149
X115408Y33528
X104775Y33528
X112903Y49149
X113792Y32893
X111887Y32893
X113376Y48641
X113919Y31623
X111887Y31623
X105664Y13970
X106574Y41616
X106299Y42291
X106299Y45466
X105410Y47498
X106299Y44818
X105464Y51997
X110063Y52070
X117094Y82850
X122780Y24230
X104575Y48406
X105872Y51235
X110433Y51435
X109474Y8983
X108866Y7718
X111379Y41819
X111379Y42396
X111379Y43053
X106299Y42926
X116954Y42736
X111252Y45881
X116710Y74900
X111252Y45304
X116440Y77500
X122537Y47087
X110779Y43715
X109982Y45339
X109347Y45720
X121047Y44550
X96520Y8890
X102870Y29672
X108366Y48279
X103546Y60021
X103564Y52070
X96520Y7874
X103632Y29972
X109093Y41021
X108625Y45807
X103192Y72527
X104394Y39878
X99949Y32639
X100695Y81915
X100649Y39578
X105029Y40190
X99638Y78829
X100146Y40076
X107061Y38354
X107061Y38989
X107023Y40656
X99314Y40640
X107823Y40860
X108458Y41275
X109964Y54000
X107925Y8382
X112776Y9398
X111608Y28600
X111552Y57014
X111552Y73279
X113919Y6350
X98903Y80010
X100203Y64135
X138836Y47879
X142427Y47879
X138827Y38481
X127508Y9906
X137414Y9525
X138277Y53213
X145148Y42532
X144399Y39871
X136652Y36195
X142596Y29540
X140500Y50533
X134442Y41021
X145542Y20320
X144161Y42494
X146304Y46981
X128397Y67310
X138452Y77700
X147333Y7620
X134366Y42291
X140970Y41021
X137287Y43561
X134874Y46990
X146812Y49530
X148336Y45720
X143383Y39243
X146812Y39370
X137820Y36779
X151305Y38241
X148309Y43559
X140440Y52451
X140148Y56169
X127762Y40157
X135357Y44755
X151794Y27023
X142113Y24790
X150276Y35512
X142113Y36982
X132588Y34950
X135763Y24917
X135128Y27940
X142875Y20345
X140716Y20345
X142494Y18567
X130556Y46609
X133223Y28367
X140843Y22631
X142494Y13360
X127508Y10947
X126619Y10947
X127508Y11836
X128016Y17043
X128016Y17805
X128016Y16281
X135255Y6883
X142367Y7264
X132715Y4089
X145669Y3962
X144653Y4978
X133731Y5232
X137160Y28194
X138557Y42037
X138557Y44450
X141097Y43942
X141097Y42037
X139700Y42037
X139700Y43434
X139700Y44577
X137287Y27178
X141605Y7239
X141478Y13335
X136779Y7239
X152836Y22822
X146657Y67310
X140970Y27432
X133350Y26289
X140716Y19370
X143423Y48641
X142113Y36068
X145330Y48727
X146304Y32258
X135763Y32258
X144780Y49149
X146304Y31115
X135763Y31496
X145796Y49149
X146397Y33528
X135763Y33528
X143891Y49149
X144780Y32893
X142875Y32893
X144365Y48641
X144907Y31623
X142875Y31623
X136652Y13970
X137562Y41616
X137287Y42291
X137287Y45466
X136398Y47498
X137287Y44818
X136452Y51997
X141051Y52070
X148082Y82850
X153768Y24230
X135563Y48406
X136860Y51235
X141421Y51435
X140462Y8983
X139854Y7718
X142367Y41819
X142367Y42396
X142367Y43053
X137287Y42926
X147942Y42736
X142240Y45881
X147698Y74900
X142240Y45304
X147428Y77500
X153525Y47087
X141767Y43715
X140970Y45339
X140335Y45720
X152035Y44550
X127508Y8890
X133858Y29672
X139354Y48279
X134534Y60021
X134552Y52070
X127508Y7874
X134620Y29972
X140081Y41021
X139613Y45807
X134180Y72527
X135382Y39878
X130937Y32639
X131683Y81915
X131637Y39578
X136017Y40190
X130626Y78829
X131134Y40076
X138049Y38354
X138049Y38989
X14884Y47879
X130302Y40640
X138811Y40860
X139446Y41275
X140952Y54000
X138913Y8382
X143764Y9398
X142596Y28600
X142540Y57014
X142540Y73279
X144907Y6350
X129891Y80010
X131191Y64135
X18475Y47879
X14875Y38481
X3556Y9906
X13462Y9525
X14325Y53213
X21196Y42532
X20447Y39871
X12700Y36195
X18644Y29540
X16548Y50533
X10490Y41021
X21590Y20320
X20209Y42494
X22352Y46981
X4445Y67310
X14500Y77700
X23381Y7620
X10414Y42291
X17018Y41021
X13335Y43561
X10922Y46990
X22860Y49530
X24384Y45720
X19431Y39243
X22860Y39370
X13868Y36779
X27353Y38241
X24357Y43559
X16488Y52451
X16196Y56169
X3810Y40157
X11405Y44755
X27842Y27023
X18161Y24790
X26324Y35512
X18161Y36982
X8636Y34950
X11811Y24917
X11176Y27940
X18923Y20345
X16764Y20345
X18542Y18567
X6604Y46609
X9271Y28367
X16891Y22631
X18542Y13360
X3556Y10947
X2667Y10947
X3556Y11836
X4064Y17043
X4064Y17805
X4064Y16281
X11303Y6883
X18415Y7264
X8763Y4089
X21717Y3962
X20701Y4978
X9779Y5232
X13208Y28194
X14605Y42037
X14605Y44450
X17145Y43942
X17145Y42037
X15748Y42037
X15748Y43434
X15748Y44577
X13335Y27178
X17653Y7239
X17526Y13335
X12827Y7239
X28884Y22822
X22705Y67310
X17018Y27432
X9398Y26289
X16764Y19370
X19471Y48641
X18161Y36068
X21378Y48727
X22352Y32258
X11811Y32258
X20828Y49149
X22352Y31115
X11811Y31496
X21844Y49149
X22444Y33528
X11811Y33528
X19939Y49149
X20828Y32893
X18923Y32893
X20413Y48641
X20955Y31623
X18923Y31623
X12700Y13970
X13610Y41616
X13335Y42291
X13335Y45466
X12446Y47498
X13335Y44818
X12500Y51997
X17099Y52070
X24130Y82850
X29816Y24230
X11611Y48406
X12908Y51235
X17469Y51435
X16510Y8983
X15902Y7718
X18415Y41819
X18415Y42396
X18415Y43053
X13335Y42926
X23990Y42736
X18288Y45881
X99568Y46609
X23746Y74900
X18288Y45304
X23476Y77500
X29573Y47087
X17815Y43715
X17018Y45339
X16383Y45720
X28083Y44550
X3556Y8890
X9906Y29672
X15402Y48279
X10582Y60021
X3556Y7874
X10668Y29972
X16129Y41021
X15661Y45807
X10228Y72527
X11430Y39878
X6985Y32639
X7731Y81915
X7685Y39578
X12065Y40190
X6674Y78829
X7182Y40076
X14097Y38354
X14097Y38989
X14059Y40656
X6350Y40640
X14859Y40860
X15494Y41275
X17000Y54000
X14961Y8382
X19812Y9398
X18644Y28600
X18588Y57014
X18588Y73279
X20955Y6350
X5939Y80010
X7239Y64135
X45872Y47879
X49463Y47879
X45863Y38481
X34544Y9906
X44450Y9525
X45313Y53213
X52184Y42532
X51435Y39871
X43688Y36195
X49632Y29540
X47536Y50533
X41478Y41021
X52578Y20320
X51197Y42494
X53340Y46981
X35433Y67310
X45488Y77700
X54369Y7620
X41402Y42291
X48006Y41021
X44323Y43561
X41910Y46990
X53848Y49530
X55372Y45720
X50419Y39243
X53848Y39370
X44856Y36779
X58341Y38241
X55345Y43559
X47476Y52451
X47184Y56169
X34798Y40157
X42393Y44755
X58830Y27023
X49149Y24790
X57312Y35512
X49149Y36982
X39624Y34950
X42799Y24917
X42164Y27940
X49911Y20345
X47752Y20345
X49530Y18567
X37592Y46609
X40259Y28367
X47879Y22631
X49530Y13360
X34544Y10947
X33655Y10947
X34544Y11836
X35052Y17043
X35052Y17805
X35052Y16281
X42291Y6883
X49403Y7264
X39751Y4089
X52705Y3962
X51689Y4978
X40767Y5232
X44196Y28194
X45593Y42037
X45593Y44450
X48133Y43942
X48133Y42037
X46736Y42037
X46736Y43434
X46736Y44577
X44323Y27178
X48641Y7239
X48514Y13335
X43815Y7239
X59872Y22822
X53693Y67310
X48006Y27432
X40386Y26289
X47752Y19370
X50459Y48641
X49149Y36068
X52366Y48727
X53340Y32258
X42799Y32258
X51816Y49149
X53340Y31115
X42799Y31496
X52832Y49149
X53432Y33528
X138012Y40656
M30