G04 EAGLE Gerber RS-274X export*
G75*
%MOMM*%
%FSLAX34Y34*%
%LPD*%
%INSolderpaste Bottom*%
%IPPOS*%
%AMOC8*
5,1,8,0,0,1.08239X$1,22.5*%
G01*
%ADD10C,0.102000*%
%ADD11C,0.100000*%
%ADD12R,0.800000X0.800000*%
%ADD13C,0.105000*%
%ADD14C,0.096000*%
%ADD15C,0.098000*%


D10*
X149890Y369620D02*
X144910Y369620D01*
X144910Y374600D01*
X149890Y374600D01*
X149890Y369620D01*
X149890Y370589D02*
X144910Y370589D01*
X144910Y371558D02*
X149890Y371558D01*
X149890Y372527D02*
X144910Y372527D01*
X144910Y373496D02*
X149890Y373496D01*
X149890Y374465D02*
X144910Y374465D01*
X154910Y369620D02*
X159890Y369620D01*
X154910Y369620D02*
X154910Y374600D01*
X159890Y374600D01*
X159890Y369620D01*
X159890Y370589D02*
X154910Y370589D01*
X154910Y371558D02*
X159890Y371558D01*
X159890Y372527D02*
X154910Y372527D01*
X154910Y373496D02*
X159890Y373496D01*
X159890Y374465D02*
X154910Y374465D01*
D11*
X185170Y349980D02*
X185170Y345980D01*
X177670Y345980D01*
X177670Y349980D01*
X185170Y349980D01*
X185170Y346930D02*
X177670Y346930D01*
X177670Y347880D02*
X185170Y347880D01*
X185170Y348830D02*
X177670Y348830D01*
X177670Y349780D02*
X185170Y349780D01*
X185170Y337280D02*
X185170Y333280D01*
X177670Y333280D01*
X177670Y337280D01*
X185170Y337280D01*
X185170Y334230D02*
X177670Y334230D01*
X177670Y335180D02*
X185170Y335180D01*
X185170Y336130D02*
X177670Y336130D01*
X177670Y337080D02*
X185170Y337080D01*
X185170Y324580D02*
X185170Y320580D01*
X177670Y320580D01*
X177670Y324580D01*
X185170Y324580D01*
X185170Y321530D02*
X177670Y321530D01*
X177670Y322480D02*
X185170Y322480D01*
X185170Y323430D02*
X177670Y323430D01*
X177670Y324380D02*
X185170Y324380D01*
X185170Y311880D02*
X185170Y307880D01*
X177670Y307880D01*
X177670Y311880D01*
X185170Y311880D01*
X185170Y308830D02*
X177670Y308830D01*
X177670Y309780D02*
X185170Y309780D01*
X185170Y310730D02*
X177670Y310730D01*
X177670Y311680D02*
X185170Y311680D01*
X129670Y320580D02*
X129670Y324580D01*
X129670Y320580D02*
X122170Y320580D01*
X122170Y324580D01*
X129670Y324580D01*
X129670Y321530D02*
X122170Y321530D01*
X122170Y322480D02*
X129670Y322480D01*
X129670Y323430D02*
X122170Y323430D01*
X122170Y324380D02*
X129670Y324380D01*
X129670Y311880D02*
X129670Y307880D01*
X122170Y307880D01*
X122170Y311880D01*
X129670Y311880D01*
X129670Y308830D02*
X122170Y308830D01*
X122170Y309780D02*
X129670Y309780D01*
X129670Y310730D02*
X122170Y310730D01*
X122170Y311680D02*
X129670Y311680D01*
X129670Y333280D02*
X129670Y337280D01*
X129670Y333280D02*
X122170Y333280D01*
X122170Y337280D01*
X129670Y337280D01*
X129670Y334230D02*
X122170Y334230D01*
X122170Y335180D02*
X129670Y335180D01*
X129670Y336130D02*
X122170Y336130D01*
X122170Y337080D02*
X129670Y337080D01*
X129670Y345980D02*
X129670Y349980D01*
X129670Y345980D02*
X122170Y345980D01*
X122170Y349980D01*
X129670Y349980D01*
X129670Y346930D02*
X122170Y346930D01*
X122170Y347880D02*
X129670Y347880D01*
X129670Y348830D02*
X122170Y348830D01*
X122170Y349780D02*
X129670Y349780D01*
D12*
X153670Y328930D03*
D10*
X149890Y359460D02*
X144910Y359460D01*
X144910Y364440D01*
X149890Y364440D01*
X149890Y359460D01*
X149890Y360429D02*
X144910Y360429D01*
X144910Y361398D02*
X149890Y361398D01*
X149890Y362367D02*
X144910Y362367D01*
X144910Y363336D02*
X149890Y363336D01*
X149890Y364305D02*
X144910Y364305D01*
X154910Y359460D02*
X159890Y359460D01*
X154910Y359460D02*
X154910Y364440D01*
X159890Y364440D01*
X159890Y359460D01*
X159890Y360429D02*
X154910Y360429D01*
X154910Y361398D02*
X159890Y361398D01*
X159890Y362367D02*
X154910Y362367D01*
X154910Y363336D02*
X159890Y363336D01*
X159890Y364305D02*
X154910Y364305D01*
X197308Y362080D02*
X197308Y367060D01*
X197308Y362080D02*
X192328Y362080D01*
X192328Y367060D01*
X197308Y367060D01*
X197308Y363049D02*
X192328Y363049D01*
X192328Y364018D02*
X197308Y364018D01*
X197308Y364987D02*
X192328Y364987D01*
X192328Y365956D02*
X197308Y365956D01*
X197308Y366925D02*
X192328Y366925D01*
X197308Y372080D02*
X197308Y377060D01*
X197308Y372080D02*
X192328Y372080D01*
X192328Y377060D01*
X197308Y377060D01*
X197308Y373049D02*
X192328Y373049D01*
X192328Y374018D02*
X197308Y374018D01*
X197308Y374987D02*
X192328Y374987D01*
X192328Y375956D02*
X197308Y375956D01*
X197308Y376925D02*
X192328Y376925D01*
X206706Y367060D02*
X206706Y362080D01*
X201726Y362080D01*
X201726Y367060D01*
X206706Y367060D01*
X206706Y363049D02*
X201726Y363049D01*
X201726Y364018D02*
X206706Y364018D01*
X206706Y364987D02*
X201726Y364987D01*
X201726Y365956D02*
X206706Y365956D01*
X206706Y366925D02*
X201726Y366925D01*
X206706Y372080D02*
X206706Y377060D01*
X206706Y372080D02*
X201726Y372080D01*
X201726Y377060D01*
X206706Y377060D01*
X206706Y373049D02*
X201726Y373049D01*
X201726Y374018D02*
X206706Y374018D01*
X206706Y374987D02*
X201726Y374987D01*
X201726Y375956D02*
X206706Y375956D01*
X206706Y376925D02*
X201726Y376925D01*
D13*
X152465Y784145D02*
X152465Y799095D01*
X158415Y799095D01*
X158415Y784145D01*
X152465Y784145D01*
X152465Y785142D02*
X158415Y785142D01*
X158415Y786139D02*
X152465Y786139D01*
X152465Y787136D02*
X158415Y787136D01*
X158415Y788133D02*
X152465Y788133D01*
X152465Y789130D02*
X158415Y789130D01*
X158415Y790127D02*
X152465Y790127D01*
X152465Y791124D02*
X158415Y791124D01*
X158415Y792121D02*
X152465Y792121D01*
X152465Y793118D02*
X158415Y793118D01*
X158415Y794115D02*
X152465Y794115D01*
X152465Y795112D02*
X158415Y795112D01*
X158415Y796109D02*
X152465Y796109D01*
X152465Y797106D02*
X158415Y797106D01*
X158415Y798103D02*
X152465Y798103D01*
X163465Y799095D02*
X163465Y784145D01*
X163465Y799095D02*
X169415Y799095D01*
X169415Y784145D01*
X163465Y784145D01*
X163465Y785142D02*
X169415Y785142D01*
X169415Y786139D02*
X163465Y786139D01*
X163465Y787136D02*
X169415Y787136D01*
X169415Y788133D02*
X163465Y788133D01*
X163465Y789130D02*
X169415Y789130D01*
X169415Y790127D02*
X163465Y790127D01*
X163465Y791124D02*
X169415Y791124D01*
X169415Y792121D02*
X163465Y792121D01*
X163465Y793118D02*
X169415Y793118D01*
X169415Y794115D02*
X163465Y794115D01*
X163465Y795112D02*
X169415Y795112D01*
X169415Y796109D02*
X163465Y796109D01*
X163465Y797106D02*
X169415Y797106D01*
X169415Y798103D02*
X163465Y798103D01*
X174465Y799095D02*
X174465Y784145D01*
X174465Y799095D02*
X180415Y799095D01*
X180415Y784145D01*
X174465Y784145D01*
X174465Y785142D02*
X180415Y785142D01*
X180415Y786139D02*
X174465Y786139D01*
X174465Y787136D02*
X180415Y787136D01*
X180415Y788133D02*
X174465Y788133D01*
X174465Y789130D02*
X180415Y789130D01*
X180415Y790127D02*
X174465Y790127D01*
X174465Y791124D02*
X180415Y791124D01*
X180415Y792121D02*
X174465Y792121D01*
X174465Y793118D02*
X180415Y793118D01*
X180415Y794115D02*
X174465Y794115D01*
X174465Y795112D02*
X180415Y795112D01*
X180415Y796109D02*
X174465Y796109D01*
X174465Y797106D02*
X180415Y797106D01*
X180415Y798103D02*
X174465Y798103D01*
X141465Y799095D02*
X141465Y784145D01*
X141465Y799095D02*
X147415Y799095D01*
X147415Y784145D01*
X141465Y784145D01*
X141465Y785142D02*
X147415Y785142D01*
X147415Y786139D02*
X141465Y786139D01*
X141465Y787136D02*
X147415Y787136D01*
X147415Y788133D02*
X141465Y788133D01*
X141465Y789130D02*
X147415Y789130D01*
X147415Y790127D02*
X141465Y790127D01*
X141465Y791124D02*
X147415Y791124D01*
X147415Y792121D02*
X141465Y792121D01*
X141465Y793118D02*
X147415Y793118D01*
X147415Y794115D02*
X141465Y794115D01*
X141465Y795112D02*
X147415Y795112D01*
X147415Y796109D02*
X141465Y796109D01*
X141465Y797106D02*
X147415Y797106D01*
X147415Y798103D02*
X141465Y798103D01*
X130465Y799095D02*
X130465Y784145D01*
X130465Y799095D02*
X136415Y799095D01*
X136415Y784145D01*
X130465Y784145D01*
X130465Y785142D02*
X136415Y785142D01*
X136415Y786139D02*
X130465Y786139D01*
X130465Y787136D02*
X136415Y787136D01*
X136415Y788133D02*
X130465Y788133D01*
X130465Y789130D02*
X136415Y789130D01*
X136415Y790127D02*
X130465Y790127D01*
X130465Y791124D02*
X136415Y791124D01*
X136415Y792121D02*
X130465Y792121D01*
X130465Y793118D02*
X136415Y793118D01*
X136415Y794115D02*
X130465Y794115D01*
X130465Y795112D02*
X136415Y795112D01*
X136415Y796109D02*
X130465Y796109D01*
X130465Y797106D02*
X136415Y797106D01*
X136415Y798103D02*
X130465Y798103D01*
X119465Y799095D02*
X119465Y784145D01*
X119465Y799095D02*
X125415Y799095D01*
X125415Y784145D01*
X119465Y784145D01*
X119465Y785142D02*
X125415Y785142D01*
X125415Y786139D02*
X119465Y786139D01*
X119465Y787136D02*
X125415Y787136D01*
X125415Y788133D02*
X119465Y788133D01*
X119465Y789130D02*
X125415Y789130D01*
X125415Y790127D02*
X119465Y790127D01*
X119465Y791124D02*
X125415Y791124D01*
X125415Y792121D02*
X119465Y792121D01*
X119465Y793118D02*
X125415Y793118D01*
X125415Y794115D02*
X119465Y794115D01*
X119465Y795112D02*
X125415Y795112D01*
X125415Y796109D02*
X119465Y796109D01*
X119465Y797106D02*
X125415Y797106D01*
X125415Y798103D02*
X119465Y798103D01*
X108465Y799095D02*
X108465Y784145D01*
X108465Y799095D02*
X114415Y799095D01*
X114415Y784145D01*
X108465Y784145D01*
X108465Y785142D02*
X114415Y785142D01*
X114415Y786139D02*
X108465Y786139D01*
X108465Y787136D02*
X114415Y787136D01*
X114415Y788133D02*
X108465Y788133D01*
X108465Y789130D02*
X114415Y789130D01*
X114415Y790127D02*
X108465Y790127D01*
X108465Y791124D02*
X114415Y791124D01*
X114415Y792121D02*
X108465Y792121D01*
X108465Y793118D02*
X114415Y793118D01*
X114415Y794115D02*
X108465Y794115D01*
X108465Y795112D02*
X114415Y795112D01*
X114415Y796109D02*
X108465Y796109D01*
X108465Y797106D02*
X114415Y797106D01*
X114415Y798103D02*
X108465Y798103D01*
X97465Y799095D02*
X97465Y784145D01*
X97465Y799095D02*
X103415Y799095D01*
X103415Y784145D01*
X97465Y784145D01*
X97465Y785142D02*
X103415Y785142D01*
X103415Y786139D02*
X97465Y786139D01*
X97465Y787136D02*
X103415Y787136D01*
X103415Y788133D02*
X97465Y788133D01*
X97465Y789130D02*
X103415Y789130D01*
X103415Y790127D02*
X97465Y790127D01*
X97465Y791124D02*
X103415Y791124D01*
X103415Y792121D02*
X97465Y792121D01*
X97465Y793118D02*
X103415Y793118D01*
X103415Y794115D02*
X97465Y794115D01*
X97465Y795112D02*
X103415Y795112D01*
X103415Y796109D02*
X97465Y796109D01*
X97465Y797106D02*
X103415Y797106D01*
X103415Y798103D02*
X97465Y798103D01*
X86465Y799095D02*
X86465Y784145D01*
X86465Y799095D02*
X92415Y799095D01*
X92415Y784145D01*
X86465Y784145D01*
X86465Y785142D02*
X92415Y785142D01*
X92415Y786139D02*
X86465Y786139D01*
X86465Y787136D02*
X92415Y787136D01*
X92415Y788133D02*
X86465Y788133D01*
X86465Y789130D02*
X92415Y789130D01*
X92415Y790127D02*
X86465Y790127D01*
X86465Y791124D02*
X92415Y791124D01*
X92415Y792121D02*
X86465Y792121D01*
X86465Y793118D02*
X92415Y793118D01*
X92415Y794115D02*
X86465Y794115D01*
X86465Y795112D02*
X92415Y795112D01*
X92415Y796109D02*
X86465Y796109D01*
X86465Y797106D02*
X92415Y797106D01*
X92415Y798103D02*
X86465Y798103D01*
D14*
X226920Y882100D02*
X237960Y882100D01*
X226920Y882100D02*
X226920Y903140D01*
X237960Y903140D01*
X237960Y882100D01*
X237960Y883012D02*
X226920Y883012D01*
X226920Y883924D02*
X237960Y883924D01*
X237960Y884836D02*
X226920Y884836D01*
X226920Y885748D02*
X237960Y885748D01*
X237960Y886660D02*
X226920Y886660D01*
X226920Y887572D02*
X237960Y887572D01*
X237960Y888484D02*
X226920Y888484D01*
X226920Y889396D02*
X237960Y889396D01*
X237960Y890308D02*
X226920Y890308D01*
X226920Y891220D02*
X237960Y891220D01*
X237960Y892132D02*
X226920Y892132D01*
X226920Y893044D02*
X237960Y893044D01*
X237960Y893956D02*
X226920Y893956D01*
X226920Y894868D02*
X237960Y894868D01*
X237960Y895780D02*
X226920Y895780D01*
X226920Y896692D02*
X237960Y896692D01*
X237960Y897604D02*
X226920Y897604D01*
X226920Y898516D02*
X237960Y898516D01*
X237960Y899428D02*
X226920Y899428D01*
X226920Y900340D02*
X237960Y900340D01*
X237960Y901252D02*
X226920Y901252D01*
X226920Y902164D02*
X237960Y902164D01*
X237960Y903076D02*
X226920Y903076D01*
X82960Y882100D02*
X71920Y882100D01*
X71920Y903140D01*
X82960Y903140D01*
X82960Y882100D01*
X82960Y883012D02*
X71920Y883012D01*
X71920Y883924D02*
X82960Y883924D01*
X82960Y884836D02*
X71920Y884836D01*
X71920Y885748D02*
X82960Y885748D01*
X82960Y886660D02*
X71920Y886660D01*
X71920Y887572D02*
X82960Y887572D01*
X82960Y888484D02*
X71920Y888484D01*
X71920Y889396D02*
X82960Y889396D01*
X82960Y890308D02*
X71920Y890308D01*
X71920Y891220D02*
X82960Y891220D01*
X82960Y892132D02*
X71920Y892132D01*
X71920Y893044D02*
X82960Y893044D01*
X82960Y893956D02*
X71920Y893956D01*
X71920Y894868D02*
X82960Y894868D01*
X82960Y895780D02*
X71920Y895780D01*
X71920Y896692D02*
X82960Y896692D01*
X82960Y897604D02*
X71920Y897604D01*
X71920Y898516D02*
X82960Y898516D01*
X82960Y899428D02*
X71920Y899428D01*
X71920Y900340D02*
X82960Y900340D01*
X82960Y901252D02*
X71920Y901252D01*
X71920Y902164D02*
X82960Y902164D01*
X82960Y903076D02*
X71920Y903076D01*
D15*
X215930Y790110D02*
X230950Y790110D01*
X215930Y790110D02*
X215930Y803130D01*
X230950Y803130D01*
X230950Y790110D01*
X230950Y791041D02*
X215930Y791041D01*
X215930Y791972D02*
X230950Y791972D01*
X230950Y792903D02*
X215930Y792903D01*
X215930Y793834D02*
X230950Y793834D01*
X230950Y794765D02*
X215930Y794765D01*
X215930Y795696D02*
X230950Y795696D01*
X230950Y796627D02*
X215930Y796627D01*
X215930Y797558D02*
X230950Y797558D01*
X230950Y798489D02*
X215930Y798489D01*
X215930Y799420D02*
X230950Y799420D01*
X230950Y800351D02*
X215930Y800351D01*
X215930Y801282D02*
X230950Y801282D01*
X230950Y802213D02*
X215930Y802213D01*
D14*
X82960Y790100D02*
X71920Y790100D01*
X71920Y805140D01*
X82960Y805140D01*
X82960Y790100D01*
X82960Y791012D02*
X71920Y791012D01*
X71920Y791924D02*
X82960Y791924D01*
X82960Y792836D02*
X71920Y792836D01*
X71920Y793748D02*
X82960Y793748D01*
X82960Y794660D02*
X71920Y794660D01*
X71920Y795572D02*
X82960Y795572D01*
X82960Y796484D02*
X71920Y796484D01*
X71920Y797396D02*
X82960Y797396D01*
X82960Y798308D02*
X71920Y798308D01*
X71920Y799220D02*
X82960Y799220D01*
X82960Y800132D02*
X71920Y800132D01*
X71920Y801044D02*
X82960Y801044D01*
X82960Y801956D02*
X71920Y801956D01*
X71920Y802868D02*
X82960Y802868D01*
X82960Y803780D02*
X71920Y803780D01*
X71920Y804692D02*
X82960Y804692D01*
D10*
X142190Y73690D02*
X142190Y68710D01*
X137210Y68710D01*
X137210Y73690D01*
X142190Y73690D01*
X142190Y69679D02*
X137210Y69679D01*
X137210Y70648D02*
X142190Y70648D01*
X142190Y71617D02*
X137210Y71617D01*
X137210Y72586D02*
X142190Y72586D01*
X142190Y73555D02*
X137210Y73555D01*
X142190Y78710D02*
X142190Y83690D01*
X142190Y78710D02*
X137210Y78710D01*
X137210Y83690D01*
X142190Y83690D01*
X142190Y79679D02*
X137210Y79679D01*
X137210Y80648D02*
X142190Y80648D01*
X142190Y81617D02*
X137210Y81617D01*
X137210Y82586D02*
X142190Y82586D01*
X142190Y83555D02*
X137210Y83555D01*
X137210Y116810D02*
X137210Y121790D01*
X142190Y121790D01*
X142190Y116810D01*
X137210Y116810D01*
X137210Y117779D02*
X142190Y117779D01*
X142190Y118748D02*
X137210Y118748D01*
X137210Y119717D02*
X142190Y119717D01*
X142190Y120686D02*
X137210Y120686D01*
X137210Y121655D02*
X142190Y121655D01*
X137210Y111790D02*
X137210Y106810D01*
X137210Y111790D02*
X142190Y111790D01*
X142190Y106810D01*
X137210Y106810D01*
X137210Y107779D02*
X142190Y107779D01*
X142190Y108748D02*
X137210Y108748D01*
X137210Y109717D02*
X142190Y109717D01*
X142190Y110686D02*
X137210Y110686D01*
X137210Y111655D02*
X142190Y111655D01*
X167516Y283641D02*
X172496Y283641D01*
X167516Y283641D02*
X167516Y288621D01*
X172496Y288621D01*
X172496Y283641D01*
X172496Y284610D02*
X167516Y284610D01*
X167516Y285579D02*
X172496Y285579D01*
X172496Y286548D02*
X167516Y286548D01*
X167516Y287517D02*
X172496Y287517D01*
X172496Y288486D02*
X167516Y288486D01*
X177516Y283641D02*
X182496Y283641D01*
X177516Y283641D02*
X177516Y288621D01*
X182496Y288621D01*
X182496Y283641D01*
X182496Y284610D02*
X177516Y284610D01*
X177516Y285579D02*
X182496Y285579D01*
X182496Y286548D02*
X177516Y286548D01*
X177516Y287517D02*
X182496Y287517D01*
X182496Y288486D02*
X177516Y288486D01*
X172496Y292912D02*
X167516Y292912D01*
X167516Y297892D01*
X172496Y297892D01*
X172496Y292912D01*
X172496Y293881D02*
X167516Y293881D01*
X167516Y294850D02*
X172496Y294850D01*
X172496Y295819D02*
X167516Y295819D01*
X167516Y296788D02*
X172496Y296788D01*
X172496Y297757D02*
X167516Y297757D01*
X177516Y292912D02*
X182496Y292912D01*
X177516Y292912D02*
X177516Y297892D01*
X182496Y297892D01*
X182496Y292912D01*
X182496Y293881D02*
X177516Y293881D01*
X177516Y294850D02*
X182496Y294850D01*
X182496Y295819D02*
X177516Y295819D01*
X177516Y296788D02*
X182496Y296788D01*
X182496Y297757D02*
X177516Y297757D01*
X454790Y369620D02*
X459770Y369620D01*
X454790Y369620D02*
X454790Y374600D01*
X459770Y374600D01*
X459770Y369620D01*
X459770Y370589D02*
X454790Y370589D01*
X454790Y371558D02*
X459770Y371558D01*
X459770Y372527D02*
X454790Y372527D01*
X454790Y373496D02*
X459770Y373496D01*
X459770Y374465D02*
X454790Y374465D01*
X464790Y369620D02*
X469770Y369620D01*
X464790Y369620D02*
X464790Y374600D01*
X469770Y374600D01*
X469770Y369620D01*
X469770Y370589D02*
X464790Y370589D01*
X464790Y371558D02*
X469770Y371558D01*
X469770Y372527D02*
X464790Y372527D01*
X464790Y373496D02*
X469770Y373496D01*
X469770Y374465D02*
X464790Y374465D01*
D11*
X495050Y349980D02*
X495050Y345980D01*
X487550Y345980D01*
X487550Y349980D01*
X495050Y349980D01*
X495050Y346930D02*
X487550Y346930D01*
X487550Y347880D02*
X495050Y347880D01*
X495050Y348830D02*
X487550Y348830D01*
X487550Y349780D02*
X495050Y349780D01*
X495050Y337280D02*
X495050Y333280D01*
X487550Y333280D01*
X487550Y337280D01*
X495050Y337280D01*
X495050Y334230D02*
X487550Y334230D01*
X487550Y335180D02*
X495050Y335180D01*
X495050Y336130D02*
X487550Y336130D01*
X487550Y337080D02*
X495050Y337080D01*
X495050Y324580D02*
X495050Y320580D01*
X487550Y320580D01*
X487550Y324580D01*
X495050Y324580D01*
X495050Y321530D02*
X487550Y321530D01*
X487550Y322480D02*
X495050Y322480D01*
X495050Y323430D02*
X487550Y323430D01*
X487550Y324380D02*
X495050Y324380D01*
X495050Y311880D02*
X495050Y307880D01*
X487550Y307880D01*
X487550Y311880D01*
X495050Y311880D01*
X495050Y308830D02*
X487550Y308830D01*
X487550Y309780D02*
X495050Y309780D01*
X495050Y310730D02*
X487550Y310730D01*
X487550Y311680D02*
X495050Y311680D01*
X439550Y320580D02*
X439550Y324580D01*
X439550Y320580D02*
X432050Y320580D01*
X432050Y324580D01*
X439550Y324580D01*
X439550Y321530D02*
X432050Y321530D01*
X432050Y322480D02*
X439550Y322480D01*
X439550Y323430D02*
X432050Y323430D01*
X432050Y324380D02*
X439550Y324380D01*
X439550Y311880D02*
X439550Y307880D01*
X432050Y307880D01*
X432050Y311880D01*
X439550Y311880D01*
X439550Y308830D02*
X432050Y308830D01*
X432050Y309780D02*
X439550Y309780D01*
X439550Y310730D02*
X432050Y310730D01*
X432050Y311680D02*
X439550Y311680D01*
X439550Y333280D02*
X439550Y337280D01*
X439550Y333280D02*
X432050Y333280D01*
X432050Y337280D01*
X439550Y337280D01*
X439550Y334230D02*
X432050Y334230D01*
X432050Y335180D02*
X439550Y335180D01*
X439550Y336130D02*
X432050Y336130D01*
X432050Y337080D02*
X439550Y337080D01*
X439550Y345980D02*
X439550Y349980D01*
X439550Y345980D02*
X432050Y345980D01*
X432050Y349980D01*
X439550Y349980D01*
X439550Y346930D02*
X432050Y346930D01*
X432050Y347880D02*
X439550Y347880D01*
X439550Y348830D02*
X432050Y348830D01*
X432050Y349780D02*
X439550Y349780D01*
D12*
X463550Y328930D03*
D10*
X459770Y359460D02*
X454790Y359460D01*
X454790Y364440D01*
X459770Y364440D01*
X459770Y359460D01*
X459770Y360429D02*
X454790Y360429D01*
X454790Y361398D02*
X459770Y361398D01*
X459770Y362367D02*
X454790Y362367D01*
X454790Y363336D02*
X459770Y363336D01*
X459770Y364305D02*
X454790Y364305D01*
X464790Y359460D02*
X469770Y359460D01*
X464790Y359460D02*
X464790Y364440D01*
X469770Y364440D01*
X469770Y359460D01*
X469770Y360429D02*
X464790Y360429D01*
X464790Y361398D02*
X469770Y361398D01*
X469770Y362367D02*
X464790Y362367D01*
X464790Y363336D02*
X469770Y363336D01*
X469770Y364305D02*
X464790Y364305D01*
X507188Y362080D02*
X507188Y367060D01*
X507188Y362080D02*
X502208Y362080D01*
X502208Y367060D01*
X507188Y367060D01*
X507188Y363049D02*
X502208Y363049D01*
X502208Y364018D02*
X507188Y364018D01*
X507188Y364987D02*
X502208Y364987D01*
X502208Y365956D02*
X507188Y365956D01*
X507188Y366925D02*
X502208Y366925D01*
X507188Y372080D02*
X507188Y377060D01*
X507188Y372080D02*
X502208Y372080D01*
X502208Y377060D01*
X507188Y377060D01*
X507188Y373049D02*
X502208Y373049D01*
X502208Y374018D02*
X507188Y374018D01*
X507188Y374987D02*
X502208Y374987D01*
X502208Y375956D02*
X507188Y375956D01*
X507188Y376925D02*
X502208Y376925D01*
X516586Y367060D02*
X516586Y362080D01*
X511606Y362080D01*
X511606Y367060D01*
X516586Y367060D01*
X516586Y363049D02*
X511606Y363049D01*
X511606Y364018D02*
X516586Y364018D01*
X516586Y364987D02*
X511606Y364987D01*
X511606Y365956D02*
X516586Y365956D01*
X516586Y366925D02*
X511606Y366925D01*
X516586Y372080D02*
X516586Y377060D01*
X516586Y372080D02*
X511606Y372080D01*
X511606Y377060D01*
X516586Y377060D01*
X516586Y373049D02*
X511606Y373049D01*
X511606Y374018D02*
X516586Y374018D01*
X516586Y374987D02*
X511606Y374987D01*
X511606Y375956D02*
X516586Y375956D01*
X516586Y376925D02*
X511606Y376925D01*
D13*
X462345Y784145D02*
X462345Y799095D01*
X468295Y799095D01*
X468295Y784145D01*
X462345Y784145D01*
X462345Y785142D02*
X468295Y785142D01*
X468295Y786139D02*
X462345Y786139D01*
X462345Y787136D02*
X468295Y787136D01*
X468295Y788133D02*
X462345Y788133D01*
X462345Y789130D02*
X468295Y789130D01*
X468295Y790127D02*
X462345Y790127D01*
X462345Y791124D02*
X468295Y791124D01*
X468295Y792121D02*
X462345Y792121D01*
X462345Y793118D02*
X468295Y793118D01*
X468295Y794115D02*
X462345Y794115D01*
X462345Y795112D02*
X468295Y795112D01*
X468295Y796109D02*
X462345Y796109D01*
X462345Y797106D02*
X468295Y797106D01*
X468295Y798103D02*
X462345Y798103D01*
X473345Y799095D02*
X473345Y784145D01*
X473345Y799095D02*
X479295Y799095D01*
X479295Y784145D01*
X473345Y784145D01*
X473345Y785142D02*
X479295Y785142D01*
X479295Y786139D02*
X473345Y786139D01*
X473345Y787136D02*
X479295Y787136D01*
X479295Y788133D02*
X473345Y788133D01*
X473345Y789130D02*
X479295Y789130D01*
X479295Y790127D02*
X473345Y790127D01*
X473345Y791124D02*
X479295Y791124D01*
X479295Y792121D02*
X473345Y792121D01*
X473345Y793118D02*
X479295Y793118D01*
X479295Y794115D02*
X473345Y794115D01*
X473345Y795112D02*
X479295Y795112D01*
X479295Y796109D02*
X473345Y796109D01*
X473345Y797106D02*
X479295Y797106D01*
X479295Y798103D02*
X473345Y798103D01*
X484345Y799095D02*
X484345Y784145D01*
X484345Y799095D02*
X490295Y799095D01*
X490295Y784145D01*
X484345Y784145D01*
X484345Y785142D02*
X490295Y785142D01*
X490295Y786139D02*
X484345Y786139D01*
X484345Y787136D02*
X490295Y787136D01*
X490295Y788133D02*
X484345Y788133D01*
X484345Y789130D02*
X490295Y789130D01*
X490295Y790127D02*
X484345Y790127D01*
X484345Y791124D02*
X490295Y791124D01*
X490295Y792121D02*
X484345Y792121D01*
X484345Y793118D02*
X490295Y793118D01*
X490295Y794115D02*
X484345Y794115D01*
X484345Y795112D02*
X490295Y795112D01*
X490295Y796109D02*
X484345Y796109D01*
X484345Y797106D02*
X490295Y797106D01*
X490295Y798103D02*
X484345Y798103D01*
X451345Y799095D02*
X451345Y784145D01*
X451345Y799095D02*
X457295Y799095D01*
X457295Y784145D01*
X451345Y784145D01*
X451345Y785142D02*
X457295Y785142D01*
X457295Y786139D02*
X451345Y786139D01*
X451345Y787136D02*
X457295Y787136D01*
X457295Y788133D02*
X451345Y788133D01*
X451345Y789130D02*
X457295Y789130D01*
X457295Y790127D02*
X451345Y790127D01*
X451345Y791124D02*
X457295Y791124D01*
X457295Y792121D02*
X451345Y792121D01*
X451345Y793118D02*
X457295Y793118D01*
X457295Y794115D02*
X451345Y794115D01*
X451345Y795112D02*
X457295Y795112D01*
X457295Y796109D02*
X451345Y796109D01*
X451345Y797106D02*
X457295Y797106D01*
X457295Y798103D02*
X451345Y798103D01*
X440345Y799095D02*
X440345Y784145D01*
X440345Y799095D02*
X446295Y799095D01*
X446295Y784145D01*
X440345Y784145D01*
X440345Y785142D02*
X446295Y785142D01*
X446295Y786139D02*
X440345Y786139D01*
X440345Y787136D02*
X446295Y787136D01*
X446295Y788133D02*
X440345Y788133D01*
X440345Y789130D02*
X446295Y789130D01*
X446295Y790127D02*
X440345Y790127D01*
X440345Y791124D02*
X446295Y791124D01*
X446295Y792121D02*
X440345Y792121D01*
X440345Y793118D02*
X446295Y793118D01*
X446295Y794115D02*
X440345Y794115D01*
X440345Y795112D02*
X446295Y795112D01*
X446295Y796109D02*
X440345Y796109D01*
X440345Y797106D02*
X446295Y797106D01*
X446295Y798103D02*
X440345Y798103D01*
X429345Y799095D02*
X429345Y784145D01*
X429345Y799095D02*
X435295Y799095D01*
X435295Y784145D01*
X429345Y784145D01*
X429345Y785142D02*
X435295Y785142D01*
X435295Y786139D02*
X429345Y786139D01*
X429345Y787136D02*
X435295Y787136D01*
X435295Y788133D02*
X429345Y788133D01*
X429345Y789130D02*
X435295Y789130D01*
X435295Y790127D02*
X429345Y790127D01*
X429345Y791124D02*
X435295Y791124D01*
X435295Y792121D02*
X429345Y792121D01*
X429345Y793118D02*
X435295Y793118D01*
X435295Y794115D02*
X429345Y794115D01*
X429345Y795112D02*
X435295Y795112D01*
X435295Y796109D02*
X429345Y796109D01*
X429345Y797106D02*
X435295Y797106D01*
X435295Y798103D02*
X429345Y798103D01*
X418345Y799095D02*
X418345Y784145D01*
X418345Y799095D02*
X424295Y799095D01*
X424295Y784145D01*
X418345Y784145D01*
X418345Y785142D02*
X424295Y785142D01*
X424295Y786139D02*
X418345Y786139D01*
X418345Y787136D02*
X424295Y787136D01*
X424295Y788133D02*
X418345Y788133D01*
X418345Y789130D02*
X424295Y789130D01*
X424295Y790127D02*
X418345Y790127D01*
X418345Y791124D02*
X424295Y791124D01*
X424295Y792121D02*
X418345Y792121D01*
X418345Y793118D02*
X424295Y793118D01*
X424295Y794115D02*
X418345Y794115D01*
X418345Y795112D02*
X424295Y795112D01*
X424295Y796109D02*
X418345Y796109D01*
X418345Y797106D02*
X424295Y797106D01*
X424295Y798103D02*
X418345Y798103D01*
X407345Y799095D02*
X407345Y784145D01*
X407345Y799095D02*
X413295Y799095D01*
X413295Y784145D01*
X407345Y784145D01*
X407345Y785142D02*
X413295Y785142D01*
X413295Y786139D02*
X407345Y786139D01*
X407345Y787136D02*
X413295Y787136D01*
X413295Y788133D02*
X407345Y788133D01*
X407345Y789130D02*
X413295Y789130D01*
X413295Y790127D02*
X407345Y790127D01*
X407345Y791124D02*
X413295Y791124D01*
X413295Y792121D02*
X407345Y792121D01*
X407345Y793118D02*
X413295Y793118D01*
X413295Y794115D02*
X407345Y794115D01*
X407345Y795112D02*
X413295Y795112D01*
X413295Y796109D02*
X407345Y796109D01*
X407345Y797106D02*
X413295Y797106D01*
X413295Y798103D02*
X407345Y798103D01*
X396345Y799095D02*
X396345Y784145D01*
X396345Y799095D02*
X402295Y799095D01*
X402295Y784145D01*
X396345Y784145D01*
X396345Y785142D02*
X402295Y785142D01*
X402295Y786139D02*
X396345Y786139D01*
X396345Y787136D02*
X402295Y787136D01*
X402295Y788133D02*
X396345Y788133D01*
X396345Y789130D02*
X402295Y789130D01*
X402295Y790127D02*
X396345Y790127D01*
X396345Y791124D02*
X402295Y791124D01*
X402295Y792121D02*
X396345Y792121D01*
X396345Y793118D02*
X402295Y793118D01*
X402295Y794115D02*
X396345Y794115D01*
X396345Y795112D02*
X402295Y795112D01*
X402295Y796109D02*
X396345Y796109D01*
X396345Y797106D02*
X402295Y797106D01*
X402295Y798103D02*
X396345Y798103D01*
D14*
X536800Y882100D02*
X547840Y882100D01*
X536800Y882100D02*
X536800Y903140D01*
X547840Y903140D01*
X547840Y882100D01*
X547840Y883012D02*
X536800Y883012D01*
X536800Y883924D02*
X547840Y883924D01*
X547840Y884836D02*
X536800Y884836D01*
X536800Y885748D02*
X547840Y885748D01*
X547840Y886660D02*
X536800Y886660D01*
X536800Y887572D02*
X547840Y887572D01*
X547840Y888484D02*
X536800Y888484D01*
X536800Y889396D02*
X547840Y889396D01*
X547840Y890308D02*
X536800Y890308D01*
X536800Y891220D02*
X547840Y891220D01*
X547840Y892132D02*
X536800Y892132D01*
X536800Y893044D02*
X547840Y893044D01*
X547840Y893956D02*
X536800Y893956D01*
X536800Y894868D02*
X547840Y894868D01*
X547840Y895780D02*
X536800Y895780D01*
X536800Y896692D02*
X547840Y896692D01*
X547840Y897604D02*
X536800Y897604D01*
X536800Y898516D02*
X547840Y898516D01*
X547840Y899428D02*
X536800Y899428D01*
X536800Y900340D02*
X547840Y900340D01*
X547840Y901252D02*
X536800Y901252D01*
X536800Y902164D02*
X547840Y902164D01*
X547840Y903076D02*
X536800Y903076D01*
X392840Y882100D02*
X381800Y882100D01*
X381800Y903140D01*
X392840Y903140D01*
X392840Y882100D01*
X392840Y883012D02*
X381800Y883012D01*
X381800Y883924D02*
X392840Y883924D01*
X392840Y884836D02*
X381800Y884836D01*
X381800Y885748D02*
X392840Y885748D01*
X392840Y886660D02*
X381800Y886660D01*
X381800Y887572D02*
X392840Y887572D01*
X392840Y888484D02*
X381800Y888484D01*
X381800Y889396D02*
X392840Y889396D01*
X392840Y890308D02*
X381800Y890308D01*
X381800Y891220D02*
X392840Y891220D01*
X392840Y892132D02*
X381800Y892132D01*
X381800Y893044D02*
X392840Y893044D01*
X392840Y893956D02*
X381800Y893956D01*
X381800Y894868D02*
X392840Y894868D01*
X392840Y895780D02*
X381800Y895780D01*
X381800Y896692D02*
X392840Y896692D01*
X392840Y897604D02*
X381800Y897604D01*
X381800Y898516D02*
X392840Y898516D01*
X392840Y899428D02*
X381800Y899428D01*
X381800Y900340D02*
X392840Y900340D01*
X392840Y901252D02*
X381800Y901252D01*
X381800Y902164D02*
X392840Y902164D01*
X392840Y903076D02*
X381800Y903076D01*
D15*
X525810Y790110D02*
X540830Y790110D01*
X525810Y790110D02*
X525810Y803130D01*
X540830Y803130D01*
X540830Y790110D01*
X540830Y791041D02*
X525810Y791041D01*
X525810Y791972D02*
X540830Y791972D01*
X540830Y792903D02*
X525810Y792903D01*
X525810Y793834D02*
X540830Y793834D01*
X540830Y794765D02*
X525810Y794765D01*
X525810Y795696D02*
X540830Y795696D01*
X540830Y796627D02*
X525810Y796627D01*
X525810Y797558D02*
X540830Y797558D01*
X540830Y798489D02*
X525810Y798489D01*
X525810Y799420D02*
X540830Y799420D01*
X540830Y800351D02*
X525810Y800351D01*
X525810Y801282D02*
X540830Y801282D01*
X540830Y802213D02*
X525810Y802213D01*
D14*
X392840Y790100D02*
X381800Y790100D01*
X381800Y805140D01*
X392840Y805140D01*
X392840Y790100D01*
X392840Y791012D02*
X381800Y791012D01*
X381800Y791924D02*
X392840Y791924D01*
X392840Y792836D02*
X381800Y792836D01*
X381800Y793748D02*
X392840Y793748D01*
X392840Y794660D02*
X381800Y794660D01*
X381800Y795572D02*
X392840Y795572D01*
X392840Y796484D02*
X381800Y796484D01*
X381800Y797396D02*
X392840Y797396D01*
X392840Y798308D02*
X381800Y798308D01*
X381800Y799220D02*
X392840Y799220D01*
X392840Y800132D02*
X381800Y800132D01*
X381800Y801044D02*
X392840Y801044D01*
X392840Y801956D02*
X381800Y801956D01*
X381800Y802868D02*
X392840Y802868D01*
X392840Y803780D02*
X381800Y803780D01*
X381800Y804692D02*
X392840Y804692D01*
D10*
X452070Y73690D02*
X452070Y68710D01*
X447090Y68710D01*
X447090Y73690D01*
X452070Y73690D01*
X452070Y69679D02*
X447090Y69679D01*
X447090Y70648D02*
X452070Y70648D01*
X452070Y71617D02*
X447090Y71617D01*
X447090Y72586D02*
X452070Y72586D01*
X452070Y73555D02*
X447090Y73555D01*
X452070Y78710D02*
X452070Y83690D01*
X452070Y78710D02*
X447090Y78710D01*
X447090Y83690D01*
X452070Y83690D01*
X452070Y79679D02*
X447090Y79679D01*
X447090Y80648D02*
X452070Y80648D01*
X452070Y81617D02*
X447090Y81617D01*
X447090Y82586D02*
X452070Y82586D01*
X452070Y83555D02*
X447090Y83555D01*
X447090Y116810D02*
X447090Y121790D01*
X452070Y121790D01*
X452070Y116810D01*
X447090Y116810D01*
X447090Y117779D02*
X452070Y117779D01*
X452070Y118748D02*
X447090Y118748D01*
X447090Y119717D02*
X452070Y119717D01*
X452070Y120686D02*
X447090Y120686D01*
X447090Y121655D02*
X452070Y121655D01*
X447090Y111790D02*
X447090Y106810D01*
X447090Y111790D02*
X452070Y111790D01*
X452070Y106810D01*
X447090Y106810D01*
X447090Y107779D02*
X452070Y107779D01*
X452070Y108748D02*
X447090Y108748D01*
X447090Y109717D02*
X452070Y109717D01*
X452070Y110686D02*
X447090Y110686D01*
X447090Y111655D02*
X452070Y111655D01*
X477396Y283641D02*
X482376Y283641D01*
X477396Y283641D02*
X477396Y288621D01*
X482376Y288621D01*
X482376Y283641D01*
X482376Y284610D02*
X477396Y284610D01*
X477396Y285579D02*
X482376Y285579D01*
X482376Y286548D02*
X477396Y286548D01*
X477396Y287517D02*
X482376Y287517D01*
X482376Y288486D02*
X477396Y288486D01*
X487396Y283641D02*
X492376Y283641D01*
X487396Y283641D02*
X487396Y288621D01*
X492376Y288621D01*
X492376Y283641D01*
X492376Y284610D02*
X487396Y284610D01*
X487396Y285579D02*
X492376Y285579D01*
X492376Y286548D02*
X487396Y286548D01*
X487396Y287517D02*
X492376Y287517D01*
X492376Y288486D02*
X487396Y288486D01*
X482376Y292912D02*
X477396Y292912D01*
X477396Y297892D01*
X482376Y297892D01*
X482376Y292912D01*
X482376Y293881D02*
X477396Y293881D01*
X477396Y294850D02*
X482376Y294850D01*
X482376Y295819D02*
X477396Y295819D01*
X477396Y296788D02*
X482376Y296788D01*
X482376Y297757D02*
X477396Y297757D01*
X487396Y292912D02*
X492376Y292912D01*
X487396Y292912D02*
X487396Y297892D01*
X492376Y297892D01*
X492376Y292912D01*
X492376Y293881D02*
X487396Y293881D01*
X487396Y294850D02*
X492376Y294850D01*
X492376Y295819D02*
X487396Y295819D01*
X487396Y296788D02*
X492376Y296788D01*
X492376Y297757D02*
X487396Y297757D01*
X764670Y369620D02*
X769650Y369620D01*
X764670Y369620D02*
X764670Y374600D01*
X769650Y374600D01*
X769650Y369620D01*
X769650Y370589D02*
X764670Y370589D01*
X764670Y371558D02*
X769650Y371558D01*
X769650Y372527D02*
X764670Y372527D01*
X764670Y373496D02*
X769650Y373496D01*
X769650Y374465D02*
X764670Y374465D01*
X774670Y369620D02*
X779650Y369620D01*
X774670Y369620D02*
X774670Y374600D01*
X779650Y374600D01*
X779650Y369620D01*
X779650Y370589D02*
X774670Y370589D01*
X774670Y371558D02*
X779650Y371558D01*
X779650Y372527D02*
X774670Y372527D01*
X774670Y373496D02*
X779650Y373496D01*
X779650Y374465D02*
X774670Y374465D01*
D11*
X804930Y349980D02*
X804930Y345980D01*
X797430Y345980D01*
X797430Y349980D01*
X804930Y349980D01*
X804930Y346930D02*
X797430Y346930D01*
X797430Y347880D02*
X804930Y347880D01*
X804930Y348830D02*
X797430Y348830D01*
X797430Y349780D02*
X804930Y349780D01*
X804930Y337280D02*
X804930Y333280D01*
X797430Y333280D01*
X797430Y337280D01*
X804930Y337280D01*
X804930Y334230D02*
X797430Y334230D01*
X797430Y335180D02*
X804930Y335180D01*
X804930Y336130D02*
X797430Y336130D01*
X797430Y337080D02*
X804930Y337080D01*
X804930Y324580D02*
X804930Y320580D01*
X797430Y320580D01*
X797430Y324580D01*
X804930Y324580D01*
X804930Y321530D02*
X797430Y321530D01*
X797430Y322480D02*
X804930Y322480D01*
X804930Y323430D02*
X797430Y323430D01*
X797430Y324380D02*
X804930Y324380D01*
X804930Y311880D02*
X804930Y307880D01*
X797430Y307880D01*
X797430Y311880D01*
X804930Y311880D01*
X804930Y308830D02*
X797430Y308830D01*
X797430Y309780D02*
X804930Y309780D01*
X804930Y310730D02*
X797430Y310730D01*
X797430Y311680D02*
X804930Y311680D01*
X749430Y320580D02*
X749430Y324580D01*
X749430Y320580D02*
X741930Y320580D01*
X741930Y324580D01*
X749430Y324580D01*
X749430Y321530D02*
X741930Y321530D01*
X741930Y322480D02*
X749430Y322480D01*
X749430Y323430D02*
X741930Y323430D01*
X741930Y324380D02*
X749430Y324380D01*
X749430Y311880D02*
X749430Y307880D01*
X741930Y307880D01*
X741930Y311880D01*
X749430Y311880D01*
X749430Y308830D02*
X741930Y308830D01*
X741930Y309780D02*
X749430Y309780D01*
X749430Y310730D02*
X741930Y310730D01*
X741930Y311680D02*
X749430Y311680D01*
X749430Y333280D02*
X749430Y337280D01*
X749430Y333280D02*
X741930Y333280D01*
X741930Y337280D01*
X749430Y337280D01*
X749430Y334230D02*
X741930Y334230D01*
X741930Y335180D02*
X749430Y335180D01*
X749430Y336130D02*
X741930Y336130D01*
X741930Y337080D02*
X749430Y337080D01*
X749430Y345980D02*
X749430Y349980D01*
X749430Y345980D02*
X741930Y345980D01*
X741930Y349980D01*
X749430Y349980D01*
X749430Y346930D02*
X741930Y346930D01*
X741930Y347880D02*
X749430Y347880D01*
X749430Y348830D02*
X741930Y348830D01*
X741930Y349780D02*
X749430Y349780D01*
D12*
X773430Y328930D03*
D10*
X769650Y359460D02*
X764670Y359460D01*
X764670Y364440D01*
X769650Y364440D01*
X769650Y359460D01*
X769650Y360429D02*
X764670Y360429D01*
X764670Y361398D02*
X769650Y361398D01*
X769650Y362367D02*
X764670Y362367D01*
X764670Y363336D02*
X769650Y363336D01*
X769650Y364305D02*
X764670Y364305D01*
X774670Y359460D02*
X779650Y359460D01*
X774670Y359460D02*
X774670Y364440D01*
X779650Y364440D01*
X779650Y359460D01*
X779650Y360429D02*
X774670Y360429D01*
X774670Y361398D02*
X779650Y361398D01*
X779650Y362367D02*
X774670Y362367D01*
X774670Y363336D02*
X779650Y363336D01*
X779650Y364305D02*
X774670Y364305D01*
X817068Y362080D02*
X817068Y367060D01*
X817068Y362080D02*
X812088Y362080D01*
X812088Y367060D01*
X817068Y367060D01*
X817068Y363049D02*
X812088Y363049D01*
X812088Y364018D02*
X817068Y364018D01*
X817068Y364987D02*
X812088Y364987D01*
X812088Y365956D02*
X817068Y365956D01*
X817068Y366925D02*
X812088Y366925D01*
X817068Y372080D02*
X817068Y377060D01*
X817068Y372080D02*
X812088Y372080D01*
X812088Y377060D01*
X817068Y377060D01*
X817068Y373049D02*
X812088Y373049D01*
X812088Y374018D02*
X817068Y374018D01*
X817068Y374987D02*
X812088Y374987D01*
X812088Y375956D02*
X817068Y375956D01*
X817068Y376925D02*
X812088Y376925D01*
X826466Y367060D02*
X826466Y362080D01*
X821486Y362080D01*
X821486Y367060D01*
X826466Y367060D01*
X826466Y363049D02*
X821486Y363049D01*
X821486Y364018D02*
X826466Y364018D01*
X826466Y364987D02*
X821486Y364987D01*
X821486Y365956D02*
X826466Y365956D01*
X826466Y366925D02*
X821486Y366925D01*
X826466Y372080D02*
X826466Y377060D01*
X826466Y372080D02*
X821486Y372080D01*
X821486Y377060D01*
X826466Y377060D01*
X826466Y373049D02*
X821486Y373049D01*
X821486Y374018D02*
X826466Y374018D01*
X826466Y374987D02*
X821486Y374987D01*
X821486Y375956D02*
X826466Y375956D01*
X826466Y376925D02*
X821486Y376925D01*
D13*
X772225Y784145D02*
X772225Y799095D01*
X778175Y799095D01*
X778175Y784145D01*
X772225Y784145D01*
X772225Y785142D02*
X778175Y785142D01*
X778175Y786139D02*
X772225Y786139D01*
X772225Y787136D02*
X778175Y787136D01*
X778175Y788133D02*
X772225Y788133D01*
X772225Y789130D02*
X778175Y789130D01*
X778175Y790127D02*
X772225Y790127D01*
X772225Y791124D02*
X778175Y791124D01*
X778175Y792121D02*
X772225Y792121D01*
X772225Y793118D02*
X778175Y793118D01*
X778175Y794115D02*
X772225Y794115D01*
X772225Y795112D02*
X778175Y795112D01*
X778175Y796109D02*
X772225Y796109D01*
X772225Y797106D02*
X778175Y797106D01*
X778175Y798103D02*
X772225Y798103D01*
X783225Y799095D02*
X783225Y784145D01*
X783225Y799095D02*
X789175Y799095D01*
X789175Y784145D01*
X783225Y784145D01*
X783225Y785142D02*
X789175Y785142D01*
X789175Y786139D02*
X783225Y786139D01*
X783225Y787136D02*
X789175Y787136D01*
X789175Y788133D02*
X783225Y788133D01*
X783225Y789130D02*
X789175Y789130D01*
X789175Y790127D02*
X783225Y790127D01*
X783225Y791124D02*
X789175Y791124D01*
X789175Y792121D02*
X783225Y792121D01*
X783225Y793118D02*
X789175Y793118D01*
X789175Y794115D02*
X783225Y794115D01*
X783225Y795112D02*
X789175Y795112D01*
X789175Y796109D02*
X783225Y796109D01*
X783225Y797106D02*
X789175Y797106D01*
X789175Y798103D02*
X783225Y798103D01*
X794225Y799095D02*
X794225Y784145D01*
X794225Y799095D02*
X800175Y799095D01*
X800175Y784145D01*
X794225Y784145D01*
X794225Y785142D02*
X800175Y785142D01*
X800175Y786139D02*
X794225Y786139D01*
X794225Y787136D02*
X800175Y787136D01*
X800175Y788133D02*
X794225Y788133D01*
X794225Y789130D02*
X800175Y789130D01*
X800175Y790127D02*
X794225Y790127D01*
X794225Y791124D02*
X800175Y791124D01*
X800175Y792121D02*
X794225Y792121D01*
X794225Y793118D02*
X800175Y793118D01*
X800175Y794115D02*
X794225Y794115D01*
X794225Y795112D02*
X800175Y795112D01*
X800175Y796109D02*
X794225Y796109D01*
X794225Y797106D02*
X800175Y797106D01*
X800175Y798103D02*
X794225Y798103D01*
X761225Y799095D02*
X761225Y784145D01*
X761225Y799095D02*
X767175Y799095D01*
X767175Y784145D01*
X761225Y784145D01*
X761225Y785142D02*
X767175Y785142D01*
X767175Y786139D02*
X761225Y786139D01*
X761225Y787136D02*
X767175Y787136D01*
X767175Y788133D02*
X761225Y788133D01*
X761225Y789130D02*
X767175Y789130D01*
X767175Y790127D02*
X761225Y790127D01*
X761225Y791124D02*
X767175Y791124D01*
X767175Y792121D02*
X761225Y792121D01*
X761225Y793118D02*
X767175Y793118D01*
X767175Y794115D02*
X761225Y794115D01*
X761225Y795112D02*
X767175Y795112D01*
X767175Y796109D02*
X761225Y796109D01*
X761225Y797106D02*
X767175Y797106D01*
X767175Y798103D02*
X761225Y798103D01*
X750225Y799095D02*
X750225Y784145D01*
X750225Y799095D02*
X756175Y799095D01*
X756175Y784145D01*
X750225Y784145D01*
X750225Y785142D02*
X756175Y785142D01*
X756175Y786139D02*
X750225Y786139D01*
X750225Y787136D02*
X756175Y787136D01*
X756175Y788133D02*
X750225Y788133D01*
X750225Y789130D02*
X756175Y789130D01*
X756175Y790127D02*
X750225Y790127D01*
X750225Y791124D02*
X756175Y791124D01*
X756175Y792121D02*
X750225Y792121D01*
X750225Y793118D02*
X756175Y793118D01*
X756175Y794115D02*
X750225Y794115D01*
X750225Y795112D02*
X756175Y795112D01*
X756175Y796109D02*
X750225Y796109D01*
X750225Y797106D02*
X756175Y797106D01*
X756175Y798103D02*
X750225Y798103D01*
X739225Y799095D02*
X739225Y784145D01*
X739225Y799095D02*
X745175Y799095D01*
X745175Y784145D01*
X739225Y784145D01*
X739225Y785142D02*
X745175Y785142D01*
X745175Y786139D02*
X739225Y786139D01*
X739225Y787136D02*
X745175Y787136D01*
X745175Y788133D02*
X739225Y788133D01*
X739225Y789130D02*
X745175Y789130D01*
X745175Y790127D02*
X739225Y790127D01*
X739225Y791124D02*
X745175Y791124D01*
X745175Y792121D02*
X739225Y792121D01*
X739225Y793118D02*
X745175Y793118D01*
X745175Y794115D02*
X739225Y794115D01*
X739225Y795112D02*
X745175Y795112D01*
X745175Y796109D02*
X739225Y796109D01*
X739225Y797106D02*
X745175Y797106D01*
X745175Y798103D02*
X739225Y798103D01*
X728225Y799095D02*
X728225Y784145D01*
X728225Y799095D02*
X734175Y799095D01*
X734175Y784145D01*
X728225Y784145D01*
X728225Y785142D02*
X734175Y785142D01*
X734175Y786139D02*
X728225Y786139D01*
X728225Y787136D02*
X734175Y787136D01*
X734175Y788133D02*
X728225Y788133D01*
X728225Y789130D02*
X734175Y789130D01*
X734175Y790127D02*
X728225Y790127D01*
X728225Y791124D02*
X734175Y791124D01*
X734175Y792121D02*
X728225Y792121D01*
X728225Y793118D02*
X734175Y793118D01*
X734175Y794115D02*
X728225Y794115D01*
X728225Y795112D02*
X734175Y795112D01*
X734175Y796109D02*
X728225Y796109D01*
X728225Y797106D02*
X734175Y797106D01*
X734175Y798103D02*
X728225Y798103D01*
X717225Y799095D02*
X717225Y784145D01*
X717225Y799095D02*
X723175Y799095D01*
X723175Y784145D01*
X717225Y784145D01*
X717225Y785142D02*
X723175Y785142D01*
X723175Y786139D02*
X717225Y786139D01*
X717225Y787136D02*
X723175Y787136D01*
X723175Y788133D02*
X717225Y788133D01*
X717225Y789130D02*
X723175Y789130D01*
X723175Y790127D02*
X717225Y790127D01*
X717225Y791124D02*
X723175Y791124D01*
X723175Y792121D02*
X717225Y792121D01*
X717225Y793118D02*
X723175Y793118D01*
X723175Y794115D02*
X717225Y794115D01*
X717225Y795112D02*
X723175Y795112D01*
X723175Y796109D02*
X717225Y796109D01*
X717225Y797106D02*
X723175Y797106D01*
X723175Y798103D02*
X717225Y798103D01*
X706225Y799095D02*
X706225Y784145D01*
X706225Y799095D02*
X712175Y799095D01*
X712175Y784145D01*
X706225Y784145D01*
X706225Y785142D02*
X712175Y785142D01*
X712175Y786139D02*
X706225Y786139D01*
X706225Y787136D02*
X712175Y787136D01*
X712175Y788133D02*
X706225Y788133D01*
X706225Y789130D02*
X712175Y789130D01*
X712175Y790127D02*
X706225Y790127D01*
X706225Y791124D02*
X712175Y791124D01*
X712175Y792121D02*
X706225Y792121D01*
X706225Y793118D02*
X712175Y793118D01*
X712175Y794115D02*
X706225Y794115D01*
X706225Y795112D02*
X712175Y795112D01*
X712175Y796109D02*
X706225Y796109D01*
X706225Y797106D02*
X712175Y797106D01*
X712175Y798103D02*
X706225Y798103D01*
D14*
X846680Y882100D02*
X857720Y882100D01*
X846680Y882100D02*
X846680Y903140D01*
X857720Y903140D01*
X857720Y882100D01*
X857720Y883012D02*
X846680Y883012D01*
X846680Y883924D02*
X857720Y883924D01*
X857720Y884836D02*
X846680Y884836D01*
X846680Y885748D02*
X857720Y885748D01*
X857720Y886660D02*
X846680Y886660D01*
X846680Y887572D02*
X857720Y887572D01*
X857720Y888484D02*
X846680Y888484D01*
X846680Y889396D02*
X857720Y889396D01*
X857720Y890308D02*
X846680Y890308D01*
X846680Y891220D02*
X857720Y891220D01*
X857720Y892132D02*
X846680Y892132D01*
X846680Y893044D02*
X857720Y893044D01*
X857720Y893956D02*
X846680Y893956D01*
X846680Y894868D02*
X857720Y894868D01*
X857720Y895780D02*
X846680Y895780D01*
X846680Y896692D02*
X857720Y896692D01*
X857720Y897604D02*
X846680Y897604D01*
X846680Y898516D02*
X857720Y898516D01*
X857720Y899428D02*
X846680Y899428D01*
X846680Y900340D02*
X857720Y900340D01*
X857720Y901252D02*
X846680Y901252D01*
X846680Y902164D02*
X857720Y902164D01*
X857720Y903076D02*
X846680Y903076D01*
X702720Y882100D02*
X691680Y882100D01*
X691680Y903140D01*
X702720Y903140D01*
X702720Y882100D01*
X702720Y883012D02*
X691680Y883012D01*
X691680Y883924D02*
X702720Y883924D01*
X702720Y884836D02*
X691680Y884836D01*
X691680Y885748D02*
X702720Y885748D01*
X702720Y886660D02*
X691680Y886660D01*
X691680Y887572D02*
X702720Y887572D01*
X702720Y888484D02*
X691680Y888484D01*
X691680Y889396D02*
X702720Y889396D01*
X702720Y890308D02*
X691680Y890308D01*
X691680Y891220D02*
X702720Y891220D01*
X702720Y892132D02*
X691680Y892132D01*
X691680Y893044D02*
X702720Y893044D01*
X702720Y893956D02*
X691680Y893956D01*
X691680Y894868D02*
X702720Y894868D01*
X702720Y895780D02*
X691680Y895780D01*
X691680Y896692D02*
X702720Y896692D01*
X702720Y897604D02*
X691680Y897604D01*
X691680Y898516D02*
X702720Y898516D01*
X702720Y899428D02*
X691680Y899428D01*
X691680Y900340D02*
X702720Y900340D01*
X702720Y901252D02*
X691680Y901252D01*
X691680Y902164D02*
X702720Y902164D01*
X702720Y903076D02*
X691680Y903076D01*
D15*
X835690Y790110D02*
X850710Y790110D01*
X835690Y790110D02*
X835690Y803130D01*
X850710Y803130D01*
X850710Y790110D01*
X850710Y791041D02*
X835690Y791041D01*
X835690Y791972D02*
X850710Y791972D01*
X850710Y792903D02*
X835690Y792903D01*
X835690Y793834D02*
X850710Y793834D01*
X850710Y794765D02*
X835690Y794765D01*
X835690Y795696D02*
X850710Y795696D01*
X850710Y796627D02*
X835690Y796627D01*
X835690Y797558D02*
X850710Y797558D01*
X850710Y798489D02*
X835690Y798489D01*
X835690Y799420D02*
X850710Y799420D01*
X850710Y800351D02*
X835690Y800351D01*
X835690Y801282D02*
X850710Y801282D01*
X850710Y802213D02*
X835690Y802213D01*
D14*
X702720Y790100D02*
X691680Y790100D01*
X691680Y805140D01*
X702720Y805140D01*
X702720Y790100D01*
X702720Y791012D02*
X691680Y791012D01*
X691680Y791924D02*
X702720Y791924D01*
X702720Y792836D02*
X691680Y792836D01*
X691680Y793748D02*
X702720Y793748D01*
X702720Y794660D02*
X691680Y794660D01*
X691680Y795572D02*
X702720Y795572D01*
X702720Y796484D02*
X691680Y796484D01*
X691680Y797396D02*
X702720Y797396D01*
X702720Y798308D02*
X691680Y798308D01*
X691680Y799220D02*
X702720Y799220D01*
X702720Y800132D02*
X691680Y800132D01*
X691680Y801044D02*
X702720Y801044D01*
X702720Y801956D02*
X691680Y801956D01*
X691680Y802868D02*
X702720Y802868D01*
X702720Y803780D02*
X691680Y803780D01*
X691680Y804692D02*
X702720Y804692D01*
D10*
X761950Y73690D02*
X761950Y68710D01*
X756970Y68710D01*
X756970Y73690D01*
X761950Y73690D01*
X761950Y69679D02*
X756970Y69679D01*
X756970Y70648D02*
X761950Y70648D01*
X761950Y71617D02*
X756970Y71617D01*
X756970Y72586D02*
X761950Y72586D01*
X761950Y73555D02*
X756970Y73555D01*
X761950Y78710D02*
X761950Y83690D01*
X761950Y78710D02*
X756970Y78710D01*
X756970Y83690D01*
X761950Y83690D01*
X761950Y79679D02*
X756970Y79679D01*
X756970Y80648D02*
X761950Y80648D01*
X761950Y81617D02*
X756970Y81617D01*
X756970Y82586D02*
X761950Y82586D01*
X761950Y83555D02*
X756970Y83555D01*
X756970Y116810D02*
X756970Y121790D01*
X761950Y121790D01*
X761950Y116810D01*
X756970Y116810D01*
X756970Y117779D02*
X761950Y117779D01*
X761950Y118748D02*
X756970Y118748D01*
X756970Y119717D02*
X761950Y119717D01*
X761950Y120686D02*
X756970Y120686D01*
X756970Y121655D02*
X761950Y121655D01*
X756970Y111790D02*
X756970Y106810D01*
X756970Y111790D02*
X761950Y111790D01*
X761950Y106810D01*
X756970Y106810D01*
X756970Y107779D02*
X761950Y107779D01*
X761950Y108748D02*
X756970Y108748D01*
X756970Y109717D02*
X761950Y109717D01*
X761950Y110686D02*
X756970Y110686D01*
X756970Y111655D02*
X761950Y111655D01*
X787276Y283641D02*
X792256Y283641D01*
X787276Y283641D02*
X787276Y288621D01*
X792256Y288621D01*
X792256Y283641D01*
X792256Y284610D02*
X787276Y284610D01*
X787276Y285579D02*
X792256Y285579D01*
X792256Y286548D02*
X787276Y286548D01*
X787276Y287517D02*
X792256Y287517D01*
X792256Y288486D02*
X787276Y288486D01*
X797276Y283641D02*
X802256Y283641D01*
X797276Y283641D02*
X797276Y288621D01*
X802256Y288621D01*
X802256Y283641D01*
X802256Y284610D02*
X797276Y284610D01*
X797276Y285579D02*
X802256Y285579D01*
X802256Y286548D02*
X797276Y286548D01*
X797276Y287517D02*
X802256Y287517D01*
X802256Y288486D02*
X797276Y288486D01*
X792256Y292912D02*
X787276Y292912D01*
X787276Y297892D01*
X792256Y297892D01*
X792256Y292912D01*
X792256Y293881D02*
X787276Y293881D01*
X787276Y294850D02*
X792256Y294850D01*
X792256Y295819D02*
X787276Y295819D01*
X787276Y296788D02*
X792256Y296788D01*
X792256Y297757D02*
X787276Y297757D01*
X797276Y292912D02*
X802256Y292912D01*
X797276Y292912D02*
X797276Y297892D01*
X802256Y297892D01*
X802256Y292912D01*
X802256Y293881D02*
X797276Y293881D01*
X797276Y294850D02*
X802256Y294850D01*
X802256Y295819D02*
X797276Y295819D01*
X797276Y296788D02*
X802256Y296788D01*
X802256Y297757D02*
X797276Y297757D01*
X1074550Y369620D02*
X1079530Y369620D01*
X1074550Y369620D02*
X1074550Y374600D01*
X1079530Y374600D01*
X1079530Y369620D01*
X1079530Y370589D02*
X1074550Y370589D01*
X1074550Y371558D02*
X1079530Y371558D01*
X1079530Y372527D02*
X1074550Y372527D01*
X1074550Y373496D02*
X1079530Y373496D01*
X1079530Y374465D02*
X1074550Y374465D01*
X1084550Y369620D02*
X1089530Y369620D01*
X1084550Y369620D02*
X1084550Y374600D01*
X1089530Y374600D01*
X1089530Y369620D01*
X1089530Y370589D02*
X1084550Y370589D01*
X1084550Y371558D02*
X1089530Y371558D01*
X1089530Y372527D02*
X1084550Y372527D01*
X1084550Y373496D02*
X1089530Y373496D01*
X1089530Y374465D02*
X1084550Y374465D01*
D11*
X1114810Y349980D02*
X1114810Y345980D01*
X1107310Y345980D01*
X1107310Y349980D01*
X1114810Y349980D01*
X1114810Y346930D02*
X1107310Y346930D01*
X1107310Y347880D02*
X1114810Y347880D01*
X1114810Y348830D02*
X1107310Y348830D01*
X1107310Y349780D02*
X1114810Y349780D01*
X1114810Y337280D02*
X1114810Y333280D01*
X1107310Y333280D01*
X1107310Y337280D01*
X1114810Y337280D01*
X1114810Y334230D02*
X1107310Y334230D01*
X1107310Y335180D02*
X1114810Y335180D01*
X1114810Y336130D02*
X1107310Y336130D01*
X1107310Y337080D02*
X1114810Y337080D01*
X1114810Y324580D02*
X1114810Y320580D01*
X1107310Y320580D01*
X1107310Y324580D01*
X1114810Y324580D01*
X1114810Y321530D02*
X1107310Y321530D01*
X1107310Y322480D02*
X1114810Y322480D01*
X1114810Y323430D02*
X1107310Y323430D01*
X1107310Y324380D02*
X1114810Y324380D01*
X1114810Y311880D02*
X1114810Y307880D01*
X1107310Y307880D01*
X1107310Y311880D01*
X1114810Y311880D01*
X1114810Y308830D02*
X1107310Y308830D01*
X1107310Y309780D02*
X1114810Y309780D01*
X1114810Y310730D02*
X1107310Y310730D01*
X1107310Y311680D02*
X1114810Y311680D01*
X1059310Y320580D02*
X1059310Y324580D01*
X1059310Y320580D02*
X1051810Y320580D01*
X1051810Y324580D01*
X1059310Y324580D01*
X1059310Y321530D02*
X1051810Y321530D01*
X1051810Y322480D02*
X1059310Y322480D01*
X1059310Y323430D02*
X1051810Y323430D01*
X1051810Y324380D02*
X1059310Y324380D01*
X1059310Y311880D02*
X1059310Y307880D01*
X1051810Y307880D01*
X1051810Y311880D01*
X1059310Y311880D01*
X1059310Y308830D02*
X1051810Y308830D01*
X1051810Y309780D02*
X1059310Y309780D01*
X1059310Y310730D02*
X1051810Y310730D01*
X1051810Y311680D02*
X1059310Y311680D01*
X1059310Y333280D02*
X1059310Y337280D01*
X1059310Y333280D02*
X1051810Y333280D01*
X1051810Y337280D01*
X1059310Y337280D01*
X1059310Y334230D02*
X1051810Y334230D01*
X1051810Y335180D02*
X1059310Y335180D01*
X1059310Y336130D02*
X1051810Y336130D01*
X1051810Y337080D02*
X1059310Y337080D01*
X1059310Y345980D02*
X1059310Y349980D01*
X1059310Y345980D02*
X1051810Y345980D01*
X1051810Y349980D01*
X1059310Y349980D01*
X1059310Y346930D02*
X1051810Y346930D01*
X1051810Y347880D02*
X1059310Y347880D01*
X1059310Y348830D02*
X1051810Y348830D01*
X1051810Y349780D02*
X1059310Y349780D01*
D12*
X1083310Y328930D03*
D10*
X1079530Y359460D02*
X1074550Y359460D01*
X1074550Y364440D01*
X1079530Y364440D01*
X1079530Y359460D01*
X1079530Y360429D02*
X1074550Y360429D01*
X1074550Y361398D02*
X1079530Y361398D01*
X1079530Y362367D02*
X1074550Y362367D01*
X1074550Y363336D02*
X1079530Y363336D01*
X1079530Y364305D02*
X1074550Y364305D01*
X1084550Y359460D02*
X1089530Y359460D01*
X1084550Y359460D02*
X1084550Y364440D01*
X1089530Y364440D01*
X1089530Y359460D01*
X1089530Y360429D02*
X1084550Y360429D01*
X1084550Y361398D02*
X1089530Y361398D01*
X1089530Y362367D02*
X1084550Y362367D01*
X1084550Y363336D02*
X1089530Y363336D01*
X1089530Y364305D02*
X1084550Y364305D01*
X1126948Y362080D02*
X1126948Y367060D01*
X1126948Y362080D02*
X1121968Y362080D01*
X1121968Y367060D01*
X1126948Y367060D01*
X1126948Y363049D02*
X1121968Y363049D01*
X1121968Y364018D02*
X1126948Y364018D01*
X1126948Y364987D02*
X1121968Y364987D01*
X1121968Y365956D02*
X1126948Y365956D01*
X1126948Y366925D02*
X1121968Y366925D01*
X1126948Y372080D02*
X1126948Y377060D01*
X1126948Y372080D02*
X1121968Y372080D01*
X1121968Y377060D01*
X1126948Y377060D01*
X1126948Y373049D02*
X1121968Y373049D01*
X1121968Y374018D02*
X1126948Y374018D01*
X1126948Y374987D02*
X1121968Y374987D01*
X1121968Y375956D02*
X1126948Y375956D01*
X1126948Y376925D02*
X1121968Y376925D01*
X1136346Y367060D02*
X1136346Y362080D01*
X1131366Y362080D01*
X1131366Y367060D01*
X1136346Y367060D01*
X1136346Y363049D02*
X1131366Y363049D01*
X1131366Y364018D02*
X1136346Y364018D01*
X1136346Y364987D02*
X1131366Y364987D01*
X1131366Y365956D02*
X1136346Y365956D01*
X1136346Y366925D02*
X1131366Y366925D01*
X1136346Y372080D02*
X1136346Y377060D01*
X1136346Y372080D02*
X1131366Y372080D01*
X1131366Y377060D01*
X1136346Y377060D01*
X1136346Y373049D02*
X1131366Y373049D01*
X1131366Y374018D02*
X1136346Y374018D01*
X1136346Y374987D02*
X1131366Y374987D01*
X1131366Y375956D02*
X1136346Y375956D01*
X1136346Y376925D02*
X1131366Y376925D01*
D13*
X1082105Y784145D02*
X1082105Y799095D01*
X1088055Y799095D01*
X1088055Y784145D01*
X1082105Y784145D01*
X1082105Y785142D02*
X1088055Y785142D01*
X1088055Y786139D02*
X1082105Y786139D01*
X1082105Y787136D02*
X1088055Y787136D01*
X1088055Y788133D02*
X1082105Y788133D01*
X1082105Y789130D02*
X1088055Y789130D01*
X1088055Y790127D02*
X1082105Y790127D01*
X1082105Y791124D02*
X1088055Y791124D01*
X1088055Y792121D02*
X1082105Y792121D01*
X1082105Y793118D02*
X1088055Y793118D01*
X1088055Y794115D02*
X1082105Y794115D01*
X1082105Y795112D02*
X1088055Y795112D01*
X1088055Y796109D02*
X1082105Y796109D01*
X1082105Y797106D02*
X1088055Y797106D01*
X1088055Y798103D02*
X1082105Y798103D01*
X1093105Y799095D02*
X1093105Y784145D01*
X1093105Y799095D02*
X1099055Y799095D01*
X1099055Y784145D01*
X1093105Y784145D01*
X1093105Y785142D02*
X1099055Y785142D01*
X1099055Y786139D02*
X1093105Y786139D01*
X1093105Y787136D02*
X1099055Y787136D01*
X1099055Y788133D02*
X1093105Y788133D01*
X1093105Y789130D02*
X1099055Y789130D01*
X1099055Y790127D02*
X1093105Y790127D01*
X1093105Y791124D02*
X1099055Y791124D01*
X1099055Y792121D02*
X1093105Y792121D01*
X1093105Y793118D02*
X1099055Y793118D01*
X1099055Y794115D02*
X1093105Y794115D01*
X1093105Y795112D02*
X1099055Y795112D01*
X1099055Y796109D02*
X1093105Y796109D01*
X1093105Y797106D02*
X1099055Y797106D01*
X1099055Y798103D02*
X1093105Y798103D01*
X1104105Y799095D02*
X1104105Y784145D01*
X1104105Y799095D02*
X1110055Y799095D01*
X1110055Y784145D01*
X1104105Y784145D01*
X1104105Y785142D02*
X1110055Y785142D01*
X1110055Y786139D02*
X1104105Y786139D01*
X1104105Y787136D02*
X1110055Y787136D01*
X1110055Y788133D02*
X1104105Y788133D01*
X1104105Y789130D02*
X1110055Y789130D01*
X1110055Y790127D02*
X1104105Y790127D01*
X1104105Y791124D02*
X1110055Y791124D01*
X1110055Y792121D02*
X1104105Y792121D01*
X1104105Y793118D02*
X1110055Y793118D01*
X1110055Y794115D02*
X1104105Y794115D01*
X1104105Y795112D02*
X1110055Y795112D01*
X1110055Y796109D02*
X1104105Y796109D01*
X1104105Y797106D02*
X1110055Y797106D01*
X1110055Y798103D02*
X1104105Y798103D01*
X1071105Y799095D02*
X1071105Y784145D01*
X1071105Y799095D02*
X1077055Y799095D01*
X1077055Y784145D01*
X1071105Y784145D01*
X1071105Y785142D02*
X1077055Y785142D01*
X1077055Y786139D02*
X1071105Y786139D01*
X1071105Y787136D02*
X1077055Y787136D01*
X1077055Y788133D02*
X1071105Y788133D01*
X1071105Y789130D02*
X1077055Y789130D01*
X1077055Y790127D02*
X1071105Y790127D01*
X1071105Y791124D02*
X1077055Y791124D01*
X1077055Y792121D02*
X1071105Y792121D01*
X1071105Y793118D02*
X1077055Y793118D01*
X1077055Y794115D02*
X1071105Y794115D01*
X1071105Y795112D02*
X1077055Y795112D01*
X1077055Y796109D02*
X1071105Y796109D01*
X1071105Y797106D02*
X1077055Y797106D01*
X1077055Y798103D02*
X1071105Y798103D01*
X1060105Y799095D02*
X1060105Y784145D01*
X1060105Y799095D02*
X1066055Y799095D01*
X1066055Y784145D01*
X1060105Y784145D01*
X1060105Y785142D02*
X1066055Y785142D01*
X1066055Y786139D02*
X1060105Y786139D01*
X1060105Y787136D02*
X1066055Y787136D01*
X1066055Y788133D02*
X1060105Y788133D01*
X1060105Y789130D02*
X1066055Y789130D01*
X1066055Y790127D02*
X1060105Y790127D01*
X1060105Y791124D02*
X1066055Y791124D01*
X1066055Y792121D02*
X1060105Y792121D01*
X1060105Y793118D02*
X1066055Y793118D01*
X1066055Y794115D02*
X1060105Y794115D01*
X1060105Y795112D02*
X1066055Y795112D01*
X1066055Y796109D02*
X1060105Y796109D01*
X1060105Y797106D02*
X1066055Y797106D01*
X1066055Y798103D02*
X1060105Y798103D01*
X1049105Y799095D02*
X1049105Y784145D01*
X1049105Y799095D02*
X1055055Y799095D01*
X1055055Y784145D01*
X1049105Y784145D01*
X1049105Y785142D02*
X1055055Y785142D01*
X1055055Y786139D02*
X1049105Y786139D01*
X1049105Y787136D02*
X1055055Y787136D01*
X1055055Y788133D02*
X1049105Y788133D01*
X1049105Y789130D02*
X1055055Y789130D01*
X1055055Y790127D02*
X1049105Y790127D01*
X1049105Y791124D02*
X1055055Y791124D01*
X1055055Y792121D02*
X1049105Y792121D01*
X1049105Y793118D02*
X1055055Y793118D01*
X1055055Y794115D02*
X1049105Y794115D01*
X1049105Y795112D02*
X1055055Y795112D01*
X1055055Y796109D02*
X1049105Y796109D01*
X1049105Y797106D02*
X1055055Y797106D01*
X1055055Y798103D02*
X1049105Y798103D01*
X1038105Y799095D02*
X1038105Y784145D01*
X1038105Y799095D02*
X1044055Y799095D01*
X1044055Y784145D01*
X1038105Y784145D01*
X1038105Y785142D02*
X1044055Y785142D01*
X1044055Y786139D02*
X1038105Y786139D01*
X1038105Y787136D02*
X1044055Y787136D01*
X1044055Y788133D02*
X1038105Y788133D01*
X1038105Y789130D02*
X1044055Y789130D01*
X1044055Y790127D02*
X1038105Y790127D01*
X1038105Y791124D02*
X1044055Y791124D01*
X1044055Y792121D02*
X1038105Y792121D01*
X1038105Y793118D02*
X1044055Y793118D01*
X1044055Y794115D02*
X1038105Y794115D01*
X1038105Y795112D02*
X1044055Y795112D01*
X1044055Y796109D02*
X1038105Y796109D01*
X1038105Y797106D02*
X1044055Y797106D01*
X1044055Y798103D02*
X1038105Y798103D01*
X1027105Y799095D02*
X1027105Y784145D01*
X1027105Y799095D02*
X1033055Y799095D01*
X1033055Y784145D01*
X1027105Y784145D01*
X1027105Y785142D02*
X1033055Y785142D01*
X1033055Y786139D02*
X1027105Y786139D01*
X1027105Y787136D02*
X1033055Y787136D01*
X1033055Y788133D02*
X1027105Y788133D01*
X1027105Y789130D02*
X1033055Y789130D01*
X1033055Y790127D02*
X1027105Y790127D01*
X1027105Y791124D02*
X1033055Y791124D01*
X1033055Y792121D02*
X1027105Y792121D01*
X1027105Y793118D02*
X1033055Y793118D01*
X1033055Y794115D02*
X1027105Y794115D01*
X1027105Y795112D02*
X1033055Y795112D01*
X1033055Y796109D02*
X1027105Y796109D01*
X1027105Y797106D02*
X1033055Y797106D01*
X1033055Y798103D02*
X1027105Y798103D01*
X1016105Y799095D02*
X1016105Y784145D01*
X1016105Y799095D02*
X1022055Y799095D01*
X1022055Y784145D01*
X1016105Y784145D01*
X1016105Y785142D02*
X1022055Y785142D01*
X1022055Y786139D02*
X1016105Y786139D01*
X1016105Y787136D02*
X1022055Y787136D01*
X1022055Y788133D02*
X1016105Y788133D01*
X1016105Y789130D02*
X1022055Y789130D01*
X1022055Y790127D02*
X1016105Y790127D01*
X1016105Y791124D02*
X1022055Y791124D01*
X1022055Y792121D02*
X1016105Y792121D01*
X1016105Y793118D02*
X1022055Y793118D01*
X1022055Y794115D02*
X1016105Y794115D01*
X1016105Y795112D02*
X1022055Y795112D01*
X1022055Y796109D02*
X1016105Y796109D01*
X1016105Y797106D02*
X1022055Y797106D01*
X1022055Y798103D02*
X1016105Y798103D01*
D14*
X1156560Y882100D02*
X1167600Y882100D01*
X1156560Y882100D02*
X1156560Y903140D01*
X1167600Y903140D01*
X1167600Y882100D01*
X1167600Y883012D02*
X1156560Y883012D01*
X1156560Y883924D02*
X1167600Y883924D01*
X1167600Y884836D02*
X1156560Y884836D01*
X1156560Y885748D02*
X1167600Y885748D01*
X1167600Y886660D02*
X1156560Y886660D01*
X1156560Y887572D02*
X1167600Y887572D01*
X1167600Y888484D02*
X1156560Y888484D01*
X1156560Y889396D02*
X1167600Y889396D01*
X1167600Y890308D02*
X1156560Y890308D01*
X1156560Y891220D02*
X1167600Y891220D01*
X1167600Y892132D02*
X1156560Y892132D01*
X1156560Y893044D02*
X1167600Y893044D01*
X1167600Y893956D02*
X1156560Y893956D01*
X1156560Y894868D02*
X1167600Y894868D01*
X1167600Y895780D02*
X1156560Y895780D01*
X1156560Y896692D02*
X1167600Y896692D01*
X1167600Y897604D02*
X1156560Y897604D01*
X1156560Y898516D02*
X1167600Y898516D01*
X1167600Y899428D02*
X1156560Y899428D01*
X1156560Y900340D02*
X1167600Y900340D01*
X1167600Y901252D02*
X1156560Y901252D01*
X1156560Y902164D02*
X1167600Y902164D01*
X1167600Y903076D02*
X1156560Y903076D01*
X1012600Y882100D02*
X1001560Y882100D01*
X1001560Y903140D01*
X1012600Y903140D01*
X1012600Y882100D01*
X1012600Y883012D02*
X1001560Y883012D01*
X1001560Y883924D02*
X1012600Y883924D01*
X1012600Y884836D02*
X1001560Y884836D01*
X1001560Y885748D02*
X1012600Y885748D01*
X1012600Y886660D02*
X1001560Y886660D01*
X1001560Y887572D02*
X1012600Y887572D01*
X1012600Y888484D02*
X1001560Y888484D01*
X1001560Y889396D02*
X1012600Y889396D01*
X1012600Y890308D02*
X1001560Y890308D01*
X1001560Y891220D02*
X1012600Y891220D01*
X1012600Y892132D02*
X1001560Y892132D01*
X1001560Y893044D02*
X1012600Y893044D01*
X1012600Y893956D02*
X1001560Y893956D01*
X1001560Y894868D02*
X1012600Y894868D01*
X1012600Y895780D02*
X1001560Y895780D01*
X1001560Y896692D02*
X1012600Y896692D01*
X1012600Y897604D02*
X1001560Y897604D01*
X1001560Y898516D02*
X1012600Y898516D01*
X1012600Y899428D02*
X1001560Y899428D01*
X1001560Y900340D02*
X1012600Y900340D01*
X1012600Y901252D02*
X1001560Y901252D01*
X1001560Y902164D02*
X1012600Y902164D01*
X1012600Y903076D02*
X1001560Y903076D01*
D15*
X1145570Y790110D02*
X1160590Y790110D01*
X1145570Y790110D02*
X1145570Y803130D01*
X1160590Y803130D01*
X1160590Y790110D01*
X1160590Y791041D02*
X1145570Y791041D01*
X1145570Y791972D02*
X1160590Y791972D01*
X1160590Y792903D02*
X1145570Y792903D01*
X1145570Y793834D02*
X1160590Y793834D01*
X1160590Y794765D02*
X1145570Y794765D01*
X1145570Y795696D02*
X1160590Y795696D01*
X1160590Y796627D02*
X1145570Y796627D01*
X1145570Y797558D02*
X1160590Y797558D01*
X1160590Y798489D02*
X1145570Y798489D01*
X1145570Y799420D02*
X1160590Y799420D01*
X1160590Y800351D02*
X1145570Y800351D01*
X1145570Y801282D02*
X1160590Y801282D01*
X1160590Y802213D02*
X1145570Y802213D01*
D14*
X1012600Y790100D02*
X1001560Y790100D01*
X1001560Y805140D01*
X1012600Y805140D01*
X1012600Y790100D01*
X1012600Y791012D02*
X1001560Y791012D01*
X1001560Y791924D02*
X1012600Y791924D01*
X1012600Y792836D02*
X1001560Y792836D01*
X1001560Y793748D02*
X1012600Y793748D01*
X1012600Y794660D02*
X1001560Y794660D01*
X1001560Y795572D02*
X1012600Y795572D01*
X1012600Y796484D02*
X1001560Y796484D01*
X1001560Y797396D02*
X1012600Y797396D01*
X1012600Y798308D02*
X1001560Y798308D01*
X1001560Y799220D02*
X1012600Y799220D01*
X1012600Y800132D02*
X1001560Y800132D01*
X1001560Y801044D02*
X1012600Y801044D01*
X1012600Y801956D02*
X1001560Y801956D01*
X1001560Y802868D02*
X1012600Y802868D01*
X1012600Y803780D02*
X1001560Y803780D01*
X1001560Y804692D02*
X1012600Y804692D01*
D10*
X1071830Y73690D02*
X1071830Y68710D01*
X1066850Y68710D01*
X1066850Y73690D01*
X1071830Y73690D01*
X1071830Y69679D02*
X1066850Y69679D01*
X1066850Y70648D02*
X1071830Y70648D01*
X1071830Y71617D02*
X1066850Y71617D01*
X1066850Y72586D02*
X1071830Y72586D01*
X1071830Y73555D02*
X1066850Y73555D01*
X1071830Y78710D02*
X1071830Y83690D01*
X1071830Y78710D02*
X1066850Y78710D01*
X1066850Y83690D01*
X1071830Y83690D01*
X1071830Y79679D02*
X1066850Y79679D01*
X1066850Y80648D02*
X1071830Y80648D01*
X1071830Y81617D02*
X1066850Y81617D01*
X1066850Y82586D02*
X1071830Y82586D01*
X1071830Y83555D02*
X1066850Y83555D01*
X1066850Y116810D02*
X1066850Y121790D01*
X1071830Y121790D01*
X1071830Y116810D01*
X1066850Y116810D01*
X1066850Y117779D02*
X1071830Y117779D01*
X1071830Y118748D02*
X1066850Y118748D01*
X1066850Y119717D02*
X1071830Y119717D01*
X1071830Y120686D02*
X1066850Y120686D01*
X1066850Y121655D02*
X1071830Y121655D01*
X1066850Y111790D02*
X1066850Y106810D01*
X1066850Y111790D02*
X1071830Y111790D01*
X1071830Y106810D01*
X1066850Y106810D01*
X1066850Y107779D02*
X1071830Y107779D01*
X1071830Y108748D02*
X1066850Y108748D01*
X1066850Y109717D02*
X1071830Y109717D01*
X1071830Y110686D02*
X1066850Y110686D01*
X1066850Y111655D02*
X1071830Y111655D01*
X1097156Y283641D02*
X1102136Y283641D01*
X1097156Y283641D02*
X1097156Y288621D01*
X1102136Y288621D01*
X1102136Y283641D01*
X1102136Y284610D02*
X1097156Y284610D01*
X1097156Y285579D02*
X1102136Y285579D01*
X1102136Y286548D02*
X1097156Y286548D01*
X1097156Y287517D02*
X1102136Y287517D01*
X1102136Y288486D02*
X1097156Y288486D01*
X1107156Y283641D02*
X1112136Y283641D01*
X1107156Y283641D02*
X1107156Y288621D01*
X1112136Y288621D01*
X1112136Y283641D01*
X1112136Y284610D02*
X1107156Y284610D01*
X1107156Y285579D02*
X1112136Y285579D01*
X1112136Y286548D02*
X1107156Y286548D01*
X1107156Y287517D02*
X1112136Y287517D01*
X1112136Y288486D02*
X1107156Y288486D01*
X1102136Y292912D02*
X1097156Y292912D01*
X1097156Y297892D01*
X1102136Y297892D01*
X1102136Y292912D01*
X1102136Y293881D02*
X1097156Y293881D01*
X1097156Y294850D02*
X1102136Y294850D01*
X1102136Y295819D02*
X1097156Y295819D01*
X1097156Y296788D02*
X1102136Y296788D01*
X1102136Y297757D02*
X1097156Y297757D01*
X1107156Y292912D02*
X1112136Y292912D01*
X1107156Y292912D02*
X1107156Y297892D01*
X1112136Y297892D01*
X1112136Y292912D01*
X1112136Y293881D02*
X1107156Y293881D01*
X1107156Y294850D02*
X1112136Y294850D01*
X1112136Y295819D02*
X1107156Y295819D01*
X1107156Y296788D02*
X1112136Y296788D01*
X1112136Y297757D02*
X1107156Y297757D01*
X1384430Y369620D02*
X1389410Y369620D01*
X1384430Y369620D02*
X1384430Y374600D01*
X1389410Y374600D01*
X1389410Y369620D01*
X1389410Y370589D02*
X1384430Y370589D01*
X1384430Y371558D02*
X1389410Y371558D01*
X1389410Y372527D02*
X1384430Y372527D01*
X1384430Y373496D02*
X1389410Y373496D01*
X1389410Y374465D02*
X1384430Y374465D01*
X1394430Y369620D02*
X1399410Y369620D01*
X1394430Y369620D02*
X1394430Y374600D01*
X1399410Y374600D01*
X1399410Y369620D01*
X1399410Y370589D02*
X1394430Y370589D01*
X1394430Y371558D02*
X1399410Y371558D01*
X1399410Y372527D02*
X1394430Y372527D01*
X1394430Y373496D02*
X1399410Y373496D01*
X1399410Y374465D02*
X1394430Y374465D01*
D11*
X1424690Y349980D02*
X1424690Y345980D01*
X1417190Y345980D01*
X1417190Y349980D01*
X1424690Y349980D01*
X1424690Y346930D02*
X1417190Y346930D01*
X1417190Y347880D02*
X1424690Y347880D01*
X1424690Y348830D02*
X1417190Y348830D01*
X1417190Y349780D02*
X1424690Y349780D01*
X1424690Y337280D02*
X1424690Y333280D01*
X1417190Y333280D01*
X1417190Y337280D01*
X1424690Y337280D01*
X1424690Y334230D02*
X1417190Y334230D01*
X1417190Y335180D02*
X1424690Y335180D01*
X1424690Y336130D02*
X1417190Y336130D01*
X1417190Y337080D02*
X1424690Y337080D01*
X1424690Y324580D02*
X1424690Y320580D01*
X1417190Y320580D01*
X1417190Y324580D01*
X1424690Y324580D01*
X1424690Y321530D02*
X1417190Y321530D01*
X1417190Y322480D02*
X1424690Y322480D01*
X1424690Y323430D02*
X1417190Y323430D01*
X1417190Y324380D02*
X1424690Y324380D01*
X1424690Y311880D02*
X1424690Y307880D01*
X1417190Y307880D01*
X1417190Y311880D01*
X1424690Y311880D01*
X1424690Y308830D02*
X1417190Y308830D01*
X1417190Y309780D02*
X1424690Y309780D01*
X1424690Y310730D02*
X1417190Y310730D01*
X1417190Y311680D02*
X1424690Y311680D01*
X1369190Y320580D02*
X1369190Y324580D01*
X1369190Y320580D02*
X1361690Y320580D01*
X1361690Y324580D01*
X1369190Y324580D01*
X1369190Y321530D02*
X1361690Y321530D01*
X1361690Y322480D02*
X1369190Y322480D01*
X1369190Y323430D02*
X1361690Y323430D01*
X1361690Y324380D02*
X1369190Y324380D01*
X1369190Y311880D02*
X1369190Y307880D01*
X1361690Y307880D01*
X1361690Y311880D01*
X1369190Y311880D01*
X1369190Y308830D02*
X1361690Y308830D01*
X1361690Y309780D02*
X1369190Y309780D01*
X1369190Y310730D02*
X1361690Y310730D01*
X1361690Y311680D02*
X1369190Y311680D01*
X1369190Y333280D02*
X1369190Y337280D01*
X1369190Y333280D02*
X1361690Y333280D01*
X1361690Y337280D01*
X1369190Y337280D01*
X1369190Y334230D02*
X1361690Y334230D01*
X1361690Y335180D02*
X1369190Y335180D01*
X1369190Y336130D02*
X1361690Y336130D01*
X1361690Y337080D02*
X1369190Y337080D01*
X1369190Y345980D02*
X1369190Y349980D01*
X1369190Y345980D02*
X1361690Y345980D01*
X1361690Y349980D01*
X1369190Y349980D01*
X1369190Y346930D02*
X1361690Y346930D01*
X1361690Y347880D02*
X1369190Y347880D01*
X1369190Y348830D02*
X1361690Y348830D01*
X1361690Y349780D02*
X1369190Y349780D01*
D12*
X1393190Y328930D03*
D10*
X1389410Y359460D02*
X1384430Y359460D01*
X1384430Y364440D01*
X1389410Y364440D01*
X1389410Y359460D01*
X1389410Y360429D02*
X1384430Y360429D01*
X1384430Y361398D02*
X1389410Y361398D01*
X1389410Y362367D02*
X1384430Y362367D01*
X1384430Y363336D02*
X1389410Y363336D01*
X1389410Y364305D02*
X1384430Y364305D01*
X1394430Y359460D02*
X1399410Y359460D01*
X1394430Y359460D02*
X1394430Y364440D01*
X1399410Y364440D01*
X1399410Y359460D01*
X1399410Y360429D02*
X1394430Y360429D01*
X1394430Y361398D02*
X1399410Y361398D01*
X1399410Y362367D02*
X1394430Y362367D01*
X1394430Y363336D02*
X1399410Y363336D01*
X1399410Y364305D02*
X1394430Y364305D01*
X1436828Y362080D02*
X1436828Y367060D01*
X1436828Y362080D02*
X1431848Y362080D01*
X1431848Y367060D01*
X1436828Y367060D01*
X1436828Y363049D02*
X1431848Y363049D01*
X1431848Y364018D02*
X1436828Y364018D01*
X1436828Y364987D02*
X1431848Y364987D01*
X1431848Y365956D02*
X1436828Y365956D01*
X1436828Y366925D02*
X1431848Y366925D01*
X1436828Y372080D02*
X1436828Y377060D01*
X1436828Y372080D02*
X1431848Y372080D01*
X1431848Y377060D01*
X1436828Y377060D01*
X1436828Y373049D02*
X1431848Y373049D01*
X1431848Y374018D02*
X1436828Y374018D01*
X1436828Y374987D02*
X1431848Y374987D01*
X1431848Y375956D02*
X1436828Y375956D01*
X1436828Y376925D02*
X1431848Y376925D01*
X1446226Y367060D02*
X1446226Y362080D01*
X1441246Y362080D01*
X1441246Y367060D01*
X1446226Y367060D01*
X1446226Y363049D02*
X1441246Y363049D01*
X1441246Y364018D02*
X1446226Y364018D01*
X1446226Y364987D02*
X1441246Y364987D01*
X1441246Y365956D02*
X1446226Y365956D01*
X1446226Y366925D02*
X1441246Y366925D01*
X1446226Y372080D02*
X1446226Y377060D01*
X1446226Y372080D02*
X1441246Y372080D01*
X1441246Y377060D01*
X1446226Y377060D01*
X1446226Y373049D02*
X1441246Y373049D01*
X1441246Y374018D02*
X1446226Y374018D01*
X1446226Y374987D02*
X1441246Y374987D01*
X1441246Y375956D02*
X1446226Y375956D01*
X1446226Y376925D02*
X1441246Y376925D01*
D13*
X1391985Y784145D02*
X1391985Y799095D01*
X1397935Y799095D01*
X1397935Y784145D01*
X1391985Y784145D01*
X1391985Y785142D02*
X1397935Y785142D01*
X1397935Y786139D02*
X1391985Y786139D01*
X1391985Y787136D02*
X1397935Y787136D01*
X1397935Y788133D02*
X1391985Y788133D01*
X1391985Y789130D02*
X1397935Y789130D01*
X1397935Y790127D02*
X1391985Y790127D01*
X1391985Y791124D02*
X1397935Y791124D01*
X1397935Y792121D02*
X1391985Y792121D01*
X1391985Y793118D02*
X1397935Y793118D01*
X1397935Y794115D02*
X1391985Y794115D01*
X1391985Y795112D02*
X1397935Y795112D01*
X1397935Y796109D02*
X1391985Y796109D01*
X1391985Y797106D02*
X1397935Y797106D01*
X1397935Y798103D02*
X1391985Y798103D01*
X1402985Y799095D02*
X1402985Y784145D01*
X1402985Y799095D02*
X1408935Y799095D01*
X1408935Y784145D01*
X1402985Y784145D01*
X1402985Y785142D02*
X1408935Y785142D01*
X1408935Y786139D02*
X1402985Y786139D01*
X1402985Y787136D02*
X1408935Y787136D01*
X1408935Y788133D02*
X1402985Y788133D01*
X1402985Y789130D02*
X1408935Y789130D01*
X1408935Y790127D02*
X1402985Y790127D01*
X1402985Y791124D02*
X1408935Y791124D01*
X1408935Y792121D02*
X1402985Y792121D01*
X1402985Y793118D02*
X1408935Y793118D01*
X1408935Y794115D02*
X1402985Y794115D01*
X1402985Y795112D02*
X1408935Y795112D01*
X1408935Y796109D02*
X1402985Y796109D01*
X1402985Y797106D02*
X1408935Y797106D01*
X1408935Y798103D02*
X1402985Y798103D01*
X1413985Y799095D02*
X1413985Y784145D01*
X1413985Y799095D02*
X1419935Y799095D01*
X1419935Y784145D01*
X1413985Y784145D01*
X1413985Y785142D02*
X1419935Y785142D01*
X1419935Y786139D02*
X1413985Y786139D01*
X1413985Y787136D02*
X1419935Y787136D01*
X1419935Y788133D02*
X1413985Y788133D01*
X1413985Y789130D02*
X1419935Y789130D01*
X1419935Y790127D02*
X1413985Y790127D01*
X1413985Y791124D02*
X1419935Y791124D01*
X1419935Y792121D02*
X1413985Y792121D01*
X1413985Y793118D02*
X1419935Y793118D01*
X1419935Y794115D02*
X1413985Y794115D01*
X1413985Y795112D02*
X1419935Y795112D01*
X1419935Y796109D02*
X1413985Y796109D01*
X1413985Y797106D02*
X1419935Y797106D01*
X1419935Y798103D02*
X1413985Y798103D01*
X1380985Y799095D02*
X1380985Y784145D01*
X1380985Y799095D02*
X1386935Y799095D01*
X1386935Y784145D01*
X1380985Y784145D01*
X1380985Y785142D02*
X1386935Y785142D01*
X1386935Y786139D02*
X1380985Y786139D01*
X1380985Y787136D02*
X1386935Y787136D01*
X1386935Y788133D02*
X1380985Y788133D01*
X1380985Y789130D02*
X1386935Y789130D01*
X1386935Y790127D02*
X1380985Y790127D01*
X1380985Y791124D02*
X1386935Y791124D01*
X1386935Y792121D02*
X1380985Y792121D01*
X1380985Y793118D02*
X1386935Y793118D01*
X1386935Y794115D02*
X1380985Y794115D01*
X1380985Y795112D02*
X1386935Y795112D01*
X1386935Y796109D02*
X1380985Y796109D01*
X1380985Y797106D02*
X1386935Y797106D01*
X1386935Y798103D02*
X1380985Y798103D01*
X1369985Y799095D02*
X1369985Y784145D01*
X1369985Y799095D02*
X1375935Y799095D01*
X1375935Y784145D01*
X1369985Y784145D01*
X1369985Y785142D02*
X1375935Y785142D01*
X1375935Y786139D02*
X1369985Y786139D01*
X1369985Y787136D02*
X1375935Y787136D01*
X1375935Y788133D02*
X1369985Y788133D01*
X1369985Y789130D02*
X1375935Y789130D01*
X1375935Y790127D02*
X1369985Y790127D01*
X1369985Y791124D02*
X1375935Y791124D01*
X1375935Y792121D02*
X1369985Y792121D01*
X1369985Y793118D02*
X1375935Y793118D01*
X1375935Y794115D02*
X1369985Y794115D01*
X1369985Y795112D02*
X1375935Y795112D01*
X1375935Y796109D02*
X1369985Y796109D01*
X1369985Y797106D02*
X1375935Y797106D01*
X1375935Y798103D02*
X1369985Y798103D01*
X1358985Y799095D02*
X1358985Y784145D01*
X1358985Y799095D02*
X1364935Y799095D01*
X1364935Y784145D01*
X1358985Y784145D01*
X1358985Y785142D02*
X1364935Y785142D01*
X1364935Y786139D02*
X1358985Y786139D01*
X1358985Y787136D02*
X1364935Y787136D01*
X1364935Y788133D02*
X1358985Y788133D01*
X1358985Y789130D02*
X1364935Y789130D01*
X1364935Y790127D02*
X1358985Y790127D01*
X1358985Y791124D02*
X1364935Y791124D01*
X1364935Y792121D02*
X1358985Y792121D01*
X1358985Y793118D02*
X1364935Y793118D01*
X1364935Y794115D02*
X1358985Y794115D01*
X1358985Y795112D02*
X1364935Y795112D01*
X1364935Y796109D02*
X1358985Y796109D01*
X1358985Y797106D02*
X1364935Y797106D01*
X1364935Y798103D02*
X1358985Y798103D01*
X1347985Y799095D02*
X1347985Y784145D01*
X1347985Y799095D02*
X1353935Y799095D01*
X1353935Y784145D01*
X1347985Y784145D01*
X1347985Y785142D02*
X1353935Y785142D01*
X1353935Y786139D02*
X1347985Y786139D01*
X1347985Y787136D02*
X1353935Y787136D01*
X1353935Y788133D02*
X1347985Y788133D01*
X1347985Y789130D02*
X1353935Y789130D01*
X1353935Y790127D02*
X1347985Y790127D01*
X1347985Y791124D02*
X1353935Y791124D01*
X1353935Y792121D02*
X1347985Y792121D01*
X1347985Y793118D02*
X1353935Y793118D01*
X1353935Y794115D02*
X1347985Y794115D01*
X1347985Y795112D02*
X1353935Y795112D01*
X1353935Y796109D02*
X1347985Y796109D01*
X1347985Y797106D02*
X1353935Y797106D01*
X1353935Y798103D02*
X1347985Y798103D01*
X1336985Y799095D02*
X1336985Y784145D01*
X1336985Y799095D02*
X1342935Y799095D01*
X1342935Y784145D01*
X1336985Y784145D01*
X1336985Y785142D02*
X1342935Y785142D01*
X1342935Y786139D02*
X1336985Y786139D01*
X1336985Y787136D02*
X1342935Y787136D01*
X1342935Y788133D02*
X1336985Y788133D01*
X1336985Y789130D02*
X1342935Y789130D01*
X1342935Y790127D02*
X1336985Y790127D01*
X1336985Y791124D02*
X1342935Y791124D01*
X1342935Y792121D02*
X1336985Y792121D01*
X1336985Y793118D02*
X1342935Y793118D01*
X1342935Y794115D02*
X1336985Y794115D01*
X1336985Y795112D02*
X1342935Y795112D01*
X1342935Y796109D02*
X1336985Y796109D01*
X1336985Y797106D02*
X1342935Y797106D01*
X1342935Y798103D02*
X1336985Y798103D01*
X1325985Y799095D02*
X1325985Y784145D01*
X1325985Y799095D02*
X1331935Y799095D01*
X1331935Y784145D01*
X1325985Y784145D01*
X1325985Y785142D02*
X1331935Y785142D01*
X1331935Y786139D02*
X1325985Y786139D01*
X1325985Y787136D02*
X1331935Y787136D01*
X1331935Y788133D02*
X1325985Y788133D01*
X1325985Y789130D02*
X1331935Y789130D01*
X1331935Y790127D02*
X1325985Y790127D01*
X1325985Y791124D02*
X1331935Y791124D01*
X1331935Y792121D02*
X1325985Y792121D01*
X1325985Y793118D02*
X1331935Y793118D01*
X1331935Y794115D02*
X1325985Y794115D01*
X1325985Y795112D02*
X1331935Y795112D01*
X1331935Y796109D02*
X1325985Y796109D01*
X1325985Y797106D02*
X1331935Y797106D01*
X1331935Y798103D02*
X1325985Y798103D01*
D14*
X1466440Y882100D02*
X1477480Y882100D01*
X1466440Y882100D02*
X1466440Y903140D01*
X1477480Y903140D01*
X1477480Y882100D01*
X1477480Y883012D02*
X1466440Y883012D01*
X1466440Y883924D02*
X1477480Y883924D01*
X1477480Y884836D02*
X1466440Y884836D01*
X1466440Y885748D02*
X1477480Y885748D01*
X1477480Y886660D02*
X1466440Y886660D01*
X1466440Y887572D02*
X1477480Y887572D01*
X1477480Y888484D02*
X1466440Y888484D01*
X1466440Y889396D02*
X1477480Y889396D01*
X1477480Y890308D02*
X1466440Y890308D01*
X1466440Y891220D02*
X1477480Y891220D01*
X1477480Y892132D02*
X1466440Y892132D01*
X1466440Y893044D02*
X1477480Y893044D01*
X1477480Y893956D02*
X1466440Y893956D01*
X1466440Y894868D02*
X1477480Y894868D01*
X1477480Y895780D02*
X1466440Y895780D01*
X1466440Y896692D02*
X1477480Y896692D01*
X1477480Y897604D02*
X1466440Y897604D01*
X1466440Y898516D02*
X1477480Y898516D01*
X1477480Y899428D02*
X1466440Y899428D01*
X1466440Y900340D02*
X1477480Y900340D01*
X1477480Y901252D02*
X1466440Y901252D01*
X1466440Y902164D02*
X1477480Y902164D01*
X1477480Y903076D02*
X1466440Y903076D01*
X1322480Y882100D02*
X1311440Y882100D01*
X1311440Y903140D01*
X1322480Y903140D01*
X1322480Y882100D01*
X1322480Y883012D02*
X1311440Y883012D01*
X1311440Y883924D02*
X1322480Y883924D01*
X1322480Y884836D02*
X1311440Y884836D01*
X1311440Y885748D02*
X1322480Y885748D01*
X1322480Y886660D02*
X1311440Y886660D01*
X1311440Y887572D02*
X1322480Y887572D01*
X1322480Y888484D02*
X1311440Y888484D01*
X1311440Y889396D02*
X1322480Y889396D01*
X1322480Y890308D02*
X1311440Y890308D01*
X1311440Y891220D02*
X1322480Y891220D01*
X1322480Y892132D02*
X1311440Y892132D01*
X1311440Y893044D02*
X1322480Y893044D01*
X1322480Y893956D02*
X1311440Y893956D01*
X1311440Y894868D02*
X1322480Y894868D01*
X1322480Y895780D02*
X1311440Y895780D01*
X1311440Y896692D02*
X1322480Y896692D01*
X1322480Y897604D02*
X1311440Y897604D01*
X1311440Y898516D02*
X1322480Y898516D01*
X1322480Y899428D02*
X1311440Y899428D01*
X1311440Y900340D02*
X1322480Y900340D01*
X1322480Y901252D02*
X1311440Y901252D01*
X1311440Y902164D02*
X1322480Y902164D01*
X1322480Y903076D02*
X1311440Y903076D01*
D15*
X1455450Y790110D02*
X1470470Y790110D01*
X1455450Y790110D02*
X1455450Y803130D01*
X1470470Y803130D01*
X1470470Y790110D01*
X1470470Y791041D02*
X1455450Y791041D01*
X1455450Y791972D02*
X1470470Y791972D01*
X1470470Y792903D02*
X1455450Y792903D01*
X1455450Y793834D02*
X1470470Y793834D01*
X1470470Y794765D02*
X1455450Y794765D01*
X1455450Y795696D02*
X1470470Y795696D01*
X1470470Y796627D02*
X1455450Y796627D01*
X1455450Y797558D02*
X1470470Y797558D01*
X1470470Y798489D02*
X1455450Y798489D01*
X1455450Y799420D02*
X1470470Y799420D01*
X1470470Y800351D02*
X1455450Y800351D01*
X1455450Y801282D02*
X1470470Y801282D01*
X1470470Y802213D02*
X1455450Y802213D01*
D14*
X1322480Y790100D02*
X1311440Y790100D01*
X1311440Y805140D01*
X1322480Y805140D01*
X1322480Y790100D01*
X1322480Y791012D02*
X1311440Y791012D01*
X1311440Y791924D02*
X1322480Y791924D01*
X1322480Y792836D02*
X1311440Y792836D01*
X1311440Y793748D02*
X1322480Y793748D01*
X1322480Y794660D02*
X1311440Y794660D01*
X1311440Y795572D02*
X1322480Y795572D01*
X1322480Y796484D02*
X1311440Y796484D01*
X1311440Y797396D02*
X1322480Y797396D01*
X1322480Y798308D02*
X1311440Y798308D01*
X1311440Y799220D02*
X1322480Y799220D01*
X1322480Y800132D02*
X1311440Y800132D01*
X1311440Y801044D02*
X1322480Y801044D01*
X1322480Y801956D02*
X1311440Y801956D01*
X1311440Y802868D02*
X1322480Y802868D01*
X1322480Y803780D02*
X1311440Y803780D01*
X1311440Y804692D02*
X1322480Y804692D01*
D10*
X1381710Y73690D02*
X1381710Y68710D01*
X1376730Y68710D01*
X1376730Y73690D01*
X1381710Y73690D01*
X1381710Y69679D02*
X1376730Y69679D01*
X1376730Y70648D02*
X1381710Y70648D01*
X1381710Y71617D02*
X1376730Y71617D01*
X1376730Y72586D02*
X1381710Y72586D01*
X1381710Y73555D02*
X1376730Y73555D01*
X1381710Y78710D02*
X1381710Y83690D01*
X1381710Y78710D02*
X1376730Y78710D01*
X1376730Y83690D01*
X1381710Y83690D01*
X1381710Y79679D02*
X1376730Y79679D01*
X1376730Y80648D02*
X1381710Y80648D01*
X1381710Y81617D02*
X1376730Y81617D01*
X1376730Y82586D02*
X1381710Y82586D01*
X1381710Y83555D02*
X1376730Y83555D01*
X1376730Y116810D02*
X1376730Y121790D01*
X1381710Y121790D01*
X1381710Y116810D01*
X1376730Y116810D01*
X1376730Y117779D02*
X1381710Y117779D01*
X1381710Y118748D02*
X1376730Y118748D01*
X1376730Y119717D02*
X1381710Y119717D01*
X1381710Y120686D02*
X1376730Y120686D01*
X1376730Y121655D02*
X1381710Y121655D01*
X1376730Y111790D02*
X1376730Y106810D01*
X1376730Y111790D02*
X1381710Y111790D01*
X1381710Y106810D01*
X1376730Y106810D01*
X1376730Y107779D02*
X1381710Y107779D01*
X1381710Y108748D02*
X1376730Y108748D01*
X1376730Y109717D02*
X1381710Y109717D01*
X1381710Y110686D02*
X1376730Y110686D01*
X1376730Y111655D02*
X1381710Y111655D01*
X1407036Y283641D02*
X1412016Y283641D01*
X1407036Y283641D02*
X1407036Y288621D01*
X1412016Y288621D01*
X1412016Y283641D01*
X1412016Y284610D02*
X1407036Y284610D01*
X1407036Y285579D02*
X1412016Y285579D01*
X1412016Y286548D02*
X1407036Y286548D01*
X1407036Y287517D02*
X1412016Y287517D01*
X1412016Y288486D02*
X1407036Y288486D01*
X1417036Y283641D02*
X1422016Y283641D01*
X1417036Y283641D02*
X1417036Y288621D01*
X1422016Y288621D01*
X1422016Y283641D01*
X1422016Y284610D02*
X1417036Y284610D01*
X1417036Y285579D02*
X1422016Y285579D01*
X1422016Y286548D02*
X1417036Y286548D01*
X1417036Y287517D02*
X1422016Y287517D01*
X1422016Y288486D02*
X1417036Y288486D01*
X1412016Y292912D02*
X1407036Y292912D01*
X1407036Y297892D01*
X1412016Y297892D01*
X1412016Y292912D01*
X1412016Y293881D02*
X1407036Y293881D01*
X1407036Y294850D02*
X1412016Y294850D01*
X1412016Y295819D02*
X1407036Y295819D01*
X1407036Y296788D02*
X1412016Y296788D01*
X1412016Y297757D02*
X1407036Y297757D01*
X1417036Y292912D02*
X1422016Y292912D01*
X1417036Y292912D02*
X1417036Y297892D01*
X1422016Y297892D01*
X1422016Y292912D01*
X1422016Y293881D02*
X1417036Y293881D01*
X1417036Y294850D02*
X1422016Y294850D01*
X1422016Y295819D02*
X1417036Y295819D01*
X1417036Y296788D02*
X1422016Y296788D01*
X1422016Y297757D02*
X1417036Y297757D01*
M02*
